<svg width="506" height="684" viewBox="0 0 506 684" fill="none" xmlns="http://www.w3.org/2000/svg">
<path d="M320.761 236.551H182.751V535.322H320.761V236.551Z" fill="white"/>
<path d="M157.411 501.198C160.771 561.832 164.121 622.455 167.481 683.089C224.061 683.309 280.631 683.519 337.211 683.739C342.461 623.335 347.721 562.921 352.971 502.517C341.401 490.556 329.831 478.595 318.261 466.645H195.591C182.861 478.166 170.141 489.677 157.411 501.198Z" fill="#293336"/>
<mask id="mask0_46_673" style="mask-type:luminance" maskUnits="userSpaceOnUse" x="155" y="466" width="200" height="218">
<path d="M155.881 501.198C159.241 561.832 162.591 622.456 165.951 683.089C223.481 683.389 281.001 683.689 338.531 683.999C339.991 660.017 341.721 635.656 343.731 610.934C346.821 572.934 350.441 535.862 354.501 499.749C341.911 488.708 329.321 477.676 316.731 466.635H194.061C181.331 478.156 168.611 489.667 155.881 501.188V501.198Z" fill="white"/>
</mask>
<g mask="url(#mask0_46_673)">
<path d="M190.641 449.528C265.011 433.62 329.191 446.99 351.041 485.09C363.221 506.324 368.501 546.124 351.921 559.204C345.891 563.96 337.881 564.46 325.371 565.239C307.661 566.348 293.211 563.191 284.091 560.473C281.631 533.683 279.161 506.894 276.701 480.104C268.461 479.814 260.221 479.535 251.981 479.245C253.341 491.546 254.001 506.394 252.711 523.141C251.711 536.191 249.711 547.842 247.411 557.835C242.131 559.663 236.271 561.322 229.881 562.601C207.491 567.058 187.911 564.899 174.071 561.922C174.971 571.394 179.921 612.033 214.471 639.712C238.911 659.287 280.031 673.856 309.041 658.188C339.191 641.911 346.621 607.327 347.791 601.471C344.071 636.784 340.361 672.097 336.641 707.42C274.851 744.532 202.681 751.287 153.131 718.272C58.8213 655.44 81.1013 471.591 137.851 444.392C153.511 436.887 172.421 441.014 190.641 449.528Z" fill="#242B2D"/>
</g>
<path d="M344.391 198.23C348.151 200.719 353.931 204.416 361.241 208.603C367.661 212.29 369.331 212.949 371.601 214.558C380.771 221.053 384.021 231.875 385.901 239.049C400.711 295.476 395.881 368.66 406.331 420.7C406.971 423.908 408.871 437.687 403.781 453.355C403.251 454.984 396.351 475.409 381.471 481.884C378.671 483.103 376.321 483.502 375.211 483.662C373.801 483.852 364.461 484.981 356.851 478.556C355.511 477.427 353.461 475.419 351.701 472.231C350.921 470.822 355.901 496.662 369.941 520.194C374.191 527.319 378.301 532.905 381.301 536.722C368.641 542.178 350.451 548.393 327.851 551.011C308.251 553.279 291.401 552.14 278.831 550.331C274.901 544.726 270.341 537.051 266.711 527.319C261.861 514.319 260.571 502.728 260.331 494.664C257.511 424.438 255.361 373.427 254.791 360.137C254.611 355.87 254.211 346.727 253.221 334.666C252.551 326.402 251.831 319.648 251.331 315.241C282.351 276.241 313.371 237.231 344.401 198.23H344.391Z" fill="#134675"/>
<path d="M294.781 294.898C294.781 292.54 294.781 290.181 294.781 287.823C294.781 287.623 294.885 287.523 295.091 287.523C298.851 287.523 302.611 287.523 306.381 287.523C306.581 287.523 306.681 287.62 306.681 287.813C306.681 288.782 306.681 289.762 306.681 290.731C306.681 290.771 306.681 290.821 306.681 290.861C306.681 291.001 306.661 291.021 306.521 291.031C306.461 291.031 306.401 291.031 306.341 291.031C303.951 291.031 301.561 291.031 299.171 291.031C298.978 291.031 298.881 291.131 298.881 291.331C298.881 291.87 298.881 292.41 298.881 292.949C298.881 293.009 298.881 293.059 298.881 293.119C298.881 293.189 298.931 293.229 299.001 293.229C299.071 293.229 299.131 293.229 299.201 293.229C301.581 293.229 303.951 293.229 306.331 293.229C306.721 293.229 306.681 293.249 306.681 293.569C306.681 294.448 306.681 295.317 306.681 296.197C306.681 296.247 306.681 296.297 306.681 296.347C306.681 296.477 306.651 296.497 306.511 296.507C306.451 296.507 306.391 296.507 306.331 296.507C303.951 296.507 301.561 296.507 299.181 296.507C298.981 296.507 298.881 296.607 298.881 296.806C298.881 297.386 298.881 297.955 298.881 298.535C298.881 298.595 298.881 298.645 298.881 298.705C298.881 298.775 298.921 298.805 298.991 298.805C299.061 298.805 299.121 298.805 299.191 298.805C301.591 298.805 303.981 298.805 306.381 298.805C306.581 298.805 306.681 298.905 306.681 299.105C306.681 300.074 306.681 301.043 306.681 302.002C306.681 302.022 306.681 302.042 306.681 302.062C306.681 302.302 306.681 302.312 306.431 302.312C302.631 302.312 298.831 302.312 295.031 302.312C294.791 302.312 294.781 302.312 294.781 302.062C294.781 299.674 294.781 297.286 294.781 294.898Z" fill="white"/>
<path d="M324.871 287.523C327.221 287.523 329.581 287.523 331.931 287.523C332.301 287.523 332.271 287.523 332.271 287.863C332.271 288.862 332.271 289.862 332.271 290.861C332.271 291.141 332.271 291.141 332.001 291.141C330.711 291.141 329.431 291.141 328.141 291.141C327.851 291.141 327.861 291.121 327.861 291.42C327.861 294.028 327.851 296.636 327.861 299.244C327.861 300.144 327.491 300.813 326.821 301.343C326.201 301.832 325.481 302.102 324.711 302.232C324.451 302.272 324.191 302.312 323.921 302.312C323.751 302.312 323.731 302.292 323.731 302.122C323.731 302.062 323.731 302.002 323.731 301.942C323.731 298.445 323.731 294.948 323.731 291.45C323.731 291.121 323.741 291.141 323.421 291.141C321.541 291.141 319.661 291.141 317.781 291.141C317.588 291.141 317.491 291.041 317.491 290.841C317.491 289.822 317.491 288.812 317.491 287.793C317.491 287.523 317.491 287.523 317.751 287.523C320.131 287.523 322.501 287.523 324.881 287.523H324.871Z" fill="white"/>
<path d="M317.441 295.237C317.481 295.167 317.471 295.097 317.471 295.027C317.471 294.248 317.471 293.469 317.471 292.699C317.471 292.629 317.441 292.529 317.511 292.499C317.591 292.469 317.631 292.559 317.681 292.609C318.921 293.848 320.161 295.087 321.401 296.316C321.511 296.426 321.561 296.536 321.551 296.686C321.551 298.465 321.551 300.253 321.551 302.032C321.551 302.302 321.551 302.302 321.281 302.302C320.721 302.302 320.151 302.302 319.591 302.302C319.461 302.302 319.351 302.272 319.281 302.162C319.261 302.132 319.231 302.102 319.211 302.082C318.721 301.582 318.231 301.083 317.751 300.573C317.171 299.964 316.591 299.364 316.011 298.755C315.461 298.185 314.911 297.605 314.361 297.036C313.781 296.436 313.211 295.837 312.631 295.237C312.371 294.968 312.101 294.688 311.841 294.418C311.801 294.378 311.761 294.328 311.691 294.298C311.651 294.368 311.661 294.428 311.661 294.498C311.661 295.077 311.661 295.647 311.661 296.227C311.661 296.286 311.681 296.356 311.641 296.416C311.571 296.416 311.541 296.366 311.501 296.326C310.241 295.067 308.991 293.818 307.731 292.559C307.651 292.479 307.611 292.389 307.611 292.27C307.611 290.761 307.611 289.262 307.611 287.753C307.611 287.553 307.631 287.533 307.831 287.533C308.601 287.533 309.371 287.533 310.151 287.533C310.281 287.533 310.371 287.583 310.451 287.673C310.821 288.083 311.191 288.482 311.571 288.892C312.071 289.442 312.571 289.981 313.071 290.531C313.381 290.861 313.681 291.2 313.991 291.53C314.531 292.12 315.071 292.709 315.621 293.299C315.981 293.688 316.341 294.068 316.691 294.458C316.901 294.688 317.111 294.918 317.321 295.147C317.351 295.187 317.381 295.227 317.441 295.247V295.237Z" fill="#27B2B4"/>
<path d="M309.521 302.302C308.321 302.302 307.351 301.332 307.351 300.123C307.351 298.924 308.331 297.955 309.531 297.955C310.721 297.955 311.701 298.934 311.701 300.133C311.701 301.332 310.721 302.302 309.521 302.302Z" fill="#A97D34"/>
<path d="M329.151 349.717H294.331C292.271 349.717 290.601 347.718 290.601 345.26V308.658C298.191 308.658 305.771 308.658 313.361 308.658C319.871 308.658 326.381 308.658 332.891 308.658V345.26C332.891 347.718 331.221 349.717 329.161 349.717H329.151Z" stroke="#083C5B" stroke-width="2.77" stroke-linecap="round" stroke-linejoin="round"/>
<path d="M290.601 308.658H332.911C332.911 312.495 332.891 316.342 332.891 320.179C325.841 323.177 318.791 326.185 311.751 329.183C304.701 326.185 297.661 323.177 290.611 320.179V308.658H290.601Z" stroke="#083C5B" stroke-width="2.77" stroke-linecap="round" stroke-linejoin="round"/>
<path d="M161.581 198.23C157.821 200.719 152.041 204.416 144.731 208.603C138.311 212.29 136.641 212.949 134.371 214.558C125.201 221.053 121.951 231.875 120.071 239.049C105.261 295.476 110.091 368.66 99.6412 420.7C98.5312 426.236 95.5312 440.066 102.191 453.355C106.721 462.399 116.481 472.701 130.791 475.299C141.781 477.287 150.671 473.87 154.281 472.241C151.491 485.861 145.921 503.587 134.211 521.543C130.851 526.689 127.371 531.286 123.921 535.363C136.341 541.198 152.981 547.513 173.281 551.351C200.971 556.587 224.641 555.158 240.861 552.849C247.341 533.454 253.831 514.059 260.311 494.664C267.131 458.292 271.041 410.138 261.081 355.62C258.441 341.171 255.081 327.692 251.321 315.241C221.411 276.241 191.491 237.231 161.581 198.23Z" fill="#134675"/>
<path d="M318.401 91.7907C326.471 111.895 330.681 128.623 333.021 140.404C334.721 148.997 335.491 155.262 335.741 157.411C337.441 171.929 337.291 184.22 336.761 193.123C341.071 194.942 345.381 196.75 349.701 198.569C349.121 208.462 347.471 222.811 342.551 239.388C335.951 261.621 328.421 286.971 305.441 302.659C285.291 316.419 263.341 315.849 256.761 315.59C205.911 313.581 176.761 265.468 174.041 260.821C169.351 251.938 163.161 237.839 160.421 219.663C158.421 206.413 158.981 195.771 159.741 187.008C162.321 157.251 166.691 106.929 199.231 57.407C210.041 40.9495 215.661 32.6659 226.121 30.1978C245.911 25.5213 268.041 44.8865 292.841 66.5999C303.941 76.3125 312.491 85.2457 318.391 91.8007L318.401 91.7907Z" fill="#293336"/>
<path d="M336.761 193.125C334.081 210.702 325.741 247.953 296.591 263.371C294.711 264.361 292.731 265.28 290.631 266.089C291.371 266.169 292.411 266.289 293.651 266.469C295.551 266.749 295.941 266.869 296.161 267.188C296.821 268.158 295.391 270.186 295.051 270.676C289.171 279.069 277.431 283.606 277.431 283.606C271.011 286.923 260.481 291.33 246.931 292.329C246.311 292.379 240.931 292.749 234.621 292.239C213.081 290.501 192.461 279.409 183.161 273.913C187.121 278.28 191.081 282.657 195.041 287.023C201.391 290.011 240.511 307.707 278.461 289.212C302.611 277.441 314.741 256.147 321.431 244.496C332.981 224.391 336.781 205.446 338.201 193.725C337.721 193.525 337.241 193.325 336.751 193.125H336.761Z" fill="#232B2D"/>
<path d="M301.581 159.019C296.731 170.38 288.861 176.925 285.091 179.693C283.331 180.443 280.661 181.762 277.921 184.02C273.331 187.797 272.301 191.084 268.211 196.27C264.661 200.767 261.571 204.684 257.831 206.133C250.141 209.101 240.271 201.397 232.131 194.392C221.371 185.149 206.931 171.399 191.281 152.044C190.781 150.795 190.201 149.156 189.701 147.198C187.941 140.323 188.661 135.197 188.681 133.029C189.551 131.52 190.431 130.211 191.281 129.082C217.201 94.5283 296.681 108.458 305.151 134.018C308.251 143.381 302.591 156.641 301.581 159.019Z" fill="#1B2123"/>
<path d="M203.451 202.777C204.311 204.516 205.631 207.114 207.341 210.192C212.841 220.154 222.081 236.601 238.861 251.8C238.861 251.8 252.561 264.22 267.071 268.897C268.861 269.476 273.011 270.815 278.131 270.126C279.421 269.956 280.481 269.666 282.601 269.107C287.721 267.738 290.211 266.389 294.221 266.678C294.851 266.728 295.351 266.798 295.681 266.858C295.751 265.819 295.811 264.78 295.881 263.741C294.901 264.15 293.491 264.71 291.761 265.28C289.511 266.019 283.671 267.938 277.971 267.918C273.331 267.898 269.361 266.599 264.521 264.3C248.201 256.556 235.411 243.956 235.411 243.956C228.301 236.941 218.351 225.64 209.531 209.242C207.501 207.084 205.481 204.936 203.451 202.777Z" fill="#232B2D"/>
<path d="M304.851 117.382C304.871 124.956 303.321 132.69 303.321 132.69C302.371 140.514 299.131 157.411 285.701 171.301C281.641 175.507 275.351 181.843 265.031 184.66C254.161 187.628 245.101 184.95 239.231 183.211C218.081 176.956 206.421 160.849 202.461 154.633C198.151 147.858 195.831 141.563 194.551 137.287C184.601 102.213 197.011 68.2993 221.361 55.1394C241.721 44.1378 263.161 51.5621 265.271 52.3315C296.551 63.7128 304.811 101.534 304.841 117.392L304.851 117.382Z" fill="#FCD1C8"/>
<path d="M334.791 173.279C330.711 198.189 316.061 219.263 294.931 229.396C272.001 240.377 249.551 234.602 239.271 230.944C237.631 230.375 236.051 229.755 234.511 229.096C206.411 216.975 191.961 188.577 184.611 167.863C181.401 175.707 177.161 187.268 173.611 201.807C172.111 207.962 170.771 213.438 170.041 220.173C169.081 228.956 168.791 243.055 174.041 260.822C165.381 238.519 166.131 221.532 167.351 212.509C168.941 200.748 173.341 187.548 175.731 180.373C178.331 172.579 180.871 166.224 182.741 161.777C182.351 157.561 182.301 151.325 184.211 144.161C185.421 139.614 187.111 135.877 188.671 133.029C188.651 135.198 187.931 140.324 189.691 147.198C190.191 149.157 190.771 150.796 191.271 152.045C190.611 158.28 189.091 180.183 203.521 200.518C207.801 206.543 221.341 225.619 240.291 226.878C243.861 227.117 267.301 228.047 272.631 231.474C273.231 231.864 274.481 233.073 276.541 233.682C281.921 235.271 287.431 231.704 290.791 229.356C303.251 220.612 311.201 215.037 317.721 207.313C319.411 205.304 321.611 202.306 323.981 198.479C330.041 188.737 333.121 179.644 334.781 173.279H334.791Z" fill="#232B2D"/>
<path d="M307.031 191.516C304.941 194.773 294.941 210.841 296.201 226.569C296.391 228.927 297.091 234.483 299.121 241.068C300.631 245.964 302.421 249.941 303.901 252.829C301.431 252.789 297.341 252.339 293.191 249.931C283.301 244.195 281.981 232.494 281.831 231.035C282.231 226.169 283.811 215.008 292.041 204.386C297.241 197.671 303.121 193.704 307.021 191.516H307.031Z" fill="#1B2123"/>
<path d="M301.081 105.541C302.531 115.244 302.291 123.477 301.701 129.463C301.221 134.339 300.391 142.273 296.691 151.906C296.041 153.604 294.271 157.431 292.081 161.778C290.861 164.196 289.801 166.175 289.051 167.534C287.541 172.63 285.931 178.885 284.571 186.109C282.781 195.642 282.061 202.717 281.641 210.021C281.201 217.705 281.261 224.89 281.641 231.465C281.641 231.465 287.531 215.227 297.881 201.807C304.741 192.924 306.321 194.643 314.931 183.971C318.851 179.115 324.301 172.43 328.371 162.527C331.101 155.883 333.331 150.427 332.581 143.152C332.101 138.546 330.671 135.518 328.121 130.152C324.321 122.158 320.351 113.555 311.321 108.819C307.571 106.85 303.971 105.951 301.071 105.541H301.081Z" fill="#232B2D"/>
<mask id="mask1_46_673" style="mask-type:luminance" maskUnits="userSpaceOnUse" x="191" y="49" width="115" height="137">
<path d="M304.851 117.381C305.721 121.898 305.261 126.864 303.321 132.69C302.371 140.514 299.131 157.411 285.701 171.3C281.641 175.507 275.351 181.842 265.031 184.66C254.161 187.628 245.101 184.95 239.231 183.211C218.081 176.956 206.421 160.848 202.461 154.633C198.151 147.858 195.831 141.563 194.551 137.286C184.601 102.213 197.011 68.2988 221.361 55.1389C242.201 43.8775 264.031 51.8614 265.271 52.331C289.821 61.6939 300.891 88.6633 301.621 107.439C301.671 108.598 301.661 109.557 301.661 110.247C303.741 113.125 304.521 115.673 304.851 117.391V117.381Z" fill="white"/>
</mask>
<g mask="url(#mask1_46_673)">
<path d="M301.661 110.236C301.061 110.096 300.151 109.856 299.071 109.466C296.251 108.447 289.521 105.35 281.371 90.7607C277.381 83.6161 274.501 76.3117 270.521 72.0949C267.121 68.4877 262.991 66.9489 262.991 66.9489C262.381 66.719 261.791 66.5592 261.121 66.3693C256.081 64.9204 243.831 62.3624 232.351 69.1672C231.241 69.8267 227.461 72.0749 221.801 79.1995C221.321 79.799 219.891 81.6776 218.751 83.4363C211.821 94.0981 213.361 104.38 206.491 117.78C202.181 126.184 199.131 126.923 198.151 133.628C197.201 140.113 199.131 145.689 200.181 148.726C202.661 155.901 206.641 160.857 209.301 163.675C204.691 161.347 193.481 154.882 188.791 142.131C185.981 134.487 186.461 127.183 188.621 117.47C194.541 90.8606 199.661 67.8582 221.371 55.1379C224.531 53.2893 251.621 37.931 276.791 52.4999C295.501 63.3316 305.641 86.374 301.681 110.246L301.661 110.236Z" fill="#E89591"/>
</g>
<path d="M250.421 115.963C250.961 118.001 252.191 121.549 255.101 125.106C256.851 127.254 258.731 128.793 260.341 129.882C261.891 130.931 262.121 133.12 260.811 134.449C260.061 135.208 259.101 135.968 257.861 136.547C254.931 137.936 252.241 137.536 251.331 137.357" stroke="#E89591" stroke-width="2" stroke-linecap="round" stroke-linejoin="round"/>
<path d="M263.951 99.6259C263.511 99.2162 262.821 98.4368 262.741 97.4075C262.451 93.5105 271.281 89.1239 278.871 88.1646C281.861 87.7849 286.661 87.2553 291.021 90.1631C292.831 91.3722 294.011 92.8011 294.711 93.8203C292.541 92.841 286.161 90.303 278.061 91.9317C270.391 93.4806 265.631 97.8872 263.951 99.6159V99.6259Z" fill="#293336"/>
<path d="M234.571 101.654C234.901 101.155 235.401 100.245 235.241 99.2261C234.631 95.3691 225.031 93.1108 217.421 93.9102C214.431 94.2299 209.631 94.7995 206.051 98.6266C204.571 100.215 203.751 101.874 203.291 103.033C205.171 101.584 210.811 97.6473 219.061 97.3975C226.881 97.1577 232.521 100.355 234.561 101.654H234.571Z" fill="#293336"/>
<path d="M266.551 120.16C266.101 118.201 264.921 111.816 268.531 105.811C272.671 98.9258 281.871 94.5892 288.591 97.3271C290.851 98.2464 294.471 100.635 295.981 104.761C296.481 106.12 296.631 107.329 296.671 108.169C296.671 108.219 296.551 109.268 297.351 109.867C297.881 110.267 298.481 110.227 298.631 110.207C298.491 110.567 298.201 111.196 297.691 111.866C296.371 113.605 294.541 114.274 293.741 114.564C291.111 115.523 280.741 117.791 266.541 120.16H266.551Z" fill="#E89591"/>
<path d="M266.551 120.161C267.861 120.871 276.011 125.078 285.011 121.6C289.961 119.682 292.921 116.314 294.251 114.556C294.421 113.716 295.381 108.52 292.041 104.523C287.681 99.3072 280.061 100.996 279.361 101.166C272.451 102.815 267.101 110.439 266.551 120.171V120.161Z" fill="white"/>
<path d="M266.551 120.161C266.351 118.982 265.121 110.839 270.761 104.603C274.721 100.227 282.411 96.4196 288.931 99.7171C294.261 102.415 295.771 108.33 296.051 109.5C296.061 109.58 296.191 110.279 296.821 110.609C297.391 110.899 298.141 110.749 298.631 110.229C298.591 110.609 298.401 112.098 297.121 113.287C295.971 114.356 294.661 114.526 294.251 114.566C294.271 114.206 294.291 113.696 294.251 113.087C294.061 109.799 292.511 106.952 291.181 105.513C287.751 101.795 280.861 102.205 276.501 104.114C270.671 106.662 266.871 112.937 266.541 120.191L266.551 120.161Z" fill="#293336"/>
<path d="M278.721 121.991C283.94 121.991 288.171 117.763 288.171 112.548C288.171 107.333 283.94 103.105 278.721 103.105C273.502 103.105 269.271 107.333 269.271 112.548C269.271 117.763 273.502 121.991 278.721 121.991Z" fill="#293336"/>
<path d="M279.791 111.857C281.669 111.857 283.191 110.336 283.191 108.46C283.191 106.584 281.669 105.062 279.791 105.062C277.913 105.062 276.391 106.584 276.391 108.46C276.391 110.336 277.913 111.857 279.791 111.857Z" fill="white"/>
<path d="M237.361 122.589C237.431 120.58 237.401 114.085 232.721 108.859C227.361 102.874 217.511 100.336 211.421 104.283C209.381 105.612 206.271 108.629 205.551 112.966C205.321 114.385 205.401 115.604 205.511 116.443C205.531 116.493 205.831 117.493 205.161 118.242C204.711 118.742 204.121 118.802 203.971 118.812C204.181 119.141 204.581 119.701 205.201 120.261C206.831 121.719 208.741 122.039 209.581 122.169C212.351 122.619 222.951 122.909 237.351 122.569L237.361 122.589Z" fill="#E89591"/>
<path d="M237.311 123.617C236.131 124.516 228.751 129.982 219.311 127.973C214.121 126.864 210.661 124.007 209.071 122.478C208.771 121.678 207.001 116.702 209.661 112.216C213.131 106.37 220.921 106.83 221.641 106.88C228.731 107.409 235.221 114.094 237.311 123.607V123.617Z" fill="white"/>
<path d="M237.311 123.618C237.311 122.419 237.241 114.185 230.671 108.919C226.061 105.222 217.861 102.684 211.951 106.98C207.121 110.488 206.571 116.573 206.481 117.772C206.481 117.852 206.471 118.571 205.891 118.981C205.371 119.361 204.611 119.331 204.041 118.891C204.141 119.261 204.571 120.7 206.021 121.669C207.321 122.538 208.651 122.498 209.061 122.468C208.981 122.119 208.881 121.619 208.821 121.01C208.491 117.732 209.561 114.674 210.641 113.046C213.441 108.829 220.301 108.139 224.911 109.329C231.071 110.917 235.821 116.503 237.301 123.618H237.311Z" fill="#293336"/>
<path d="M224.081 127.483C229.3 127.483 233.531 123.256 233.531 118.04C233.531 112.825 229.3 108.598 224.081 108.598C218.862 108.598 214.631 112.825 214.631 118.04C214.631 123.256 218.862 127.483 224.081 127.483Z" fill="#293336"/>
<path d="M222.381 117.572C224.259 117.572 225.781 116.051 225.781 114.175C225.781 112.298 224.259 110.777 222.381 110.777C220.503 110.777 218.981 112.298 218.981 114.175C218.981 116.051 220.503 117.572 222.381 117.572Z" fill="white"/>
<path d="M247.511 168.753C249.361 169.323 252.121 169.932 255.481 169.852C259.641 169.742 262.901 168.613 264.861 167.754" stroke="#E89591" stroke-width="2" stroke-linecap="round" stroke-linejoin="round"/>
<path d="M277.471 146.34C277.971 144.121 275.741 142.273 273.651 143.182C269.311 145.071 263.701 146.939 257.021 147.869C248.011 149.128 240.241 148.258 234.541 147.029C232.231 146.53 230.431 148.958 231.511 151.056C235.661 159.12 242.661 164.836 250.751 166.145C252.741 166.464 258.921 167.194 265.321 163.736C273.211 159.47 276.271 151.626 277.461 146.35L277.471 146.34Z" fill="#293336"/>
<mask id="mask2_46_673" style="mask-type:luminance" maskUnits="userSpaceOnUse" x="231" y="142" width="47" height="25">
<path d="M277.471 146.342C277.971 144.123 275.741 142.275 273.651 143.184C269.311 145.073 263.701 146.941 257.021 147.871C248.011 149.13 240.241 148.26 234.541 147.031C232.231 146.532 230.431 148.96 231.511 151.058C235.661 159.122 242.661 164.838 250.751 166.147C252.741 166.466 258.921 167.196 265.321 163.738C273.211 159.472 276.271 151.628 277.461 146.352L277.471 146.342Z" fill="white"/>
</mask>
<g mask="url(#mask2_46_673)">
<path d="M270.791 160.48C269.161 159.471 266.181 157.932 262.311 157.662C258.401 157.393 255.401 158.532 253.771 159.331C252.061 158.462 248.151 156.793 243.401 157.782C240.421 158.412 238.211 159.851 236.881 160.92C240.031 169.683 247.221 175.429 254.791 175.249C262.251 175.069 268.641 169.184 270.791 160.48Z" fill="#DB86BF"/>
<path d="M272.311 140.865L272.671 143.513C272.991 145.871 271.611 148.14 269.351 148.889C263.011 150.978 253.871 153.036 242.891 152.466C233.771 151.987 226.321 149.838 221.121 147.87L272.301 140.875L272.311 140.865Z" fill="white"/>
</g>
<path d="M220.591 71.0482C222.371 69.4195 238.251 55.2903 257.991 59.8268C266.011 61.6654 271.671 65.9022 274.871 68.7999C275.281 66.8414 278.051 52.5723 269.221 43.1196C258.031 31.1387 234.631 33.7567 224.791 47.0765C217.741 56.6192 220.021 68.4602 220.581 71.0582L220.591 71.0482Z" fill="#1B2123"/>
<path d="M241.621 45.1571C237.641 46.1663 235.101 48.4846 232.771 50.6029C225.471 57.2379 222.971 65.5215 222.051 68.4593C218.231 80.6899 211.631 91.9014 207.411 104.002C197.451 132.57 194.611 130.302 180.521 167.613C173.551 186.069 170.031 195.492 168.601 204.695C164.971 228.157 169.741 248.152 174.051 260.822C168.931 253.768 162.061 242.676 157.371 227.827C156.251 224.28 151.591 208.902 152.261 182.922C152.721 165.435 155.061 163.577 159.751 132.241C164.781 98.6662 163.141 93.7999 168.601 72.3763C174.391 49.6637 180.131 39.8412 183.581 34.6152C188.901 26.5513 195.631 16.3591 208.091 9.44442C230.071 -2.74626 260.641 0.391339 278.561 16.2492C283.031 20.2062 286.991 27.1609 294.901 41.0802C302.811 54.9896 307.701 66.3209 317.371 89.0436C325.071 107.13 327.291 113.815 329.111 121.189C331.461 130.682 332.511 138.796 333.021 144.491C331.651 140.154 329.101 133.759 324.171 127.144C321.301 123.297 318.641 120.729 316.721 118.891C308.471 111.007 304.851 110.787 297.951 105.031C288.981 97.5471 284.181 88.8137 282.291 85.3064C277.681 76.753 278.641 75.1142 273.441 66.261C270.171 60.6952 268.281 57.4677 264.591 54.0103C262.251 51.822 252.251 42.4592 241.611 45.1671L241.621 45.1571Z" fill="#293336"/>
<path d="M247.381 364.803H386.371C388.591 364.803 390.101 367.061 389.241 369.109C380.111 391.073 370.991 413.036 361.861 435.009C361.381 436.168 360.241 436.928 358.991 436.928H219.391C217.161 436.928 215.651 434.649 216.531 432.601C225.861 410.638 235.191 388.674 244.531 366.701C245.021 365.552 246.151 364.803 247.391 364.803H247.381Z" fill="#293336"/>
<path d="M388.041 440.895C389.311 442.933 391.161 446.5 391.651 451.197C392.651 460.859 387.441 470.702 379.191 475.698C374.011 478.836 368.781 479.365 365.531 479.355C365.531 479.355 361.151 478.796 357.741 475.958C355.721 474.269 355.451 472.95 355.401 472.39C355.321 471.651 355.471 471.022 355.621 470.602C353.931 469.503 352.241 468.404 350.551 467.314C350.931 468.963 351.311 470.602 351.691 472.251C352.311 473.38 353.161 474.699 354.321 476.068C355.191 477.077 356.051 477.906 356.841 478.576C358.381 479.845 361.191 481.853 365.161 483.012C366.221 483.322 376.441 486.12 385.071 479.805C388.851 477.037 390.691 473.709 391.711 471.811C396.091 463.657 396.661 452.436 391.201 444.512C390.061 442.863 388.881 441.674 388.051 440.915L388.041 440.895Z" fill="#232B2D"/>
<path d="M168.131 288.691C167.051 288.741 165.571 288.981 164.261 289.92C161.911 291.599 159.981 295.556 161.891 307.647C164.331 323.115 166.591 337.414 179.251 346.597C187.061 352.263 195.381 353.462 198.361 353.762C202.091 354.141 205.881 354.491 210.221 352.682C217.451 349.665 220.651 342.97 221.581 340.772C223.511 336.145 223.471 331.978 223.301 329.78C204.911 316.08 186.531 302.391 168.141 288.691H168.131Z" fill="#232B2D"/>
<path d="M162.141 292.428C148.081 322.165 134.021 351.902 119.961 381.64C116.641 396.948 113.321 412.256 110.001 427.564C109.771 428.614 117.681 403.313 128.641 374.755C140.091 344.918 152.221 321.176 161.471 304.638C161.001 302.51 160.621 299.432 161.251 295.865C161.471 294.586 161.791 293.437 162.141 292.428Z" fill="#083C5B"/>
<path opacity="0.5" d="M346.831 221.732C347.181 234.393 346.471 266.378 327.021 292.089C323.331 296.965 317.231 304.859 306.251 310.884C291.831 318.808 277.741 318.708 271.041 318.209C271.221 317.169 271.391 316.12 271.571 315.081C267.931 315.501 263.761 315.761 259.151 315.641C255.401 315.551 251.961 315.221 248.901 314.791C248.221 314.711 247.271 314.591 246.131 314.412C244.541 314.152 242.051 313.742 239.191 312.843C235.721 311.754 233.241 310.974 230.931 308.756C229.821 307.697 229.091 306.628 228.641 305.888C221.881 306.997 220.161 309.435 219.611 310.794C218.661 313.123 219.941 315.181 221.741 322.445C222.511 325.533 222.991 328.101 223.281 329.77C223.421 331.878 223.521 334.986 223.201 338.723C222.891 342.35 222.241 346.097 221.061 350.254C209.951 389.464 185.061 436.059 185.061 436.059C181.911 441.954 184.921 436.089 170.421 458.342C169.031 460.47 166.341 464.607 161.341 468.274C158.631 470.252 156.091 471.482 154.291 472.231C153.431 476.308 152.351 480.615 150.991 485.101C147.871 495.363 143.991 504.216 140.121 511.601C144.171 507.294 149.451 500.599 153.321 491.306C155.301 486.55 156.501 482.123 157.231 478.336C158.091 478.146 159.441 477.827 161.051 477.277C173.591 473.03 180.661 462.588 184.291 456.903C202.411 428.554 217.231 391.593 217.231 391.593C229.461 361.066 232.031 350.364 233.311 339.123C234.441 329.24 234.331 321.606 234.191 318.169C234.081 315.421 233.901 313.203 233.781 311.824C238.811 313.262 243.291 314.132 246.971 314.671C253.631 315.651 258.721 315.721 260.031 315.731C264.561 315.771 268.481 315.461 271.561 315.081C287.941 313.093 301.481 303.87 303.901 302.211C306.661 300.312 314.851 294.437 322.691 284.175C331.891 272.124 335.491 260.733 340.991 243.356C343.821 234.393 345.681 226.859 346.831 221.732Z" fill="#083C5B"/>
<path opacity="0.5" d="M259.791 318.609C267.861 375.585 267.731 418.003 266.511 443.603C265.511 464.697 263.531 479.796 260.311 494.664C254.951 519.465 247.131 539.25 240.861 552.85C236.821 553.31 232.771 553.759 228.721 554.219C232.181 549.952 236.891 543.637 241.591 535.483C248.251 523.912 256.851 505.176 261.671 464.388C265.461 432.382 264.431 407.841 263.381 385.128C262.121 358.109 259.551 335.356 257.181 318.519C256.001 318.469 254.801 318.389 253.571 318.289C246.081 317.68 239.601 316.321 234.361 314.872C234.171 313.853 233.981 312.843 233.781 311.824C239.861 313.603 247.641 315.252 256.761 315.621C256.771 315.631 256.781 315.631 256.801 315.631C256.971 315.641 257.151 315.641 257.321 315.651C262.581 315.841 267.371 315.571 271.571 315.092C271.391 316.131 271.221 317.17 271.041 318.209C267.701 318.509 263.931 318.689 259.791 318.609Z" fill="#083C5B"/>
<path d="M180.391 270.285C181.041 268.956 181.771 266.957 181.571 264.619C181.351 262.001 180.111 260.442 177.571 256.965C172.401 249.91 170.011 246.093 169.141 241.577C168.911 240.358 168.791 239.119 169.401 237.92C171.011 234.742 176.331 234.682 176.891 234.692C184.101 234.712 189.131 241.577 189.741 242.426C191.541 244.954 192.671 247.912 194.931 253.817C195.811 256.116 195.841 256.445 196.381 257.645C198.421 262.221 201.431 265.269 203.711 267.157C199.411 267.347 194.711 267.767 189.681 268.526C186.391 269.026 183.291 269.625 180.391 270.285Z" fill="#E89591"/>
<path d="M203.801 217.545C210.101 257.215 216.401 296.884 222.701 336.564C222.791 339.951 220.651 342.939 217.621 343.868C214.151 344.918 210.201 343.049 208.731 339.422C196.611 301.181 184.491 262.93 172.361 224.689C182.841 222.311 193.321 219.933 203.801 217.545Z" fill="#81CFF3"/>
<mask id="mask3_46_673" style="mask-type:luminance" maskUnits="userSpaceOnUse" x="172" y="217" width="51" height="128">
<path d="M203.801 217.547C210.101 257.217 216.401 296.886 222.701 336.566C222.791 339.953 220.651 342.941 217.621 343.87C214.151 344.919 210.201 343.051 208.731 339.424C196.611 301.183 184.491 262.932 172.361 224.691C182.841 222.313 193.321 219.935 203.801 217.547Z" fill="white"/>
</mask>
<g mask="url(#mask3_46_673)">
<path d="M182.161 225.071C198.091 284.505 209.991 327.862 211.601 332.808C212.001 334.027 213.091 336.995 215.791 338.674C216.401 339.053 217.841 339.913 219.521 339.633C221.191 339.353 222.401 338.064 223.491 336.355C227.021 330.8 227.041 324.295 227.141 324.295C227.221 324.295 227.211 328.591 226.661 350.165C217.381 357.939 210.271 359.288 205.061 358.578C168.061 353.532 159.281 235.303 158.691 226.549C163.281 226.05 167.871 225.56 172.461 225.061C175.691 225.061 178.921 225.081 182.151 225.081L182.161 225.071Z" fill="#61B5ED"/>
</g>
<path d="M173.111 225.379C172.391 225.349 172.091 224.44 172.641 223.98C173.761 223.031 174.791 222.292 175.651 221.732C185.091 215.537 195.471 216.196 199.741 216.526C201.031 216.626 202.201 216.776 203.211 216.926C203.961 217.046 204.131 218.045 203.471 218.405C202.361 219.014 201.351 219.514 200.481 219.923C190.431 224.65 181.321 225.379 176.461 225.429C175.231 225.439 174.111 225.419 173.121 225.369L173.111 225.379Z" fill="#A9DFFB"/>
<path d="M176.741 216.106C183.061 214.528 189.371 212.939 195.691 211.36C196.401 211.18 197.121 211.6 197.321 212.309C197.721 213.748 198.111 215.177 198.511 216.616C198.671 217.176 198.441 217.785 197.951 218.095C195.831 219.474 192.551 221.222 188.231 222.202C184.021 223.151 180.391 223.011 177.921 222.701C177.371 222.631 176.921 222.242 176.781 221.702C176.441 220.383 176.101 219.064 175.761 217.755C175.571 217.036 176.011 216.296 176.741 216.116V216.106Z" fill="#232B2D"/>
<path d="M180.081 215.527C179.361 215.606 178.641 215.686 177.931 215.776C174.031 210.301 170.141 204.815 166.241 199.339C168.141 189.736 170.051 180.134 171.951 170.531C172.851 170.331 173.741 170.131 174.641 169.941C173.081 175.427 171.021 185.579 173.451 197.81C174.971 205.444 177.751 211.44 180.081 215.527Z" fill="#EAB38C"/>
<path d="M177.961 169.412C176.851 169.582 175.741 169.762 174.631 169.932C172.731 179.484 170.821 189.027 168.911 198.58C172.631 204.225 176.351 209.871 180.071 215.527C184.741 214.348 189.411 213.169 194.081 211.98C194.741 205.275 195.401 198.56 196.051 191.855C190.021 184.371 183.981 176.896 177.951 169.412H177.961ZM182.581 201.408C179.861 201.448 177.621 198.989 177.581 195.922C177.541 192.854 179.711 190.336 182.431 190.296C185.151 190.256 187.391 192.714 187.431 195.782C187.471 198.85 185.301 201.368 182.581 201.408Z" fill="#F7CFAA"/>
<path d="M166.231 199.329C167.131 199.079 168.021 198.83 168.921 198.58C170.831 189.027 172.731 179.484 174.641 169.932C173.741 170.131 172.851 170.331 171.951 170.521C170.051 180.124 168.141 189.727 166.241 199.329H166.231Z" fill="#FFFFF8"/>
<path d="M187.001 195.792C187.041 198.859 184.871 201.378 182.151 201.418C181.871 201.418 181.591 201.398 181.321 201.348C183.731 200.588 185.361 198.32 185.331 195.822C185.301 193.374 183.681 191.205 181.331 190.456C181.521 190.386 181.751 190.336 182.001 190.316C184.111 190.176 186.961 192.734 187.001 195.802V195.792Z" fill="#FFFFF8"/>
<path d="M181.301 190.496C179.601 183.561 177.901 176.637 176.201 169.702C176.261 169.692 176.321 169.682 176.381 169.672C178.091 176.597 179.801 183.511 181.511 190.436C181.441 190.456 181.371 190.476 181.301 190.496Z" fill="#FFFFF8"/>
<path d="M181.171 190.506C179.471 183.571 177.771 176.646 176.071 169.712C176.131 169.702 176.191 169.692 176.251 169.682C177.961 176.606 179.671 183.521 181.381 190.446C181.311 190.466 181.241 190.486 181.171 190.506Z" fill="#EAB38C"/>
<path d="M187.421 195.783C187.461 198.851 185.291 201.369 182.571 201.409C182.291 201.409 182.011 201.389 181.741 201.339C184.061 200.859 185.791 198.551 185.751 195.813C185.711 193.075 183.921 190.817 181.591 190.397C181.861 190.337 182.141 190.307 182.421 190.307C185.141 190.267 187.381 192.725 187.421 195.793V195.783Z" fill="#FFFFF8"/>
<path d="M187.001 195.793C187.041 198.86 184.871 201.378 182.151 201.418C181.871 201.418 181.591 201.398 181.321 201.348C183.741 200.599 185.381 198.331 185.331 195.823C185.281 193.354 183.621 191.186 181.241 190.487C181.441 190.407 181.701 190.337 182.001 190.317C184.131 190.167 186.961 192.745 187.001 195.803V195.793Z" fill="#EAB38C"/>
<path d="M168.131 288.69C168.931 287.281 169.641 287.141 170.341 285.633C170.721 284.803 171.231 283.814 171.021 282.575C170.801 281.286 170.011 281.126 169.571 279.687C169.571 279.687 169.121 278.208 169.571 276.63C170.251 274.241 174.001 272.543 174.001 272.543C179.821 269.785 188.121 268.716 190.811 268.406C194.041 267.936 207.961 266.028 217.321 267.866C219.751 268.346 222.101 269.115 223.871 271.144C226.381 274.011 226.291 277.319 226.251 277.988C226.331 278.728 226.451 280.826 225.191 282.965C224.251 284.553 223.001 285.423 222.341 285.812C223.251 285.852 225.531 286.072 227.701 287.701C230.751 289.989 231.341 293.337 231.441 294.056C231.531 294.826 231.871 298.503 229.351 301.221C228.601 302.03 227.781 302.56 227.091 302.899C227.651 303.649 228.691 305.268 229.031 307.596C229.391 310.104 228.721 312.062 228.371 312.932C228.011 313.921 227.311 315.43 225.971 316.909C225.051 317.918 224.101 318.607 223.351 319.057C223.861 319.637 224.701 320.756 225.111 322.395C225.731 324.903 224.931 326.961 224.631 327.651C224.481 328.06 224.221 328.63 223.771 329.219C223.331 329.799 222.861 330.199 222.501 330.448C220.921 331.478 219.091 332.537 217.011 333.506C212.841 335.465 208.951 336.504 205.821 337.073C205.161 338.083 204.081 339.491 202.421 340.81C201.131 341.84 198.271 343.798 194.341 344.208C187.201 344.967 182.111 340.071 181.151 339.102C180.071 338.013 177.131 335.055 176.551 330.678C176.101 327.221 177.531 325.942 176.551 322.854C175.721 320.236 174.421 320.496 172.211 316.989C171.451 315.79 169.291 312.272 168.981 307.696C168.691 303.559 170.261 303.559 169.621 300.231C168.931 296.634 166.831 295.225 167.131 291.878C167.261 290.469 167.751 289.36 168.131 288.67V288.69Z" fill="#FCD1C8"/>
<mask id="mask4_46_673" style="mask-type:luminance" maskUnits="userSpaceOnUse" x="167" y="267" width="65" height="78">
<path d="M168.131 288.69C168.931 287.281 169.641 287.141 170.341 285.633C170.721 284.803 171.231 283.814 171.021 282.575C170.801 281.286 170.011 281.126 169.571 279.687C169.571 279.687 169.121 278.208 169.571 276.63C170.251 274.241 174.001 272.543 174.001 272.543C179.821 269.785 188.121 268.716 190.811 268.406C194.041 267.936 207.961 266.028 217.321 267.866C219.751 268.346 222.101 269.115 223.871 271.144C226.381 274.011 226.291 277.319 226.251 277.988C226.331 278.728 226.451 280.826 225.191 282.965C224.251 284.553 223.001 285.423 222.341 285.812C223.251 285.852 225.531 286.072 227.701 287.701C230.751 289.989 231.341 293.337 231.441 294.056C231.531 294.826 231.871 298.503 229.351 301.221C228.601 302.03 227.781 302.56 227.091 302.899C227.651 303.649 228.691 305.268 229.031 307.596C229.391 310.104 228.721 312.062 228.371 312.932C228.011 313.921 227.311 315.43 225.971 316.909C225.051 317.918 224.101 318.607 223.351 319.057C223.861 319.637 224.701 320.756 225.111 322.395C225.731 324.903 224.931 326.961 224.631 327.651C224.481 328.06 224.221 328.63 223.771 329.219C223.331 329.799 222.861 330.199 222.501 330.448C220.921 331.478 219.091 332.537 217.011 333.506C212.841 335.465 208.951 336.504 205.821 337.073C205.161 338.083 204.081 339.491 202.421 340.81C201.131 341.84 198.271 343.798 194.341 344.208C187.201 344.967 182.111 340.071 181.151 339.102C180.071 338.013 177.131 335.055 176.551 330.678C176.101 327.221 177.531 325.942 176.551 322.854C175.721 320.236 174.421 320.496 172.211 316.989C171.451 315.79 169.291 312.272 168.981 307.696C168.691 303.559 170.261 303.559 169.621 300.231C168.931 296.634 166.831 295.225 167.131 291.878C167.261 290.469 167.751 289.36 168.131 288.67V288.69Z" fill="white"/>
</mask>
<g mask="url(#mask4_46_673)">
<path d="M229.061 285.623H189.711" stroke="#E89591" stroke-width="2" stroke-linecap="round" stroke-linejoin="round"/>
<path d="M231.021 303.061H191.671" stroke="#E89591" stroke-width="2" stroke-linecap="round" stroke-linejoin="round"/>
<path d="M232.211 319.127H192.861" stroke="#E89591" stroke-width="2" stroke-linecap="round" stroke-linejoin="round"/>
<path d="M232.211 337.244H192.861" stroke="#E89591" stroke-width="2" stroke-linecap="round" stroke-linejoin="round"/>
</g>
<path d="M352.131 436.998C350.171 443.153 348.211 452.466 349.751 463.448C350.201 466.675 350.891 469.613 351.691 472.231C352.511 475.589 353.351 478.966 354.231 482.383C354.811 484.642 355.391 486.89 355.981 489.108C355.051 488.229 353.641 486.86 352.051 485.091C347.131 479.635 345.751 476.338 343.501 473.36C341.401 470.582 341.191 471.652 324.611 461.749C315.901 456.553 313.351 454.695 310.691 451.547C307.971 448.319 308.101 447.22 305.841 445.681C301.841 442.953 290.071 443.953 288.821 444.063C284.661 444.442 278.711 444.282 271.181 441.724C271.121 440.176 271.071 438.627 271.011 437.078C298.051 437.048 325.101 437.028 352.141 436.998H352.131Z" fill="#083C5B"/>
<path d="M339.621 360.805H353.451C354.341 332.966 355.241 305.128 356.131 277.299C350.631 305.138 345.121 332.976 339.621 360.805Z" fill="#083C5B"/>
<path d="M131.261 217.125C133.761 215.736 137.231 214.208 141.551 213.368C143.451 212.999 145.211 212.819 146.791 212.759C147.401 217.575 148.411 222.811 150.021 228.337C155.981 248.731 167.281 263.14 175.631 271.824C177.221 271.314 178.811 270.794 180.401 270.285C173.351 261.881 163.801 248.252 157.881 229.396C154.871 219.813 153.481 211.05 152.891 203.766C147.421 207.393 143.591 209.461 141.011 210.71C140.281 211.06 138.471 211.919 136.201 213.388C134.021 214.797 132.361 216.166 131.271 217.135L131.261 217.125Z" fill="#083C5B"/>
<path opacity="0.5" d="M256.801 315.63C256.801 315.63 256.771 315.63 256.761 315.62V315.59L256.801 315.63Z" fill="#083C5B"/>
<path d="M268.141 329.759C270.278 329.759 272.011 328.028 272.011 325.892C272.011 323.757 270.278 322.025 268.141 322.025C266.004 322.025 264.271 323.757 264.271 325.892C264.271 328.028 266.004 329.759 268.141 329.759Z" fill="#083C5B"/>
<path d="M267.661 328.442C269.434 328.442 270.871 327.006 270.871 325.235C270.871 323.463 269.434 322.027 267.661 322.027C265.888 322.027 264.451 323.463 264.451 325.235C264.451 327.006 265.888 328.442 267.661 328.442Z" fill="#293336"/>
<path d="M272.011 363.246C274.148 363.246 275.881 361.514 275.881 359.379C275.881 357.243 274.148 355.512 272.011 355.512C269.874 355.512 268.141 357.243 268.141 359.379C268.141 361.514 269.874 363.246 272.011 363.246Z" fill="#083C5B"/>
<path d="M271.531 361.917C273.304 361.917 274.741 360.481 274.741 358.709C274.741 356.938 273.304 355.502 271.531 355.502C269.758 355.502 268.321 356.938 268.321 358.709C268.321 360.481 269.758 361.917 271.531 361.917Z" fill="#293336"/>
<path d="M274.091 451.986C276.229 451.986 277.961 450.255 277.961 448.119C277.961 445.983 276.229 444.252 274.091 444.252C271.954 444.252 270.221 445.983 270.221 448.119C270.221 450.255 271.954 451.986 274.091 451.986Z" fill="#083C5B"/>
<path d="M273.721 450.608C275.494 450.608 276.931 449.172 276.931 447.401C276.931 445.629 275.494 444.193 273.721 444.193C271.948 444.193 270.511 445.629 270.511 447.401C270.511 449.172 271.948 450.608 273.721 450.608Z" fill="#293336"/>
<path d="M270.511 480.347C272.648 480.347 274.381 478.616 274.381 476.48C274.381 474.345 272.648 472.613 270.511 472.613C268.374 472.613 266.641 474.345 266.641 476.48C266.641 478.616 268.374 480.347 270.511 480.347Z" fill="#083C5B"/>
<path d="M270.141 478.958C271.914 478.958 273.351 477.522 273.351 475.751C273.351 473.979 271.914 472.543 270.141 472.543C268.368 472.543 266.931 473.979 266.931 475.751C266.931 477.522 268.368 478.958 270.141 478.958Z" fill="#293336"/>
<path d="M255.841 360.805H384.401C386.451 360.805 387.851 362.833 387.061 364.682C378.621 384.467 370.181 404.261 361.731 424.046C361.281 425.096 360.231 425.775 359.071 425.775H229.941C227.881 425.775 226.481 423.727 227.291 421.878C235.921 402.093 244.551 382.298 253.191 362.513C253.641 361.474 254.681 360.805 255.841 360.805Z" fill="#293336"/>
<path d="M247.381 364.803H386.371C388.591 364.803 390.101 367.061 389.241 369.109C380.111 391.073 370.991 413.036 361.861 435.009C361.381 436.168 360.241 436.928 358.991 436.928H219.391C217.161 436.928 215.651 434.649 216.531 432.601C225.861 410.638 235.191 388.674 244.531 366.701C245.021 365.552 246.151 364.803 247.391 364.803H247.381Z" fill="#232B2D"/>
<path d="M369.061 407.322C370.231 408.061 369.851 409.79 370.721 413.667C370.721 413.667 371.011 414.986 372.291 418.723C374.051 423.869 377.811 427.386 381.991 432.842C387.081 439.487 389.621 442.805 390.501 445.093C393.771 453.546 391.521 461.45 391.011 463.119C390.071 466.187 387.611 474.241 379.611 478.257C373.681 481.225 367.601 480.546 363.781 479.277C362.131 478.727 356.011 476.709 355.441 472.642C355.321 471.812 355.461 471.093 355.611 470.603C348.311 465.837 340.871 461.081 333.311 456.314C328.691 453.407 324.091 450.549 319.511 447.721C318.881 447.371 318.481 446.712 318.501 446.022C318.521 445.173 319.131 444.673 319.221 444.593C315.081 442.905 312.701 439.727 313.141 437.119C313.321 436.03 314.021 434.911 315.071 434.201C316.661 433.122 318.871 433.122 320.811 434.201C320.451 433.352 320.121 432.183 320.531 431.054C321.691 427.876 327.831 427.506 333.641 427.227C345.531 426.647 355.281 428.905 361.131 430.624C362.721 431.094 364.011 431.523 364.871 431.813C362.141 428.226 361.171 424.868 360.781 422.88C360.571 421.781 358.811 412.828 363.761 408.761C365.231 407.552 367.681 406.462 369.041 407.312L369.061 407.322Z" fill="#FCD1C8"/>
<mask id="mask5_46_673" style="mask-type:luminance" maskUnits="userSpaceOnUse" x="313" y="407" width="80" height="74">
<path d="M369.061 407.322C370.231 408.061 369.851 409.79 370.721 413.667C370.721 413.667 371.011 414.986 372.291 418.723C374.051 423.869 377.811 427.386 381.991 432.842C387.081 439.487 389.621 442.805 390.501 445.093C393.771 453.546 391.521 461.45 391.011 463.119C390.071 466.187 387.611 474.241 379.611 478.257C373.681 481.225 367.601 480.546 363.781 479.277C362.131 478.727 356.011 476.709 355.441 472.642C355.321 471.812 355.461 471.093 355.611 470.603C348.311 465.837 340.871 461.081 333.311 456.314C328.691 453.407 324.091 450.549 319.511 447.721C318.881 447.371 318.481 446.712 318.501 446.022C318.521 445.173 319.131 444.673 319.221 444.593C315.081 442.905 312.701 439.727 313.141 437.119C313.321 436.03 314.021 434.911 315.071 434.201C316.661 433.122 318.871 433.122 320.811 434.201C320.451 433.352 320.121 432.183 320.531 431.054C321.691 427.876 327.831 427.506 333.641 427.227C345.531 426.647 355.281 428.905 361.131 430.624C362.721 431.094 364.011 431.523 364.871 431.813C362.141 428.226 361.171 424.868 360.781 422.88C360.571 421.781 358.811 412.828 363.761 408.761C365.231 407.552 367.681 406.462 369.041 407.312L369.061 407.322Z" fill="white"/>
</mask>
<g mask="url(#mask5_46_673)">
<path d="M357.912 427.215C362.222 429.583 366.632 432.181 371.102 435.039C372.522 435.938 373.912 436.847 375.272 437.757" stroke="#E89591" stroke-width="2" stroke-linecap="round" stroke-linejoin="round"/>
<path d="M317.322 432.361C333.662 437.877 350.002 443.393 366.342 448.899" stroke="#E89591" stroke-width="2" stroke-linecap="round" stroke-linejoin="round"/>
<path d="M311.622 441.504C326.402 447.999 341.182 454.484 355.962 460.979" stroke="#E89591" stroke-width="2" stroke-linecap="round" stroke-linejoin="round"/>
<path d="M349.912 468.213C354.862 470.641 359.812 473.059 364.762 475.487" stroke="#E89591" stroke-width="2" stroke-linecap="round" stroke-linejoin="round"/>
</g>
</svg>
