<svg width="506" height="683" viewBox="0 0 506 683" fill="none" xmlns="http://www.w3.org/2000/svg">
<path d="M326.601 443.775C335.331 516.079 344.061 588.383 352.791 660.687C353.651 667.795 354.511 674.903 355.361 682.001H248.781C246.011 643.904 243.251 605.807 240.481 567.711C236.271 605.807 232.071 643.904 227.861 682.001H121.941C132.681 602.258 143.411 522.506 154.151 442.764C190.831 442.452 228.041 442.472 265.751 442.851C286.191 443.055 306.471 443.366 326.601 443.775Z" fill="#293336"/>
<mask id="mask0_46_674" style="mask-type:luminance" maskUnits="userSpaceOnUse" x="121" y="442" width="235" height="240">
<path d="M326.601 443.773C335.331 516.077 344.061 588.381 352.791 660.685C353.651 667.793 354.511 674.901 355.361 681.999H248.781C246.011 643.902 243.251 605.805 240.481 567.709C236.271 605.805 232.071 643.902 227.861 681.999H121.941C132.681 602.256 143.411 522.504 154.151 442.762C190.831 442.45 228.041 442.47 265.751 442.849C286.191 443.053 306.471 443.364 326.601 443.773Z" fill="white"/>
</mask>
<g mask="url(#mask0_46_674)">
<path d="M185.551 460.604H289.441V506.149C317.441 498.04 340.861 502.766 347.201 515.008C348.491 517.497 349.891 521.882 348.291 528.893C340.571 530.769 331.371 532.121 321.041 531.926C282.881 531.188 255.821 509.776 245.831 500.928C249.831 505.255 253.831 509.582 257.831 513.909C245.581 519.393 212.661 532.131 172.471 523.564C152.001 519.198 136.541 510.778 126.651 504.195C134.831 500.16 143.961 494.997 153.461 488.365C166.961 478.953 177.531 469.161 185.551 460.604Z" fill="#242B2D"/>
<path d="M228.661 442.587C230.271 459.516 231.821 476.551 233.311 493.694C235.821 522.592 238.101 551.218 240.171 579.572" stroke="#1A2021" stroke-width="2.93" stroke-miterlimit="10"/>
<path d="M247.931 442.043C248.971 477.631 250.201 502.912 251.911 518.236C252.331 521.951 253.431 531.013 248.681 533.969C245.071 536.215 239.621 533.998 236.571 532.472" stroke="#1A2021" stroke-width="2.93" stroke-miterlimit="10"/>
</g>
<path d="M312.481 460.604H184.792C202.272 367.521 219.752 274.447 237.222 181.364C265.532 180.965 293.842 180.567 322.152 180.168C305.002 214.735 275.372 287.622 288.521 377.789C293.311 410.644 302.722 438.502 312.472 460.604H312.481Z" fill="white"/>
<path d="M178.211 405.881C194.871 424.919 209.721 427.272 215.561 427.671C248.311 429.917 287.031 390.722 299.231 326.702C300.481 377.789 301.721 428.887 302.971 479.974C261.131 481.189 219.301 482.395 177.461 483.61C177.711 457.697 177.961 431.794 178.211 405.881Z" fill="#E0E0E0"/>
<path d="M335.011 19.0507C331.511 15.2877 330.751 9.95921 333.021 5.817C336.071 0.255146 342.841 0.0120589 343.311 0.00233537C348.281 -0.0948997 352.971 2.85133 355.261 7.50889C351.531 4.89326 346.531 5.00022 343.211 7.62557C339.381 10.6496 338.521 16.4156 341.591 20.7134C345.881 20.9662 352.171 21.8219 359.081 24.7001C381.451 34.0055 389.312 55.7278 390.132 58.1198C396.082 75.4471 394.271 100.398 380.831 115.907C376.241 121.206 366.712 129.529 368.882 136.083C369.092 136.715 370.021 139.544 372.701 140.604C376.101 141.956 379.661 139.408 380.001 139.156C379.841 139.515 377.511 144.396 371.871 145.291C366.441 146.156 362.721 142.568 362.391 142.238C358.211 149.103 353.881 151.602 350.541 152.555C347.401 153.459 343.651 153.42 341.081 156.424C339.551 158.214 339.181 160.217 339.091 160.781C338.851 162.181 338.381 164.942 340.261 166.644C341.691 167.937 344.001 168.17 346.141 167.402C345.331 168.287 342.081 171.622 336.681 172.245C335.701 172.361 329.681 172.945 324.891 168.53C320.311 164.31 320.381 158.758 320.411 157.873C295.861 152.098 271.311 146.322 246.751 140.546C246.401 140.984 243.131 144.999 238.231 144.795C233.351 144.591 228.841 140.274 228.271 134.381C228.601 134.829 230.661 137.522 233.251 137.289C235.671 137.065 237.091 134.381 237.731 133.176C241.961 125.183 235.881 106.854 234.241 101.214C229.051 83.2842 231.391 63.8275 237.391 50.0395C246.851 28.3172 266.511 18.1659 271.341 15.735C277.911 12.4387 289.751 6.69211 305.711 8.06313C320.181 9.30774 330.431 15.7447 335.011 19.0507Z" fill="#293336"/>
<path d="M352.032 129.072C349.432 135.742 344.042 146.506 333.352 155.948C331.272 157.785 301.472 183.397 273.832 171.933C259.512 165.992 252.892 153.05 248.932 145.3C238.722 125.338 241.502 106.309 242.702 98.8122C244.562 87.1926 248.982 59.6653 274.332 45.294C290.122 36.3484 313.442 32.8479 331.862 43.1159C361.842 59.8306 361.972 103.625 352.032 129.072Z" fill="#FDD0C9"/>
<path d="M356.451 112.951C360.701 111.667 364.971 112.289 367.461 114.779C370.551 117.871 369.601 122.528 368.951 125.679C367.241 134.06 360.071 143.852 352.511 143.113C350.081 142.88 348.071 141.596 346.521 140.157C348.711 136.491 351.071 131.843 353.041 126.262C354.781 121.323 355.821 116.801 356.441 112.96L356.451 112.951Z" fill="#FDD0C9"/>
<path d="M247.251 79.3656C246.941 78.8016 246.011 77.3236 244.281 76.8374C244.281 76.8374 242.641 76.3804 240.631 77.3139C234.801 80.0268 232.071 100.057 238.481 103.159C239.661 103.733 240.961 103.626 241.971 103.402C243.731 95.3899 245.501 87.3777 247.261 79.3656H247.251Z" fill="#FDD0C9"/>
<path d="M316.401 167.334C313.481 170.835 313.331 175.23 315.501 177.641C317.021 179.333 319.281 179.615 320.151 179.673C320.601 184.448 320.451 191.342 316.911 198.08C305.251 220.318 262.901 229.118 246.211 211.421C237.561 202.242 238.211 188.493 239.211 181.375C244.971 180.772 250.721 180.16 256.481 179.557C259.491 179.236 262.211 177.534 263.581 174.909C263.591 174.88 263.601 174.86 263.611 174.841C264.591 172.925 265.181 170.261 264.641 166.508C267.391 168.686 270.731 170.747 274.721 172.293C293.621 179.605 312.471 169.542 316.391 167.344L316.401 167.334Z" fill="#FDD0C9"/>
<path d="M297.131 111.142C296.231 112.94 294.401 116.033 290.961 118.823C288.881 120.505 286.801 121.614 285.051 122.333C283.371 123.033 282.751 125.027 283.761 126.505C284.331 127.351 285.121 128.226 286.191 128.994C288.741 130.812 291.391 130.929 292.291 130.929" stroke="#E89591" stroke-width="1.95" stroke-linecap="round" stroke-linejoin="round"/>
<path d="M311.951 102.974C311.701 102.419 311.341 101.418 311.691 100.416C312.991 96.6532 323.291 96.0309 330.991 98.1409C334.021 98.9674 338.861 100.368 341.871 104.821C343.121 106.668 343.671 108.477 343.931 109.712C342.241 107.942 337.131 103.032 328.671 101.359C320.651 99.7745 314.281 102.021 311.951 102.974Z" fill="#293336"/>
<path d="M310.941 112.619C311.741 111.346 313.851 108.39 317.821 106.717C322.621 104.695 328.101 105.424 332.101 108.03C333.221 108.759 337.821 111.764 338.101 116.878C338.211 118.979 337.641 122.158 335.741 123.568C331.781 126.524 321.871 121.974 310.951 112.6L310.941 112.619Z" fill="#E89591"/>
<path d="M307.832 120.846C308.452 121.906 311.432 126.68 317.702 128.469C325.042 130.569 330.992 126.894 331.842 126.349C332.122 126.009 336.382 120.632 334.212 115.109C332.012 109.489 324.772 107.816 319.772 108.682C313.902 109.693 309.122 114.535 307.832 120.846Z" fill="white"/>
<path d="M307.771 120.943C307.831 119.99 308.291 114.029 313.501 110.13C320.191 105.142 328.261 108.4 328.821 108.643C329.981 109.138 335.031 111.278 336.491 116.246C336.731 117.083 337.861 120.914 335.471 123.947C334.261 125.484 332.651 126.164 331.781 126.456C332.401 125.552 333.241 124.045 333.511 122.042C334.261 116.441 329.711 112.493 329.441 112.26C325.481 108.925 319.841 108.856 315.671 110.685C309.121 113.563 307.871 120.389 307.781 120.943H307.771Z" fill="#293336"/>
<path d="M329.661 123.238C326.981 127.749 321.041 129.295 316.401 126.689C311.761 124.083 310.171 118.308 312.851 113.796C315.531 109.284 321.471 107.738 326.111 110.344C330.751 112.95 332.341 118.726 329.661 123.238Z" fill="#293336"/>
<path d="M324.802 118.803C326.79 118.803 328.402 117.235 328.402 115.302C328.402 113.369 326.79 111.802 324.802 111.802C322.813 111.802 321.202 113.369 321.202 115.302C321.202 117.235 322.813 118.803 324.802 118.803Z" fill="white"/>
<path d="M282.251 103.868C282.381 102.38 282.481 98.7828 280.311 95.1559C277.671 90.7609 272.821 88.1842 268.001 87.9897C266.651 87.9314 261.111 87.7077 257.771 91.6652C256.401 93.2987 254.931 96.1866 255.601 98.423C256.991 103.09 267.751 105.132 282.251 103.878V103.868Z" fill="#E89591"/>
<path d="M279.741 112.288C278.591 112.784 273.291 114.914 267.141 112.745C259.941 110.208 257.391 103.819 257.041 102.896C257.021 102.468 256.871 95.6807 261.981 92.4719C267.181 89.2145 274.031 92.0441 277.531 95.6126C281.641 99.8132 282.541 106.464 279.731 112.288H279.741Z" fill="white"/>
<path d="M279.731 112.395C280.261 111.598 283.531 106.522 281.701 100.387C279.361 92.5108 270.861 90.498 270.271 90.3619C269.041 90.0896 263.671 88.9034 259.461 92.0732C258.761 92.608 255.511 95.0486 255.591 98.8602C255.631 100.795 256.511 102.263 257.031 103.002C257.081 101.913 257.321 100.212 258.321 98.4519C261.131 93.5123 267.201 92.9483 267.561 92.9192C272.781 92.5108 277.371 95.7098 279.611 99.5895C283.141 105.676 279.981 111.899 279.721 112.405L279.731 112.395Z" fill="#293336"/>
<path d="M260.701 101.63C260.111 106.813 263.951 111.48 269.281 112.054C274.611 112.628 279.411 108.894 280.001 103.711C280.591 98.5286 276.751 93.8614 271.421 93.2877C266.091 92.714 261.291 96.4478 260.701 101.63Z" fill="#293336"/>
<path d="M274.741 104.374C276.729 104.374 278.341 102.807 278.341 100.874C278.341 98.9403 276.729 97.373 274.741 97.373C272.753 97.373 271.141 98.9403 271.141 100.874C271.141 102.807 272.753 104.374 274.741 104.374Z" fill="white"/>
<path d="M287.031 95.0201C287.571 94.7186 288.471 94.1158 288.801 93.1143C290.041 89.3318 282.131 82.9046 274.641 80.1626C271.701 79.0832 266.941 77.4205 261.801 79.268C259.671 80.0362 258.121 81.1738 257.161 82.0197C259.601 81.5627 266.711 80.5515 274.541 84.0811C281.961 87.426 285.731 92.9004 287.031 95.0104V95.0201Z" fill="#293336"/>
<path d="M264.551 137.589C270.511 140.837 279.951 145.008 292.211 146.7C300.181 147.799 307.131 147.536 312.481 146.923" stroke="#E89591" stroke-width="1.95" stroke-linecap="round" stroke-linejoin="round"/>
<path d="M270.491 147.479C274.151 149.472 279.941 152.029 287.461 153.07C292.351 153.74 296.621 153.585 299.901 153.206" stroke="#E89591" stroke-width="1.95" stroke-linecap="round" stroke-linejoin="round"/>
<path d="M264.652 166.498C268.442 169.075 276.062 173.46 286.532 174.345C296.782 175.21 304.802 172.293 309.042 170.699C312.132 169.541 314.622 168.297 316.402 167.325C315.832 167.986 314.932 169.201 314.422 170.951C314.012 172.352 314.012 173.557 314.072 174.355C311.632 189.883 298.112 201.211 283.042 201.221C269.922 201.221 257.822 192.645 253.352 179.878C257.582 180.111 261.552 178.176 263.622 174.831C265.922 171.097 264.862 167.218 264.652 166.498Z" fill="#E89591"/>
<path d="M303.222 99.523C310.192 105.59 317.972 107.389 321.902 108.002C320.502 105.27 319.112 102.119 317.922 98.5604C315.432 91.1414 314.612 84.4224 314.432 79.1912C314.882 83.0028 316.092 89.1091 319.712 95.7406C322.192 100.272 324.802 105.046 330.092 108.459C338.762 114.06 346.722 110.9 349.292 115.508C350.282 117.288 350.562 120.399 347.052 126.165C348.692 125.728 352.642 124.464 356.022 120.837C359.812 116.782 360.562 112.271 360.752 110.666C362.422 107.068 372.802 83.6931 361.002 60.7846C348.552 36.6216 317.882 25.5563 291.272 32.4502C264.792 39.3248 245.692 63.1279 244.952 90.8108C246.112 86.3963 248.582 79.5704 254.162 72.8903C259.462 66.5409 265.162 63.196 268.112 61.5138C273.312 58.5287 278.102 56.8854 281.562 55.9423C279.922 59.1802 276.892 66.327 278.072 75.3115C280.292 92.1818 295.372 100.69 297.252 101.701C295.142 98.9105 291.472 93.2708 290.032 85.2392C288.542 76.8964 290.202 70.1677 291.282 66.8326C291.042 68.962 289.272 87.3686 303.232 99.523H303.222Z" fill="#293336"/>
<path d="M320.152 179.673C340.222 184.651 353.492 187.024 362.242 188.268C363.582 188.463 365.932 188.784 368.882 189.882C384.152 195.58 389.242 212.344 389.472 213.131C390.752 217.595 390.792 221.182 390.802 223.137C390.882 241.514 390.612 258.725 390.382 269.79C389.482 290.103 388.582 310.405 387.672 330.718C387.292 339.236 383.022 347.287 375.762 352.071C372.822 354.006 369.482 355.416 365.892 356.155C354.862 358.42 343.422 353.947 337.002 344.856C336.092 368.97 337.902 404.568 351.962 444.6C359.912 467.246 369.892 485.915 379.172 500.471C368.142 504.458 353.772 508.425 336.672 510.156C307.652 513.102 283.722 508.298 268.602 503.942C262.372 501.434 250.772 495.765 240.852 483.97C226.772 467.236 225.172 448.946 224.912 442.567C240.022 371.78 255.132 300.993 270.232 230.206C276.602 227.911 284.902 224.07 293.262 217.526C310.232 204.244 317.332 187.724 320.142 179.663L320.152 179.673Z" fill="#134675"/>
<path d="M287.402 260.661C287.882 258.473 288.372 256.285 288.852 254.097C288.892 253.916 289.008 253.844 289.201 253.883C292.791 254.632 296.382 255.381 299.972 256.139C300.158 256.178 300.232 256.288 300.192 256.47C299.992 257.374 299.792 258.278 299.592 259.183C299.592 259.222 299.572 259.26 299.562 259.299C299.522 259.426 299.502 259.445 299.372 259.426C299.312 259.426 299.252 259.406 299.192 259.387C296.912 258.91 294.632 258.434 292.352 257.957C292.165 257.919 292.051 257.99 292.011 258.171C291.901 258.667 291.791 259.173 291.681 259.669C291.671 259.717 291.662 259.776 291.652 259.824C291.642 259.892 291.671 259.941 291.741 259.951C291.801 259.97 291.871 259.98 291.931 259.999C294.201 260.476 296.471 260.952 298.731 261.419C299.111 261.497 299.061 261.507 298.991 261.798C298.811 262.615 298.631 263.422 298.451 264.239C298.441 264.288 298.431 264.326 298.421 264.375C298.381 264.501 298.361 264.511 298.231 264.492C298.171 264.492 298.111 264.472 298.051 264.453C295.781 263.976 293.501 263.5 291.231 263.023C291.038 262.985 290.922 263.059 290.882 263.247C290.762 263.782 290.642 264.317 290.532 264.851C290.522 264.9 290.512 264.958 290.502 265.007C290.502 265.065 290.521 265.104 290.581 265.124C290.641 265.143 290.711 265.153 290.771 265.163C293.061 265.639 295.342 266.116 297.632 266.602C297.825 266.641 297.901 266.754 297.861 266.942C297.661 267.837 297.461 268.741 297.261 269.635C297.261 269.655 297.262 269.674 297.252 269.684C297.202 269.908 297.201 269.908 296.961 269.859C293.341 269.101 289.712 268.342 286.092 267.584C285.862 267.535 285.862 267.535 285.912 267.302C286.402 265.085 286.892 262.868 287.382 260.651L287.402 260.661Z" fill="white"/>
<path d="M317.621 259.824C319.861 260.291 322.111 260.768 324.351 261.234C324.701 261.312 324.671 261.293 324.601 261.623C324.401 262.547 324.191 263.48 323.991 264.404C323.951 264.573 323.845 264.641 323.671 264.608C322.441 264.355 321.211 264.093 319.991 263.84C319.711 263.782 319.721 263.772 319.661 264.044C319.121 266.465 318.581 268.887 318.061 271.308C317.881 272.144 317.391 272.689 316.631 273.048C315.941 273.379 315.201 273.486 314.431 273.447C314.171 273.437 313.921 273.418 313.671 273.359C313.511 273.321 313.491 273.301 313.521 273.146C313.531 273.087 313.541 273.029 313.561 272.971C314.281 269.723 315.001 266.475 315.711 263.237C315.781 262.926 315.781 262.955 315.471 262.887C313.681 262.508 311.881 262.139 310.091 261.759C309.905 261.72 309.831 261.61 309.871 261.429C310.081 260.486 310.291 259.542 310.501 258.599C310.551 258.356 310.561 258.346 310.811 258.405C313.081 258.881 315.351 259.358 317.611 259.824H317.621Z" fill="white"/>
<path d="M308.952 265.494C309.012 265.435 309.012 265.367 309.022 265.309C309.182 264.589 309.342 263.87 309.502 263.141C309.512 263.073 309.502 262.975 309.582 262.956C309.662 262.936 309.682 263.043 309.722 263.092C310.652 264.492 311.572 265.883 312.502 267.283C312.582 267.409 312.602 267.516 312.572 267.662C312.202 269.315 311.842 270.968 311.472 272.621C311.422 272.864 311.412 272.864 311.162 272.815C310.622 272.699 310.092 272.592 309.552 272.485C309.422 272.456 309.332 272.407 309.282 272.29C309.272 272.261 309.252 272.232 309.232 272.203C308.872 271.639 308.502 271.085 308.152 270.521C307.722 269.84 307.292 269.169 306.862 268.489C306.452 267.847 306.052 267.205 305.642 266.563C305.212 265.892 304.792 265.221 304.362 264.541C304.172 264.23 303.972 263.928 303.772 263.627C303.742 263.578 303.712 263.53 303.652 263.491C303.602 263.539 303.602 263.607 303.582 263.666C303.462 264.2 303.342 264.735 303.222 265.27C303.212 265.328 303.212 265.396 303.162 265.445C303.092 265.445 303.072 265.377 303.052 265.338C302.112 263.918 301.172 262.509 300.232 261.089C300.172 260.992 300.152 260.904 300.172 260.797C300.482 259.397 300.792 257.997 301.102 256.606C301.142 256.412 301.162 256.402 301.352 256.441C302.092 256.597 302.822 256.752 303.562 256.898C303.682 256.927 303.762 256.986 303.822 257.083C304.092 257.54 304.362 257.987 304.632 258.434C305.002 259.037 305.362 259.65 305.732 260.253C305.952 260.622 306.182 260.992 306.402 261.361C306.802 262.013 307.192 262.674 307.592 263.325C307.852 263.753 308.122 264.181 308.382 264.619C308.532 264.871 308.692 265.134 308.842 265.387C308.862 265.426 308.882 265.474 308.942 265.503L308.952 265.494Z" fill="#27B2B4"/>
<path d="M299.942 270.481C298.802 270.238 298.072 269.149 298.322 268.031C298.572 266.923 299.702 266.213 300.842 266.456C301.982 266.699 302.712 267.798 302.462 268.916C302.212 270.024 301.082 270.734 299.942 270.491V270.481Z" fill="#A97D34"/>
<path d="M307.681 316.503L274.462 309.55C272.492 309.142 271.312 306.954 271.812 304.669L279.331 270.695C286.571 272.212 293.801 273.719 301.041 275.236C307.251 276.539 313.461 277.832 319.671 279.135L312.152 313.109C311.642 315.394 309.641 316.911 307.671 316.503H307.681Z" stroke="#083C5B" stroke-width="2.71" stroke-linecap="round" stroke-linejoin="round"/>
<path d="M279.331 270.705C292.781 273.515 306.241 276.335 319.691 279.145C318.891 282.704 318.101 286.272 317.301 289.831C309.961 291.212 302.621 292.593 295.281 293.973C289.171 289.783 283.071 285.592 276.961 281.391L279.331 270.695V270.705Z" stroke="#083C5B" stroke-width="2.71" stroke-linecap="round" stroke-linejoin="round"/>
<path d="M239.221 181.375C235.511 181.365 230.131 181.375 223.611 181.501C215.691 181.657 211.681 181.744 209.331 182.143C200.161 183.728 193.701 188.065 188.911 191.341C184.631 194.268 180.791 197.603 173.971 205.061C168.291 211.275 160.791 220.084 152.731 231.529C142.881 264.676 133.021 297.824 123.171 330.971C125.131 331.691 127.021 332.089 128.811 332.264C150.451 334.297 168.261 303.327 170.311 299.652C157.511 330.485 144.721 368.873 136.361 413.864C130.891 443.317 128.271 470.484 127.311 494.579C138.871 498.497 152.631 502.212 168.321 504.672C195.691 508.96 219.491 507.968 237.361 505.771C234.221 501.765 230.991 496.767 228.331 490.728C219.431 470.465 222.741 451.329 224.911 442.578C240.021 371.79 255.131 301.003 270.231 230.216C265.451 223.954 260.671 217.702 255.891 211.44C250.331 201.415 244.771 191.39 239.211 181.375H239.221Z" fill="#134675"/>
<path d="M145.481 327.752C147.901 295.684 150.311 263.606 152.731 231.538C154.251 245.287 155.771 259.036 157.291 272.785C159.211 274.71 162.271 278.328 164.061 283.685C166.861 292.106 164.671 299.34 163.771 301.878C165.451 299.515 167.111 297.094 168.751 294.614C179.041 279.076 186.951 263.655 193.071 248.972C186.221 270.364 178.711 292.349 170.491 314.839C164.421 331.437 158.231 347.578 151.971 363.243C158.091 342.055 164.211 320.858 170.331 299.671C167.991 304.046 164.561 309.472 159.611 315.082C154.631 320.722 149.601 324.845 145.491 327.762L145.481 327.752Z" fill="#083C5B"/>
<path d="M155.161 273.36C156.181 274.848 157.561 277.084 158.781 279.963C165.521 295.88 158.711 310.981 158.271 311.924C156.761 315.152 150.471 328.357 136.871 331.604C132.801 332.577 129.211 332.314 126.821 331.954C136.271 312.429 145.711 292.895 155.161 273.37V273.36Z" fill="#232B2D"/>
<path d="M103.912 305.145C104.132 308.665 104.612 314.946 108.892 320.965C110.482 323.201 116.622 331.068 126.822 331.943C140.252 333.1 149.152 321.14 150.732 319.03C155.442 312.7 156.562 305.971 157.042 302.889C157.962 296.948 157.282 292.32 157.042 290.618C152.982 261.953 153.092 218.81 150.462 199.849C150.352 199.061 149.992 196.514 150.072 193.12C150.102 191.662 150.222 187.617 151.402 183.757C153.022 178.448 155.562 177.057 158.372 172.458C160.282 169.327 162.402 164.562 163.022 157.61C152.782 140.497 142.542 123.383 132.312 106.28C131.872 105.045 131.372 103.051 131.652 100.63C131.742 99.8816 131.982 98.0244 133.142 96.1089C135.242 92.657 138.902 91.393 140.802 90.7415C143.112 89.9442 145.162 89.74 149.252 89.3316C153.092 88.9426 155.242 89.0399 156.722 87.3966C156.902 87.1924 157.802 86.152 157.882 84.6546C158.012 82.3015 156.042 80.7165 155.722 80.454C155.242 80.0651 154.432 79.54 151.902 79.0052C147.562 78.0815 143.982 78.3537 142.422 78.519C141.212 78.6454 139.792 78.8107 137.962 79.3261C137.172 79.5497 134.922 80.2304 130.992 82.5543C128.062 84.2851 126.582 85.1602 125.262 86.4242C122.872 88.7287 121.932 91.4124 120.532 97.966C119.642 102.108 118.652 107.398 117.832 113.621C116.392 114.564 114.202 115.993 111.502 117.734C108.092 119.931 107.702 120.145 107.192 120.563C103.892 123.276 102.262 128.284 103.322 133.136C105.602 143.53 107.792 153.526 109.392 160.848C112.112 173.236 112.772 176.221 113.212 181.51C113.702 187.413 113.402 194.005 111.552 213.316C110.922 219.86 110.072 225.889 108.402 237.693C105.962 254.855 102.382 280.087 103.922 305.174L103.912 305.145Z" fill="#FDD2C8"/>
<path d="M117.821 113.612C122.711 111.268 127.601 108.925 132.501 106.582C132.131 105.707 131.691 104.374 131.591 102.702C131.481 100.952 131.781 99.5224 132.051 98.5986C127.521 102.128 122.991 105.668 118.461 109.197C118.251 110.666 118.041 112.143 117.831 113.612H117.821Z" fill="#E89591"/>
<mask id="mask1_46_674" style="mask-type:luminance" maskUnits="userSpaceOnUse" x="103" y="78" width="61" height="255">
<path d="M103.912 305.147C104.132 308.667 104.612 314.948 108.892 320.967C110.482 323.203 116.622 331.07 126.822 331.945C140.252 333.102 149.152 321.142 150.732 319.032C155.442 312.702 156.562 305.973 157.042 302.891C157.962 296.95 157.282 292.322 157.042 290.62C152.982 261.955 153.092 218.812 150.462 199.851C150.352 199.063 149.992 196.516 150.072 193.122C150.102 191.664 150.222 187.619 151.402 183.759C153.022 178.45 155.562 177.059 158.372 172.46C160.282 169.329 162.402 164.564 163.022 157.612C152.782 140.499 142.542 123.385 132.312 106.282C131.872 105.047 131.372 103.053 131.652 100.632C131.742 99.8835 131.982 98.0263 133.142 96.1108C135.242 92.659 138.902 91.3949 140.802 90.7434C143.112 89.9461 145.162 89.7419 149.252 89.3335C153.092 88.9446 155.242 89.0418 156.722 87.3985C156.902 87.1943 157.802 86.1539 157.882 84.6565C158.012 82.3034 156.042 80.7185 155.722 80.456C155.242 80.067 154.432 79.5419 151.902 79.0071C147.562 78.0834 143.982 78.3557 142.422 78.521C141.212 78.6474 139.792 78.8127 137.962 79.328C137.172 79.5517 134.922 80.2323 130.992 82.5562C128.062 84.287 126.582 85.1621 125.262 86.4262C122.872 88.7307 121.932 91.4143 120.532 97.968C119.642 102.11 118.652 107.4 117.832 113.623C116.392 114.566 114.202 115.995 111.502 117.736C108.092 119.933 107.702 120.147 107.192 120.565C103.892 123.278 102.262 128.286 103.322 133.138C105.602 143.532 107.792 153.528 109.392 160.85C112.112 173.238 112.772 176.223 113.212 181.512C113.702 187.415 113.402 194.007 111.552 213.318C110.922 219.862 110.072 225.891 108.402 237.695C105.962 254.857 102.382 280.089 103.922 305.176L103.912 305.147Z" fill="white"/>
</mask>
<g mask="url(#mask1_46_674)">
<path d="M138.861 185.653C142.501 184.778 152.811 181.803 159.701 172.293C161.711 169.512 166.811 162.482 165.261 153.692C165.051 152.487 163.281 143.259 157.211 141.46C153.901 140.478 148.811 144.367 138.621 152.136C137.061 153.323 135.471 154.587 135.131 156.59C134.681 159.196 136.731 160.742 139.611 165.788C141.751 169.532 143.121 171.943 143.351 174.773C143.511 176.727 143.261 180.607 138.861 185.644V185.653Z" fill="#E89591"/>
</g>
<path d="M239.312 96.0986H136.782C133.667 96.0986 131.142 98.5539 131.142 101.583V150.015C131.142 153.044 133.667 155.5 136.782 155.5H239.312C242.426 155.5 244.952 153.044 244.952 150.015V101.583C244.952 98.5539 242.426 96.0986 239.312 96.0986Z" fill="#293336"/>
<path d="M144.632 86.7354H160.772C162.872 86.7354 164.572 88.3884 164.572 90.4303V96.1088H140.832V90.4303C140.832 88.3884 142.532 86.7354 144.632 86.7354Z" fill="#1C2223"/>
<path d="M217.612 90.1572H237.082C238.262 90.1572 239.212 91.0907 239.212 92.2283V96.0983H215.472V92.2283C215.472 91.081 216.432 90.1572 217.602 90.1572H217.612Z" fill="#1C2223"/>
<path d="M201.611 145.32C213.11 145.32 222.432 136.256 222.432 125.075C222.432 113.895 213.11 104.831 201.611 104.831C190.113 104.831 180.792 113.895 180.792 125.075C180.792 136.256 190.113 145.32 201.611 145.32Z" fill="#5F6466"/>
<path d="M201.611 141.431C210.901 141.431 218.432 134.108 218.432 125.076C218.432 116.043 210.901 108.721 201.611 108.721C192.322 108.721 184.792 116.043 184.792 125.076C184.792 134.108 192.322 141.431 201.611 141.431Z" fill="#80878C"/>
<path d="M201.612 136.53C208.117 136.53 213.392 131.401 213.392 125.075C213.392 118.749 208.117 113.621 201.612 113.621C195.106 113.621 189.832 118.749 189.832 125.075C189.832 131.401 195.106 136.53 201.612 136.53Z" fill="#C4CACC"/>
<path d="M202.102 125.328C204.576 125.328 206.582 123.378 206.582 120.972C206.582 118.567 204.576 116.616 202.102 116.616C199.627 116.616 197.622 118.567 197.622 120.972C197.622 123.378 199.627 125.328 202.102 125.328Z" fill="white"/>
<path d="M204.932 132.348C206.495 132.348 207.762 131.116 207.762 129.596C207.762 128.077 206.495 126.845 204.932 126.845C203.369 126.845 202.102 128.077 202.102 129.596C202.102 131.116 203.369 132.348 204.932 132.348Z" fill="white"/>
<path d="M194.742 128.488C195.675 128.488 196.432 127.752 196.432 126.844C196.432 125.937 195.675 125.201 194.742 125.201C193.808 125.201 193.052 125.937 193.052 126.844C193.052 127.752 193.808 128.488 194.742 128.488Z" fill="white"/>
<path d="M174.782 102.672H159.282V109.08H174.782V102.672Z" fill="#5F6466"/>
<path d="M236.532 99.1621H218.162V105.57H236.532V99.1621Z" fill="#5F6466"/>
<path d="M132.491 106.591C135.361 106.543 138.221 106.494 141.091 106.455C144.891 106.397 148.611 107.554 151.661 109.771L159.161 115.206C164.021 118.726 168.241 123.034 171.631 127.925L173.621 130.793C174.461 132.009 174.911 133.467 174.761 134.926C174.671 135.781 174.381 136.676 173.701 137.366C171.821 139.292 167.371 139.223 164.271 135.908C167.761 140.838 169.621 145.271 170.661 148.422C172.021 152.525 171.881 154.071 171.161 155.199C170.681 155.967 169.961 156.502 169.151 156.881C166.191 158.252 162.631 157.008 160.931 154.285C159.801 152.496 158.681 150.697 157.551 148.908L158.531 155.005C158.821 156.784 158.111 158.369 156.881 158.914C155.881 159.351 154.841 158.972 154.691 158.914C153.401 158.418 152.691 157.047 152.201 156.103C152.181 156.055 152.091 155.899 151.931 155.569C151.431 154.567 150.691 153.079 149.841 151.329C148.871 148.898 147.501 147.469 146.511 146.652C142.051 142.986 134.601 143.025 127.671 146.652C122.631 140.361 117.601 134.06 112.561 127.769C112.321 126.155 112.391 124.522 112.891 122.927C114.151 118.93 117.501 117.19 126.171 111.142C128.661 109.401 130.801 107.865 132.501 106.621L132.491 106.591Z" fill="#FDD2C8"/>
<mask id="mask2_46_674" style="mask-type:luminance" maskUnits="userSpaceOnUse" x="112" y="106" width="63" height="54">
<path d="M132.512 106.64C135.382 106.592 138.242 106.543 141.112 106.504C144.912 106.446 148.632 107.603 151.682 109.82L159.182 115.255C164.042 118.775 168.262 123.083 171.652 127.974L173.642 130.842C174.482 132.057 174.932 133.516 174.782 134.974C174.692 135.83 174.402 136.725 173.722 137.415C171.842 139.34 167.392 139.272 164.292 135.957C167.782 140.886 169.642 145.32 170.682 148.471C172.042 152.574 171.902 154.12 171.182 155.248C170.702 156.016 169.982 156.551 169.172 156.93C166.212 158.301 162.662 157.057 160.952 154.344C159.822 152.545 158.692 150.756 157.572 148.957L158.552 155.054C158.842 156.833 158.132 158.418 156.902 158.962C155.902 159.4 154.862 159.021 154.712 158.962C153.422 158.467 152.712 157.096 152.222 156.152C152.202 156.104 152.112 155.948 151.952 155.618C151.452 154.616 150.712 153.128 149.862 151.378C149.102 150.027 148.352 148.685 147.592 147.333C146.342 145.097 143.942 143.706 141.332 143.667C140.472 143.658 139.572 143.667 138.632 143.745C133.822 144.105 130.052 145.554 127.692 146.701C122.652 140.41 117.622 134.109 112.582 127.818C112.422 125.951 112.592 124.337 112.912 122.976C115.562 111.619 130.692 107.175 132.522 106.669L132.512 106.64Z" fill="white"/>
</mask>
<g mask="url(#mask2_46_674)">
<path d="M165.982 137.97C164.182 136.969 162.832 135.51 161.372 134.178L157.022 130.124L148.322 122.024C147.242 121.227 144.742 120.381 142.932 120.692L140.852 120.974C135.422 121.722 120.942 123.599 115.332 124.319C114.802 124.387 114.312 124.027 114.232 123.502C114.162 122.987 114.532 122.5 115.072 122.432L132.072 120.264L140.582 119.214L142.752 118.951C145.132 118.718 147.622 119.399 149.492 120.847C152.292 123.57 159.562 130.629 162.272 133.274C162.762 133.77 167.412 138.058 165.982 137.961V137.97Z" fill="#E89591"/>
<path d="M159.132 153.354C157.702 149.678 155.542 146.382 153.472 143.066C149.782 136.027 141.622 133.567 133.972 133.323C130.062 133.197 126.102 133.518 122.202 134.15C121.672 134.238 121.172 133.897 121.082 133.382C120.992 132.886 121.322 132.419 121.822 132.312C131.642 130.261 143.612 130.124 151.412 137.213C154.462 140.13 155.862 143.951 157.362 147.705C158.082 149.552 158.602 151.458 159.262 153.305C159.292 153.393 159.152 153.451 159.122 153.354H159.132Z" fill="#E89591"/>
</g>
<path d="M341.852 248.331C342.802 242.643 343.742 236.965 344.692 231.276C346.442 241.369 348.202 251.472 349.952 261.565C347.252 257.151 344.552 252.746 341.852 248.331Z" fill="#083C5B"/>
<path d="M386.141 331.058C386.771 321.063 382.521 313.041 376.931 302.481C373.711 296.404 370.711 292.164 369.961 291.104C344.091 254.534 343.481 247.883 319.411 215.796C314.211 208.863 307.061 199.606 299.991 185.77C298.601 183.047 296.741 179.031 293.021 171C284.841 153.342 280.751 144.503 280.401 143.122C280.231 142.442 279.831 140.779 278.581 139.038C276.471 136.141 273.441 135.11 269.121 133.71C259.651 130.637 254.851 129.091 251.691 128.508C243.031 126.894 240.541 127.72 239.491 128.148C237.161 129.082 235.021 130.433 232.771 133.963C227.391 142.383 220.051 153.877 224.051 157.931C224.871 158.758 226.521 159.652 230.281 159.147C227.681 161.616 227.721 165.72 230.281 168.102C232.881 170.523 237.181 170.338 239.581 167.616C241.891 169.142 245.371 171.846 248.051 176.173C253.061 184.272 250.241 189.99 255.691 196.67C258.871 200.579 260.321 199.781 265.901 204.176C271.431 208.542 274.091 213.627 277.111 219.919C282.111 230.332 298.471 265.59 319.891 314.042C321.221 318.252 331.901 350.583 356.301 356.009C359.211 356.651 366.391 358.245 373.231 354.793C384.741 348.988 386.021 333.616 386.181 331.068L386.141 331.058Z" fill="#FCD2C8"/>
<path d="M239.282 167.869C242.082 170.076 245.422 173.159 248.612 177.301C253.382 183.505 255.842 189.553 257.152 193.782C261.512 205.927 265.882 218.072 270.242 230.216C257.792 214.717 245.342 199.218 232.892 183.728C235.022 178.448 237.152 173.159 239.282 167.879V167.869Z" fill="#293336"/>
<path d="M239.281 167.869H249.871C249.811 168.764 249.681 169.756 249.441 170.806C248.741 173.927 247.381 176.329 246.231 177.952C243.911 174.588 241.601 171.233 239.281 167.869Z" fill="#293336"/>
<path d="M239.281 167.869C234.281 172.527 229.281 177.184 224.281 181.842C225.951 182.338 228.361 183.3 230.501 185.303C235.781 190.224 236.321 197.273 236.781 200.754C237.651 207.327 240.781 216.477 250.811 227.552C249.901 224.441 249.191 219.929 250.561 214.96C251.361 212.053 252.271 208.756 255.291 207.454C258.311 206.151 261.551 207.638 262.411 208.066C254.701 194.667 246.981 181.268 239.271 167.869H239.281Z" fill="#083C5B"/>
<path d="M320.961 169.483C304.051 189.728 287.151 209.972 270.241 230.207C281.751 225.685 293.261 221.164 304.771 216.642C311.931 205.567 319.091 194.483 326.251 183.407C324.491 178.76 322.721 174.121 320.961 169.474V169.483Z" fill="#293336"/>
<path d="M320.961 169.484C325.961 174.142 330.961 178.799 335.961 183.457C334.291 183.953 331.881 184.916 329.741 186.919C324.021 192.257 323.661 200.269 323.461 202.369C322.741 209.701 314.531 220.455 281.571 235.42C281.081 232.395 280.601 229.362 280.111 226.338C305.851 212.666 314.291 207.678 314.001 207.134C313.691 206.541 304.031 212.258 300.001 209.03C297.161 206.755 298.021 200.775 300.251 194.017C307.151 185.839 314.061 177.662 320.961 169.484Z" fill="#083C5B"/>
<path d="M320.962 169.483C319.112 172.166 317.262 174.85 315.412 177.534C314.962 176.989 314.372 176.124 314.062 174.947C313.292 172.03 314.872 169.59 315.212 169.094C317.132 169.22 319.042 169.347 320.962 169.473V169.483Z" fill="#293336"/>
<path opacity="0.5" d="M326.132 356C329.762 359.306 333.392 362.611 337.022 365.917C336.992 361.085 336.982 356.223 336.992 351.342C336.992 349.174 336.992 347.015 337.012 344.856C321.132 312.01 305.262 279.164 289.382 246.309C287.942 250.149 286.492 254 285.042 257.841C292.272 271.347 299.532 286.233 306.462 302.472C314.542 321.403 320.972 339.372 326.132 355.98V356Z" fill="#083C5B"/>
<path opacity="0.5" d="M288.901 247.757C289.241 245.686 291.431 231.033 282.051 223.302C280.861 222.32 279.331 221.329 277.381 220.521C275.511 220.628 273.651 220.735 271.781 220.842C276.201 233.182 280.621 245.521 285.041 257.85" fill="#083C5B"/>
<path d="M277.221 220.23C277.471 219.238 279.331 211.343 273.891 204.536C267.511 196.543 257.101 197.584 256.571 197.652L256.521 203.749C258.741 205.071 261.471 206.996 264.181 209.729C268.191 213.783 270.491 217.945 271.781 220.833C273.591 220.629 275.411 220.424 277.221 220.23Z" fill="#E89591"/>
<mask id="mask3_46_674" style="mask-type:luminance" maskUnits="userSpaceOnUse" x="224" y="167" width="39" height="58">
<path d="M239.281 167.87C234.281 172.528 229.281 177.185 224.281 181.843C225.951 182.339 228.361 183.301 230.501 185.304C235.411 189.874 236.011 196.175 236.781 200.755C237.751 206.521 240.031 214.562 245.831 224.159C245.411 222.633 244.451 218.316 246.581 213.746C247.271 212.248 248.691 209.214 252.141 207.61C256.931 205.383 261.751 207.727 262.411 208.057C254.701 194.658 246.981 181.259 239.271 167.86L239.281 167.87Z" fill="white"/>
</mask>
<g mask="url(#mask3_46_674)">
<path d="M232.001 172.779C231.411 177.359 233.371 182.95 237.891 185.206C239.661 186.091 241.371 186.237 242.461 186.246C242.151 194.181 245.041 197.837 246.441 199.257C248.401 201.24 252.081 203.039 259.451 206.646C260.681 207.249 261.711 207.735 262.421 208.066C260.471 200.987 258.521 193.909 256.571 186.82C249.931 179.372 243.291 171.914 236.651 164.466C235.561 165.419 232.581 168.277 232.001 172.779Z" fill="#07374F"/>
</g>
<path d="M386.141 331.059C386.771 321.064 382.521 313.042 376.931 302.482C373.711 296.405 370.711 292.165 369.961 291.105C344.091 254.535 343.481 247.884 319.411 215.797C314.211 208.864 307.061 199.607 299.991 185.771C298.601 183.048 296.741 179.032 293.021 171.001C284.841 153.343 280.751 144.504 280.401 143.123C280.231 142.443 279.831 140.78 278.581 139.039C276.471 136.142 273.441 135.111 269.121 133.711C259.651 130.638 254.851 129.092 251.691 128.509C243.031 126.895 240.541 127.721 239.491 128.149C237.161 129.083 235.021 130.434 232.771 133.964C227.391 142.384 220.051 153.877 224.051 157.932C224.871 158.759 226.521 159.653 230.281 159.148C227.681 161.617 227.721 165.721 230.281 168.103C232.881 170.524 237.181 170.339 239.581 167.617C239.671 168.511 240.261 173.772 241.611 176.339C241.801 176.699 242.081 177.156 242.541 177.593C242.931 177.972 244.161 179.168 245.891 179.003C247.731 178.818 248.691 177.243 248.801 177.068C248.941 178.186 250.651 190.963 255.691 196.68C256.741 197.867 257.931 198.946 257.931 198.946C259.911 200.521 261.781 200.93 265.901 204.177C271.431 208.543 274.091 213.628 277.111 219.92C282.111 230.333 298.471 265.591 319.891 314.043C321.221 318.253 331.901 350.584 356.301 356.01C359.211 356.652 366.391 358.246 373.231 354.794C384.741 348.989 386.021 333.617 386.181 331.069L386.141 331.059Z" fill="#FCD2C8" stroke="#E89591" stroke-width="1.95" stroke-miterlimit="10"/>
<mask id="mask4_46_674" style="mask-type:luminance" maskUnits="userSpaceOnUse" x="222" y="127" width="165" height="230">
<path d="M386.141 331.061C386.771 321.066 382.521 313.044 376.931 302.484C373.711 296.407 370.711 292.167 369.961 291.107C344.091 254.537 343.481 247.886 319.411 215.799C314.211 208.866 307.061 199.609 299.991 185.773C298.601 183.05 296.741 179.034 293.021 171.003C284.841 153.345 280.751 144.506 280.401 143.125C280.231 142.445 279.831 140.782 278.581 139.041C276.471 136.144 273.441 135.113 269.121 133.713C259.651 130.64 254.851 129.094 251.691 128.511C243.031 126.897 240.541 127.723 239.491 128.151C237.161 129.084 235.021 130.436 232.771 133.966C227.391 142.386 220.051 153.879 224.051 157.934C224.871 158.761 226.521 159.655 230.281 159.15C227.681 161.619 227.721 165.723 230.281 168.105C232.881 170.526 237.181 170.341 239.581 167.619C239.671 168.513 240.261 173.774 241.611 176.341C241.801 176.701 242.081 177.158 242.541 177.595C242.931 177.974 244.161 179.17 245.891 179.005C247.731 178.82 248.691 177.245 248.801 177.07C248.941 178.188 250.651 190.965 255.691 196.682C256.741 197.869 257.931 198.948 257.931 198.948C259.911 200.523 261.781 200.932 265.901 204.179C271.431 208.545 274.091 213.63 277.111 219.922C282.111 230.335 298.471 265.593 319.891 314.045C321.221 318.255 331.901 350.586 356.301 356.012C359.211 356.654 366.391 358.248 373.231 354.796C384.741 348.991 386.021 333.619 386.181 331.071L386.141 331.061Z" fill="white"/>
</mask>
<g mask="url(#mask4_46_674)">
<path d="M273.751 200.873C271.761 199.56 267.041 196.05 264.791 189.73C264.481 188.845 261.071 178.898 265.951 172.295C267.111 170.73 268.481 169.67 268.611 167.618C268.771 165.032 266.861 162.407 264.541 161.162C261.071 159.305 256.482 160.413 253.912 162.698C250.852 165.421 249.641 170.72 249.121 173.005C248.641 175.096 248.371 177.352 246.781 178.003C245.631 178.47 244.371 177.867 244.081 177.721C241.551 176.506 240.982 173.141 240.722 171.488C240.292 168.707 240.582 165.965 241.722 162.446C243.492 156.971 245.731 150.038 250.931 148.726C252.431 148.346 253.441 148.619 259.271 150.359C262.451 151.312 266.592 152.557 271.472 154.054" stroke="#E89591" stroke-width="1.95" stroke-linecap="round" stroke-linejoin="round"/>
<path d="M265.452 142.435C262.642 141.385 258.372 140.004 253.002 139.041C251.022 138.691 246.232 137.184 242.542 138.555C241.752 138.856 241.142 139.226 241.052 139.284C238.912 140.616 237.962 142.59 237.272 144.127C235.482 148.113 233.302 153.802 232.662 155.425C232.402 156.077 231.882 157.399 230.772 158.858C230.202 159.606 230.032 159.665 229.712 160.112C228.682 161.551 228.042 164.332 229.522 166.549C231.032 168.795 233.922 169.233 235.912 168.892C239.052 168.358 240.572 165.8 240.782 165.431C240.392 166.481 239.842 168.027 239.272 169.923C237.822 174.804 238.122 175.796 237.282 176.7C233.912 180.327 219.092 175.154 219.102 170.643C219.102 168.085 223.862 167.298 229.702 160.112C231.012 158.498 232.292 156.67 232.162 156.563C232.082 156.495 231.552 157.185 230.552 157.749C230.332 157.876 228.952 158.624 227.442 158.537C225.322 158.41 223.622 156.67 222.882 155.095C221.912 153.024 222.502 151.03 223.142 148.852C223.822 146.557 224.882 144.856 225.632 143.825" stroke="#E89591" stroke-width="1.95" stroke-linecap="round" stroke-linejoin="round"/>
<path d="M240.792 165.431C240.412 166.257 239.762 167.395 238.642 168.464C236.252 170.749 233.372 171.197 232.312 171.313" stroke="#F5B5AF" stroke-width="1.95" stroke-linecap="round" stroke-linejoin="round"/>
</g>
<path d="M270.241 230.216C271.111 230.517 251.111 276.393 239.111 329.25C226.981 382.729 226.371 428.692 228.071 460.605C227.231 457.94 226.441 454.858 225.851 451.416C225.301 448.188 225.021 445.222 224.911 442.577C224.121 450.123 223.321 457.668 222.531 465.214C222.361 454.08 222.421 437.92 223.581 418.444C225.051 393.804 227.021 363.263 236.531 325.788C241.631 305.68 247.361 289.665 252.801 274.458C260.831 251.996 269.631 230.021 270.231 230.226L270.241 230.216Z" fill="#083C5B"/>
<path d="M275.561 239.784C277.649 239.784 279.341 238.138 279.341 236.108C279.341 234.078 277.649 232.433 275.561 232.433C273.474 232.433 271.781 234.078 271.781 236.108C271.781 238.138 273.474 239.784 275.561 239.784Z" fill="#083C5B"/>
<path d="M275.091 238.52C276.82 238.52 278.221 237.157 278.221 235.476C278.221 233.795 276.82 232.433 275.091 232.433C273.363 232.433 271.961 233.795 271.961 235.476C271.961 237.157 273.363 238.52 275.091 238.52Z" fill="#293336"/>
<path d="M263.351 275.402C265.439 275.402 267.131 273.756 267.131 271.726C267.131 269.696 265.439 268.051 263.351 268.051C261.264 268.051 259.571 269.696 259.571 271.726C259.571 273.756 261.264 275.402 263.351 275.402Z" fill="#083C5B"/>
<path d="M262.891 274.138C264.62 274.138 266.021 272.775 266.021 271.094C266.021 269.413 264.62 268.051 262.891 268.051C261.163 268.051 259.761 269.413 259.761 271.094C259.761 272.775 261.163 274.138 262.891 274.138Z" fill="#293336"/>
<path d="M249.871 315.152C251.959 315.152 253.651 313.506 253.651 311.476C253.651 309.446 251.959 307.801 249.871 307.801C247.784 307.801 246.091 309.446 246.091 311.476C246.091 313.506 247.784 315.152 249.871 315.152Z" fill="#083C5B"/>
<path d="M249.401 313.888C251.13 313.888 252.531 312.525 252.531 310.844C252.531 309.163 251.13 307.801 249.401 307.801C247.673 307.801 246.271 309.163 246.271 310.844C246.271 312.525 247.673 313.888 249.401 313.888Z" fill="#293336"/>
<path d="M240.212 356.933C242.299 356.933 243.992 355.287 243.992 353.258C243.992 351.228 242.299 349.582 240.212 349.582C238.124 349.582 236.432 351.228 236.432 353.258C236.432 355.287 238.124 356.933 240.212 356.933Z" fill="#083C5B"/>
<path d="M239.752 355.669C241.48 355.669 242.882 354.306 242.882 352.625C242.882 350.945 241.48 349.582 239.752 349.582C238.023 349.582 236.622 350.945 236.622 352.625C236.622 354.306 238.023 355.669 239.752 355.669Z" fill="#293336"/>
<path d="M234.882 408.828C236.969 408.828 238.662 407.182 238.662 405.152C238.662 403.122 236.969 401.477 234.882 401.477C232.794 401.477 231.102 403.122 231.102 405.152C231.102 407.182 232.794 408.828 234.882 408.828Z" fill="#083C5B"/>
<path d="M234.411 407.563C236.14 407.563 237.541 406.201 237.541 404.52C237.541 402.839 236.14 401.477 234.411 401.477C232.683 401.477 231.281 402.839 231.281 404.52C231.281 406.201 232.683 407.563 234.411 407.563Z" fill="#293336"/>
</svg>
