<svg width="506" height="683" viewBox="0 0 506 683" fill="none" xmlns="http://www.w3.org/2000/svg">
<path d="M93.9801 150.52C99.9601 153.75 109.4 159.84 118.2 170.53C126.69 180.85 131.04 191.15 133.27 197.73C121.28 200.82 108.63 196.76 100.38 187.16C91.8801 177.27 89.3901 163.05 93.9801 150.51V150.52Z" fill="#293336"/>
<path d="M155.85 493.19C159.21 555.96 162.56 618.72 165.92 681.49C222.5 681.71 279.07 681.94 335.65 682.16C340.9 619.63 346.16 557.09 351.41 494.56C339.84 482.18 328.27 469.8 316.7 457.42H194.03C181.3 469.34 168.58 481.27 155.85 493.19Z" fill="#293336"/>
<mask id="mask0_44_668" style="mask-type:luminance" maskUnits="userSpaceOnUse" x="154" y="457" width="199" height="226">
<path d="M154.26 493.19C157.62 555.96 160.97 618.72 164.33 681.49C221.86 681.8 279.38 682.12 336.91 682.43C338.37 657.6 340.1 632.38 342.11 606.79C345.2 567.45 348.82 529.07 352.88 491.69C340.29 480.26 327.7 468.84 315.11 457.41H192.44C179.71 469.33 166.99 481.26 154.26 493.18V493.19Z" fill="white"/>
</mask>
<g mask="url(#mask0_44_668)">
<path d="M188.02 415.811C237.74 429.491 246.77 454.321 287.23 457.421C311.77 459.301 319.64 451.031 331.53 458.951C350.95 471.891 351.38 508.241 348.51 537.721C340.36 538.571 328.33 539.321 313.79 538.261C301.43 537.361 293.84 536.811 285.49 533.411C279.28 530.881 264.87 523.611 252.98 502.151C249.19 511.281 241.53 525.271 227.16 533.411C218.98 538.041 210.47 539.811 203.5 541.131C193.78 542.981 185.56 543.311 179.86 543.251C180.67 552.701 184.69 587.201 211.86 612.681C237.56 636.791 278.49 647.431 306.43 631.811C336.58 614.951 344.01 579.151 345.18 573.091C341.46 609.651 337.74 646.211 334.03 682.771C272.24 721.191 200.07 728.181 150.52 694.011C56.2099 628.961 78.4899 438.631 135.24 410.481C147.63 404.341 161.87 408.601 188.03 415.801L188.02 415.811Z" fill="#242B2D"/>
</g>
<path d="M182.93 291.86C185.4 347.35 187.87 402.84 190.34 458.34C229.51 459.06 268.67 459.78 307.84 460.5C314.17 404.69 320.5 348.88 326.83 293.08C318.32 282.13 309.8 271.19 301.29 260.24H211.02C201.66 270.78 192.29 281.32 182.93 291.87V291.86Z" fill="white"/>
<path d="M228.1 459.03C249.12 459.66 270.14 460.29 291.16 460.92V421.84C284.62 424.32 272.65 427.54 259.76 423.2C238.12 415.91 222.75 390.28 222.74 359.34C224.53 392.57 226.31 425.8 228.1 459.04V459.03Z" fill="#E0E0E0"/>
<path d="M148.36 215.98C127.87 224.7 107.38 233.42 86.8901 242.14C102.35 227.34 117.81 212.54 133.27 197.73C128.68 196.66 117.88 193.45 108.37 183.35C96.2501 170.47 94.3801 155.04 93.9901 150.51C82.7701 159.5 74.1101 167.48 68.3901 172.98C30.7001 203.58 -1.35988 243.02 0.210118 268.21C0.580118 274.14 2.49012 279.45 2.49012 279.45C2.49012 279.45 6.32012 290.09 16.5601 298.31C32.2701 310.92 64.0901 308.8 80.8101 307.54C115.39 304.93 141.77 302.67 157.04 301.32C158.47 312.83 159.95 322.1 161.03 328.41C163.19 340.97 165.17 353.56 167.24 366.13C168.09 371.27 168.2 373.9 168.25 376.03C168.63 391.36 160.9 407.86 160.9 407.86C155.06 420.38 140.59 461.26 120.68 518.23C129.3 523.05 144.02 529.92 163.32 532.24C176.84 533.87 199.67 536.61 222.04 522.54C239.36 511.65 248.43 495.68 252.8 485.98C253.54 434.72 254.28 383.46 255.01 332.2C219.46 293.46 183.9 254.72 148.35 215.97L148.36 215.98Z" fill="#134675"/>
<path d="M361.01 224.29C362.76 226.77 365.26 230.52 367.85 235.32C368.62 236.73 369.3 238.08 369.97 239.52C375.92 252.34 380.65 271.43 380.65 271.43C382.67 279.87 385.85 291.83 390.88 307.1C396.51 295.03 402.14 282.97 407.77 270.9C409.81 278.75 413.4 289.36 419.94 300.73C426.33 311.85 433.39 319.97 438.95 325.47C424.32 366.37 405.5 393.56 393.07 394.75C385.25 395.5 379.13 392.61 379.13 392.61C374.49 390.42 370.41 387.1 367.22 381.37C356.18 361.54 347.31 334.91 343.32 322.21C342.45 326.73 341.27 333.29 340.1 341.24C339.68 344.12 336.79 363.97 336.42 375.58C335.67 398.92 346.35 420.39 356.32 443.43C364.46 462.23 375.01 489.62 384.42 525.49C356.43 530 333.54 530.1 317.53 529.26C300.31 528.36 292.66 526.47 285.36 522.79C266.55 513.32 257.01 495.53 252.8 485.96C253.54 434.7 254.28 383.44 255.01 332.18C263.43 308.8 271.85 285.42 280.28 262.04C307.19 249.44 334.1 236.85 361.01 224.25V224.29Z" fill="#134675"/>
<path d="M282.54 293.739C282.54 290.799 282.54 287.859 282.54 284.909C282.54 284.662 282.66 284.539 282.9 284.539C287.35 284.539 291.79 284.539 296.24 284.539C296.473 284.539 296.59 284.659 296.59 284.899C296.59 286.119 296.59 287.329 296.59 288.549C296.59 288.599 296.59 288.659 296.59 288.709C296.59 288.889 296.56 288.909 296.4 288.919C296.33 288.919 296.26 288.919 296.18 288.919C293.36 288.919 290.53 288.919 287.71 288.919C287.483 288.919 287.37 289.042 287.37 289.289C287.37 289.959 287.37 290.639 287.37 291.309C287.37 291.379 287.37 291.449 287.37 291.519C287.37 291.609 287.42 291.659 287.51 291.659C287.59 291.659 287.67 291.659 287.75 291.659C290.56 291.659 293.37 291.659 296.18 291.659C296.65 291.659 296.59 291.689 296.59 292.079C296.59 293.169 296.59 294.269 296.59 295.359C296.59 295.419 296.59 295.479 296.59 295.539C296.59 295.709 296.56 295.729 296.39 295.739C296.32 295.739 296.25 295.739 296.17 295.739C293.35 295.739 290.54 295.739 287.72 295.739C287.487 295.739 287.37 295.866 287.37 296.119C287.37 296.839 287.37 297.559 287.37 298.279C287.37 298.349 287.37 298.419 287.37 298.489C287.37 298.569 287.42 298.609 287.5 298.619C287.58 298.619 287.66 298.619 287.74 298.619C290.57 298.619 293.4 298.619 296.23 298.619C296.47 298.619 296.59 298.746 296.59 298.999C296.59 300.209 296.59 301.409 296.59 302.619C296.59 302.639 296.59 302.669 296.59 302.689C296.59 302.989 296.59 302.999 296.3 302.999C291.81 302.999 287.32 302.999 282.83 302.999C282.54 302.999 282.54 302.999 282.54 302.689C282.54 299.709 282.54 296.729 282.54 293.749V293.739Z" fill="white"/>
<path d="M318.09 284.539C320.87 284.539 323.65 284.539 326.43 284.539C326.86 284.539 326.83 284.539 326.83 284.969C326.83 286.219 326.83 287.459 326.83 288.709C326.83 289.049 326.83 289.059 326.51 289.059C324.99 289.059 323.47 289.059 321.95 289.059C321.6 289.059 321.61 289.039 321.61 289.409C321.61 292.669 321.59 295.919 321.61 299.179C321.61 300.299 321.17 301.139 320.38 301.799C319.65 302.409 318.8 302.739 317.88 302.909C317.57 302.969 317.26 303.009 316.95 302.999C316.75 302.999 316.73 302.979 316.72 302.759C316.72 302.679 316.72 302.609 316.72 302.529C316.72 298.169 316.72 293.799 316.72 289.439C316.72 289.019 316.73 289.059 316.35 289.059C314.13 289.059 311.9 289.059 309.68 289.059C309.453 289.059 309.34 288.936 309.34 288.689C309.34 287.419 309.34 286.149 309.34 284.879C309.34 284.549 309.34 284.539 309.65 284.539C312.46 284.539 315.27 284.539 318.08 284.539H318.09Z" fill="white"/>
<path d="M309.32 294.169C309.37 294.079 309.35 293.989 309.35 293.909C309.35 292.939 309.35 291.969 309.35 290.999C309.35 290.909 309.31 290.789 309.4 290.749C309.49 290.709 309.54 290.829 309.6 290.889C311.06 292.429 312.53 293.979 313.99 295.519C314.12 295.649 314.17 295.789 314.17 295.979C314.17 298.199 314.17 300.429 314.17 302.649C314.17 302.979 314.17 302.979 313.86 302.979C313.19 302.979 312.53 302.979 311.86 302.979C311.7 302.979 311.58 302.949 311.49 302.799C311.47 302.759 311.43 302.729 311.4 302.699C310.83 302.069 310.25 301.449 309.68 300.819C309 300.059 308.31 299.309 307.62 298.549C306.97 297.829 306.32 297.119 305.67 296.399C304.99 295.649 304.31 294.899 303.63 294.149C303.32 293.809 303.01 293.469 302.7 293.129C302.65 293.079 302.61 293.009 302.53 292.979C302.48 293.059 302.5 293.149 302.5 293.229C302.5 293.949 302.5 294.669 302.5 295.379C302.5 295.459 302.52 295.549 302.47 295.619C302.38 295.619 302.35 295.559 302.31 295.509C300.83 293.939 299.34 292.379 297.86 290.809C297.76 290.709 297.71 290.599 297.71 290.449C297.71 288.569 297.71 286.689 297.71 284.809C297.71 284.549 297.73 284.539 297.97 284.539C298.88 284.539 299.79 284.539 300.71 284.539C300.86 284.539 300.97 284.599 301.07 284.709C301.51 285.219 301.95 285.719 302.39 286.229C302.98 286.909 303.57 287.589 304.16 288.269C304.52 288.689 304.89 289.099 305.25 289.519C305.89 290.259 306.53 290.989 307.17 291.729C307.59 292.209 308.02 292.689 308.44 293.169C308.69 293.459 308.94 293.749 309.19 294.029C309.23 294.069 309.26 294.129 309.34 294.149L309.32 294.169Z" fill="#27B2B4"/>
<path d="M299.96 302.989C298.54 302.989 297.4 301.769 297.4 300.269C297.4 298.769 298.55 297.559 299.97 297.559C301.38 297.559 302.53 298.789 302.53 300.279C302.53 301.769 301.37 302.979 299.95 302.979L299.96 302.989Z" fill="#A97D34"/>
<path d="M321.17 360.058H280.02C277.58 360.058 275.61 357.568 275.61 354.498V308.818C284.57 308.818 293.54 308.818 302.5 308.818C310.19 308.818 317.88 308.818 325.57 308.818V354.498C325.57 357.568 323.6 360.058 321.16 360.058H321.17Z" stroke="#083C5B" stroke-width="3.37" stroke-linecap="round" stroke-linejoin="round"/>
<path d="M275.61 308.818H325.61C325.61 313.608 325.59 318.408 325.58 323.198C317.25 326.948 308.92 330.688 300.6 334.438C292.27 330.688 283.94 326.948 275.62 323.198V308.818H275.61Z" stroke="#083C5B" stroke-width="3.37" stroke-linecap="round" stroke-linejoin="round"/>
<path d="M250.18 2.38994C254.69 1.20994 261.44 -0.0200578 269.57 0.579942C290.24 2.11994 303.99 14.3599 307.78 17.8299C309.28 19.1999 330.8 39.4799 332.3 68.5899C332.86 79.5299 330.39 87.5899 333.44 104.9C334.54 111.17 335.02 110.96 337.05 121.35C340.52 139.06 342.2 148.08 339.52 156.06C338.69 158.55 335.85 166.64 328.3 171.91C326.45 173.2 324.76 174.01 323.55 174.52C324.85 175.21 326.24 176.18 327.54 177.53C333.22 183.41 332.82 191.98 332.67 193.98C334.13 194.87 349.6 204.37 357 210.63C358.17 211.62 360.01 213.27 360.99 216.05C362.17 219.38 361.49 222.59 360.99 224.28C359.76 225.28 357.81 226.96 355.67 229.3C348.08 237.56 346.94 244.31 340.65 253.78C338.76 256.63 335.71 260.75 331.15 265.22C331.97 266.28 333.09 268.06 333.43 270.44C333.96 274.18 332.26 277.28 331.34 278.87C321.09 296.58 314.23 303.01 314.23 303.01C300.81 315.59 292.59 323.3 278.24 328.16C260.25 334.25 244.75 331.75 238.19 330.3C221.38 326.58 210.89 317.98 198.14 307.56C195.55 305.44 173.3 286.9 157.08 256.2C157.08 256.2 148.6 240.14 148.1 219.95C148.05 217.9 148.1 214.62 149.98 211.52C153.94 205.03 162.76 204.61 164.93 204.56C165.06 203.5 165.37 201.94 166.2 200.28C167.52 197.63 169.44 196.14 170.76 195.2C176.91 190.83 180.83 190.82 186.47 187.17C188.07 186.13 190.47 184.38 193.06 181.55C192.77 179.84 192.53 177.2 193.06 174.06C193.69 170.32 195.13 167.59 196.1 166.03C191.96 159.52 180.74 139.97 184.69 116.01C185.7 109.87 187.52 104.59 189.51 100.23C189.13 94.9099 186.18 42.5399 221.45 15.4299C231.33 7.83994 241.66 4.17994 250.15 2.38994H250.18Z" fill="#293336"/>
<path d="M215.9 65.4204C218.5 57.8504 227.1 35.9404 247.45 26.1304C251.75 24.0604 258.55 20.8904 266.97 22.2504C278.01 24.0304 284.85 32.4605 290.29 39.3705C302.91 55.3905 306.65 73.4704 307.88 84.4804C291.56 83.7604 272.35 81.5604 251.26 76.4204C238.22 73.2404 226.4 69.4205 215.91 65.4105L215.9 65.4204Z" fill="#293336"/>
<path d="M221.48 54.7498C217.22 61.2198 215.33 66.6398 212.74 74.0098C204.05 98.7298 205.2 119.23 205.52 123.77C206.55 138.58 207.26 148.79 214.26 159.08C227.49 178.5 250.62 179.83 253.42 179.95C255.46 180.03 274.59 180.52 289.73 166.71C289.73 166.71 292.46 164.22 294.84 161.27C309.17 143.48 320.8 91.1998 294.64 53.3798C288.88 45.0498 277.82 29.0798 261.03 28.2698C239.62 27.2298 223.64 51.4898 221.49 54.7498H221.48Z" fill="#FCD1C8"/>
<path d="M387.63 296.891C388.64 305.841 389.25 316.481 388.76 328.411C388.28 340.001 386.88 350.261 385.21 358.911C387.71 353.351 390.8 344.851 392.05 334.031C393.36 322.681 392.14 313.251 390.87 307.101C389.79 303.701 388.71 300.301 387.62 296.891H387.63Z" fill="#083C5B"/>
<path d="M98.48 229.801C84.57 244.611 70.66 259.431 56.75 274.241C76.43 259.431 96.1 244.611 115.78 229.801C106.28 233.781 96.77 237.761 87.27 241.741C91.01 237.761 94.75 233.781 98.48 229.801Z" fill="#083C5B"/>
<path d="M343.31 322.231C343 309.671 342.69 297.111 342.37 284.551C340.46 313.371 338.56 342.201 336.65 371.021C337.36 362.501 338.34 353.551 339.66 344.221C340.74 336.561 341.97 329.231 343.3 322.241L343.31 322.231Z" fill="#083C5B"/>
<path d="M136.72 303.08C140.42 302.47 150.26 300.35 153.68 292.43C154.3 291 154.52 289.81 154.95 287.48C156.75 277.67 155.33 268.42 155.33 268.42C158.55 299.76 162.09 334.36 162.04 334.33C160.37 323.33 158.71 312.33 157.04 301.33C150.27 301.91 143.5 302.5 136.73 303.08H136.72Z" fill="#083C5B"/>
<mask id="mask1_44_668" style="mask-type:luminance" maskUnits="userSpaceOnUse" x="0" y="150" width="244" height="369">
<path d="M148.36 215.98C127.87 224.7 107.38 233.42 86.8901 242.14C102.35 227.34 117.81 212.54 133.27 197.73C128.68 196.66 117.88 193.45 108.37 183.35C96.2501 170.47 94.3801 155.04 93.9901 150.51C82.7701 159.5 74.1101 167.48 68.3901 172.98C30.7001 203.58 -1.35988 243.02 0.210118 268.21C0.580118 274.14 2.49012 279.45 2.49012 279.45C2.49012 279.45 6.32012 290.09 16.5601 298.31C32.2701 310.92 64.0901 308.8 80.8101 307.54C115.39 304.93 141.77 302.67 157.04 301.32C158.47 312.83 159.95 322.1 161.03 328.41C163.19 340.97 165.17 353.56 167.24 366.13C168.09 371.27 168.2 373.9 168.25 376.03C168.63 391.36 160.9 407.86 160.9 407.86C155.06 420.38 140.59 461.26 120.68 518.23C133.05 512.24 150.56 505.4 172.31 501.76C193.49 498.22 211.7 498.88 225.03 500.42C235.45 466.57 244.51 422.57 243.79 371.21C243.59 357.03 242.67 343.63 241.26 331.08C210.3 292.71 179.33 254.34 148.37 215.97L148.36 215.98Z" fill="white"/>
</mask>
<g mask="url(#mask1_44_668)">
<path d="M88.7 154.84C64.29 179.28 46.17 200.65 33.66 216.46C25.38 226.92 15.9 239.57 15.03 257.39C14.85 261.06 14.53 269.21 18.07 278.26C28.49 304.88 61.47 311.4 72.44 313.57C79.73 315.01 91.03 316.36 105.14 314.37C39.18 325.9 -16.47 307.96 -26.03 279.06C-36.66 246.89 4.32001 184.52 88.7 154.84Z" fill="#083C5B"/>
</g>
<mask id="mask2_44_668" style="mask-type:luminance" maskUnits="userSpaceOnUse" x="407" y="230" width="99" height="112">
<path d="M421.99 254.54C419.82 254.84 416.59 255.65 413.77 258.14C407.12 264 407.71 274.4 407.95 278.46C408.5 287.7 412.48 294.09 420.45 306.88C420.45 306.88 426.04 315.85 442.85 330.96C444.04 332.03 446.46 334.13 448.96 333.5C450.79 333.03 451.92 331.29 452.51 330.16C454.18 332.47 455.75 334.25 456.95 335.51C459.59 338.3 460.77 338.91 461.51 339.22C462.4 339.6 464.08 340.31 466.12 339.86C469.04 339.2 470.56 336.63 470.89 336.05C471.43 336.65 472.21 337.49 473.17 338.46C475.01 340.31 475.95 341.25 476.75 341.56C479.27 342.54 481.89 340.93 482.42 340.6C483.15 340.15 485.26 338.85 485.83 336.33C486.28 334.35 485.52 332.67 484.7 330.84C483.89 329.04 482.88 327.75 482.16 326.96C482.84 327.11 484.91 327.46 487.17 326.32C487.38 326.21 489.92 324.88 490.98 322.09C492.3 318.63 490.62 314.89 489.78 313.09C478.66 289.24 473.1 277.31 472.23 275.94C472.23 275.94 470.77 273.64 467.52 266.1C465.46 261.31 464.82 259.08 465.71 257.31C466.69 255.37 469.09 254.86 470.52 254.56C484.06 251.68 492.17 250.64 499.2 246.52C503.85 243.79 504.97 241.51 505.22 239.75C505.52 237.61 504.71 235.2 503.21 233.61C501.79 232.1 500.04 231.66 498.5 231.39C492.5 230.35 486.09 231.42 482.5 232.21C469.59 234.5 459.28 235.8 452.27 236.58C441.53 237.76 434.55 238.13 428.6 243.78C424.86 247.33 422.98 251.59 421.98 254.58L421.99 254.54Z" fill="white"/>
</mask>
<g mask="url(#mask2_44_668)">
<path d="M421.99 254.54C419.82 254.84 416.59 255.65 413.77 258.14C407.12 264 407.71 274.4 407.95 278.46C408.5 287.7 412.48 294.09 420.45 306.88C420.45 306.88 426.04 315.85 442.85 330.96C444.04 332.03 446.46 334.13 448.96 333.5C450.79 333.03 451.92 331.29 452.51 330.16C454.18 332.47 455.75 334.25 456.95 335.51C459.59 338.3 460.77 338.91 461.51 339.22C462.4 339.6 464.08 340.31 466.12 339.86C469.04 339.2 470.56 336.63 470.89 336.05C471.43 336.65 472.21 337.49 473.17 338.46C475.01 340.31 475.95 341.25 476.75 341.56C479.27 342.54 481.89 340.93 482.42 340.6C483.15 340.15 485.26 338.85 485.83 336.33C486.28 334.35 485.52 332.67 484.7 330.84C483.89 329.04 482.88 327.75 482.16 326.96C482.84 327.11 484.91 327.46 487.17 326.32C487.38 326.21 489.92 324.88 490.98 322.09C492.3 318.63 490.62 314.89 489.78 313.09C478.66 289.24 473.1 277.31 472.23 275.94C472.23 275.94 470.77 273.64 467.52 266.1C465.46 261.31 464.82 259.08 465.71 257.31C466.69 255.37 469.09 254.86 470.52 254.56C484.06 251.68 492.17 250.64 499.2 246.52C503.85 243.79 504.97 241.51 505.22 239.75C505.52 237.61 504.71 235.2 503.21 233.61C501.79 232.1 500.04 231.66 498.5 231.39C492.5 230.35 486.09 231.42 482.5 232.21C469.59 234.5 459.28 235.8 452.27 236.58C441.53 237.76 434.55 238.13 428.6 243.78C424.86 247.33 422.98 251.59 421.98 254.58L421.99 254.54Z" fill="#FCD1C8"/>
<path d="M421.03 252.699C422.25 256.109 425.9 264.889 434.85 271.429C445.62 279.309 456.81 278.649 459.96 278.349C456.11 279.709 449.61 281.439 441.5 280.899C433.83 280.389 427.87 278.069 424.25 276.319" stroke="#E89591" stroke-width="2.05" stroke-linecap="round" stroke-linejoin="round"/>
<path d="M428.85 302.38C434.06 301.96 441.82 300.67 450.41 296.63C457.44 293.32 462.71 289.26 466.29 286.01" stroke="#E89591" stroke-width="2.05" stroke-linecap="round" stroke-linejoin="round"/>
<path d="M433.82 302.369C439.99 310.879 446.16 319.389 452.32 327.899C453.24 329.239 453.49 330.819 452.9 331.999C452.76 332.279 452.5 332.679 452.01 333.049" stroke="#E89591" stroke-width="2.05" stroke-linecap="round" stroke-linejoin="round"/>
<path d="M446.83 298.189C454.88 309.909 462.93 321.639 470.99 333.359C471.18 333.709 471.74 334.809 471.52 336.229C471.39 337.049 471.06 337.649 470.84 337.989" stroke="#E89591" stroke-width="2.05" stroke-linecap="round" stroke-linejoin="round"/>
<path d="M459.87 291.5C468.71 304.33 477.55 317.15 486.38 329.98" stroke="#E89591" stroke-width="2.05" stroke-linecap="round" stroke-linejoin="round"/>
<path d="M466.57 256.939C465.73 257.459 464.67 257.999 463.37 258.399C460.37 259.319 457.76 258.979 456.28 258.649" stroke="#E89591" stroke-width="2.05" stroke-linecap="round" stroke-linejoin="round"/>
<path d="M406.85 273.559C407.29 272.059 407.97 269.989 409.02 267.609C410.72 263.759 411.96 260.949 414.55 258.699C415.74 257.669 418.36 255.739 422.76 255.239C423.66 252.489 426.13 246.249 432.04 242.079C435.8 239.429 439.75 238.469 440.42 238.309C443.1 237.679 444.39 237.889 447.74 237.389C451.34 236.849 454.27 235.949 456.34 235.189" stroke="#E89591" stroke-width="2.05" stroke-linecap="round" stroke-linejoin="round"/>
</g>
<mask id="mask3_44_668" style="mask-type:luminance" maskUnits="userSpaceOnUse" x="148" y="0" width="214" height="333">
<path d="M250.18 2.38994C254.69 1.20994 261.44 -0.0200578 269.57 0.579942C290.24 2.11994 303.99 14.3599 307.78 17.8299C309.28 19.1999 330.8 39.4799 332.3 68.5899C332.86 79.5299 330.39 87.5899 333.44 104.9C334.54 111.17 335.02 110.96 337.05 121.35C340.52 139.06 342.2 148.08 339.52 156.06C338.69 158.55 335.85 166.64 328.3 171.91C326.45 173.2 324.76 174.01 323.55 174.52C324.85 175.21 326.24 176.18 327.54 177.53C333.22 183.41 332.82 191.98 332.67 193.98C334.13 194.87 349.6 204.37 357 210.63C358.17 211.62 360.01 213.27 360.99 216.05C362.17 219.38 361.49 222.59 360.99 224.28C359.76 225.28 357.81 226.96 355.67 229.3C348.08 237.56 346.94 244.31 340.65 253.78C338.76 256.63 335.71 260.75 331.15 265.22C331.97 266.28 333.09 268.06 333.43 270.44C333.96 274.18 332.26 277.28 331.34 278.87C321.09 296.58 314.23 303.01 314.23 303.01C300.81 315.59 292.59 323.3 278.24 328.16C260.25 334.25 244.75 331.75 238.19 330.3C221.38 326.58 210.89 317.98 198.14 307.56C195.55 305.44 173.3 286.9 157.08 256.2C157.08 256.2 148.6 240.14 148.1 219.95C148.05 217.9 148.1 214.62 149.98 211.52C153.94 205.03 162.76 204.61 164.93 204.56C165.06 203.5 165.37 201.94 166.2 200.28C167.52 197.63 169.44 196.14 170.76 195.2C176.91 190.83 180.83 190.82 186.47 187.17C188.07 186.13 190.47 184.38 193.06 181.55C192.77 179.84 192.53 177.2 193.06 174.06C193.69 170.32 195.13 167.59 196.1 166.03C191.96 159.52 180.74 139.97 184.69 116.01C185.7 109.87 187.52 104.59 189.51 100.23C189.13 94.9099 186.18 42.5399 221.45 15.4299C231.33 7.83994 241.66 4.17994 250.15 2.38994H250.18Z" fill="white"/>
</mask>
<g mask="url(#mask3_44_668)">
<path d="M333.44 103.51C334.85 108.5 336.17 114 337.24 119.96C337.88 123.49 338.37 126.88 338.76 130.13C336.9 130.53 334.15 131.3 331.16 132.94C326.17 135.67 323.54 139.13 319.5 144.04C315.14 149.35 310.51 154.98 306.45 159.02C303.13 162.33 297.94 166.8 290.36 170.92C293.84 168.36 298.9 164.26 304.17 158.35C312.99 148.46 317.69 138.79 324.19 125.18C326.71 119.91 330.01 112.56 333.44 103.51Z" fill="#242B2D"/>
<path d="M306.19 136.68C306.22 141.06 305.72 147.94 302.64 155.41C294.85 174.33 277.24 180.87 273.75 182.16C260.7 187 249.55 184.87 246.88 184.3C226.9 180.05 216.6 164.2 214.94 161.56C206.75 148.51 206.44 135.36 206.58 130.26C239.78 132.4 272.99 134.54 306.19 136.68Z" fill="#242B2D"/>
<path d="M189.66 100.14C190.48 104.79 191.81 110.34 194.03 116.39C196.53 123.18 199.46 128.75 202.11 133.04C200.5 131.15 198.88 129.12 197.26 126.92C192.57 120.54 189.02 114.26 186.33 108.56C187.44 105.75 188.55 102.94 189.66 100.13V100.14Z" fill="#242B2D"/>
<path d="M192.9 161.689C216.24 186.729 238.22 191.539 247.65 192.789C272.24 196.039 296 186.269 324.96 174.369C332.79 171.149 339.16 168.149 343.53 166.009" stroke="#242B2D" stroke-width="1.03" stroke-linecap="round" stroke-linejoin="round"/>
<path d="M191.76 178.54C194.56 183.88 199.37 191.72 207.16 199.21C230.4 221.55 259.81 221.22 272.93 221.08C287.81 220.92 311.25 220.37 326.73 202.42C331.82 196.52 334.62 190.39 336.17 186.14" stroke="#242B2D" stroke-width="1.03" stroke-linecap="round" stroke-linejoin="round"/>
<path d="M183.88 185.62C186.43 189.55 192.07 197.02 201.83 201.41C205.78 203.19 209.46 204.03 212.45 204.44C208.71 201.22 204.38 196.95 200.1 191.43C196.55 186.85 193.83 182.42 191.75 178.54C191.09 179.67 190.01 181.25 188.33 182.75C186.66 184.24 185.03 185.12 183.88 185.62Z" fill="#242B2D"/>
<path d="M271.22 221.09C279.85 223.11 303.14 227.24 326.86 214.52C335.63 209.81 342.21 204.01 346.88 199.01C346.58 198.86 332.88 192.13 332.88 192.13C332.88 192.13 331.13 195.74 331.08 195.84C330 198.06 326.38 203.59 321.02 208.24C314.09 214.24 307.1 216.41 302.76 217.75C298.01 219.22 294.35 219.68 289.88 220.25C282.2 221.22 275.76 221.26 271.23 221.1L271.22 221.09Z" fill="#242B2D"/>
<path d="M161.86 197.68C167.21 208.84 187.01 246.71 229.92 264.29C251.66 273.2 271.29 273.6 283.53 272.72C280.55 273.79 276.24 275.27 270.98 276.87C263.7 279.08 259.07 280.48 255.01 281.15C252.77 281.52 237.56 283.81 224.21 275.4C217.74 271.32 219.62 269.7 205.33 255.2C197.08 246.83 196.34 247.25 189.36 239.82C184.47 234.61 178.88 228.61 173.14 219.76C169.84 214.68 165.62 207.31 161.86 197.69V197.68Z" fill="#242B2D"/>
<path d="M336.75 263.529C327.51 269.709 316.32 272.919 305.26 272.349C310.75 272.279 316.2 271.309 321.33 269.509C326.46 267.719 331.28 265.109 335.56 261.849C336.68 261.029 337.9 262.729 336.75 263.519V263.529Z" fill="#242B2D"/>
</g>
<path d="M221.46 54.2498C217.2 60.7198 215.31 66.1398 212.72 73.5098C204.03 98.2298 205.18 118.73 205.5 123.27C206.53 138.08 207.24 148.29 214.24 158.58C227.47 178 250.6 179.33 253.4 179.45C255.44 179.53 274.57 180.02 289.71 166.21C289.71 166.21 292.44 163.72 294.82 160.77C309.15 142.98 320.78 90.6998 294.62 52.8798C288.86 44.5498 277.8 28.5798 261.01 27.7698C239.6 26.7298 223.62 50.9898 221.47 54.2498H221.46Z" fill="#FCD1C8"/>
<path d="M256.19 95.8896C255.77 98.5096 254.69 103.12 251.63 107.93C249.78 110.83 247.72 112.99 245.92 114.55C244.19 116.05 244.16 118.82 245.87 120.35C246.84 121.22 248.08 122.06 249.61 122.65C253.25 124.06 256.41 123.24 257.47 122.92" stroke="#E89591" stroke-width="2.05" stroke-linecap="round" stroke-linejoin="round"/>
<path d="M267.21 79.1001C266.86 78.5901 266.33 77.6401 266.45 76.5601C266.92 72.4701 276.43 69.7201 284.07 70.2701C287.07 70.4901 291.89 70.9101 295.6 74.8201C297.14 76.4401 298.02 78.1601 298.51 79.3701C296.57 77.9201 290.8 73.9801 282.54 74.0201C274.71 74.0601 269.2 77.6601 267.21 79.1001Z" fill="#293336"/>
<path d="M247.51 78.4796C247.89 77.9896 248.48 77.0796 248.42 75.9896C248.2 71.8696 238.87 68.4896 231.22 68.5396C228.21 68.5596 223.38 68.6596 219.44 72.3096C217.8 73.8196 216.83 75.4896 216.26 76.6496C218.28 75.3296 224.28 71.7796 232.52 72.3796C240.33 72.9396 245.62 76.8996 247.52 78.4796H247.51Z" fill="#293336"/>
<path d="M268.82 90.6501C269.16 89.1401 270.17 85.5601 273.26 82.6701C273.58 82.3701 279.51 77.0101 286.65 79.4701C291.16 81.0301 293.45 84.7801 294.1 85.9501C294.26 86.1601 294.53 86.4601 294.96 86.6801C295.75 87.1001 296.51 86.9601 296.76 86.9001C296.55 87.8701 296.21 88.6801 295.78 89.3601C290.55 97.6201 269.94 91.0101 268.82 90.6501Z" fill="#E89591"/>
<path d="M268.52 99.7399C269.41 100.59 273.58 104.36 279.83 104.16C287.15 103.92 291.43 98.4199 292.03 97.6199C292.18 97.1999 294.4 90.5499 290.74 85.7799C287.01 80.9299 279.92 81.5599 275.64 83.9799C270.61 86.8299 267.76 93.1099 268.52 99.7399Z" fill="white"/>
<path d="M268.49 99.85C268.25 98.89 266.84 92.86 270.38 87.38C273.3 82.86 278.58 80.2599 283.84 81.0899C289.26 81.9399 292.33 86.07 292.98 86.99C293.12 87.15 293.69 87.77 294.62 87.85C295.86 87.96 296.67 86.9999 296.75 86.8999C296.9 87.7499 297.38 90.92 295.6 94.07C294.42 96.16 292.81 97.2499 291.99 97.7299C292.28 96.6399 292.58 94.89 292.21 92.83C291.17 87.07 285.83 84.6 285.51 84.46C280.89 82.42 275.74 84.12 272.51 87.24C267.44 92.14 268.4 99.27 268.48 99.85H268.49Z" fill="#293336"/>
<path d="M289.1 95.2304C288.05 100.53 283.13 103.92 278.11 102.81C273.09 101.7 269.88 96.5004 270.93 91.2104C271.98 85.9104 276.9 82.5204 281.92 83.6304C286.94 84.7404 290.15 89.9404 289.1 95.2304Z" fill="#293336"/>
<path d="M275.87 93.97C277.77 93.97 279.31 92.3447 279.31 90.34C279.31 88.3352 277.77 86.71 275.87 86.71C273.97 86.71 272.43 88.3352 272.43 90.34C272.43 92.3447 273.97 93.97 275.87 93.97Z" fill="white"/>
<mask id="mask4_44_668" style="mask-type:luminance" maskUnits="userSpaceOnUse" x="205" y="27" width="106" height="153">
<path d="M221.46 54.2498C217.2 60.7198 215.31 66.1398 212.72 73.5098C204.03 98.2298 205.18 118.73 205.5 123.27C206.53 138.08 207.24 148.29 214.24 158.58C227.47 178 250.6 179.33 253.4 179.45C255.44 179.53 274.57 180.02 289.71 166.21C289.71 166.21 292.44 163.72 294.82 160.77C309.15 142.98 320.78 90.6998 294.62 52.8798C288.86 44.5498 277.8 28.5798 261.01 27.7698C239.6 26.7298 223.62 50.9898 221.47 54.2498H221.46Z" fill="white"/>
</mask>
<g mask="url(#mask4_44_668)">
<path d="M215 67.7295C217.41 62.4195 222.94 52.2795 234.01 44.9195C238.47 41.9495 250.22 34.1495 264.05 37.2995C272.72 39.2795 278.22 44.6595 282.68 49.1395C303.86 70.4195 306.79 101.53 307.14 105.85C308.78 126.01 303.99 142.16 308.91 144.1C311.28 145.03 314.34 142.07 315.18 141.25C332.18 124.77 320.32 23.6995 274.18 12.4895C255.9 8.04953 229.01 16.8595 218.67 38.1695C213.15 49.5595 213.96 61.1995 214.99 67.7295H215Z" fill="#E89591"/>
</g>
<path d="M243.89 98.7894C247.38 89.9494 243.45 80.3494 236.5 77.4094C231.12 75.1394 224.38 77.0494 220.02 82.3194C219.92 82.4394 219.39 83.0694 218.49 83.1294C217.78 83.1694 217.26 82.8294 217.11 82.7094C217.35 84.5394 217.85 86.0694 218.44 87.3294C223.89 99.0194 242.3 98.8194 243.9 98.7794L243.89 98.7894Z" fill="#E89591"/>
<path d="M243.88 98.6692C242.91 99.4092 238.38 102.689 232.19 101.779C224.94 100.719 221.24 94.7592 220.72 93.8992C220.62 93.4692 219.08 86.6092 223.21 82.2792C227.41 77.8792 234.4 79.3092 238.4 82.1992C243.11 85.5992 245.31 92.1692 243.88 98.6792V98.6692Z" fill="white"/>
<path d="M243.89 98.7894C244.23 97.8694 246.25 92.0294 243.28 86.1794C240.84 81.3594 235.85 78.1794 230.53 78.3994C225.05 78.6294 221.58 82.3894 220.84 83.2294C220.69 83.3694 220.06 83.9294 219.12 83.8994C217.87 83.8694 217.17 82.8294 217.1 82.7094C216.86 83.5394 216.06 86.6394 217.51 89.9694C218.47 92.1794 219.96 93.4494 220.72 94.0094C220.55 92.8994 220.42 91.1194 221 89.1194C222.62 83.5094 228.18 81.6594 228.52 81.5594C233.32 80.0494 238.27 82.3294 241.16 85.7994C245.71 91.2494 244.03 98.2294 243.88 98.7894H243.89Z" fill="#293336"/>
<path d="M222.45 91.3097C222.96 96.6997 227.51 100.63 232.61 100.09C237.71 99.5496 241.44 94.7496 240.93 89.3696C240.42 83.9796 235.87 80.0496 230.77 80.5896C225.67 81.1296 221.94 85.9297 222.45 91.3097Z" fill="#293336"/>
<path d="M228.25 90.3391C230.15 90.3391 231.69 88.7139 231.69 86.7091C231.69 84.7043 230.15 83.0791 228.25 83.0791C226.35 83.0791 224.81 84.7043 224.81 86.7091C224.81 88.7139 226.35 90.3391 228.25 90.3391Z" fill="white"/>
<path d="M232.82 138.85C231.9 136.61 233.93 134.26 236.16 134.92C240.68 136.25 246.39 137.38 253.01 137.42C262.32 137.48 270.05 135.37 275.55 133.24C277.72 132.4 279.82 134.54 279.17 136.88C276.57 146.31 269.84 153.59 261.64 155.66C250.6 158.45 238 151.51 232.8 138.85H232.82Z" fill="#293336"/>
<mask id="mask5_44_668" style="mask-type:luminance" maskUnits="userSpaceOnUse" x="232" y="133" width="48" height="24">
<path d="M232.82 138.85C231.9 136.61 233.93 134.26 236.16 134.92C240.68 136.25 246.39 137.38 253.01 137.42C262.32 137.48 270.05 135.37 275.55 133.24C277.72 132.4 279.82 134.54 279.17 136.88C276.57 146.31 269.84 153.59 261.64 155.66C250.6 158.45 238 151.51 232.8 138.85H232.82Z" fill="white"/>
</mask>
<g mask="url(#mask5_44_668)">
<path d="M240.25 149.549C241.78 148.479 244.61 146.799 248.53 146.109C252.49 145.419 255.72 146.059 257.49 146.559C259.11 145.599 262.89 143.699 267.88 144.009C271.02 144.209 273.47 145.199 274.98 145.979C272.96 153.969 266.4 159.799 258.63 160.529C250.98 161.249 243.64 156.869 240.25 149.549Z" fill="#DB86BF"/>
<path d="M238.22 131.8L238.28 134.62C238.33 137.13 240.05 139.27 242.4 139.67C248.99 140.8 258.34 141.43 269.1 139.01C278.03 137 285.05 133.52 289.87 130.6L238.22 131.8Z" fill="white"/>
</g>
<path d="M250.36 160.34C252.13 160.97 255.45 161.88 259.57 161.29C262.61 160.85 264.95 159.76 266.42 158.91" stroke="#E89591" stroke-width="2.05" stroke-linecap="round" stroke-linejoin="round"/>
<path d="M197.78 171.1C210.251 171.1 220.36 160.431 220.36 147.27C220.36 134.109 210.251 123.44 197.78 123.44C185.31 123.44 175.2 134.109 175.2 147.27C175.2 160.431 185.31 171.1 197.78 171.1Z" fill="#606060"/>
<path d="M132.01 124.38C128.37 124.23 125.14 126.5 124.09 129.74C122.8 133.73 125.01 138.6 129.37 140.2C145.81 145.96 162.25 151.72 178.68 157.48C185.1 159.73 192.31 156.47 194.66 149.78C195.13 148.45 195.39 147.05 195.43 145.62C195.49 143.66 195.1 141.9 194.5 140.37C192.81 136.09 188.96 133.19 184.61 132.52L131.99 124.38H132.01Z" fill="#293336"/>
<path d="M94.6797 156.27C101.68 147.28 108.23 140.21 113.48 134.97C115.12 133.33 121.46 128.67 134.06 119.23C135.99 117.78 139.2 115.45 142.94 116.16C146.36 116.81 148.58 119.71 149.61 121.3C150.38 120.84 152.36 119.82 154.99 120.04C158.42 120.33 160.55 122.54 161.09 123.13C161.5 122.87 164.49 121.05 167.8 122.38C169.67 123.12 170.74 124.51 171.19 125.17C174.24 124.46 176.95 124.86 178.5 125.89C179.42 126.5 180.16 127.33 180.16 127.34C180.57 127.8 180.98 128.52 181.57 129.53C182.38 130.9 184.64 134.8 184.71 140.42C184.73 141.97 184.74 145.95 182.52 150.14C181.67 151.75 180.72 152.94 180.02 153.73C180.74 154.63 181.67 156.1 181.84 158C181.94 159.19 181.88 162.01 177.29 166.78C171.76 172.53 165.63 174.92 164.45 175.36C154.27 179.19 144.8 177.93 139.6 176.77C139.43 177.01 139.23 177.28 139.02 177.57C137.73 179.34 136.75 180.65 136.67 180.76C135.93 181.75 133.79 185.17 127.51 196.02C123.5 194.57 117.18 191.67 110.91 185.87C108.89 184 103.37 178.59 99.0997 169.61C96.6297 164.43 95.3697 159.71 94.6897 156.28L94.6797 156.27Z" fill="#FCD1C8"/>
<mask id="mask6_44_668" style="mask-type:luminance" maskUnits="userSpaceOnUse" x="76" y="116" width="109" height="91">
<path d="M92.2498 158.01C100.16 148.75 107.42 141.07 113.49 134.98C114.72 133.75 121.17 128.91 134.07 119.24C136 117.79 139.21 115.46 142.95 116.17C146.37 116.82 148.59 119.72 149.62 121.31C150.39 120.85 152.37 119.83 155 120.05C158.43 120.34 160.56 122.55 161.1 123.14C161.51 122.88 164.5 121.06 167.81 122.39C169.68 123.13 170.75 124.52 171.2 125.18C172.29 124.87 173.94 124.58 175.86 124.95C176.5 125.07 177.48 125.27 178.52 125.9C179.85 126.71 180.73 127.88 181.6 129.53C182.85 131.9 184.67 135.36 184.74 140.42C184.76 141.97 184.77 145.95 182.55 150.14C181.7 151.75 180.75 152.94 180.05 153.73C180.77 154.63 181.7 156.1 181.87 158C181.97 159.19 181.91 162.01 177.32 166.78C171.79 172.53 165.66 174.92 164.48 175.36C154.3 179.19 144.83 177.93 139.63 176.77C138.94 177.72 137.93 179.11 136.7 180.76C126.38 194.57 121.22 201.48 116.89 203.95C104.94 210.75 79.4598 203.15 76.5598 186.48C74.8398 176.56 81.4598 165.16 92.2998 158.02L92.2498 158.01Z" fill="white"/>
</mask>
<g mask="url(#mask6_44_668)">
<path d="M144.27 113.689C146.7 115.509 150.01 118.669 151.92 123.609C156.72 135.999 148.06 147.469 146.56 149.479C144.43 152.319 142.68 153.319 141.02 153.649C138.6 154.139 134.93 153.279 133.46 150.689C130.63 145.709 138.58 138.859 136.12 128.139C136 127.629 135.89 127.219 135.81 126.969" stroke="#E89591" stroke-width="2.05" stroke-linecap="round" stroke-linejoin="round"/>
<path d="M160.07 116.39C161.17 118.37 162.64 121.49 163.45 125.55C166.43 140.41 158.12 155.49 151.85 157.3C149.42 158 147.45 157.25 147.45 157.25C145.05 156.33 143.85 154.08 143.43 153.2" stroke="#E89591" stroke-width="2.05" stroke-linecap="round" stroke-linejoin="round"/>
<path d="M172.45 117.609C168.3 117.739 167.38 118.329 167.29 118.829C167.13 119.749 169.73 120.529 172.42 123.919C172.01 123.499 171.54 123.039 171.51 123.069C171.46 123.119 172.76 124.429 173.7 126.009C174.8 127.869 175.09 129.619 175.29 130.889C176.05 135.649 174.11 145.109 169.25 155.369C168.05 156.989 166.7 158.389 164.74 158.879C162.27 159.489 160.08 158.339 159.71 158.139C158.51 157.479 157.69 156.609 157.18 155.929" stroke="#E89591" stroke-width="2.05" stroke-linecap="round" stroke-linejoin="round"/>
<path d="M177.21 119.92C178.53 120.96 184.83 126.18 186.01 135.43C187.2 144.79 182.24 151.32 179 155.58C177 158.21 175.39 159.41 173.46 159.75C170.49 160.28 168 158.54 167.13 157.88" stroke="#E89591" stroke-width="2.05" stroke-linecap="round" stroke-linejoin="round"/>
<path d="M144.81 156.6C144.05 157.94 140.65 163.59 133.61 165.83C126.91 167.96 121.38 165.59 119.96 164.93" stroke="#E89591" stroke-width="2.05" stroke-linecap="round" stroke-linejoin="round"/>
<path d="M160.26 158.439C159.61 159.249 158.77 160.529 158.24 162.289C157.13 166.019 158.27 169.249 158.68 170.299" stroke="#E89591" stroke-width="2.05" stroke-linecap="round" stroke-linejoin="round"/>
</g>
<mask id="mask7_44_668" style="mask-type:luminance" maskUnits="userSpaceOnUse" x="118" y="117" width="21" height="29">
<path d="M137.35 125.2C137.77 126.53 138.65 129.92 137.64 134.06C136.65 138.14 134.38 140.65 133.42 141.61C133.2 141.88 129.4 146.43 125.09 145.43C120.45 144.35 119.18 137.75 118.75 135.53C118.52 134.32 116.89 125.85 122.3 120.95C124.6 118.87 129.31 116.39 133.26 118.74C136.38 120.59 137.18 124.35 137.34 125.19L137.35 125.2Z" fill="white"/>
</mask>
<g mask="url(#mask7_44_668)">
<path d="M132.01 124.38C128.37 124.23 125.14 126.5 124.09 129.74C122.8 133.73 125.01 138.6 129.37 140.2C147.5 146.55 165.63 152.91 183.76 159.26C190.46 157.88 195.26 152.06 195.44 145.62C195.66 137.87 189.08 133.36 188.79 133.16C169.86 130.23 150.93 127.31 132 124.38H132.01Z" fill="#293336"/>
</g>
<path d="M254.16 332.04C253.71 383.35 253.25 434.67 252.8 485.98C252.13 486.8 251.45 487.62 250.78 488.45L252.38 332.02C252.98 332.02 253.57 332.04 254.17 332.05L254.16 332.04Z" fill="#083C5B"/>
<path d="M259.33 343.129C261.467 343.129 263.2 341.298 263.2 339.039C263.2 336.78 261.467 334.949 259.33 334.949C257.193 334.949 255.46 336.78 255.46 339.039C255.46 341.298 257.193 343.129 259.33 343.129Z" fill="#083C5B"/>
<path d="M258.86 341.709C260.633 341.709 262.07 340.196 262.07 338.329C262.07 336.462 260.633 334.949 258.86 334.949C257.087 334.949 255.65 336.462 255.65 338.329C255.65 340.196 257.087 341.709 258.86 341.709Z" fill="#293336"/>
<path d="M259.33 379.19C261.467 379.19 263.2 377.359 263.2 375.1C263.2 372.841 261.467 371.01 259.33 371.01C257.193 371.01 255.46 372.841 255.46 375.1C255.46 377.359 257.193 379.19 259.33 379.19Z" fill="#083C5B"/>
<path d="M258.86 377.78C260.633 377.78 262.07 376.266 262.07 374.4C262.07 372.533 260.633 371.02 258.86 371.02C257.087 371.02 255.65 372.533 255.65 374.4C255.65 376.266 257.087 377.78 258.86 377.78Z" fill="#293336"/>
<path d="M259.33 343.129C261.467 343.129 263.2 341.298 263.2 339.039C263.2 336.78 261.467 334.949 259.33 334.949C257.193 334.949 255.46 336.78 255.46 339.039C255.46 341.298 257.193 343.129 259.33 343.129Z" fill="#083C5B"/>
<path d="M259.33 412.379C261.467 412.379 263.2 410.548 263.2 408.289C263.2 406.03 261.467 404.199 259.33 404.199C257.193 404.199 255.46 406.03 255.46 408.289C255.46 410.548 257.193 412.379 259.33 412.379Z" fill="#083C5B"/>
<path d="M258.86 341.709C260.633 341.709 262.07 340.196 262.07 338.329C262.07 336.462 260.633 334.949 258.86 334.949C257.087 334.949 255.65 336.462 255.65 338.329C255.65 340.196 257.087 341.709 258.86 341.709Z" fill="#293336"/>
<path d="M259.33 379.19C261.467 379.19 263.2 377.359 263.2 375.1C263.2 372.841 261.467 371.01 259.33 371.01C257.193 371.01 255.46 372.841 255.46 375.1C255.46 377.359 257.193 379.19 259.33 379.19Z" fill="#083C5B"/>
<path d="M258.86 377.78C260.633 377.78 262.07 376.266 262.07 374.4C262.07 372.533 260.633 371.02 258.86 371.02C257.087 371.02 255.65 372.533 255.65 374.4C255.65 376.266 257.087 377.78 258.86 377.78Z" fill="#293336"/>
<path d="M258.86 410.971C260.633 410.971 262.07 409.458 262.07 407.591C262.07 405.724 260.633 404.211 258.86 404.211C257.087 404.211 255.65 405.724 255.65 407.591C255.65 409.458 257.087 410.971 258.86 410.971Z" fill="#293336"/>
<path d="M259.33 448.44C261.467 448.44 263.2 446.609 263.2 444.35C263.2 442.091 261.467 440.26 259.33 440.26C257.193 440.26 255.46 442.091 255.46 444.35C255.46 446.609 257.193 448.44 259.33 448.44Z" fill="#083C5B"/>
<path d="M258.86 447.03C260.633 447.03 262.07 445.516 262.07 443.65C262.07 441.783 260.633 440.27 258.86 440.27C257.087 440.27 255.65 441.783 255.65 443.65C255.65 445.516 257.087 447.03 258.86 447.03Z" fill="#293336"/>
</svg>
