<svg width="506" height="685" viewBox="0 0 506 685" fill="none" xmlns="http://www.w3.org/2000/svg">
<path d="M214.463 540.115C191.671 538.297 168.887 536.47 146.094 534.633C168.887 536.46 191.68 538.287 214.463 540.115Z" fill="white"/>
<path d="M280.168 441.127C288.776 514.45 297.383 587.772 305.991 661.084C306.837 668.288 307.683 675.501 308.53 682.704H203.432C200.701 644.071 197.979 605.439 195.248 566.806C191.103 605.439 186.958 644.071 182.803 682.704H78.3594C88.948 601.832 99.527 520.97 110.116 440.098C146.286 439.781 182.976 439.8 220.157 440.185C240.305 440.397 260.309 440.704 280.159 441.118L280.168 441.127Z" fill="#293336"/>
<mask id="mask0_46_678" style="mask-type:luminance" maskUnits="userSpaceOnUse" x="78" y="439" width="231" height="244">
<path d="M280.169 441.126C288.776 514.448 297.384 587.77 305.991 661.082C306.838 668.286 307.684 675.499 308.53 682.702H203.433C200.701 644.069 197.98 605.437 195.248 566.804C191.103 605.437 186.958 644.069 182.803 682.702H78.3599C88.9485 601.83 99.5275 520.968 110.116 440.096C146.287 439.779 182.977 439.798 220.157 440.183C240.305 440.395 260.309 440.702 280.159 441.116L280.169 441.126Z" fill="white"/>
</mask>
<g mask="url(#mask0_46_678)">
<path d="M141.094 440.193H243.537V486.376C245.643 486.462 277.034 488.203 290.912 513.602C297.346 525.383 297.144 537.001 296.615 542.742C290.084 544.801 282.15 546.695 273.043 547.657C255.818 549.465 241.315 547.186 231.304 544.714C228.524 521.469 225.735 498.224 222.956 474.979C209.347 475.066 195.749 475.143 182.14 475.229C179.043 497.243 175.956 519.267 172.859 541.281C156.885 542.377 140.68 543.368 124.244 544.223C106.539 545.156 89.093 545.916 71.8877 546.512C75.3403 528.98 84.1978 497.551 109.453 468.343C120.224 455.889 131.438 446.772 141.094 440.193Z" fill="#242B2D"/>
<path d="M197.605 440.471C196.806 481.892 196.018 523.304 195.219 564.726C195.133 569.429 195.037 574.141 194.95 578.844" stroke="#1A2021" stroke-width="3" stroke-miterlimit="10"/>
<path d="M215.445 440.193C214.464 466.304 213.483 492.406 212.502 518.516C212.098 525.143 208.521 530.682 203.337 532.596C200.317 533.702 197.49 533.317 195.835 532.914" stroke="#1A2021" stroke-width="3" stroke-miterlimit="10"/>
</g>
<path d="M292.104 66.2152C290.959 66.1863 289.122 65.994 287.189 65.0707C282.938 63.0415 281.063 58.8387 276.389 46.5767C272.455 36.267 272.754 36.5267 271.801 34.7859C268.82 29.3329 265.387 23.0529 258.703 21.0332C251.682 18.9078 245.056 22.6874 242.988 23.9761C241.353 20.7543 239.718 17.5325 238.074 14.3204C238.074 14.3204 234.765 8.39612 228.985 4.25108C219.685 -2.4137 203.115 -0.394066 190.93 4.50113C170.945 12.5219 154.567 31.5161 148.2 44.5282C144.623 51.8566 141.882 54.8957 136.409 60.9834C134.149 63.4935 131.226 66.4364 126.59 68.1002C123.445 69.235 120.618 69.3793 118.733 69.3312C118.935 69.562 123.013 74.1014 128.552 73.0146C131.582 72.4183 133.438 70.466 134.101 69.687C127.946 80.3911 128.389 86.95 129.976 90.9893C132.245 96.7404 137.65 99.4236 137.14 104.444C136.765 108.089 133.486 110.724 131.005 112.301C131.601 112.638 133.399 113.542 135.765 113.224C138.727 112.821 140.401 110.782 140.747 110.339C141.603 115.244 143.084 121.207 145.738 127.689C147.594 132.219 149.652 136.123 151.634 139.393C152.48 140.759 152.547 142.451 151.797 143.817C150.864 145.5 149.114 145.894 148.854 145.942C149.604 146.337 151.72 147.318 154.259 146.76C157.356 146.087 159.837 143.403 160.607 139.922C187.631 144.057 214.656 148.193 241.68 152.319C243.642 152.751 245.604 153.194 247.576 153.627C247.451 154.098 246.922 156.214 248.085 158.397C249.461 160.974 252.076 161.561 252.48 161.647C255.577 162.292 257.876 160.407 258.145 160.176C255.212 159.762 254.01 158.733 253.481 157.781C250.22 151.953 265.954 137.931 268.032 136.114C268.56 135.373 269.099 134.642 269.628 133.902C269.686 134.123 270.368 136.758 272.696 137.585C274.956 138.393 277.841 137.171 279.159 134.479C278.38 134.469 276.091 134.334 274.735 132.68C273.369 131.007 273.783 128.776 274.235 126.323C274.552 124.611 275.302 121.842 277.36 118.764C279.928 115.667 287.651 105.54 288.16 90.4411C288.612 77.1404 283.208 67.4943 280.957 63.9263C282.169 66.3787 284.516 67.9944 287.093 68.1002C289.805 68.206 291.661 66.5999 292.084 66.2152H292.104Z" fill="#293336"/>
<path d="M164.55 182.152C185.948 183.258 207.356 184.364 228.764 185.47C228.072 187.836 226.35 192.424 222.023 195.838C216.329 200.329 209.626 200.031 204.548 199.81C202.788 199.733 196.845 199.348 186.535 195.02C180.899 192.645 173.061 188.711 164.55 182.152Z" fill="#134675"/>
<path d="M257.606 114.512C257.982 114.195 262.396 110.598 267.426 112.175C271.657 113.503 273.302 117.561 273.812 118.802C276.322 124.976 274.177 133.766 267.676 138.075C261.117 142.422 253.644 139.883 252.702 139.546C254.337 131.198 255.972 122.851 257.616 114.503L257.606 114.512Z" fill="#FDD0C9"/>
<path d="M156.933 99.5217C152.961 95.9344 147.816 94.4438 143.834 96.1364C137.458 98.8485 137.42 108.302 138.343 112.899C138.795 115.188 139.93 120.862 144.96 123.046C149.509 125.017 154.038 122.747 154.817 122.343C155.519 114.736 156.221 107.129 156.933 99.5217Z" fill="#FDD0C9"/>
<path d="M172.898 169.303C173.032 170.216 173.446 173.659 171.301 177.122C168.993 180.834 165.377 181.93 164.55 182.151C164.963 198.097 175.312 211.426 188.574 214.687C205.385 218.822 225.168 206.348 228.755 185.469C228.101 184.729 227.36 183.719 226.793 182.401C225.187 178.708 226.004 175.227 226.37 173.929C222.013 176.054 213.261 179.593 201.826 179.228C187.141 178.757 176.831 172.149 172.888 169.312L172.898 169.303Z" fill="#FDD0C9"/>
<mask id="mask1_46_678" style="mask-type:luminance" maskUnits="userSpaceOnUse" x="252" y="111" width="23" height="30">
<path d="M257.607 114.516C257.983 114.199 262.397 110.602 267.427 112.179C271.658 113.507 273.303 117.565 273.813 118.806C276.323 124.98 274.178 133.77 267.677 138.079C261.118 142.426 253.645 139.887 252.703 139.55C254.338 131.202 255.972 122.855 257.617 114.507L257.607 114.516Z" fill="white"/>
</mask>
<g mask="url(#mask1_46_678)">
<path d="M258.117 117.689C258.386 117.459 261.608 114.833 265.272 115.987C268.35 116.959 269.552 119.911 269.918 120.815C271.745 125.316 270.187 131.711 265.446 134.856C260.666 138.02 255.222 136.174 254.54 135.933C255.732 129.855 256.925 123.768 258.117 117.689Z" fill="#E89591"/>
</g>
<mask id="mask2_46_678" style="mask-type:luminance" maskUnits="userSpaceOnUse" x="138" y="95" width="23" height="31">
<path d="M155.904 98.4628C155.519 98.1358 150.989 94.4524 145.834 96.0681C141.497 97.4337 139.804 101.588 139.285 102.867C136.717 109.196 138.91 118.207 145.584 122.631C152.307 127.084 159.972 124.487 160.943 124.141C159.26 115.582 157.587 107.022 155.904 98.4628Z" fill="white"/>
</mask>
<g mask="url(#mask2_46_678)">
<path d="M156.106 103.82C155.577 103.012 153.692 100.396 150.364 99.7134C149.585 99.5499 148.008 99.2326 146.382 99.9731C144.257 100.944 143.449 103.099 142.882 104.637C141.574 108.148 142.247 111.293 142.536 112.581C142.882 114.12 143.363 116.246 144.748 117.736C147.431 120.621 153.134 120.718 158.837 118.131C157.923 113.36 157.019 108.59 156.106 103.82Z" fill="#E89591"/>
</g>
<path d="M186.525 43.5464C171.561 51.596 164.367 64.6371 161.722 69.5707C155.288 81.5731 154.413 92.2963 153.221 106.703C152.278 118.167 151.499 127.573 154.798 139.565C156.885 147.134 159.895 158.04 169.82 166.811C179.899 175.717 192.18 178.054 194.479 178.458C195.575 178.65 196.46 178.765 197.075 178.842C210.886 180.602 221.33 176.265 223.84 175.159C225.937 174.236 234.208 170.417 243.238 159.935C246.143 156.569 260.213 139.623 263.377 111.319C265.464 92.6618 268.686 63.7811 247.903 46.7393C230.274 32.2845 203.942 34.1695 186.516 43.5464H186.525Z" fill="#FDD0C9"/>
<path d="M204.452 110.635C203.933 112.597 202.75 116.011 199.951 119.435C198.268 121.502 196.46 122.983 194.912 124.032C193.421 125.041 193.2 127.148 194.46 128.427C195.181 129.158 196.105 129.889 197.297 130.446C200.115 131.783 202.702 131.398 203.577 131.225" stroke="#E89591" stroke-width="2" stroke-linecap="round" stroke-linejoin="round"/>
<path d="M207.828 159.819C206.048 160.367 203.394 160.954 200.163 160.877C196.162 160.771 193.027 159.685 191.142 158.857" stroke="#E89591" stroke-width="2" stroke-linecap="round" stroke-linejoin="round"/>
<path d="M178.667 138.312C178.187 136.177 180.331 134.398 182.341 135.273C186.515 137.091 191.91 138.889 198.335 139.783C207 140.995 214.473 140.159 219.954 138.976C222.176 138.495 223.907 140.832 222.868 142.851C218.877 150.612 212.145 156.114 204.365 157.373C202.451 157.681 196.508 158.383 190.352 155.056C182.764 150.949 179.822 143.4 178.677 138.322L178.667 138.312Z" fill="#293336"/>
<mask id="mask3_46_678" style="mask-type:luminance" maskUnits="userSpaceOnUse" x="178" y="135" width="46" height="23">
<path d="M178.667 138.316C178.187 136.181 180.331 134.402 182.341 135.277C186.515 137.094 191.91 138.893 198.335 139.787C207 140.999 214.473 140.162 219.954 138.979C222.176 138.499 223.907 140.836 222.868 142.855C218.877 150.616 212.145 156.117 204.365 157.377C202.451 157.685 196.508 158.387 190.352 155.06C182.764 150.953 179.822 143.403 178.677 138.326L178.667 138.316Z" fill="white"/>
</mask>
<g mask="url(#mask3_46_678)">
<path d="M185.092 151.932C186.659 150.961 189.525 149.48 193.247 149.22C197.008 148.96 199.893 150.057 201.46 150.826C203.105 149.989 206.865 148.383 211.434 149.335C214.299 149.941 216.425 151.326 217.704 152.355C214.675 160.79 207.76 166.32 200.479 166.146C193.305 165.973 187.16 160.309 185.092 151.932Z" fill="#DB86BF"/>
<path d="M183.639 133.055L183.293 135.603C182.985 137.873 184.313 140.056 186.486 140.777C192.583 142.787 201.374 144.769 211.933 144.22C220.704 143.759 227.869 141.691 232.87 139.796L183.649 133.064L183.639 133.055Z" fill="white"/>
</g>
<path d="M217.223 99.7199C216.868 99.2102 216.329 98.2773 216.473 97.2291C217.012 93.2379 226.86 90.6893 234.717 91.3529C237.804 91.6126 242.767 92.0934 246.537 95.9596C248.104 97.5657 248.98 99.2583 249.48 100.441C247.508 98.989 241.603 95.0652 233.101 94.9786C225.033 94.9017 219.301 98.335 217.223 99.7199Z" fill="#293336"/>
<path d="M218.099 109.518C218.628 108.104 220.099 104.767 223.619 102.353C227.879 99.4391 233.323 99.1314 237.699 100.987C238.93 101.507 243.959 103.642 245.21 108.681C245.729 110.759 245.777 114.019 244.21 115.788C240.94 119.472 230.466 116.798 218.099 109.518Z" fill="#E89591"/>
<path d="M216.675 118.288C217.483 119.221 221.282 123.414 227.697 124.029C235.208 124.751 240.257 119.971 240.978 119.269C241.18 118.884 244.267 112.729 241.103 107.632C237.891 102.448 230.553 102.141 225.889 103.939C220.397 106.045 216.704 111.758 216.675 118.288Z" fill="white"/>
<path d="M216.637 118.393C216.512 117.431 215.8 111.411 220.099 106.554C225.61 100.332 234.054 102.073 234.64 102.207C235.862 102.477 241.161 103.659 243.527 108.343C243.921 109.122 245.748 112.738 244.027 116.2C243.152 117.96 241.728 118.932 240.94 119.384C241.363 118.364 241.892 116.71 241.767 114.671C241.411 108.959 236.256 105.871 235.939 105.689C231.467 103.111 225.985 104.102 222.301 106.699C216.512 110.786 216.618 117.826 216.637 118.393Z" fill="#293336"/>
<path d="M238.276 116.575C236.555 121.566 231.102 124.221 226.101 122.499C221.109 120.778 218.455 115.325 220.176 110.324C221.898 105.333 227.351 102.678 232.352 104.4C237.343 106.121 239.998 111.574 238.276 116.575Z" fill="#293336"/>
<path d="M232.044 113.131C234.004 113.131 235.593 111.542 235.593 109.582C235.593 107.622 234.004 106.033 232.044 106.033C230.084 106.033 228.495 107.622 228.495 109.582C228.495 111.542 230.084 113.131 232.044 113.131Z" fill="white"/>
<path d="M188.651 106.182C188.487 104.682 187.9 101.076 185.092 97.8731C181.697 93.9973 176.494 92.3336 171.791 93.0452C170.474 93.2472 165.069 94.055 162.597 98.6233C161.578 100.499 160.712 103.653 161.789 105.759C164.04 110.145 174.84 110.164 188.641 106.192L188.651 106.182Z" fill="#E89591"/>
<path d="M187.842 115.033C186.823 115.735 182.101 118.851 175.734 117.851C168.281 116.678 164.578 110.792 164.059 109.936C163.963 109.513 162.501 102.781 166.838 98.6356C171.243 94.4136 178.417 95.9524 182.495 98.8472C187.285 102.252 189.439 108.705 187.842 115.043V115.033Z" fill="white"/>
<path d="M187.852 115.137C188.218 114.243 190.401 108.578 187.448 102.808C183.659 95.4023 175.052 94.9888 174.455 94.9695C173.205 94.9311 167.781 94.758 164.319 98.701C163.742 99.3646 161.068 102.404 161.876 106.183C162.289 108.107 163.424 109.405 164.069 110.04C163.905 108.953 163.809 107.212 164.444 105.27C166.213 99.8263 171.974 98.124 172.32 98.0278C177.292 96.6429 182.351 98.9703 185.275 102.413C189.862 107.818 188.006 114.608 187.852 115.147V115.137Z" fill="#293336"/>
<path d="M167.348 107.991C167.771 113.262 172.388 117.185 177.658 116.762C182.928 116.339 186.852 111.723 186.429 106.453C186.006 101.182 181.389 97.2585 176.119 97.6816C170.849 98.1048 166.925 102.721 167.348 107.991Z" fill="#293336"/>
<path d="M180.793 108.144C182.753 108.144 184.342 106.556 184.342 104.596C184.342 102.636 182.753 101.047 180.793 101.047C178.833 101.047 177.244 102.636 177.244 104.596C177.244 106.556 178.833 108.144 180.793 108.144Z" fill="white"/>
<path d="M191.565 96.4685C192.036 96.0646 192.786 95.2952 192.911 94.2373C193.382 90.2365 184.486 85.3221 176.706 83.9949C173.648 83.4756 168.724 82.7062 164.107 85.5145C162.193 86.6781 160.914 88.1015 160.145 89.1209C162.415 88.2073 169.108 85.8703 177.37 87.9188C185.198 89.8615 189.901 94.6124 191.565 96.4589V96.4685Z" fill="#293336"/>
<path d="M172.898 169.303C176.841 172.14 187.151 178.757 201.836 179.218C213.271 179.584 222.023 176.054 226.38 173.919L225.928 176.16C212.608 189.441 195.306 194.519 182.111 188.826C179.13 187.537 174.35 184.835 169.955 178.891C170.648 178.151 171.85 176.65 172.533 174.4C173.206 172.188 173.052 170.303 172.908 169.303H172.898Z" fill="#E89591"/>
<path d="M234.813 62.7833C233.611 66.0436 228.649 78.3056 215.165 85.7013C203.788 91.9429 192.949 91.087 189.141 90.6157C191.478 89.0673 195.258 86.1341 198.47 81.287C201.605 76.5649 202.846 72.0736 203.384 69.3327C196.325 81.7871 188.612 86.7015 182.592 88.8173C173.321 92.0776 166.473 89.2404 161.309 94.0587C155.99 99.0212 156.5 108.312 157.875 115.669C155.779 113.841 152.615 110.572 150.672 105.686C147.941 98.8096 149.056 92.3276 150.345 87.0285C156.211 62.8506 159.404 49.675 172.609 39.2306C192.719 23.314 218.002 28.0169 226.139 30.0653C245.691 34.9798 270.609 50.7233 274.918 76.5553C277.514 92.1353 272.946 113.351 258.876 123.863C257.126 125.171 255.548 126.075 254.452 126.642C255.635 124.911 257.26 122.141 258.385 118.458C258.385 114.082 259.453 111.197 259.693 109.946C260.357 106.455 256.885 103.445 254.481 100.262C251.701 96.5784 248.816 90.6157 248.557 80.6426C248.239 83.0758 248.056 86.1437 248.393 89.6444C248.624 92.0679 249.057 94.2126 249.538 96.0303C246.595 93.0104 242.296 87.8844 239.064 80.4791C235.948 73.3431 235.064 66.9476 234.804 62.8026L234.813 62.7833Z" fill="#293336"/>
<path d="M242.998 332.557C242.998 372.517 239.882 408.716 235.391 440.367C213.675 440.222 191.959 440.078 170.243 439.934C164.675 413.515 160.059 384.038 157.472 351.868C152.192 286.105 156.972 228.402 164.55 182.152C164.838 184.162 167.195 198.598 180.063 205.849C187.968 210.302 195.652 209.677 198.066 209.446C211.155 208.206 219.215 199.031 222.023 195.828C225.475 191.904 227.553 188.077 228.764 185.461C236.737 226.324 242.998 276.007 242.998 332.547V332.557Z" fill="white"/>
<path d="M144.863 376.268C156.942 393.502 172.205 408.977 188.573 407.698C225.542 404.812 253.894 308.794 253.894 320.777V455.342C218.801 487.992 167.935 483.27 145.834 455.342C129.812 435.097 129.244 403.101 144.873 376.268H144.863Z" fill="#E0E0E0"/>
<path d="M178.61 405.524C178.88 432.644 178.437 449.253 176.783 468.103C174.59 493.07 170.984 513.756 167.945 528.509C152.923 529.057 137.016 529.192 120.31 528.759C101.259 528.259 83.2742 527.057 66.4536 525.403C73.7916 503.293 80.8218 479.25 87.0827 453.379C95.5747 418.257 101.287 385.337 105.096 355.312C94.5264 355.081 88.4964 350.955 86.0921 349.022C75.8497 340.79 73.9551 326.306 72.8395 318.083C71.5604 308.678 71.7816 299.551 83.3223 255.869C91.9105 223.324 96.421 210.851 106.971 201.695C114.655 195.03 122.686 191.626 122.686 191.626C128.86 189.019 133.015 188.635 146.498 185.98C154.144 184.48 160.376 183.114 164.55 182.172C169.195 193.549 173.84 204.926 178.485 216.313C174.936 250.474 174.369 278.431 174.504 297.714C174.783 337.318 178.081 350.359 178.62 405.543L178.61 405.524Z" fill="#134675"/>
<path d="M350.51 302.963C350.404 313.513 347.48 320.755 346.461 323.102C345.076 326.295 339.844 337.874 326.976 345.318C323.273 347.462 316.657 351.444 307.828 351.213C290.671 350.771 279.986 336.508 278.361 334.267C284.314 360.032 290.238 385.816 296.124 411.619C304.375 447.79 312.56 483.96 320.677 520.15C310.261 525.69 289.988 534.643 263.223 534.884C244.873 535.047 230.005 531.066 220.272 527.565C216.464 438.73 216.31 372.679 216.81 347.53C217.531 311.503 218.926 286.383 218.926 286.383C219.224 281.074 219.416 278.112 219.638 272.976C220.628 250.443 220.147 232.411 219.57 220.601C222.629 208.887 225.697 197.183 228.755 185.469C240.267 186.834 259.405 190.633 279.823 202.414C301.798 215.09 314.81 231.814 323.283 242.932C336.161 259.82 350.75 278.968 350.5 302.963H350.51Z" fill="#134675"/>
<path d="M229.505 275.353C229.505 273.449 229.505 271.535 229.505 269.631C229.505 269.471 229.588 269.391 229.755 269.391C232.794 269.391 235.833 269.391 238.882 269.391C239.042 269.391 239.122 269.468 239.122 269.621C239.122 270.41 239.122 271.199 239.122 271.987C239.122 272.026 239.122 272.055 239.122 272.093C239.122 272.208 239.103 272.218 238.997 272.228C238.949 272.228 238.901 272.228 238.853 272.228C236.92 272.228 234.987 272.228 233.054 272.228C232.9 272.228 232.823 272.308 232.823 272.468C232.823 272.901 232.823 273.343 232.823 273.776C232.823 273.824 232.823 273.863 232.823 273.911C232.823 273.968 232.861 273.997 232.919 274.007C232.977 274.007 233.025 274.007 233.083 274.007C235.006 274.007 236.929 274.007 238.853 274.007C239.17 274.007 239.132 274.026 239.132 274.276C239.132 274.988 239.132 275.69 239.132 276.402C239.132 276.44 239.132 276.479 239.132 276.517C239.132 276.623 239.113 276.642 238.997 276.642C238.949 276.642 238.901 276.642 238.853 276.642C236.929 276.642 234.996 276.642 233.073 276.642C232.913 276.642 232.832 276.725 232.832 276.892C232.832 277.354 232.832 277.825 232.832 278.287C232.832 278.335 232.832 278.373 232.832 278.421C232.832 278.469 232.871 278.498 232.919 278.508C232.977 278.508 233.025 278.508 233.083 278.508C235.016 278.508 236.958 278.508 238.891 278.508C239.052 278.508 239.132 278.588 239.132 278.748C239.132 279.527 239.132 280.316 239.132 281.095C239.132 281.114 239.132 281.124 239.132 281.143C239.132 281.335 239.132 281.345 238.93 281.345C235.862 281.345 232.784 281.345 229.716 281.345C229.524 281.345 229.514 281.345 229.514 281.143C229.514 279.21 229.514 277.277 229.514 275.344L229.505 275.353Z" fill="white"/>
<path d="M253.837 269.391C255.741 269.391 257.645 269.391 259.54 269.391C259.838 269.391 259.809 269.391 259.809 269.67C259.809 270.477 259.809 271.285 259.809 272.093C259.809 272.314 259.809 272.314 259.588 272.314C258.549 272.314 257.51 272.314 256.472 272.314C256.231 272.314 256.241 272.305 256.241 272.535C256.241 274.642 256.231 276.757 256.241 278.864C256.241 279.585 255.943 280.133 255.395 280.566C254.894 280.96 254.308 281.181 253.692 281.287C253.481 281.326 253.269 281.355 253.058 281.345C252.923 281.345 252.904 281.326 252.904 281.191C252.904 281.143 252.904 281.095 252.904 281.047C252.904 278.219 252.904 275.392 252.904 272.564C252.904 272.295 252.904 272.314 252.654 272.314C251.134 272.314 249.615 272.314 248.095 272.314C247.941 272.314 247.864 272.234 247.864 272.074C247.864 271.256 247.864 270.429 247.864 269.612C247.864 269.4 247.864 269.391 248.076 269.391C249.999 269.391 251.923 269.391 253.837 269.391Z" fill="white"/>
<path d="M247.835 275.632C247.873 275.574 247.854 275.517 247.854 275.469C247.854 274.843 247.854 274.209 247.854 273.584C247.854 273.526 247.825 273.449 247.883 273.42C247.941 273.391 247.979 273.468 248.018 273.516C249.018 274.516 250.018 275.517 251.028 276.517C251.114 276.603 251.153 276.69 251.153 276.815C251.153 278.258 251.153 279.7 251.153 281.143C251.153 281.354 251.153 281.354 250.941 281.354C250.489 281.354 250.028 281.354 249.576 281.354C249.47 281.354 249.383 281.335 249.325 281.239C249.306 281.21 249.287 281.191 249.268 281.172C248.873 280.768 248.479 280.364 248.094 279.95C247.623 279.46 247.152 278.969 246.69 278.479C246.248 278.017 245.796 277.546 245.354 277.084C244.892 276.603 244.421 276.113 243.959 275.622C243.747 275.401 243.536 275.18 243.324 274.959C243.295 274.92 243.257 274.882 243.209 274.863C243.18 274.92 243.19 274.968 243.19 275.026C243.19 275.488 243.19 275.959 243.19 276.421C243.19 276.469 243.199 276.527 243.17 276.575C243.113 276.575 243.084 276.536 243.055 276.507C242.036 275.488 241.026 274.478 240.006 273.459C239.939 273.391 239.91 273.324 239.91 273.218C239.91 271.997 239.91 270.785 239.91 269.564C239.91 269.4 239.92 269.39 240.083 269.381C240.708 269.381 241.334 269.381 241.959 269.381C242.064 269.381 242.132 269.419 242.199 269.496C242.497 269.823 242.795 270.15 243.103 270.487C243.507 270.929 243.911 271.372 244.315 271.814C244.565 272.083 244.815 272.353 245.055 272.622C245.498 273.103 245.931 273.574 246.373 274.055C246.661 274.372 246.95 274.68 247.239 274.988C247.412 275.17 247.575 275.363 247.748 275.546C247.777 275.574 247.796 275.613 247.844 275.622L247.835 275.632Z" fill="#27B2B4"/>
<path d="M241.431 281.344C240.459 281.344 239.68 280.556 239.68 279.584C239.68 278.613 240.469 277.824 241.44 277.834C242.402 277.834 243.19 278.632 243.19 279.594C243.19 280.565 242.402 281.344 241.431 281.344Z" fill="#A97D34"/>
<path d="M257.866 320.101H229.717C228.053 320.101 226.697 318.485 226.697 316.494V286.883C232.833 286.883 238.959 286.883 245.095 286.883C250.355 286.883 255.616 286.883 260.877 286.883V316.494C260.877 318.485 259.53 320.101 257.857 320.101H257.866Z" stroke="#083C5B" stroke-width="2.33" stroke-linecap="round" stroke-linejoin="round"/>
<path d="M226.697 286.883H260.896C260.896 289.989 260.886 293.096 260.877 296.202C255.183 298.635 249.48 301.059 243.787 303.492C238.093 301.059 232.39 298.635 226.697 296.202V286.883Z" stroke="#083C5B" stroke-width="2.33" stroke-linecap="round" stroke-linejoin="round"/>
<path d="M287.218 372.726C284.265 359.906 281.313 347.086 278.36 334.266C279.611 335.988 281.448 338.248 283.967 340.585C285.448 341.96 290.44 346.5 297.229 349.01C309.674 353.607 322.09 348.452 324.119 347.606C338.536 341.576 348.355 326.217 350.23 308.175C325.37 299.5 305.481 298.134 300.797 306.049C297.047 312.377 302.432 325.649 312.8 331.093C322.744 336.324 335.699 333.526 343.277 323.976C341.498 327.159 334.968 337.969 321.667 342.393C319.34 343.162 311.28 346.028 303.375 343.624C279.168 336.257 272.58 287.911 271.09 276.919C268.089 254.914 269.984 237.978 269.455 237.959C268.83 237.94 266.031 261.079 267.166 285.757C268.089 305.809 272.032 336.074 287.237 372.745L287.218 372.726Z" fill="#083C5B"/>
<path d="M105.019 290.586C102.249 293.24 97.6428 298.337 94.7768 306.041C93.4689 309.551 88.2659 323.496 95.7578 335.999C96.9888 338.047 101.499 345.578 110.001 347.79C120.445 350.502 133.015 344.164 140.43 331.729C128.63 318.014 116.829 304.3 105.029 290.596L105.019 290.586Z" fill="#232B2D"/>
<path d="M97.8826 271.334C97.9788 271.526 124.301 262.563 133.899 262.168C136.14 262.072 138.237 262.418 139.795 263.803C141.43 265.255 141.872 267.323 142.016 268.525C142.074 266.823 141.911 263.582 139.708 261.591C136.958 259.11 132.582 259.985 129.764 260.61C113.645 264.198 97.8057 271.18 97.8826 271.334Z" fill="#083C5B"/>
<path d="M134.313 259.946C136.515 247.684 138.727 235.422 140.939 223.17C137.159 230.364 135.121 236.442 133.957 240.712C132.485 246.098 131.456 252.041 126.83 258.379C125.599 260.062 124.445 261.331 123.657 262.139" fill="#083C5B"/>
<path d="M105.087 355.301C107.924 355.387 122.282 355.56 132.707 344.712C137.151 340.086 139.324 335.085 140.421 331.719C152.096 323.323 163.781 314.937 175.456 306.541C175.706 310.58 175.947 314.62 176.197 318.659C166.349 325.583 156.51 332.508 146.662 339.432C145.787 342.654 142.229 354.147 130.621 362.35C118.82 370.688 106.587 370.073 103.298 369.803C103.894 364.966 104.49 360.138 105.087 355.301Z" fill="#083C5B"/>
<path d="M175.456 306.541C183.525 300.097 191.863 293.625 200.48 287.124C206.924 282.267 213.319 277.545 219.647 272.977C219.407 277.449 219.167 281.921 218.936 286.383C204.693 297.145 190.449 307.897 176.206 318.659C175.956 314.619 175.716 310.58 175.466 306.541H175.456Z" fill="#E0E0E0"/>
<path opacity="0.5" d="M219.647 272.977C222.369 267.313 226.437 261.196 232.563 255.964C257.107 234.989 293.143 246.549 296.614 247.713V261.466C296.085 261.619 295.557 261.764 295.028 261.918C294.922 262.446 294.249 265.553 291.335 267.236C289.738 268.159 288.19 268.236 287.411 268.217C286.805 269.804 285.641 272.198 283.362 274.237C278.169 278.863 270.936 278.257 266.301 277.796C257.915 276.969 254.924 274.237 250.096 273.131C243.546 271.641 233.65 273.151 218.945 286.384C219.186 281.912 219.426 277.44 219.657 272.977H219.647Z" fill="#083C5B"/>
<path d="M107.539 286.883C110.655 283.046 114.117 280.949 119.33 278.285C134.977 270.284 148.624 266.273 151.25 265.514C177.293 257.993 174.427 259.378 185.381 255.935C209.444 248.376 217.945 243.375 224.177 237.518C229.832 232.209 233.756 227.208 233.756 227.208C239.536 219.832 239.911 216.783 244.066 212.724C250.481 206.464 258.54 204.963 260.521 204.617C273.86 202.309 287.305 209.416 294.653 219.351C300.846 227.727 306.078 242.634 299.567 250.289C297.48 252.742 294.672 253.886 292.45 254.463C292.066 255.473 291.229 257.243 289.507 258.887C287.43 260.859 285.18 261.571 284.103 261.83C283.237 263.552 281.467 266.379 278.207 267.966C275.255 269.409 272.437 269.159 270.35 268.947C258.213 267.697 253 265.764 246.037 265.514C244.441 265.456 239.334 265.427 233.266 266.985C224.418 269.255 218.436 273.679 215.589 275.823C179.697 302.867 172.129 309.215 172.129 309.215C172.129 309.215 157.366 321.602 138.247 333.037C135.785 334.508 129.851 337.97 121.792 338.191C118.657 338.278 113.021 338.441 108.039 334.758C102.721 330.815 101.317 324.833 100.422 321.005C99.0854 315.254 99.749 310.753 100.422 306.272C101.269 300.588 102.365 293.25 107.539 286.874V286.883Z" fill="#FCD1C8"/>
<path d="M260.521 204.627V229.362C260.521 233.325 263.733 236.547 267.705 236.547H301.529V205.117C294.768 203.79 286.362 202.78 276.726 203.03C270.715 203.184 265.281 203.809 260.521 204.627Z" fill="#E89591"/>
<path d="M343.883 323.227C338.373 331.902 327.909 336.018 318.224 333.422C309.223 331.008 302.491 323.218 301.279 313.773C315.484 316.928 329.679 320.073 343.883 323.227Z" fill="#232B2D"/>
<path d="M319.205 257.414C311.56 269.022 309.838 271.879 307.915 275.581C301.923 287.093 298.778 293.133 299.077 301.606C299.163 304.058 299.557 315.455 308.405 323.216C309.886 324.514 314.176 328.178 320.687 329.111C333.006 330.871 342.335 321.254 343.768 319.782C348.24 315.176 350.135 310.357 354.078 293.758C358.588 274.802 360.435 265.233 361.935 256.433C370.244 207.645 366.609 214.685 369.956 203.558C369.956 203.558 374.274 189.189 373.726 171.965C373.687 170.667 373.582 168.397 372.745 165.579C372.331 164.204 368.706 152.663 357.521 149.047C356.069 148.576 347.596 145.835 340.825 150.682C337.517 153.048 333.776 157.837 335.093 160.665C337.142 165.04 349.75 161.492 351.943 166.579C352.404 167.647 352.366 168.993 351.952 169.176C350.856 169.666 346.961 161.751 345.73 162.223C345.163 162.444 345.114 164.492 346.711 171.147C353.885 184.275 353.433 193.863 352.606 198.816C351.154 207.462 345.413 216.752 333.949 235.323C333.17 236.593 332.295 237.555 319.215 257.424L319.205 257.414Z" fill="#FCD1C8"/>
<path d="M338.026 162.667C339.132 161.869 345.133 157.676 352.365 159.445C353.846 159.811 357.684 160.744 359.982 164.11C363.214 168.841 361.069 174.996 359.732 178.843C357.53 185.181 353.519 189.374 350.759 191.73C346.518 182.036 342.267 172.352 338.026 162.657V162.667Z" fill="#E89591"/>
<mask id="mask4_46_678" style="mask-type:luminance" maskUnits="userSpaceOnUse" x="99" y="204" width="204" height="135">
<path d="M107.538 286.881C110.654 283.044 114.116 280.947 119.329 278.283C134.976 270.282 148.623 266.271 151.249 265.512C177.292 257.991 174.426 259.376 185.38 255.933C209.443 248.374 217.944 243.373 224.176 237.516C229.831 232.207 233.755 227.206 233.755 227.206C239.535 219.83 239.91 216.781 244.065 212.722C250.48 206.462 258.539 204.961 260.52 204.615C273.859 202.307 287.304 209.414 294.652 219.349C300.845 227.725 306.077 242.632 299.566 250.288C297.479 252.74 294.671 253.884 292.449 254.461C292.065 255.471 291.228 257.241 289.507 258.885C287.429 260.857 285.179 261.569 284.102 261.828C283.236 263.55 281.466 266.377 278.206 267.964C275.254 269.407 272.436 269.157 270.349 268.945C258.212 267.695 252.999 265.762 246.036 265.512C244.44 265.454 239.333 265.425 233.265 266.983C224.417 269.253 218.435 273.677 215.588 275.821C179.696 302.865 172.128 309.213 172.128 309.213C172.128 309.213 157.365 321.6 138.246 333.035C135.784 334.506 129.85 337.968 121.791 338.189C118.656 338.276 113.02 338.44 108.038 334.756C102.72 330.813 101.316 324.831 100.421 321.003C99.0844 315.252 99.748 310.751 100.421 306.27C101.268 300.586 102.364 293.248 107.538 286.872V286.881Z" fill="white"/>
</mask>
<g mask="url(#mask4_46_678)">
<path d="M304.115 251.426C299.229 253.186 291.026 255.466 280.706 255.139C270.233 254.802 262.106 251.926 257.327 249.82" stroke="#E89591" stroke-width="2" stroke-linecap="round" stroke-linejoin="round"/>
<path d="M309.789 254.561C305.221 257.032 297.44 260.494 287.188 261.697C276.782 262.918 268.319 261.273 263.28 259.898" stroke="#E89591" stroke-width="2" stroke-linecap="round" stroke-linejoin="round"/>
<path d="M310.991 237.326C306.327 239.615 298.421 242.77 288.121 243.568C277.677 244.376 269.281 242.404 264.299 240.837" stroke="#E89591" stroke-width="2" stroke-linecap="round" stroke-linejoin="round"/>
</g>
<path d="M271.234 172.961V222.884H348.173V172.961H271.234Z" stroke="#FCD1C8" stroke-miterlimit="10"/>
<path d="M347.047 161.795H272.099C267.493 161.795 263.761 165.526 263.761 170.133V225.519C263.761 230.126 267.493 233.857 272.099 233.857H347.047C351.644 233.857 355.375 230.126 355.375 225.519V170.133C355.375 165.526 351.644 161.795 347.047 161.795ZM350.759 224.5C350.759 227.664 348.201 230.222 345.037 230.222H274.109C270.945 230.222 268.378 227.664 268.378 224.5V171.153C268.378 167.988 270.945 165.43 274.109 165.43H345.037C348.201 165.43 350.759 167.988 350.759 171.153V224.5Z" fill="#293336"/>
<path d="M345.037 165.428H274.11C270.946 165.428 268.378 167.986 268.378 171.15V224.497C268.378 227.661 270.946 230.219 274.11 230.219H345.037C348.201 230.219 350.76 227.661 350.76 224.497V171.15C350.76 167.986 348.201 165.428 345.037 165.428ZM348.172 222.881H271.234V172.958H348.172V222.881Z" fill="#1C2223"/>
<path d="M348.173 172.961H271.234V222.884H348.173V172.961Z" fill="#5F6466"/>
<path d="M344.441 197.918C344.441 207.708 340.411 216.556 333.91 222.884H285.237C278.736 216.556 274.706 207.708 274.706 197.918C274.706 188.127 278.736 179.289 285.237 172.961H333.91C340.411 179.289 344.441 188.127 344.441 197.918Z" fill="#80878C"/>
<path d="M335.679 197.918C335.679 209.67 327.918 219.605 317.243 222.884H301.903C291.228 219.605 283.467 209.67 283.467 197.918C283.467 186.165 291.228 176.231 301.903 172.961H317.243C327.918 176.231 335.679 186.165 335.679 197.918Z" fill="#9FA6AA"/>
<path d="M309.568 213.68C318.274 213.68 325.331 206.623 325.331 197.917C325.331 189.212 318.274 182.154 309.568 182.154C300.863 182.154 293.806 189.212 293.806 197.917C293.806 206.623 300.863 213.68 309.568 213.68Z" fill="#C4CACC"/>
<path d="M317.59 201.852C323.56 201.852 328.399 197.012 328.399 191.042C328.399 185.072 323.56 180.232 317.59 180.232C311.62 180.232 306.78 185.072 306.78 191.042C306.78 197.012 311.62 201.852 317.59 201.852Z" fill="#FDFEFC"/>
<path d="M298.893 214.025C302.123 214.025 304.741 211.407 304.741 208.177C304.741 204.948 302.123 202.33 298.893 202.33C295.664 202.33 293.046 204.948 293.046 208.177C293.046 211.407 295.664 214.025 298.893 214.025Z" fill="#FDFEFC"/>
<path d="M339.151 122.125H266.108C264.174 122.125 262.607 123.692 262.607 125.626V132.579C262.607 134.512 264.174 136.08 266.108 136.08H339.151C341.084 136.08 342.652 134.512 342.652 132.579V125.626C342.652 123.692 341.084 122.125 339.151 122.125Z" fill="#5F6466"/>
<path d="M277.091 136.076H331.197V141.548C331.197 147.578 326.302 152.474 320.272 152.474H288.006C281.976 152.474 277.081 147.578 277.081 141.548V136.076H277.091Z" fill="#9FA6AA"/>
<path d="M308.645 107.476C308.645 107.476 307.001 107.543 305.289 106.735C300.211 104.35 290.651 75.2963 293.719 66.6792C294.248 65.1886 295.056 63.9287 295.056 63.9287C296.912 61.0531 299.528 59.5624 300.865 58.9373C306.578 56.2637 312.175 58.4565 313.637 59.1008C315.012 59.7067 318.013 61.0243 319.609 64.0922C320.301 65.4194 320.503 66.6311 320.59 67.3621C321.821 77.3448 316.147 104.485 311.29 106.783C309.972 107.408 308.645 107.466 308.645 107.466V107.476Z" fill="#FAD97A"/>
<path d="M322.465 110.083C322.465 110.083 321.85 109.669 321.446 108.919C320.244 106.707 324.514 93.6567 327.918 91.3582C328.505 90.9543 329.13 90.7235 329.13 90.7235C330.563 90.1753 331.909 90.3388 332.563 90.4638C335.343 91.012 336.776 93.3009 337.141 93.9164C337.478 94.5031 338.209 95.7725 337.978 97.3113C337.872 97.9749 337.622 98.4654 337.458 98.7539C335.246 102.687 325.975 110.997 323.61 110.535C322.965 110.41 322.475 110.073 322.475 110.073L322.465 110.083Z" fill="#FAD97A"/>
<path d="M296.951 112.506C296.951 112.506 297.605 111.631 297.807 110.38C298.403 106.678 285.949 90.4822 280.044 88.9338C279.015 88.6645 278.024 88.6453 278.024 88.6453C275.745 88.5876 273.937 89.4724 273.081 89.9725C269.455 92.1171 268.561 96.041 268.368 97.0796C268.185 98.0606 267.782 100.215 268.878 102.254C269.349 103.139 269.945 103.696 270.321 104.023C275.37 108.457 292.488 115.526 295.585 113.708C296.422 113.217 296.96 112.506 296.96 112.506H296.951Z" fill="#FAD97A"/>
<path d="M319.387 233.848H299.989C298.125 233.848 296.614 235.359 296.614 237.223V269.759C296.614 271.623 298.125 273.134 299.989 273.134H319.387C321.252 273.134 322.763 271.623 322.763 269.759V237.223C322.763 235.359 321.252 233.848 319.387 233.848Z" fill="#1C2223"/>
<path d="M302.442 273.135H317.301C319.503 273.135 321.292 274.924 321.292 277.126V280.011H298.46V277.126C298.46 274.924 300.249 273.135 302.452 273.135H302.442Z" fill="#1C2223"/>
<path d="M298.143 280.01H321.349C327.139 280.01 331.842 284.713 331.842 290.502V295.907C331.842 298.715 329.562 301.004 326.744 301.004H292.738C289.93 301.004 287.641 298.725 287.641 295.907V290.502C287.641 284.713 292.343 280.01 298.133 280.01H298.143Z" fill="#293336"/>
<path d="M327.063 301.004H292.748V305.303H327.063V301.004Z" fill="#1C2223"/>
<path d="M349.894 305.303H269.599V319.786H349.894V305.303Z" fill="#293336"/>
<path d="M349.894 319.785H269.599V323.594H349.894V319.785Z" fill="#1C2223"/>
<path d="M320.513 236.473H309.905V271.22H320.513V236.473Z" fill="#293336"/>
<path d="M331.851 290.514H287.65V295.072H331.851V290.514Z" fill="#C4CACC"/>
<path d="M314.416 310.709H305.02V329.338H314.416V310.709Z" fill="#5F6466"/>
<path d="M285.465 312.177L276.371 309.814L271.688 327.845L280.782 330.207L285.465 312.177Z" fill="#5F6466"/>
<path d="M339.641 330.175L348.735 327.812L344.052 309.782L334.957 312.144L339.641 330.175Z" fill="#5F6466"/>
<path d="M312.781 329.336H306.645V682.713H312.781V329.336Z" fill="#1C2223"/>
<path d="M279.85 329.873L272.18 327.881L180.2 682.01L187.87 684.002L279.85 329.873Z" fill="#1C2223"/>
<path d="M432.545 683.965L440.215 681.973L348.235 327.843L340.565 329.835L432.545 683.965Z" fill="#1C2223"/>
<path d="M279.515 317.421C280.688 317.421 281.64 316.469 281.64 315.295C281.64 314.121 280.688 313.17 279.515 313.17C278.341 313.17 277.389 314.121 277.389 315.295C277.389 316.469 278.341 317.421 279.515 317.421Z" fill="#FDFEFC"/>
<path d="M309.751 317.421C310.925 317.421 311.877 316.469 311.877 315.295C311.877 314.121 310.925 313.17 309.751 313.17C308.578 313.17 307.626 314.121 307.626 315.295C307.626 316.469 308.578 317.421 309.751 317.421Z" fill="#FDFEFC"/>
<path d="M340.825 317.421C341.998 317.421 342.95 316.469 342.95 315.295C342.95 314.121 341.998 313.17 340.825 313.17C339.651 313.17 338.699 314.121 338.699 315.295C338.699 316.469 339.651 317.421 340.825 317.421Z" fill="#FDFEFC"/>
<path d="M318.542 141.848H300.048V161.794H318.542V141.848Z" fill="#1C2223"/>
<path d="M316.493 144.271H305.366V158.794H316.493V144.271Z" fill="#293336"/>
<path d="M295.22 130.309H322.562V137.752C322.562 140.012 320.725 141.849 318.465 141.849H299.317C297.057 141.849 295.22 140.012 295.22 137.752V130.309Z" fill="#293336"/>
<path d="M301.115 119.748H316.916C322.744 119.748 327.476 124.48 327.476 130.308H290.565C290.565 124.48 295.297 119.748 301.125 119.748H301.115Z" fill="#1C2223"/>
<path d="M305.654 115.006H312.771C314.242 115.006 315.435 116.198 315.435 117.67V119.757H302.99V117.67C302.99 116.198 304.182 115.006 305.654 115.006Z" fill="#293336"/>
<path d="M162.328 171.477C168.204 180.238 174.071 188.99 179.947 197.751C179.457 203.935 178.966 210.109 178.476 216.293C171.349 206.07 164.232 195.837 157.106 185.614C158.847 180.901 160.587 176.199 162.328 171.486V171.477Z" fill="#293336"/>
<path d="M162.328 171.477H172.763C172.705 172.39 172.58 173.39 172.34 174.458C171.647 177.622 170.301 180.055 169.175 181.7C166.887 178.295 164.607 174.881 162.318 171.477H162.328Z" fill="#293336"/>
<path d="M162.328 171.477C157.395 176.199 152.471 180.93 147.537 185.652C149.182 186.153 151.557 187.133 153.673 189.153C157.683 192.99 157.76 197.761 159.866 204.82C160.838 208.061 162.492 212.667 165.454 218.005C167.118 214.552 168.349 211.667 169.186 209.648C171.301 204.502 171.84 202.386 174.052 200.453C176.043 198.713 178.322 198.039 179.947 197.751C174.071 188.99 168.205 180.238 162.328 171.477Z" fill="#083C5B"/>
<path d="M235.717 175.793C229.841 184.554 223.975 193.306 218.099 202.067C218.589 208.251 219.08 214.426 219.57 220.609C226.696 210.386 233.813 200.154 240.94 189.93C239.199 185.218 237.458 180.515 235.717 175.803V175.793Z" fill="#293336"/>
<path d="M235.718 175.794C232.496 175.688 229.284 175.573 226.062 175.467C225.898 176.371 225.792 177.477 225.889 178.727C226.168 182.295 227.918 184.844 228.86 186.017C231.149 182.612 233.429 179.198 235.718 175.794Z" fill="#293336"/>
<path d="M235.717 175.793C240.651 180.515 245.575 185.247 250.509 189.969C248.864 190.469 246.489 191.45 244.373 193.47C240.363 197.307 240.286 202.077 238.18 209.136C237.208 212.377 235.554 216.984 232.592 222.321C230.928 218.869 229.697 215.984 228.86 213.964C226.745 208.819 226.206 206.703 223.994 204.77C222.003 203.029 219.724 202.356 218.099 202.067C223.975 193.306 229.841 184.554 235.717 175.793Z" fill="#083C5B"/>
</svg>
