<svg width="506" height="685" viewBox="0 0 506 685" fill="none" xmlns="http://www.w3.org/2000/svg">
<path d="M364.354 443.543C373.018 516.577 381.681 589.612 390.345 662.637C391.197 669.812 392.049 676.997 392.9 684.172H287.117C284.368 645.691 281.629 607.21 278.88 568.729C274.708 607.21 270.536 645.691 266.354 684.172H161.229C171.887 603.617 182.535 523.072 193.192 442.517C229.599 442.201 266.528 442.221 303.951 442.604C324.23 442.814 344.365 443.121 364.344 443.533L364.354 443.543Z" fill="#293336"/>
<mask id="mask0_46_677" style="mask-type:luminance" maskUnits="userSpaceOnUse" x="161" y="442" width="232" height="243">
<path d="M364.354 443.544C373.017 516.579 381.681 589.614 390.344 662.639C391.196 669.814 392.048 676.999 392.9 684.174H287.117C284.368 645.693 281.628 607.212 278.879 568.731C274.707 607.212 270.535 645.693 266.353 684.174H161.229C171.886 603.619 182.534 523.074 193.192 442.519C229.598 442.203 266.528 442.222 303.95 442.606C324.23 442.816 344.364 443.123 364.344 443.535L364.354 443.544Z" fill="white"/>
</mask>
<g mask="url(#mask0_46_677)">
<path d="M224.371 442.613H327.482V488.614C328.799 488.624 360.317 489.486 375.166 515.734C386.298 535.411 380.084 555.231 378.961 558.622C358.362 563.785 337.772 568.949 317.173 574.112C313.824 543.228 310.475 512.353 307.125 481.468C296.419 478.565 282.199 476.199 265.676 477.502C260.836 477.885 256.315 478.537 252.143 479.361C248.387 510.13 244.631 540.9 240.885 571.669C229.656 570.874 216.54 569.131 202.165 565.634C183.047 560.988 167.114 554.57 154.714 548.516C158.189 531.052 167.104 499.746 192.524 470.653C203.366 458.247 214.652 449.166 224.371 442.613Z" fill="#242B2D"/>
<path d="M281.242 442.881C280.438 484.14 279.644 525.39 278.841 566.649C278.754 571.334 278.657 576.028 278.57 580.712" stroke="#1A2021" stroke-width="3" stroke-miterlimit="10"/>
<path d="M299.207 442.613C298.22 468.622 297.233 494.621 296.245 520.629C295.839 527.23 292.238 532.748 287.02 534.654C283.981 535.756 281.135 535.372 279.47 534.97" stroke="#1A2021" stroke-width="3" stroke-miterlimit="10"/>
</g>
<path d="M371.13 85.4861C369.204 85.2179 366.194 84.5569 362.99 82.7368C361.847 82.0854 358.624 80.112 355.642 75.9832C351.277 69.948 350.928 64.162 349.815 59.1423C346.146 42.5791 333.65 31.9937 331.714 30.3939C323.34 23.487 314.619 21.2167 310.785 20.2587C300.37 17.6531 291.58 18.5919 286.672 19.4732C281.484 21.073 275.937 18.8409 273.527 14.3673C271.417 10.4492 272.065 5.47739 275.192 2C270.275 4.26078 267.012 8.59076 266.858 13.2656C266.761 16.264 267.961 18.6014 268.735 19.818C264.186 18.9271 255.861 17.9021 245.91 20.2587C234.11 23.0559 226.618 29.0432 224.982 30.3939C223.046 31.9937 210.549 42.5696 206.88 59.1423C205.767 64.162 205.419 69.948 201.053 75.9832C198.071 80.112 194.848 82.0758 193.706 82.7368C190.502 84.5665 187.482 85.2275 185.565 85.4861C186.243 86.0801 188.759 88.1205 192.583 88.2355C196.6 88.36 199.32 86.2908 199.998 85.7448C193.841 98.6197 194.596 106.772 196.687 111.955C198.071 115.374 200.249 118.047 200.395 122.703C200.588 128.642 197.336 133.624 194.432 136.986C196.707 136.842 199.601 136.268 202.108 134.361C206.454 131.075 206.88 125.95 207.935 126.104C209.581 126.334 205.38 138.346 211.11 148.252C214.663 154.392 220.345 156.816 219.387 161.165C219.058 162.65 217.896 164.661 215.873 165.16C214.073 165.6 212.02 164.738 210.578 162.995C210.704 164.077 211.198 167.018 213.627 169.221C217.654 172.862 223.443 171.243 224.353 170.994C228.835 169.739 231.497 166.395 232.029 165.754C236.743 160.082 256.171 148.462 278.328 139.62C300.486 148.462 319.914 160.082 324.628 165.754C325.16 166.395 327.822 169.748 332.304 170.994C333.214 171.252 339.012 172.862 343.029 169.221C345.459 167.018 345.953 164.077 346.079 162.995C344.627 164.738 342.575 165.6 340.784 165.16C338.77 164.661 337.599 162.64 337.27 161.165C336.312 156.825 341.994 154.392 345.546 148.252C351.277 138.346 347.085 126.334 348.721 126.104C349.776 125.95 350.202 131.075 354.549 134.361C357.065 136.258 359.95 136.833 362.225 136.986C359.321 133.614 356.078 128.642 356.262 122.703C356.407 118.047 358.585 115.384 359.969 111.955C362.06 106.762 362.815 98.6102 356.659 85.7448C357.336 86.2908 360.057 88.36 364.074 88.2355C367.907 88.1109 370.414 86.0801 371.092 85.4861H371.13Z" fill="#293336"/>
<path d="M252.105 189.989C252.453 191.896 252.792 195.162 251.795 198.985C250.285 204.79 246.636 208.306 245.087 209.647C246.413 211.706 255.386 225.156 272.462 227.474C287.098 229.467 301.957 222.502 310.601 209.647C309.004 208.392 306.661 206.208 304.948 202.836C301.424 195.9 303.167 189.127 303.709 187.278C286.508 188.179 269.306 189.089 252.105 189.989Z" fill="#FCD1C8"/>
<path d="M245.087 209.655C246.452 261.634 247.507 313.623 248.262 365.621C248.639 391.342 248.93 417.063 249.162 442.775H307.639C308.626 365.065 309.614 287.365 310.601 209.655C309.159 211.868 300.544 224.571 284.233 227.186C269.451 229.552 254.167 222.693 245.087 209.655Z" fill="white"/>
<mask id="mask1_46_677" style="mask-type:luminance" maskUnits="userSpaceOnUse" x="245" y="209" width="66" height="234">
<path d="M245.087 209.657C246.452 261.636 247.507 313.625 248.262 365.623C248.639 391.344 248.93 417.065 249.162 442.777H307.639C308.626 365.067 309.614 287.367 310.601 209.657C309.159 211.87 300.544 224.573 284.233 227.188C269.451 229.554 254.167 222.695 245.087 209.657Z" fill="white"/>
</mask>
<g mask="url(#mask1_46_677)">
<g opacity="0.66">
<path d="M309.236 316.81C306.855 381.645 283.904 428.058 254.883 432.896C249.172 433.844 241.186 433.528 230.819 428.355V450.216H321.782V321.351C317.6 319.838 313.418 318.314 309.236 316.801V316.81Z" fill="#E0E0E0"/>
</g>
</g>
<path d="M330.348 118.056C330.678 117.126 332.817 111.436 337.976 109.587C338.325 109.463 343.145 107.815 346.446 110.593C353.096 116.188 352.399 138.862 342.226 145.999C337.56 149.275 332.294 148.298 329.932 147.666C330.077 137.799 330.213 127.923 330.358 118.056H330.348Z" fill="#FCD1C8"/>
<path d="M225.601 118.056C225.272 117.126 223.133 111.436 217.973 109.587C217.625 109.463 212.804 107.815 209.503 110.593C202.853 116.188 203.55 138.862 213.724 145.999C218.389 149.275 223.655 148.298 226.017 147.666C225.872 137.799 225.737 127.923 225.591 118.056H225.601Z" fill="#FCD1C8"/>
<path d="M310.601 209.657C321.714 209.321 345.962 209.025 366.223 212.799C369.794 213.46 374.673 214.523 379.997 217.694C390.364 223.873 394.943 233.615 396.598 237.265C400.354 245.561 400.838 252.679 401.187 257.191C402.619 275.545 405.794 293.775 412.135 330.235C413.49 338.042 414.826 345.85 416.2 353.648C419.917 374.732 421.495 382.856 417.788 392.79C417.052 394.773 415.029 399.63 410.721 404.668C400.77 416.308 387.083 418.923 382.291 419.613C394.653 458.841 407.014 498.079 419.375 537.307C406.462 542.988 395.088 547.27 385.999 550.412C371.227 555.528 348.431 562.53 320.107 567.656C320.01 567.675 319.875 567.694 319.778 567.713C315.132 527.211 311.047 485.549 307.63 442.766C302.025 372.519 298.685 304.859 297.156 240.043C301.638 229.908 306.119 219.782 310.601 209.647V209.657Z" fill="#134675"/>
<path d="M245.087 209.656C233.587 209.302 210.432 209.072 190.579 212.798C186.92 213.488 182.08 214.551 176.804 217.693C166.437 223.872 161.858 233.615 160.203 237.265C156.437 245.56 155.963 252.678 155.615 257.19C154.182 275.545 151.007 293.775 144.667 330.234C142.489 342.765 141.559 349.058 140.601 353.647C135.945 376.178 131.995 384.704 134.599 398.499C135.422 402.867 136.468 408.126 140.204 413.663C149.448 427.391 166.456 429.901 171.103 430.437C159.874 466.063 148.655 501.69 137.426 537.316C147.716 541.857 158.848 546.283 170.803 550.421C194.567 558.65 216.821 564.072 236.694 567.665C241.573 527.449 245.793 485.797 249.172 442.775C254.738 371.925 257.477 304.216 258.106 240.052C253.77 229.917 249.433 219.791 245.096 209.656H245.087Z" fill="#134675"/>
<path d="M252.105 189.99C256.838 192.251 266.296 196.006 278.715 195.766C289.915 195.556 298.472 192.193 303.099 189.971C302.218 191.839 292.741 210.988 271.639 214.408C258.774 216.487 248.62 211.582 245.077 209.647C246.568 208.373 248.988 205.949 250.663 202.185C253.034 196.83 252.453 191.973 252.105 189.99Z" fill="#E89591"/>
<mask id="mask2_46_677" style="mask-type:luminance" maskUnits="userSpaceOnUse" x="205" y="108" width="22" height="41">
<path d="M225.602 118.057C225.272 117.127 223.133 111.437 217.974 109.588C217.625 109.464 212.805 107.816 209.504 110.594C202.854 116.189 203.551 138.863 213.724 146C218.39 149.276 223.656 148.299 226.018 147.667C225.873 137.8 225.737 127.924 225.592 118.057H225.602Z" fill="white"/>
</mask>
<g mask="url(#mask2_46_677)">
<path d="M225.098 121.409C224.856 120.748 223.327 116.668 219.629 115.346C219.377 115.259 215.922 114.081 213.569 116.064C208.807 120.078 209.31 136.315 216.599 141.421C219.949 143.768 223.714 143.069 225.408 142.619C225.311 135.549 225.205 128.479 225.108 121.409H225.098Z" fill="#E89591"/>
</g>
<mask id="mask3_46_677" style="mask-type:luminance" maskUnits="userSpaceOnUse" x="329" y="108" width="22" height="41">
<path d="M330.349 118.057C330.678 117.127 332.817 111.437 337.977 109.588C338.325 109.464 343.146 107.816 346.447 110.594C353.097 116.189 352.4 138.863 342.226 146C337.56 149.276 332.295 148.299 329.933 147.667C330.078 137.8 330.213 127.924 330.359 118.057H330.349Z" fill="white"/>
</mask>
<g mask="url(#mask3_46_677)">
<path d="M330.842 121.409C331.084 120.748 332.614 116.668 336.312 115.346C336.563 115.259 340.019 114.081 342.371 116.064C347.134 120.078 346.631 136.315 339.342 141.421C335.992 143.768 332.227 143.069 330.533 142.619C330.63 135.549 330.736 128.479 330.833 121.409H330.842Z" fill="#E89591"/>
</g>
<path d="M110.448 385.508C110.254 385.47 109.112 385.25 108.164 385.978C107.283 386.658 107.041 387.788 107.176 388.545C107.505 390.384 110.303 391.285 111.503 391.725C125.026 396.726 138.297 399.485 147.213 404.936C147.687 405.223 149.613 406.421 152.033 407.992C158.829 412.417 159.439 413.347 162.168 414.841C168.102 418.088 173.804 418.424 175.643 418.51C180.086 418.721 184.616 418.931 188.614 415.943C193.106 412.58 194.064 407.311 194.296 405.673C166.35 398.958 138.394 392.233 110.448 385.518V385.508Z" fill="#FCD1C8"/>
<path d="M368.129 311.096C368.788 328.167 369.446 345.228 370.104 362.299C374.17 363.333 378.235 364.368 382.301 365.393C377.577 347.297 372.853 329.192 368.129 311.096Z" fill="#083C5B"/>
<path d="M382.301 365.392C366.107 361.005 349.912 356.617 333.708 352.23C327.958 350.668 321.801 351.358 316.613 354.261C308.366 358.878 302.519 366.484 300.931 375.24C298.86 386.669 304.823 395.683 306.343 397.838C312.141 403.931 321.55 411.939 335.015 416.911C354.646 424.173 372.796 421.251 379.998 420.006C380.966 419.833 381.759 419.68 382.282 419.584C382.282 401.517 382.292 383.45 382.301 365.383V365.392Z" fill="#134675"/>
<path d="M252.753 371.207C253.005 372.06 253.576 373.372 254.854 374.301C257.177 375.987 260.449 375.384 262.453 373.995C263.634 373.18 264.282 372.165 264.611 371.552C260.662 371.437 256.703 371.322 252.753 371.217V371.207Z" fill="#E89591"/>
<path d="M310.214 406.336H299.653V409.88H310.214V406.336Z" fill="#242B2D"/>
<path d="M322.237 406.336H311.676V409.88H322.237V406.336Z" fill="#242B2D"/>
<path d="M86.0543 253.283L100.342 378.479C100.661 381.295 102.723 383.623 105.501 384.303C143.67 393.653 181.838 403.002 219.996 412.352C214.537 363.707 209.077 315.062 203.608 266.426C203.26 263.351 200.859 260.899 197.761 260.458C163.117 255.572 128.462 250.687 93.8176 245.801C89.3745 245.179 85.5412 248.867 86.0446 253.273L86.0543 253.283Z" fill="#293336"/>
<path d="M220.006 412.353H333.494C334.965 412.353 336.166 411.174 336.166 409.709V403.865H219.057C219.377 406.691 219.696 409.517 220.006 412.343V412.353Z" fill="#3B4244"/>
<path d="M336.165 403.873C299.391 395.586 262.626 387.3 225.852 379.004H216.317C217.227 387.29 218.137 395.577 219.057 403.873H336.165Z" fill="#242B2D"/>
<path d="M268.881 406.336H229.338V409.88H268.881V406.336Z" fill="#242B2D"/>
<path d="M284.872 406.336H274.311V409.88H284.872V406.336Z" fill="#242B2D"/>
<path d="M216.889 383.26H223.374C223.374 383.26 285.375 398.597 289.334 399.574C265.773 399.583 242.221 399.603 218.66 399.612C218.07 394.161 217.479 388.711 216.889 383.26Z" fill="#3B4244"/>
<path d="M391.186 367.354C371.071 361.837 350.956 356.319 330.841 350.801C327.792 349.929 322.613 348.875 316.273 349.651C311.317 350.264 307.416 351.788 304.851 353.033C310.852 354.575 316.854 356.108 322.855 357.65C322.671 357.248 322.488 356.654 322.73 356.127C324.162 352.947 339.157 356.941 354.325 360.342C362.795 362.239 375.389 364.854 391.196 367.354H391.186Z" fill="#083C5B"/>
<path d="M382.291 419.622C385.137 428.656 387.983 437.699 390.829 446.732C385.766 440.544 380.936 438.465 377.587 437.67C368.042 435.429 363.851 442.096 351.886 440.113C350.851 439.94 346.379 438.446 337.425 435.467C328.548 432.507 327.319 431.913 324.569 431.549C320.707 431.041 314.773 431.118 307.02 434.605C306.729 427.324 306.439 420.044 306.148 412.754C312.624 412.715 319.11 412.677 325.586 412.639C330.648 415.081 337.028 417.572 344.588 419.277C360.337 422.822 373.841 421.308 382.282 419.613L382.291 419.622Z" fill="#083C5B"/>
<path d="M175.314 418.492C171.345 430.62 167.366 442.748 163.397 454.876C168.615 446.398 173.832 437.92 179.05 429.442C181.025 429.681 185.197 429.93 189.882 428.005C195.709 425.61 198.739 421.318 199.765 419.69C201.188 420.427 202.611 421.155 204.034 421.893C212.427 426.233 221.778 428.446 231.245 428.35C237.478 428.292 243.712 428.225 249.956 428.168L250.653 412.342H220.016C211.43 410.235 202.843 408.137 194.257 406.029C193.909 407.754 193.038 410.771 190.55 413.492C184.935 419.642 176.262 418.607 175.323 418.483L175.314 418.492Z" fill="#083C5B"/>
<path d="M272.569 45.7105H275.87C274.718 45.6621 273.624 45.6718 272.569 45.7105Z" fill="#FCD1C8"/>
<path d="M330.736 98.7247C330.427 97.3644 330.039 96.119 329.584 94.7683C327.058 87.4112 323.922 82.2861 321.289 77.9944C316.468 70.1392 311.28 61.6612 301.154 54.7543C297.224 52.0721 289.364 46.8416 278.019 45.8453V45.8262C277.961 45.8262 277.903 45.8262 277.854 45.8357C277.796 45.8357 277.738 45.8358 277.69 45.8262V45.8453C266.345 46.8416 258.494 52.0721 254.555 54.7543C244.439 61.6708 239.241 70.1392 234.42 77.9944C231.787 82.2957 228.641 87.4208 226.125 94.7683C225.66 96.1094 225.282 97.3644 224.973 98.7247C218.816 125.605 224.363 146.853 224.363 146.853C225.931 152.15 227.819 156.288 229.183 159.296C231.439 164.249 234.314 170.552 239.231 176.904C242.726 181.416 248.369 188.706 258.175 193.199C265.474 196.542 272.443 197.126 277.864 196.944C283.275 197.126 290.255 196.551 297.553 193.199C307.359 188.706 313.003 181.416 316.497 176.904C321.414 170.552 324.289 164.239 326.545 159.296C327.919 156.288 329.797 152.15 331.365 146.853C331.365 146.853 336.902 125.615 330.756 98.7247H330.736Z" fill="#FCD1C8"/>
<path d="M279.819 45.7105H283.12C282.075 45.6718 280.971 45.6621 279.819 45.7105Z" fill="#FCD1C8"/>
<path d="M275.637 124.054C275.598 126.64 275.182 131.238 272.753 136.344C271.291 139.419 269.5 141.824 267.884 143.596C266.335 145.301 266.712 147.984 268.697 149.181C269.82 149.861 271.213 150.474 272.878 150.81C276.818 151.595 279.935 150.321 280.971 149.842" stroke="#E89591" stroke-width="2" stroke-linecap="round" stroke-linejoin="round"/>
<path d="M287.63 107.807C287.214 107.347 286.556 106.494 286.566 105.44C286.595 101.427 296.11 97.6809 304.038 97.3456C307.155 97.2115 312.169 97.0774 316.428 100.421C318.19 101.81 319.284 103.381 319.932 104.482C317.774 103.295 311.395 100.152 302.886 101.139C294.823 102.078 289.528 106.178 287.63 107.807Z" fill="#293336"/>
<path d="M289.75 117.377C290.099 115.912 291.144 112.425 294.358 109.608C298.24 106.198 303.641 105.211 308.249 106.495C309.536 106.859 314.831 108.334 316.719 113.153C317.493 115.136 317.958 118.364 316.622 120.299C313.825 124.351 303.031 123.02 289.75 117.368V117.377Z" fill="#E89591"/>
<path d="M289.441 126.219C290.37 127.043 294.688 130.712 301.173 130.511C308.762 130.281 313.205 124.935 313.835 124.15C313.99 123.738 316.293 117.281 312.489 112.635C308.617 107.912 301.26 108.535 296.827 110.892C291.609 113.66 288.647 119.772 289.441 126.219Z" fill="white"/>
<path d="M289.412 126.334C289.16 125.405 287.699 119.533 291.377 114.197C296.091 107.357 304.745 108.018 305.345 108.076C306.594 108.191 312.034 108.698 314.996 113.028C315.49 113.756 317.774 117.09 316.487 120.73C315.829 122.579 314.541 123.719 313.806 124.265C314.106 123.212 314.416 121.497 314.038 119.504C312.964 113.9 307.417 111.496 307.088 111.362C302.296 109.379 296.953 111.036 293.604 114.073C288.338 118.834 289.335 125.779 289.422 126.334H289.412Z" fill="#293336"/>
<path d="M310.785 121.832C309.692 126.986 304.59 130.281 299.382 129.208C294.175 128.126 290.845 123.077 291.929 117.924C293.023 112.77 298.124 109.474 303.332 110.547C308.54 111.63 311.87 116.678 310.785 121.832Z" fill="#293336"/>
<path d="M303.68 119.246C305.653 119.246 307.252 117.663 307.252 115.711C307.252 113.758 305.653 112.176 303.68 112.176C301.708 112.176 300.108 113.758 300.108 115.711C300.108 117.663 301.708 119.246 303.68 119.246Z" fill="white"/>
<path d="M259.917 117.77C259.568 116.304 258.523 112.817 255.309 110.001C251.427 106.591 246.026 105.604 241.418 106.888C240.131 107.252 234.836 108.727 232.948 113.545C232.174 115.528 231.709 118.757 233.045 120.692C235.842 124.744 246.636 123.412 259.917 117.76V117.77Z" fill="#E89591"/>
<path d="M260.227 126.612C259.298 127.435 254.981 131.104 248.495 130.903C240.906 130.673 236.463 125.328 235.834 124.542C235.679 124.13 233.375 117.674 237.179 113.028C241.051 108.305 248.408 108.928 252.841 111.284C258.059 114.053 261.021 120.165 260.227 126.612Z" fill="white"/>
<path d="M260.255 126.717C260.507 125.788 261.969 119.916 258.29 114.58C253.576 107.74 244.922 108.401 244.322 108.459C243.073 108.574 237.633 109.081 234.671 113.411C234.177 114.139 231.893 117.473 233.18 121.113C233.839 122.962 235.126 124.102 235.862 124.648C235.562 123.594 235.252 121.88 235.629 119.887C236.704 114.283 242.251 111.878 242.58 111.744C247.371 109.761 252.715 111.419 256.064 114.455C261.33 119.216 260.333 126.162 260.246 126.717H260.255Z" fill="#293336"/>
<path d="M238.882 122.216C239.976 127.37 245.077 130.665 250.285 129.592C255.493 128.51 258.823 123.461 257.739 118.307C256.645 113.154 251.543 109.858 246.336 110.931C241.128 112.014 237.798 117.062 238.882 122.216Z" fill="#293336"/>
<path d="M251.872 120.721C253.845 120.721 255.444 119.138 255.444 117.186C255.444 115.234 253.845 113.651 251.872 113.651C249.899 113.651 248.3 115.234 248.3 117.186C248.3 119.138 249.899 120.721 251.872 120.721Z" fill="white"/>
<path d="M259.143 167.421C264.457 168.695 272.656 169.96 282.481 168.667C288.87 167.824 294.175 166.138 298.163 164.519" stroke="#E89591" stroke-width="2" stroke-linecap="round" stroke-linejoin="round"/>
<path d="M265.918 173.915C269.181 174.7 274.214 175.467 280.245 174.681C284.165 174.164 287.418 173.129 289.867 172.133" stroke="#E89591" stroke-width="2" stroke-linecap="round" stroke-linejoin="round"/>
<path d="M261.601 107.807C262.018 107.347 262.676 106.494 262.666 105.44C262.637 101.427 253.122 97.6809 245.194 97.3456C242.077 97.2115 237.063 97.0774 232.803 100.421C231.042 101.81 229.948 103.381 229.299 104.482C231.458 103.295 237.837 100.152 246.346 101.139C254.409 102.078 259.704 106.178 261.601 107.807Z" fill="#293336"/>
<path d="M249.289 65.1002C249.134 66.0582 246.21 85.9358 261.234 98.1977C271.678 106.724 283.885 105.938 286.605 105.699C285.085 105.047 275.879 100.89 272.269 90.4095C269.21 81.5197 272.211 73.9326 273.014 72.0646C273.13 75.1396 273.624 79.2589 275.182 83.8667C277.419 90.4957 280.874 95.2185 283.304 98.0253C283.304 98.0253 283.827 98.5809 284.417 99.1365C290.777 105.22 304.861 110.115 310.95 112.079C308.53 108.975 304.774 103.313 302.964 95.3526C301.725 89.8826 301.803 85.1407 302.141 81.8166C306.168 97.2781 312.15 104.674 317.136 108.553C319.236 110.191 325.189 114.339 328.829 122.089C329.971 124.513 330.591 126.649 330.939 128.115C334.134 120.078 339.477 103.198 335.421 82.7842C334.066 75.9826 332.043 66.3647 324.715 57.0246C309.246 37.329 283.691 36.122 279.238 35.9879C276.693 35.9112 244.749 35.5376 225.389 61.8432C210.946 81.4622 209.32 108.055 221.091 130.155C220.897 127.013 220.975 122.271 222.601 116.945C226.144 105.382 233.926 101.244 240.393 91.6261C244.003 86.2615 248.108 77.8603 249.289 65.0907V65.1002Z" fill="#293336"/>
<path d="M241.786 195.882C247.7 204.609 253.605 213.326 259.519 222.053C259.026 228.213 258.532 234.363 258.038 240.523C250.865 230.34 243.702 220.147 236.529 209.964C238.281 205.27 240.033 200.585 241.786 195.891V195.882Z" fill="#293336"/>
<path d="M241.786 195.882H252.289C252.231 196.792 252.105 197.788 251.863 198.852C251.166 202.003 249.811 204.427 248.678 206.065C246.374 202.674 244.08 199.273 241.776 195.882H241.786Z" fill="#293336"/>
<path d="M241.786 195.882C236.82 200.585 231.864 205.299 226.898 210.002C228.554 210.5 230.945 211.477 233.074 213.489C237.111 217.311 237.188 222.063 239.308 229.094C240.286 232.323 241.951 236.911 244.932 242.228C246.607 238.789 247.846 235.915 248.688 233.903C250.818 228.778 251.36 226.671 253.586 224.745C255.59 223.011 257.884 222.341 259.52 222.053C253.606 213.326 247.701 204.609 241.786 195.882Z" fill="#083C5B"/>
<path d="M313.476 195.843C307.561 204.57 301.657 213.287 295.742 222.014C296.236 228.174 296.73 234.324 297.223 240.484C304.396 230.301 311.559 220.108 318.732 209.925C316.98 205.231 315.228 200.546 313.476 195.852V195.843Z" fill="#293336"/>
<path d="M313.476 195.843C309.972 195.843 306.468 195.843 302.973 195.843C303.031 196.753 303.157 197.749 303.399 198.812C304.096 201.964 305.451 204.388 306.584 206.026C308.888 202.635 311.182 199.234 313.486 195.843H313.476Z" fill="#293336"/>
<path d="M313.476 195.843C318.442 200.546 323.398 205.26 328.364 209.963C326.708 210.461 324.318 211.438 322.188 213.45C318.151 217.272 318.074 222.024 315.954 229.055C314.976 232.284 313.311 236.872 310.33 242.189C308.655 238.75 307.416 235.876 306.574 233.864C304.444 228.739 303.902 226.632 301.676 224.706C299.672 222.972 297.378 222.302 295.742 222.014C301.657 213.287 307.561 204.57 313.476 195.843Z" fill="#083C5B"/>
<path d="M141.037 401.363C144.415 405.07 149.701 410.349 157.019 415.78C161.017 418.75 163.078 420.254 166.079 421.49C168.257 422.381 181.161 427.343 191.78 420.024C197.81 415.867 200.143 409.803 201.005 406.977C191.944 404.802 182.884 402.628 173.814 400.453C162.885 400.76 151.956 401.057 141.027 401.363H141.037Z" fill="#293336"/>
<path d="M110.448 385.508C110.254 385.47 109.112 385.25 108.164 385.978C107.283 386.658 107.041 387.788 107.176 388.545C107.505 390.384 110.303 391.285 111.503 391.725C125.026 396.726 138.297 399.485 147.213 404.936C147.687 405.223 149.613 406.421 152.033 407.992C158.829 412.417 159.439 413.347 162.168 414.841C168.102 418.088 173.804 418.424 175.643 418.51C180.086 418.721 184.616 418.931 188.614 415.943C193.106 412.58 194.064 407.311 194.296 405.673C166.35 398.958 138.394 392.233 110.448 385.518V385.508Z" fill="#FCD1C8"/>
<path d="M316.612 354.259C318.974 354.077 327.115 353.742 334.375 359.241C336.514 360.86 342.312 365.257 342.903 372.327C343.58 380.469 336.959 387.261 331.287 390.183C322.914 394.494 311.956 392.798 303.544 385.882C307.9 375.344 312.256 364.797 316.612 354.259Z" fill="#293336"/>
<path d="M338.886 369.223C339.922 372.278 339.592 374.865 339.505 375.459C338.76 380.565 335.072 383.678 333.204 385.24C326.854 390.585 319.352 390.633 318.006 390.623C310.175 390.547 304.348 386.456 302.808 385.364C300.205 383.534 300.205 382.835 298.114 381.944C295.761 380.938 293.777 380.967 284.891 381.695C278.88 382.193 276.45 382.462 275.008 380.843C274.349 380.105 273.865 378.946 274.146 377.911C274.63 376.091 277.263 375.382 280.816 374.491C282.713 374.012 285.452 373.466 288.85 373.265C286.72 372.709 284.581 372.336 282.422 372.163C278.676 371.819 275.511 371.675 272.597 371.608C269.422 371.541 268.009 371.56 264.253 371.55C254.612 371.55 245.745 371.253 243.799 368.494C242.851 367.153 242.996 365.927 242.996 365.927C242.996 365.927 243.102 364.969 243.925 364.03C245.271 362.498 249.356 361.932 254.496 362.622C254.515 361.607 254.709 359.959 255.851 358.647C257.148 357.152 258.997 356.874 261.475 356.568C268.928 355.629 273.594 355.37 273.594 355.37C273.594 355.37 277.553 355.15 282.422 354.796C286.982 354.47 288.666 354.278 293.032 353.924C300.408 353.32 304.086 353.023 305.78 353.023C308.51 353.023 316.496 353.138 325.179 357.181C329.787 359.327 336.621 362.507 338.895 369.223H338.886Z" fill="#FCD1C8"/>
<mask id="mask4_46_677" style="mask-type:luminance" maskUnits="userSpaceOnUse" x="242" y="353" width="98" height="38">
<path d="M338.885 369.221C339.921 372.276 339.592 374.863 339.505 375.457C338.759 380.563 335.071 383.676 333.203 385.238C326.853 390.583 319.351 390.631 318.006 390.621C310.174 390.545 304.347 386.454 302.808 385.362C300.204 383.532 300.204 382.833 298.113 381.942C295.761 380.936 293.777 380.965 284.89 381.693C278.879 382.191 276.449 382.46 275.007 380.841C274.349 380.103 273.865 378.944 274.145 377.909C274.629 376.089 277.262 375.38 280.815 374.489C282.712 374.01 285.452 373.464 288.849 373.263C286.72 372.708 284.581 372.334 282.422 372.162C278.676 371.817 275.51 371.673 272.597 371.606C269.422 371.539 268.008 371.558 264.253 371.548C254.611 371.548 245.744 371.251 243.799 368.493C242.85 367.151 242.995 365.925 242.995 365.925C242.995 365.925 243.102 364.967 243.925 364.028C245.27 362.496 249.355 361.931 254.495 362.62C254.514 361.605 254.708 359.957 255.85 358.645C257.147 357.15 258.996 356.872 261.474 356.566C268.928 355.627 273.594 355.368 273.594 355.368C273.594 355.368 277.553 355.148 282.422 354.794C286.981 354.468 288.665 354.276 293.031 353.922C300.407 353.318 304.086 353.021 305.78 353.021C308.51 353.021 316.495 353.136 325.178 357.179C329.786 359.325 336.62 362.505 338.895 369.221H338.885Z" fill="white"/>
</mask>
<g mask="url(#mask4_46_677)">
<path d="M254.574 356.291C253.702 359.452 253.635 364.002 257.1 365.554C258.697 366.349 260.527 366.148 262.279 366.187C264.079 366.167 265.87 366.119 267.671 366.043C274.863 365.755 282.055 365.286 289.238 364.75C289.77 364.711 290.235 365.104 290.273 365.631C290.312 366.177 289.886 366.646 289.335 366.666C282.123 366.895 274.902 367.068 267.68 367.049C265.87 367.049 264.07 367.02 262.26 366.962C259.985 366.895 257.468 366.886 255.677 365.257C253.296 363.102 253.441 358.695 254.574 356.281V356.291Z" fill="#E89591"/>
<path d="M306.11 370.662C302.189 369.8 298.395 370.48 294.755 372.166C290.97 373.823 286.576 373.785 282.694 372.511C282.607 372.482 282.636 372.329 282.742 372.357C284.698 372.817 286.721 373.018 288.695 372.855C292.897 372.664 296.014 369.79 300.108 368.976C302.18 368.545 304.329 368.525 306.42 368.775C306.952 368.842 307.329 369.311 307.262 369.838C307.194 370.384 306.662 370.777 306.11 370.662Z" fill="#E89591"/>
</g>
<path d="M316.127 287.066C316.127 284.805 316.127 282.544 316.127 280.283C316.127 280.092 316.227 279.996 316.428 279.996C320.067 279.996 323.707 279.996 327.356 279.996C327.55 279.996 327.647 280.089 327.647 280.274C327.647 281.203 327.647 282.142 327.647 283.071C327.647 283.109 327.647 283.157 327.647 283.196C327.647 283.33 327.627 283.349 327.492 283.359C327.434 283.359 327.376 283.359 327.318 283.359C325.004 283.359 322.69 283.359 320.377 283.359C320.19 283.359 320.096 283.454 320.096 283.646C320.096 284.163 320.096 284.681 320.096 285.198C320.096 285.255 320.096 285.303 320.096 285.361C320.096 285.428 320.145 285.466 320.212 285.466C320.28 285.466 320.338 285.466 320.406 285.466C322.71 285.466 325.004 285.466 327.308 285.466C327.685 285.466 327.647 285.485 327.647 285.792C327.647 286.635 327.647 287.468 327.647 288.311C327.647 288.359 327.647 288.407 327.647 288.455C327.647 288.579 327.618 288.599 327.482 288.608C327.424 288.608 327.366 288.608 327.308 288.608C325.004 288.608 322.69 288.608 320.387 288.608C320.193 288.608 320.096 288.704 320.096 288.896C320.096 289.451 320.096 289.997 320.096 290.553C320.096 290.61 320.096 290.658 320.096 290.716C320.096 290.783 320.135 290.811 320.203 290.811C320.27 290.811 320.329 290.811 320.396 290.811C322.72 290.811 325.033 290.811 327.356 290.811C327.55 290.811 327.647 290.907 327.647 291.099C327.647 292.028 327.647 292.957 327.647 293.877C327.647 293.896 327.647 293.915 327.647 293.934C327.647 294.164 327.647 294.174 327.405 294.174C323.726 294.174 320.048 294.174 316.369 294.174C316.137 294.174 316.127 294.174 316.127 293.934C316.127 291.645 316.127 289.355 316.127 287.066Z" fill="white"/>
<path d="M345.254 280.006C347.529 280.006 349.813 280.006 352.088 280.006C352.446 280.006 352.417 280.006 352.417 280.332C352.417 281.29 352.417 282.248 352.417 283.205C352.417 283.474 352.417 283.474 352.156 283.474C350.907 283.474 349.668 283.474 348.42 283.474C348.139 283.474 348.149 283.455 348.149 283.742C348.149 286.242 348.139 288.742 348.149 291.243C348.149 292.105 347.79 292.747 347.142 293.254C346.542 293.724 345.845 293.982 345.099 294.107C344.848 294.145 344.596 294.184 344.335 294.184C344.17 294.184 344.151 294.165 344.151 294.002C344.151 293.944 344.151 293.887 344.151 293.829C344.151 290.476 344.151 287.124 344.151 283.771C344.151 283.455 344.16 283.474 343.851 283.474C342.031 283.474 340.211 283.474 338.391 283.474C338.204 283.474 338.11 283.378 338.11 283.186C338.11 282.209 338.11 281.242 338.11 280.265C338.11 280.006 338.11 280.006 338.362 280.006C340.666 280.006 342.96 280.006 345.264 280.006H345.254Z" fill="white"/>
<path d="M338.072 287.392C338.11 287.325 338.101 287.258 338.101 287.191C338.101 286.443 338.101 285.696 338.101 284.959C338.101 284.891 338.072 284.796 338.139 284.767C338.217 284.738 338.256 284.824 338.304 284.872C339.504 286.06 340.705 287.248 341.905 288.426C342.011 288.532 342.06 288.637 342.05 288.781C342.05 290.486 342.05 292.201 342.05 293.906C342.05 294.165 342.05 294.164 341.789 294.164C341.247 294.164 340.695 294.164 340.153 294.164C340.027 294.164 339.92 294.136 339.853 294.03C339.833 294.002 339.804 293.973 339.785 293.954C339.311 293.475 338.836 292.996 338.372 292.507C337.81 291.923 337.249 291.348 336.687 290.764C336.155 290.218 335.623 289.662 335.09 289.116C334.529 288.541 333.977 287.967 333.416 287.392C333.164 287.133 332.902 286.865 332.651 286.606C332.612 286.568 332.573 286.52 332.506 286.491C332.467 286.558 332.477 286.616 332.477 286.683C332.477 287.238 332.477 287.784 332.477 288.34C332.477 288.398 332.496 288.465 332.457 288.522C332.389 288.522 332.36 288.474 332.322 288.436C331.102 287.229 329.892 286.031 328.672 284.824C328.595 284.748 328.556 284.662 328.556 284.547C328.556 283.1 328.556 281.663 328.556 280.217C328.556 280.025 328.576 280.006 328.769 280.006C329.514 280.006 330.26 280.006 331.015 280.006C331.141 280.006 331.228 280.054 331.305 280.14C331.663 280.533 332.022 280.916 332.389 281.309C332.873 281.836 333.357 282.353 333.841 282.88C334.142 283.196 334.432 283.522 334.732 283.838C335.255 284.403 335.777 284.968 336.31 285.533C336.658 285.907 337.007 286.271 337.346 286.645C337.549 286.865 337.752 287.085 337.955 287.306C337.984 287.344 338.013 287.382 338.072 287.401V287.392Z" fill="#27B2B4"/>
<path d="M330.396 294.171C329.234 294.171 328.295 293.242 328.295 292.083C328.295 290.933 329.244 290.004 330.406 290.004C331.558 290.004 332.506 290.943 332.506 292.092C332.506 293.242 331.558 294.171 330.396 294.171Z" fill="#A97D34"/>
<path d="M350.521 340.089H316.815C314.821 340.089 313.204 338.173 313.204 335.817V300.727C320.551 300.727 327.889 300.727 335.236 300.727C341.537 300.727 347.839 300.727 354.141 300.727V335.817C354.141 338.173 352.524 340.089 350.53 340.089H350.521Z" stroke="#083C5B" stroke-width="2.77" stroke-linecap="round" stroke-linejoin="round"/>
<path d="M313.204 300.736H354.16C354.16 304.415 354.141 308.103 354.141 311.782C347.316 314.655 340.492 317.539 333.677 320.413C326.853 317.539 320.038 314.655 313.214 311.782V300.736H313.204Z" stroke="#083C5B" stroke-width="2.77" stroke-linecap="round" stroke-linejoin="round"/>
</svg>
