<?xml version="1.0" encoding="UTF-8"?>
<svg xmlns="http://www.w3.org/2000/svg" viewBox="0 0 1080 1080">
  <defs>
    <style>
      .cls-1, .cls-2 {
        fill: #fff;
      }

      .cls-3 {
        isolation: isolate;
      }

      .cls-4, .cls-5 {
        fill: #c7a369;
      }

      .cls-6, .cls-7 {
        fill: #25a79f;
      }

      .cls-8, .cls-9 {
        fill: #bebfc0;
      }

      .cls-8, .cls-10, .cls-11, .cls-12, .cls-7, .cls-2, .cls-5 {
        stroke: #fff;
        stroke-linecap: round;
        stroke-linejoin: round;
        stroke-width: 25px;
      }

      .cls-10, .cls-13 {
        fill: #4d5053;
      }

      .cls-11, .cls-12, .cls-14, .cls-15 {
        fill: #a5a5a7;
      }

      .cls-11, .cls-15 {
        mix-blend-mode: multiply;
      }
    </style>
  </defs>
  <g class="cls-3">
    <g id="Layer_1" data-name="Layer 1">
      <g>
        <g>
          <g>
            <polygon class="cls-10" points="434.75 962.48 343.33 926.33 490.39 487.48 627.52 541.69 434.75 962.48"/>
            <path class="cls-12" d="m726.95,464.53c-27.99,70.79-108.06,105.49-178.85,77.51-70.79-27.99-105.49-108.06-77.51-178.85,27.98-70.79,108.06-105.49,178.85-77.51,70.79,27.98,105.49,108.06,77.51,178.85Z"/>
            <rect class="cls-7" x="420.33" y="510.49" width="177.55" height="260.4" transform="translate(-273.89 878.6) rotate(-68.43)"/>
            <g>
              <path class="cls-2" d="m485.84,595.09l-30.88,78.1-19.51-7.71,30.88-78.1-30.09-11.89,5.96-15.08,79.76,31.53-5.96,15.08-30.16-11.92Z"/>
              <path class="cls-2" d="m541.73,707.5l-19.78-7.82,2.38-106.8,20.37,8.05-4.48,67.43c-.34,4.35-1.03,10.86-2.06,19.53l3.64-5.14,8.08-10.57,42.77-52.29,20.17,7.97-71.09,79.64Z"/>
            </g>
            <path class="cls-8" d="m595.73,268.06h6.09c9.34,0,16.93,7.59,16.93,16.93v257.74c0,9.34-7.59,16.93-16.93,16.93h-6.09c-9.34,0-16.93-7.59-16.93-16.93v-257.74c0-9.34,7.59-16.93,16.93-16.93Z" transform="translate(-6.23 818.55) rotate(-68.43)"/>
          </g>
          <path class="cls-11" d="m487.76,495.33l-12.53,36.52,133.02,52.58,15.83-35.21c39.19-7.36,74.33-31.56,94.71-67.9l-253.71-100.3c-9.98,40.45-.88,82.14,22.69,114.3Z"/>
          <polygon class="cls-11" points="505.83 807.32 533.47 747 418.64 701.61 397.55 764.51 505.83 807.32"/>
          <path class="cls-2" d="m586.39,323.56c-3.46,8.74-13.35,13.03-22.09,9.57s-13.03-13.35-9.57-22.09c3.46-8.74,13.35-13.03,22.09-9.57,8.74,3.45,13.03,13.34,9.57,22.09Z"/>
        </g>
        <g>
          <g>
            <polygon class="cls-13" points="434.75 962.48 343.33 926.33 490.39 487.48 627.52 541.69 434.75 962.48"/>
            <path class="cls-14" d="m726.95,464.53c-27.99,70.79-108.06,105.49-178.85,77.51-70.79-27.99-105.49-108.06-77.51-178.85,27.98-70.79,108.06-105.49,178.85-77.51,70.79,27.98,105.49,108.06,77.51,178.85Z"/>
            <rect class="cls-6" x="420.33" y="510.49" width="177.55" height="260.4" transform="translate(-273.89 878.6) rotate(-68.43)"/>
            <g>
              <path class="cls-1" d="m485.84,595.09l-30.88,78.1-19.51-7.71,30.88-78.1-30.09-11.89,5.96-15.08,79.76,31.53-5.96,15.08-30.16-11.92Z"/>
              <path class="cls-1" d="m541.73,707.5l-19.78-7.82,2.38-106.8,20.37,8.05-4.48,67.43c-.34,4.35-1.03,10.86-2.06,19.53l3.64-5.14,8.08-10.57,42.77-52.29,20.17,7.97-71.09,79.64Z"/>
            </g>
            <path class="cls-9" d="m595.73,268.06h6.09c9.34,0,16.93,7.59,16.93,16.93v257.74c0,9.34-7.59,16.93-16.93,16.93h-6.09c-9.34,0-16.93-7.59-16.93-16.93v-257.74c0-9.34,7.59-16.93,16.93-16.93Z" transform="translate(-6.23 818.55) rotate(-68.43)"/>
          </g>
          <path class="cls-15" d="m487.76,495.33l-12.53,36.52,133.02,52.58,15.83-35.21c39.19-7.36,74.33-31.56,94.71-67.9l-253.71-100.3c-9.98,40.45-.88,82.14,22.69,114.3Z"/>
          <polygon class="cls-15" points="505.83 807.32 533.47 747 418.64 701.61 397.55 764.51 505.83 807.32"/>
          <path class="cls-1" d="m586.39,323.56c-3.46,8.74-13.35,13.03-22.09,9.57s-13.03-13.35-9.57-22.09c3.46-8.74,13.35-13.03,22.09-9.57,8.74,3.45,13.03,13.34,9.57,22.09Z"/>
        </g>
        <path class="cls-5" d="m526.71,233.15c-.63.4-1.29.75-2.01,1.04-6.6,2.75-14.18-.38-16.93-6.99l-34.52-82.95c-2.75-6.6.36-14.17,6.98-16.93,6.6-2.74,14.18.38,16.93,6.99l34.52,82.95c2.45,5.91.22,12.58-4.98,15.9Z"/>
        <path class="cls-5" d="m487.05,280.02c-4.77,3.04-11.17,2.69-15.58-1.27l-69.59-62.17c-5.34-4.77-5.79-12.96-1.04-18.28,4.81-5.37,12.96-5.8,18.29-1.03l69.59,62.17c5.34,4.77,5.79,12.96,1.03,18.29-.81.91-1.73,1.68-2.7,2.3Z"/>
        <path class="cls-5" d="m588.77,234.59c-2.2,1.4-4.83,2.15-7.64,2-7.14-.38-12.62-6.48-12.24-13.62l4.95-93.19c.38-7.14,6.47-12.62,13.63-12.25,7.15.38,12.63,6.48,12.24,13.62l-4.94,93.18c-.23,4.35-2.57,8.07-5.99,10.25Z"/>
        <path class="cls-4" d="m526.71,233.15c-.63.4-1.29.75-2.01,1.04-6.6,2.75-14.18-.38-16.93-6.99l-34.52-82.95c-2.75-6.6.36-14.17,6.98-16.93,6.6-2.74,14.18.38,16.93,6.99l34.52,82.95c2.45,5.91.22,12.58-4.98,15.9Z"/>
        <path class="cls-4" d="m487.05,280.02c-4.77,3.04-11.17,2.69-15.58-1.27l-69.59-62.17c-5.34-4.77-5.79-12.96-1.04-18.28,4.81-5.37,12.96-5.8,18.29-1.03l69.59,62.17c5.34,4.77,5.79,12.96,1.03,18.29-.81.91-1.73,1.68-2.7,2.3Z"/>
        <path class="cls-4" d="m588.77,234.59c-2.2,1.4-4.83,2.15-7.64,2-7.14-.38-12.62-6.48-12.24-13.62l4.95-93.19c.38-7.14,6.47-12.62,13.63-12.25,7.15.38,12.63,6.48,12.24,13.62l-4.94,93.18c-.23,4.35-2.57,8.07-5.99,10.25Z"/>
      </g>
    </g>
  </g>
</svg>