<?xml version="1.0" encoding="UTF-8"?>
<svg id="Layer_1" data-name="Layer 1" xmlns="http://www.w3.org/2000/svg" viewBox="0 0 1080 1080">
  <defs>
    <style>
      .cls-1, .cls-2 {
        fill: #b78d4f;
      }

      .cls-1, .cls-3, .cls-4, .cls-5 {
        stroke: #fff;
        stroke-linecap: round;
        stroke-linejoin: round;
        stroke-width: 26.21px;
      }

      .cls-6 {
        fill: #fff;
      }

      .cls-7, .cls-4 {
        fill: #c7a369;
      }

      .cls-8, .cls-5 {
        fill: #28a59f;
      }

      .cls-9, .cls-3 {
        fill: #138980;
      }
    </style>
  </defs>
  <g>
    <g>
      <g>
        <path class="cls-5" d="m493.32,651.35h46.68v-17.3h-50.22c-4.7-26.12-7.29-54.84-7.71-85.39h57.93v-17.33h-57.93c.39-27.96,2.61-54.46,6.6-78.87h51.34v-17.33h-48.12c12.56-60.11,33.07-87.11,48.12-87.12v-17.3c-115.4,0-209.28,93.9-209.28,209.29s93.88,209.28,209.28,209.28v-17.3c-14.26-.01-34.02-24.98-46.68-80.64Zm10.91-296.94c-12.5,18.14-22.92,46.19-29.86,80.72h-51.84c19.11-39.9,48.31-68.63,81.7-80.72Zm-39.45,194.26c.42,30.3,2.95,59,7.55,85.39h-54.56c-10.77-26.06-16.93-55.46-17.91-85.39h64.92Zm-64.92-17.33c.89-27.72,6.05-54.23,15.33-78.87h56.06c-3.91,24.63-6.08,51.14-6.47,78.87h-64.92Zm44.6-157.73c-16.44,16.66-30.3,37.53-40.82,61.53h-24.37c16.56-25.27,39.09-46.45,65.2-61.53Zm-75.25,78.86h27.64c-8.66,24.83-13.45,51.32-14.31,78.87h-34.26c1.24-27.76,8.26-54.26,20.93-78.87Zm-20.93,96.2h34.26c.93,29.72,6.67,59.06,16.65,85.39h-26.44c-14.71-26.04-23.12-55.44-24.48-85.39Zm35.46,102.68h22.84c10.11,21.31,23.03,39.99,38.05,55.18-23.98-13.73-44.67-32.45-60.89-55.18Zm42.08,0h49.91c6.96,31.93,16.7,57.23,28.45,74.2-31.36-11.41-59.33-37.8-78.36-74.2Z"/>
        <path class="cls-3" d="m540,330.71h0v17.3h0c15.05,0,35.56,27,48.11,87.12h-48.11v17.33h51.34c3.98,24.34,6.21,50.84,6.6,78.87h-57.93v17.33h57.93c-.42,30.55-3.01,59.26-7.7,85.39h-50.23v17.3h46.7c-12.68,55.66-32.43,80.64-46.7,80.64h0v17.3h0c115.4,0,209.28-93.88,209.28-209.28s-93.88-209.29-209.28-209.29Zm191.73,200.62h-34.27c-.83-27.52-5.64-54.02-14.3-78.87h27.63c12.68,24.61,19.7,51.11,20.94,78.87Zm-30.98-96.2h-24.37c-10.51-24-24.38-44.87-40.82-61.53,26.11,15.08,48.64,36.26,65.2,61.53Zm-85.52,96.2c-.39-27.74-2.54-54.23-6.47-78.87h56.06c9.28,24.64,14.44,51.15,15.33,78.87h-64.92Zm64.92,17.33c-.98,29.95-7.14,59.34-17.91,85.39h-54.56c4.58-26.38,7.12-55.06,7.55-85.39h64.92Zm-104.37-194.26c33.38,12.09,62.58,40.82,81.71,80.72h-51.84c-6.94-34.53-17.38-62.6-29.87-80.72Zm.06,371.14c11.78-16.97,21.5-42.27,28.46-74.2h49.88c-19.03,36.4-46.99,62.78-78.35,74.2Zm59.55-19.02c15.02-15.19,27.94-33.88,38.05-55.18h22.84c-16.22,22.72-36.91,41.43-60.89,55.18Zm71.89-72.47h-26.46c10-26.33,15.72-55.67,16.64-85.39h34.27c-1.35,29.94-9.77,59.34-24.46,85.39Z"/>
      </g>
      <g>
        <path class="cls-1" d="m843.9,468h-43.52l-4.11-12.43c-4.16-12.66-9.35-25.11-15.39-37.01l-5.92-11.72,30.83-30.82c4.59-4.58,7.11-10.7,7.11-17.19s-2.52-12.58-7.11-17.17l-67.45-67.46c-4.59-4.59-10.7-7.12-17.2-7.12s-12.6,2.53-17.18,7.11l-30.81,30.83-11.72-5.92c-12.01-6.08-24.47-11.25-36.99-15.39l-12.44-4.09v-43.54c0-13.39-10.9-24.28-24.29-24.28h-47.72v108.65c121.05,0,219.53,98.5,219.53,219.53s-98.49,219.53-219.53,219.53v108.66h47.72c13.39,0,24.29-10.89,24.29-24.28v-43.53l12.42-4.1c12.69-4.18,25.14-9.36,36.99-15.39l11.72-5.93,30.85,30.83c4.57,4.61,10.67,7.14,17.18,7.14s12.59-2.53,17.18-7.14l67.45-67.44c9.47-9.49,9.47-24.91,0-34.38l-30.83-30.83,5.92-11.72c6.03-11.89,11.23-24.35,15.39-37.01l4.11-12.42h43.52c13.39,0,24.29-10.91,24.29-24.3v-95.41c0-13.39-10.9-24.29-24.29-24.29Z"/>
        <path class="cls-4" d="m320.47,539.99c0-121.03,98.49-219.53,219.53-219.53v-108.65h-47.72c-13.39,0-24.29,10.89-24.29,24.28v43.54l-12.44,4.09c-12.53,4.14-24.98,9.3-36.99,15.39l-11.69,5.92-30.83-30.82c-4.59-4.59-10.7-7.12-17.18-7.12s-12.61,2.53-17.18,7.12l-67.47,67.46c-9.47,9.47-9.47,24.89,0,34.37l30.81,30.82-5.92,11.69c-6.05,11.98-11.21,24.42-15.36,37.01l-4.1,12.44h-43.53c-13.39,0-24.29,10.9-24.29,24.29v95.41c0,13.39,10.9,24.3,24.29,24.3h43.53l4.1,12.43c4.15,12.57,9.32,25.03,15.36,37.02l5.92,11.71-30.81,30.79c-9.47,9.49-9.47,24.91,0,34.39l67.45,67.45c4.59,4.59,10.7,7.11,17.2,7.11s12.6-2.52,17.18-7.11l30.83-30.83,11.72,5.93c11.88,6.02,24.35,11.21,36.99,15.39l12.42,4.1v43.53c0,13.39,10.9,24.28,24.29,24.28h47.72v-108.66c-121.05,0-219.53-98.49-219.53-219.53Z"/>
      </g>
    </g>
    <circle class="cls-6" cx="540" cy="540" r="221.02"/>
  </g>
  <g>
    <g>
      <path class="cls-8" d="m493.32,651.35h46.68v-17.3h-50.22c-4.7-26.12-7.29-54.84-7.71-85.39h57.93v-17.33h-57.93c.39-27.96,2.61-54.46,6.6-78.87h51.34v-17.33h-48.12c12.56-60.11,33.07-87.11,48.12-87.12v-17.3c-115.4,0-209.28,93.9-209.28,209.29s93.88,209.28,209.28,209.28v-17.3c-14.26-.01-34.02-24.98-46.68-80.64Zm10.91-296.94c-12.5,18.14-22.92,46.19-29.86,80.72h-51.84c19.11-39.9,48.31-68.63,81.7-80.72Zm-39.45,194.26c.42,30.3,2.95,59,7.55,85.39h-54.56c-10.77-26.06-16.93-55.46-17.91-85.39h64.92Zm-64.92-17.33c.89-27.72,6.05-54.23,15.33-78.87h56.06c-3.91,24.63-6.08,51.14-6.47,78.87h-64.92Zm44.6-157.73c-16.44,16.66-30.3,37.53-40.82,61.53h-24.37c16.56-25.27,39.09-46.45,65.2-61.53Zm-75.25,78.86h27.64c-8.66,24.83-13.45,51.32-14.31,78.87h-34.26c1.24-27.76,8.26-54.26,20.93-78.87Zm-20.93,96.2h34.26c.93,29.72,6.67,59.06,16.65,85.39h-26.44c-14.71-26.04-23.12-55.44-24.48-85.39Zm35.46,102.68h22.84c10.11,21.31,23.03,39.99,38.05,55.18-23.98-13.73-44.67-32.45-60.89-55.18Zm42.08,0h49.91c6.96,31.93,16.7,57.23,28.45,74.2-31.36-11.41-59.33-37.8-78.36-74.2Z"/>
      <path class="cls-9" d="m540,330.71h0v17.3h0c15.05,0,35.56,27,48.11,87.12h-48.11v17.33h51.34c3.98,24.34,6.21,50.84,6.6,78.87h-57.93v17.33h57.93c-.42,30.55-3.01,59.26-7.7,85.39h-50.23v17.3h46.7c-12.68,55.66-32.43,80.64-46.7,80.64h0v17.3h0c115.4,0,209.28-93.88,209.28-209.28s-93.88-209.29-209.28-209.29Zm191.73,200.62h-34.27c-.83-27.52-5.64-54.02-14.3-78.87h27.63c12.68,24.61,19.7,51.11,20.94,78.87Zm-30.98-96.2h-24.37c-10.51-24-24.38-44.87-40.82-61.53,26.11,15.08,48.64,36.26,65.2,61.53Zm-85.52,96.2c-.39-27.74-2.54-54.23-6.47-78.87h56.06c9.28,24.64,14.44,51.15,15.33,78.87h-64.92Zm64.92,17.33c-.98,29.95-7.14,59.34-17.91,85.39h-54.56c4.58-26.38,7.12-55.06,7.55-85.39h64.92Zm-104.37-194.26c33.38,12.09,62.58,40.82,81.71,80.72h-51.84c-6.94-34.53-17.38-62.6-29.87-80.72Zm.06,371.14c11.78-16.97,21.5-42.27,28.46-74.2h49.88c-19.03,36.4-46.99,62.78-78.35,74.2Zm59.55-19.02c15.02-15.19,27.94-33.88,38.05-55.18h22.84c-16.22,22.72-36.91,41.43-60.89,55.18Zm71.89-72.47h-26.46c10-26.33,15.72-55.67,16.64-85.39h34.27c-1.35,29.94-9.77,59.34-24.46,85.39Z"/>
    </g>
    <g>
      <path class="cls-2" d="m843.9,468h-43.52l-4.11-12.43c-4.16-12.66-9.35-25.11-15.39-37.01l-5.92-11.72,30.83-30.82c4.59-4.58,7.11-10.7,7.11-17.19s-2.52-12.58-7.11-17.17l-67.45-67.46c-4.59-4.59-10.7-7.12-17.2-7.12s-12.6,2.53-17.18,7.11l-30.81,30.83-11.72-5.92c-12.01-6.08-24.47-11.25-36.99-15.39l-12.44-4.09v-43.54c0-13.39-10.9-24.28-24.29-24.28h-47.72v108.65c121.05,0,219.53,98.5,219.53,219.53s-98.49,219.53-219.53,219.53v108.66h47.72c13.39,0,24.29-10.89,24.29-24.28v-43.53l12.42-4.1c12.69-4.18,25.14-9.36,36.99-15.39l11.72-5.93,30.85,30.83c4.57,4.61,10.67,7.14,17.18,7.14s12.59-2.53,17.18-7.14l67.45-67.44c9.47-9.49,9.47-24.91,0-34.38l-30.83-30.83,5.92-11.72c6.03-11.89,11.23-24.35,15.39-37.01l4.11-12.42h43.52c13.39,0,24.29-10.91,24.29-24.3v-95.41c0-13.39-10.9-24.29-24.29-24.29Z"/>
      <path class="cls-7" d="m320.47,539.99c0-121.03,98.49-219.53,219.53-219.53v-108.65h-47.72c-13.39,0-24.29,10.89-24.29,24.28v43.54l-12.44,4.09c-12.53,4.14-24.98,9.3-36.99,15.39l-11.69,5.92-30.83-30.82c-4.59-4.59-10.7-7.12-17.18-7.12s-12.61,2.53-17.18,7.12l-67.47,67.46c-9.47,9.47-9.47,24.89,0,34.37l30.81,30.82-5.92,11.69c-6.05,11.98-11.21,24.42-15.36,37.01l-4.1,12.44h-43.53c-13.39,0-24.29,10.9-24.29,24.29v95.41c0,13.39,10.9,24.3,24.29,24.3h43.53l4.1,12.43c4.15,12.57,9.32,25.03,15.36,37.02l5.92,11.71-30.81,30.79c-9.47,9.49-9.47,24.91,0,34.39l67.45,67.45c4.59,4.59,10.7,7.11,17.2,7.11s12.6-2.52,17.18-7.11l30.83-30.83,11.72,5.93c11.88,6.02,24.35,11.21,36.99,15.39l12.42,4.1v43.53c0,13.39,10.9,24.28,24.29,24.28h47.72v-108.66c-121.05,0-219.53-98.49-219.53-219.53Z"/>
    </g>
  </g>
</svg>