<?xml version="1.0" encoding="UTF-8"?>
<svg xmlns="http://www.w3.org/2000/svg" viewBox="0 0 1080 1080">
  <defs>
    <style>
      .cls-1 {
        isolation: isolate;
      }

      .cls-2, .cls-3 {
        fill: #c7a369;
      }

      .cls-4, .cls-5, .cls-6, .cls-7, .cls-3 {
        stroke: #fff;
        stroke-linecap: round;
        stroke-linejoin: round;
        stroke-width: 25px;
      }

      .cls-4, .cls-8 {
        fill: #002228;
      }

      .cls-5, .cls-9 {
        fill: #6a9aa5;
      }

      .cls-5, .cls-9, .cls-10 {
        mix-blend-mode: multiply;
      }

      .cls-11, .cls-7 {
        fill: #4d5152;
      }

      .cls-6, .cls-12 {
        fill: #333438;
      }
    </style>
  </defs>
  <g class="cls-1">
    <g id="Layer_1" data-name="Layer 1">
      <g>
        <g>
          <rect class="cls-7" x="703.38" y="489.39" width="38.34" height="136.49"/>
          <rect class="cls-7" x="438.07" y="697.96" width="207.03" height="49.07"/>
          <rect class="cls-7" x="502.48" y="823.71" width="138.02" height="47.54"/>
          <rect class="cls-4" x="741.72" y="500.13" width="62.88" height="101.22"/>
          <rect class="cls-6" x="275.51" y="428.05" width="443.21" height="282.18" rx="33.74" ry="33.74"/>
          <polygon class="cls-7" points="938.26 683.01 792.57 601.34 792.57 500.13 938.26 420 938.26 683.01"/>
          <g>
            <g>
              <circle class="cls-6" cx="372.89" cy="316.1" r="107.35"/>
              <path class="cls-5" d="m372.89,340.63c-13.52,0-24.53-11.01-24.53-24.54s11.01-24.54,24.53-24.54,24.54,11.01,24.54,24.54-11.01,24.54-24.54,24.54Z"/>
              <path class="cls-7" d="m372.89,331.44c-8.45,0-15.33-6.89-15.33-15.34s6.88-15.34,15.33-15.34,15.34,6.88,15.34,15.34-6.88,15.34-15.34,15.34Z"/>
              <path class="cls-5" d="m404.33,384.34c-10.14,0-18.4-8.26-18.4-18.41s8.26-18.4,18.4-18.4,18.41,8.26,18.41,18.4-8.26,18.41-18.41,18.41Z"/>
              <path class="cls-7" d="m404.33,377.44c-6.34,0-11.5-5.16-11.5-11.5s5.16-11.5,11.5-11.5,11.5,5.16,11.5,11.5-5.16,11.5-11.5,11.5Z"/>
            </g>
            <g>
              <circle class="cls-6" cx="570.72" cy="319.16" r="107.35"/>
              <path class="cls-5" d="m570.72,343.7c-13.53,0-24.54-11.01-24.54-24.54s11.01-24.54,24.54-24.54,24.54,11.01,24.54,24.54-11.01,24.54-24.54,24.54Z"/>
              <path class="cls-7" d="m570.72,334.5c-8.45,0-15.34-6.88-15.34-15.34s6.88-15.33,15.34-15.33,15.34,6.88,15.34,15.33-6.88,15.34-15.34,15.34Z"/>
            </g>
            <path class="cls-7" d="m499.41,423.45h-42.94c-13.98,0-25.3-13.89-25.3-31.03v-37.61c0-17.14,11.33-31.03,25.3-31.03h42.94c13.98,0,25.3,13.89,25.3,31.03v37.61c0,17.14-11.33,31.03-25.3,31.03Z"/>
            <rect class="cls-7" x="267.07" y="405.04" width="312.85" height="23"/>
          </g>
          <g>
            <rect class="cls-7" x="224.88" y="445.33" width="27.6" height="116.55" transform="translate(-317.55 538.19) rotate(-68.2)"/>
            <polygon class="cls-7" points="179.44 494.78 148.12 498.77 170.9 441.81 189.7 469.15 179.44 494.78"/>
          </g>
          <path class="cls-6" d="m628.23,782.31c0,28.8-23.35,52.14-52.14,52.14s-52.14-23.34-52.14-52.14,23.34-52.14,52.14-52.14,52.14,23.35,52.14,52.14Z"/>
          <rect class="cls-6" x="352.19" y="795.72" width="219.3" height="18.4"/>
          <path class="cls-7" d="m362.39,828.7h-51.08c-13,0-23.53-10.54-23.53-23.53v-.48c0-13,10.54-23.53,23.53-23.53h51.08c13,0,41.94,10.54,41.94,23.53v.48c0,13-28.94,23.53-41.94,23.53Z"/>
          <path class="cls-7" d="m576.09,806.85c-13.53,0-24.54-11.01-24.54-24.54s11.01-24.53,24.54-24.53,24.54,11.01,24.54,24.53-11.01,24.54-24.54,24.54Z"/>
          <path class="cls-7" d="m629.76,656.55h-105.82c-15.22,0-27.61-12.38-27.61-27.61v-122.68c0-15.22,12.38-27.61,27.61-27.61h105.82c15.22,0,27.6,12.39,27.6,27.61v122.68c0,15.22-12.38,27.61-27.6,27.61Zm-105.82-168.69c-10.15,0-18.41,8.25-18.41,18.4v122.68c0,10.15,8.26,18.4,18.41,18.4h105.82c10.15,0,18.4-8.25,18.4-18.4v-122.68c0-10.15-8.26-18.4-18.4-18.4h-105.82Z"/>
        </g>
        <g class="cls-10">
          <path class="cls-4" d="m303.3,553.99c-13.52,0-24.53-11.01-24.53-24.54s11.01-24.54,24.53-24.54,24.54,11.01,24.54,24.54-11.01,24.54-24.54,24.54Z"/>
        </g>
        <path class="cls-7" d="m303.3,540.19c-5.92,0-10.73-4.82-10.73-10.74s4.81-10.73,10.73-10.73,10.74,4.82,10.74,10.73-4.82,10.74-10.74,10.74Z"/>
        <path class="cls-3" d="m729.58,409.84c.27.34.56.66.9.96,3.08,2.78,7.84,2.54,10.62-.54l34.98-38.73c2.78-3.08,2.55-7.83-.54-10.63-3.08-2.78-7.84-2.54-10.62.54l-34.98,38.73c-2.49,2.76-2.56,6.85-.35,9.67Z"/>
        <path class="cls-3" d="m742.21,443.2c2.02,2.59,5.59,3.64,8.78,2.32l50.15-20.56c3.85-1.58,5.68-5.97,4.11-9.81-1.59-3.87-5.97-5.69-9.82-4.11l-50.15,20.56c-3.85,1.58-5.68,5.97-4.11,9.81.27.65.62,1.26,1.03,1.78Z"/>
        <path class="cls-3" d="m695.32,398.61c.93,1.19,2.23,2.11,3.79,2.58,3.99,1.17,8.17-1.1,9.34-5.09l15.35-51.99c1.18-3.98-1.1-8.17-5.09-9.35-3.99-1.18-8.17,1.1-9.34,5.09l-15.35,51.98c-.72,2.43-.16,4.92,1.29,6.77Z"/>
      </g>
      <g>
        <g>
          <rect class="cls-11" x="703.38" y="489.39" width="38.34" height="136.49"/>
          <rect class="cls-11" x="438.07" y="697.96" width="207.03" height="49.07"/>
          <rect class="cls-11" x="502.48" y="823.71" width="138.02" height="47.54"/>
          <rect class="cls-8" x="741.72" y="500.13" width="62.88" height="101.22"/>
          <rect class="cls-12" x="275.51" y="428.05" width="443.21" height="282.18" rx="33.74" ry="33.74"/>
          <polygon class="cls-11" points="938.26 683.01 792.57 601.34 792.57 500.13 938.26 420 938.26 683.01"/>
          <g>
            <g>
              <circle class="cls-12" cx="372.89" cy="316.1" r="107.35"/>
              <path class="cls-9" d="m372.89,340.63c-13.52,0-24.53-11.01-24.53-24.54s11.01-24.54,24.53-24.54,24.54,11.01,24.54,24.54-11.01,24.54-24.54,24.54Z"/>
              <path class="cls-11" d="m372.89,331.44c-8.45,0-15.33-6.89-15.33-15.34s6.88-15.34,15.33-15.34,15.34,6.88,15.34,15.34-6.88,15.34-15.34,15.34Z"/>
              <path class="cls-9" d="m404.33,384.34c-10.14,0-18.4-8.26-18.4-18.41s8.26-18.4,18.4-18.4,18.41,8.26,18.41,18.4-8.26,18.41-18.41,18.41Z"/>
              <path class="cls-11" d="m404.33,377.44c-6.34,0-11.5-5.16-11.5-11.5s5.16-11.5,11.5-11.5,11.5,5.16,11.5,11.5-5.16,11.5-11.5,11.5Z"/>
            </g>
            <g>
              <circle class="cls-12" cx="570.72" cy="319.16" r="107.35"/>
              <path class="cls-9" d="m570.72,343.7c-13.53,0-24.54-11.01-24.54-24.54s11.01-24.54,24.54-24.54,24.54,11.01,24.54,24.54-11.01,24.54-24.54,24.54Z"/>
              <path class="cls-11" d="m570.72,334.5c-8.45,0-15.34-6.88-15.34-15.34s6.88-15.33,15.34-15.33,15.34,6.88,15.34,15.33-6.88,15.34-15.34,15.34Z"/>
            </g>
            <path class="cls-11" d="m499.41,423.45h-42.94c-13.98,0-25.3-13.89-25.3-31.03v-37.61c0-17.14,11.33-31.03,25.3-31.03h42.94c13.98,0,25.3,13.89,25.3,31.03v37.61c0,17.14-11.33,31.03-25.3,31.03Z"/>
            <rect class="cls-11" x="267.07" y="405.04" width="312.85" height="23"/>
          </g>
          <g>
            <rect class="cls-11" x="224.88" y="445.33" width="27.6" height="116.55" transform="translate(-317.55 538.19) rotate(-68.2)"/>
            <polygon class="cls-11" points="179.44 494.78 148.12 498.77 170.9 441.81 189.7 469.15 179.44 494.78"/>
          </g>
          <path class="cls-12" d="m628.23,782.31c0,28.8-23.35,52.14-52.14,52.14s-52.14-23.34-52.14-52.14,23.34-52.14,52.14-52.14,52.14,23.35,52.14,52.14Z"/>
          <rect class="cls-12" x="352.19" y="795.72" width="219.3" height="18.4"/>
          <path class="cls-11" d="m362.39,828.7h-51.08c-13,0-23.53-10.54-23.53-23.53v-.48c0-13,10.54-23.53,23.53-23.53h51.08c13,0,41.94,10.54,41.94,23.53v.48c0,13-28.94,23.53-41.94,23.53Z"/>
          <path class="cls-11" d="m576.09,806.85c-13.53,0-24.54-11.01-24.54-24.54s11.01-24.53,24.54-24.53,24.54,11.01,24.54,24.53-11.01,24.54-24.54,24.54Z"/>
          <path class="cls-11" d="m629.76,656.55h-105.82c-15.22,0-27.61-12.38-27.61-27.61v-122.68c0-15.22,12.38-27.61,27.61-27.61h105.82c15.22,0,27.6,12.39,27.6,27.61v122.68c0,15.22-12.38,27.61-27.6,27.61Zm-105.82-168.69c-10.15,0-18.41,8.25-18.41,18.4v122.68c0,10.15,8.26,18.4,18.41,18.4h105.82c10.15,0,18.4-8.25,18.4-18.4v-122.68c0-10.15-8.26-18.4-18.4-18.4h-105.82Z"/>
        </g>
        <g class="cls-10">
          <path class="cls-8" d="m303.3,553.99c-13.52,0-24.53-11.01-24.53-24.54s11.01-24.54,24.53-24.54,24.54,11.01,24.54,24.54-11.01,24.54-24.54,24.54Z"/>
        </g>
        <path class="cls-11" d="m303.3,540.19c-5.92,0-10.73-4.82-10.73-10.74s4.81-10.73,10.73-10.73,10.74,4.82,10.74,10.73-4.82,10.74-10.74,10.74Z"/>
        <path class="cls-2" d="m729.58,409.84c.27.34.56.66.9.96,3.08,2.78,7.84,2.54,10.62-.54l34.98-38.73c2.78-3.08,2.55-7.83-.54-10.63-3.08-2.78-7.84-2.54-10.62.54l-34.98,38.73c-2.49,2.76-2.56,6.85-.35,9.67Z"/>
        <path class="cls-2" d="m742.21,443.2c2.02,2.59,5.59,3.64,8.78,2.32l50.15-20.56c3.85-1.58,5.68-5.97,4.11-9.81-1.59-3.87-5.97-5.69-9.82-4.11l-50.15,20.56c-3.85,1.58-5.68,5.97-4.11,9.81.27.65.62,1.26,1.03,1.78Z"/>
        <path class="cls-2" d="m695.32,398.61c.93,1.19,2.23,2.11,3.79,2.58,3.99,1.17,8.17-1.1,9.34-5.09l15.35-51.99c1.18-3.98-1.1-8.17-5.09-9.35-3.99-1.18-8.17,1.1-9.34,5.09l-15.35,51.98c-.72,2.43-.16,4.92,1.29,6.77Z"/>
      </g>
    </g>
  </g>
</svg>