<svg width="1080" height="1080" viewBox="0 0 1080 1080" fill="none" xmlns="http://www.w3.org/2000/svg">
<path d="M208.41 431.079L208.61 516.259L871.03 514.669L870.83 429.489C870.79 411.489 856.16 396.929 838.15 396.969L240.92 398.399C222.92 398.439 208.36 413.069 208.4 431.079H208.41Z" fill="#4D5152" stroke="white" stroke-width="25" stroke-linecap="round" stroke-linejoin="round"/>
<path d="M208.55 492.909L209.17 750.699C209.21 769.129 224.19 784.029 242.61 783.979L838.31 782.549C856.74 782.509 871.64 767.529 871.59 749.109L870.97 491.319L208.55 492.909Z" fill="#4D5152" stroke="white" stroke-width="25" stroke-linecap="round" stroke-linejoin="round"/>
<path d="M871.008 491.288L208.58 492.907L209.15 726.016L871.578 724.397L871.008 491.288Z" fill="#333438" stroke="white" stroke-width="25" stroke-linecap="round" stroke-linejoin="round"/>
<path opacity="0.5" d="M751.53 601.109L750.26 782.769L410.82 783.589L408.25 601.929L751.53 601.109Z" fill="#333438" stroke="white" stroke-width="25" stroke-linecap="round" stroke-linejoin="round"/>
<path d="M258.381 398.69L298.781 398.591C302.266 398.583 305.084 395.751 305.075 392.266L305.063 387.386C305.055 383.901 302.223 381.083 298.738 381.091L258.338 381.19C254.853 381.199 252.035 384.031 252.044 387.516L252.056 392.396C252.064 395.88 254.896 398.699 258.381 398.69Z" fill="#333438" stroke="white" stroke-width="25" stroke-linecap="round" stroke-linejoin="round"/>
<path d="M704.24 400.349L684.57 312.349L476.37 312.849L457.12 400.939L704.24 400.349Z" fill="#4D5152" stroke="white" stroke-width="25" stroke-linecap="round" stroke-linejoin="round"/>
<path opacity="0.5" d="M669.27 395.139L654.79 356.649L500.84 357.009L486.55 395.579L669.27 395.139Z" fill="#333438" stroke="white" stroke-width="25" stroke-linecap="round" stroke-linejoin="round"/>
<path opacity="0.5" d="M708.423 415.616L447.464 416.254L447.642 489.403L708.602 488.766L708.423 415.616Z" fill="#333438" stroke="white" stroke-width="25" stroke-linecap="round" stroke-linejoin="round"/>
<path d="M743.254 371.301L807.763 371.144C813.343 371.13 817.884 375.649 817.898 381.229L817.936 396.819L733.216 397.026L733.178 381.436C733.165 375.856 737.684 371.315 743.264 371.301L743.254 371.301Z" fill="#333438" stroke="white" stroke-width="25" stroke-linecap="round" stroke-linejoin="round"/>
<path d="M422.7 397.849L329.39 398.069C328.14 398.069 327.13 397.069 327.13 395.819L327.09 377.229C327.09 375.979 328.09 374.969 329.34 374.969L422.65 374.749C423.9 374.749 424.91 375.749 424.91 376.999L424.95 395.589C424.95 396.839 423.95 397.849 422.7 397.849Z" fill="#333438" stroke="white" stroke-width="25" stroke-linecap="round" stroke-linejoin="round"/>
<path d="M397.93 447.709C397.9 434.299 387 423.459 373.6 423.489C360.19 423.519 349.35 434.419 349.38 447.819C349.41 461.229 360.31 472.069 373.71 472.039C387.12 472.009 397.96 461.109 397.93 447.709Z" fill="#333438" stroke="white" stroke-width="25" stroke-linecap="round" stroke-linejoin="round"/>
<path d="M385.89 447.729C385.87 440.969 380.38 435.509 373.62 435.519C366.86 435.529 361.4 441.029 361.41 447.789C361.42 454.549 366.92 460.009 373.68 459.999C380.44 459.979 385.9 454.489 385.89 447.729Z" fill="#4D5152" stroke="white" stroke-width="25" stroke-linecap="round" stroke-linejoin="round"/>
<path d="M736.43 477.679L668.83 512.839L693.24 559.779L760.84 524.619C773.8 517.879 778.85 501.899 772.1 488.939C765.36 475.979 749.38 470.929 736.42 477.669L736.43 477.679Z" fill="#076861" stroke="white" stroke-width="25" stroke-linecap="round" stroke-linejoin="round"/>
<g style="mix-blend-mode:multiply">
<path d="M760.61 495.519C756.5 487.619 746.76 484.539 738.85 488.649C730.95 492.759 727.87 502.499 731.98 510.409C736.09 518.309 745.83 521.389 753.74 517.279C761.64 513.169 764.72 503.429 760.61 495.519Z" fill="#6A9AA5"/>
<path d="M760.61 495.519C756.5 487.619 746.76 484.539 738.85 488.649C730.95 492.759 727.87 502.499 731.98 510.409C736.09 518.309 745.83 521.389 753.74 517.279C761.64 513.169 764.72 503.429 760.61 495.519Z" stroke="white" stroke-width="25" stroke-linecap="round" stroke-linejoin="round"/>
</g>
<g style="mix-blend-mode:multiply">
<path d="M752.66 499.658C750.83 496.148 746.51 494.779 742.99 496.609C739.48 498.439 738.11 502.758 739.94 506.278C741.77 509.788 746.09 511.159 749.61 509.329C753.12 507.499 754.49 503.168 752.66 499.658Z" fill="#6A9AA5"/>
<path d="M752.66 499.658C750.83 496.148 746.51 494.779 742.99 496.609C739.48 498.439 738.11 502.758 739.94 506.278C741.77 509.788 746.09 511.159 749.61 509.329C753.12 507.499 754.49 503.168 752.66 499.658Z" stroke="white" stroke-width="25" stroke-linecap="round" stroke-linejoin="round"/>
</g>
<path d="M831.66 428.369L745.18 428.579C741.9 428.579 739.24 431.259 739.25 434.539L739.3 456.469C739.3 459.749 741.98 462.409 745.26 462.399L831.74 462.189C835.02 462.189 837.68 459.509 837.67 456.229L837.62 434.299C837.62 431.019 834.94 428.359 831.66 428.369Z" fill="#333438" stroke="white" stroke-width="25" stroke-linecap="round" stroke-linejoin="round"/>
<path d="M463.67 279.379C463.09 279.849 462.47 280.259 461.78 280.629C455.5 284.059 447.64 281.739 444.21 275.469L401.14 196.619C397.71 190.349 400 182.489 406.3 179.039C412.57 175.619 420.44 177.919 423.87 184.199L466.94 263.049C470 268.659 468.49 275.539 463.66 279.389L463.67 279.379Z" fill="#C7A369" stroke="white" stroke-width="25" stroke-linecap="round" stroke-linejoin="round"/>
<path d="M429.17 330.168C424.74 333.698 418.35 334.019 413.54 330.549L337.79 276.059C331.98 271.879 330.66 263.779 334.83 257.989C339.04 252.149 347.11 250.858 352.91 255.038L428.66 309.529C434.47 313.709 435.79 321.808 431.61 327.608C430.9 328.598 430.07 329.459 429.17 330.179V330.168Z" fill="#C7A369" stroke="white" stroke-width="25" stroke-linecap="round" stroke-linejoin="round"/>
<path d="M525.53 274.269C523.49 275.899 520.95 276.919 518.15 277.069C511.01 277.439 504.92 271.959 504.54 264.819L499.64 171.629C499.26 164.489 504.74 158.399 511.9 158.019C519.05 157.639 525.14 163.129 525.51 170.279L530.42 263.459C530.65 267.809 528.71 271.759 525.55 274.279L525.53 274.269Z" fill="#C7A369" stroke="white" stroke-width="25" stroke-linecap="round" stroke-linejoin="round"/>
<path opacity="0.5" d="M751.36 594.049H410V725.549H751.36V594.049Z" fill="#1C1D1E" stroke="white" stroke-width="25" stroke-linecap="round" stroke-linejoin="round"/>
<path d="M701.258 722.889C768.288 655.859 768.288 547.183 701.258 480.153C634.229 413.123 525.552 413.123 458.523 480.153C391.493 547.183 391.493 655.859 458.523 722.889C525.552 789.918 634.229 789.918 701.258 722.889Z" fill="#28A59F" stroke="white" stroke-width="25" stroke-linecap="round" stroke-linejoin="round"/>
<path d="M579.89 746.509C659.966 746.509 724.88 681.594 724.88 601.519C724.88 521.443 659.966 456.529 579.89 456.529C499.814 456.529 434.9 521.443 434.9 601.519C434.9 681.594 499.814 746.509 579.89 746.509Z" fill="#076861" stroke="white" stroke-width="25" stroke-linecap="round" stroke-linejoin="round"/>
<g style="mix-blend-mode:multiply">
<path d="M659.878 681.509C704.055 637.333 704.055 565.709 659.878 521.533C615.702 477.357 544.079 477.357 499.903 521.533C455.726 565.709 455.726 637.333 499.903 681.509C544.079 725.685 615.702 725.685 659.878 681.509Z" fill="#6A9AA5"/>
<path d="M659.878 681.509C704.055 637.333 704.055 565.709 659.878 521.533C615.702 477.357 544.079 477.357 499.903 521.533C455.726 565.709 455.726 637.333 499.903 681.509C544.079 725.685 615.702 725.685 659.878 681.509Z" stroke="white" stroke-width="25" stroke-linecap="round" stroke-linejoin="round"/>
</g>
<g style="mix-blend-mode:multiply">
<path d="M579.77 552.048C552.45 552.118 530.36 574.308 530.42 601.628C530.49 628.948 552.68 651.038 580 650.978C607.32 650.908 629.41 628.718 629.35 601.398C629.28 574.078 607.09 551.988 579.77 552.048Z" fill="#6A9AA5"/>
<path d="M579.77 552.048C552.45 552.118 530.36 574.308 530.42 601.628C530.49 628.948 552.68 651.038 580 650.978C607.32 650.908 629.41 628.718 629.35 601.398C629.28 574.078 607.09 551.988 579.77 552.048Z" stroke="white" stroke-width="25" stroke-linecap="round" stroke-linejoin="round"/>
</g>
<g style="mix-blend-mode:multiply">
<path d="M579.82 572.709C563.91 572.749 551.04 585.679 551.08 601.579C551.12 617.489 564.05 630.359 579.96 630.319C595.87 630.279 608.74 617.349 608.7 601.449C608.66 585.539 595.73 572.669 579.83 572.709H579.82Z" fill="#6A9AA5"/>
<path d="M579.82 572.709C563.91 572.749 551.04 585.679 551.08 601.579C551.12 617.489 564.05 630.359 579.96 630.319C595.87 630.279 608.74 617.349 608.7 601.449C608.66 585.539 595.73 572.669 579.83 572.709H579.82Z" stroke="white" stroke-width="25" stroke-linecap="round" stroke-linejoin="round"/>
</g>
<path d="M596.13 542.249C581.83 542.279 570.26 553.909 570.3 568.209C570.33 582.509 581.96 594.079 596.26 594.039C610.56 594.009 622.13 582.379 622.09 568.079C622.05 553.779 610.43 542.209 596.13 542.249Z" fill="white" stroke="white" stroke-width="25" stroke-linecap="round" stroke-linejoin="round"/>
<path d="M208.41 431.079L208.61 516.259L871.03 514.669L870.83 429.489C870.79 411.489 856.16 396.929 838.15 396.969L240.92 398.399C222.92 398.439 208.36 413.069 208.4 431.079H208.41Z" fill="#4D5152"/>
<path d="M208.55 492.909L209.17 750.699C209.21 769.129 224.19 784.029 242.61 783.979L838.31 782.549C856.74 782.509 871.64 767.529 871.59 749.109L870.97 491.319L208.55 492.909Z" fill="#4D5152"/>
<path d="M871.008 491.288L208.58 492.907L209.15 726.016L871.578 724.397L871.008 491.288Z" fill="#333438"/>
<path opacity="0.5" d="M751.53 601.109L750.26 782.769L410.82 783.589L408.25 601.929L751.53 601.109Z" fill="#333438"/>
<path d="M258.381 398.69L298.781 398.591C302.266 398.583 305.084 395.751 305.075 392.266L305.063 387.386C305.055 383.901 302.223 381.083 298.738 381.091L258.338 381.19C254.853 381.199 252.035 384.031 252.044 387.516L252.056 392.396C252.064 395.88 254.896 398.699 258.381 398.69Z" fill="#333438"/>
<path d="M704.24 400.349L684.57 312.349L476.37 312.849L457.12 400.939L704.24 400.349Z" fill="#4D5152"/>
<path opacity="0.5" d="M669.27 395.139L654.79 356.649L500.84 357.009L486.55 395.579L669.27 395.139Z" fill="#333438"/>
<path opacity="0.5" d="M708.423 415.616L447.464 416.254L447.642 489.403L708.602 488.766L708.423 415.616Z" fill="#333438"/>
<path d="M743.254 371.301L807.763 371.144C813.343 371.13 817.884 375.649 817.898 381.229L817.936 396.819L733.216 397.026L733.178 381.436C733.165 375.856 737.684 371.315 743.264 371.301L743.254 371.301Z" fill="#333438"/>
<path d="M422.7 397.849L329.39 398.069C328.14 398.069 327.13 397.069 327.13 395.819L327.09 377.229C327.09 375.979 328.09 374.969 329.34 374.969L422.65 374.749C423.9 374.749 424.91 375.749 424.91 376.999L424.95 395.589C424.95 396.839 423.95 397.849 422.7 397.849Z" fill="#333438"/>
<path d="M397.93 447.709C397.9 434.299 387 423.459 373.6 423.489C360.19 423.519 349.35 434.419 349.38 447.819C349.41 461.229 360.31 472.069 373.71 472.039C387.12 472.009 397.96 461.109 397.93 447.709Z" fill="#333438"/>
<path d="M385.89 447.729C385.87 440.969 380.38 435.509 373.62 435.519C366.86 435.529 361.4 441.029 361.41 447.789C361.42 454.549 366.92 460.009 373.68 459.999C380.44 459.979 385.9 454.489 385.89 447.729Z" fill="#4D5152"/>
<path d="M736.43 477.679L668.83 512.839L693.24 559.779L760.84 524.619C773.8 517.879 778.85 501.899 772.1 488.939C765.36 475.979 749.38 470.929 736.42 477.669L736.43 477.679Z" fill="#076861"/>
<g style="mix-blend-mode:multiply">
<path d="M760.61 495.519C756.5 487.619 746.76 484.539 738.85 488.649C730.95 492.759 727.87 502.499 731.98 510.409C736.09 518.309 745.83 521.389 753.74 517.279C761.64 513.169 764.72 503.429 760.61 495.519Z" fill="#6A9AA5"/>
</g>
<g style="mix-blend-mode:multiply">
<path d="M752.66 499.658C750.83 496.148 746.51 494.779 742.99 496.609C739.48 498.439 738.11 502.758 739.94 506.278C741.77 509.788 746.09 511.159 749.61 509.329C753.12 507.499 754.49 503.168 752.66 499.658Z" fill="#6A9AA5"/>
</g>
<path d="M831.66 428.369L745.18 428.579C741.9 428.579 739.24 431.259 739.25 434.539L739.3 456.469C739.3 459.749 741.98 462.409 745.26 462.399L831.74 462.189C835.02 462.189 837.68 459.509 837.67 456.229L837.62 434.299C837.62 431.019 834.94 428.359 831.66 428.369Z" fill="#333438"/>
<path d="M463.67 279.379C463.09 279.849 462.47 280.259 461.78 280.629C455.5 284.059 447.64 281.739 444.21 275.469L401.14 196.619C397.71 190.349 400 182.489 406.3 179.039C412.57 175.619 420.44 177.919 423.87 184.199L466.94 263.049C470 268.659 468.49 275.539 463.66 279.389L463.67 279.379Z" fill="#C7A369"/>
<path d="M429.17 330.168C424.74 333.698 418.35 334.019 413.54 330.549L337.79 276.059C331.98 271.879 330.66 263.779 334.83 257.989C339.04 252.149 347.11 250.858 352.91 255.038L428.66 309.529C434.47 313.709 435.79 321.808 431.61 327.608C430.9 328.598 430.07 329.459 429.17 330.179V330.168Z" fill="#C7A369"/>
<path d="M525.53 274.269C523.49 275.899 520.95 276.919 518.15 277.069C511.01 277.439 504.92 271.959 504.54 264.819L499.64 171.629C499.26 164.489 504.74 158.399 511.9 158.019C519.05 157.639 525.14 163.129 525.51 170.279L530.42 263.459C530.65 267.809 528.71 271.759 525.55 274.279L525.53 274.269Z" fill="#C7A369"/>
<path opacity="0.5" d="M751.36 594.049H410V725.549H751.36V594.049Z" fill="#1C1D1E"/>
<path d="M701.258 722.889C768.288 655.859 768.288 547.183 701.258 480.153C634.229 413.123 525.552 413.123 458.523 480.153C391.493 547.183 391.493 655.859 458.523 722.889C525.552 789.918 634.229 789.918 701.258 722.889Z" fill="#28A59F"/>
<path d="M579.89 746.509C659.966 746.509 724.88 681.594 724.88 601.519C724.88 521.443 659.966 456.529 579.89 456.529C499.814 456.529 434.9 521.443 434.9 601.519C434.9 681.594 499.814 746.509 579.89 746.509Z" fill="#076861"/>
<g style="mix-blend-mode:multiply">
<path d="M659.878 681.509C704.055 637.333 704.055 565.709 659.878 521.533C615.702 477.357 544.079 477.357 499.903 521.533C455.726 565.709 455.726 637.333 499.903 681.509C544.079 725.685 615.702 725.685 659.878 681.509Z" fill="#6A9AA5"/>
</g>
<g style="mix-blend-mode:multiply">
<path d="M579.77 552.048C552.45 552.118 530.36 574.308 530.42 601.628C530.49 628.948 552.68 651.038 580 650.978C607.32 650.908 629.41 628.718 629.35 601.398C629.28 574.078 607.09 551.988 579.77 552.048Z" fill="#6A9AA5"/>
</g>
<g style="mix-blend-mode:multiply">
<path d="M579.82 572.709C563.91 572.749 551.04 585.679 551.08 601.579C551.12 617.489 564.05 630.359 579.96 630.319C595.87 630.279 608.74 617.349 608.7 601.449C608.66 585.539 595.73 572.669 579.83 572.709H579.82Z" fill="#6A9AA5"/>
</g>
<path d="M596.13 542.249C581.83 542.279 570.26 553.909 570.3 568.209C570.33 582.509 581.96 594.079 596.26 594.039C610.56 594.009 622.13 582.379 622.09 568.079C622.05 553.779 610.43 542.209 596.13 542.249Z" fill="white"/>
</svg>
