<?xml version="1.0" encoding="UTF-8"?>
<svg id="Layer_1" data-name="Layer 1" xmlns="http://www.w3.org/2000/svg" xmlns:xlink="http://www.w3.org/1999/xlink" viewBox="0 0 594.44 808.85">
  <defs>
    <style>
      .cls-1, .cls-2 {
        fill: #083c5b;
      }

      .cls-3 {
        fill: #fff;
      }

      .cls-4 {
        fill: #242b2d;
      }

      .cls-5 {
        fill: #232b2d;
      }

      .cls-6 {
        fill: #f7cfaa;
      }

      .cls-7 {
        stroke: #e89591;
        stroke-width: 2px;
      }

      .cls-7, .cls-8 {
        stroke-linecap: round;
        stroke-linejoin: round;
      }

      .cls-7, .cls-8, .cls-9 {
        fill: none;
      }

      .cls-10 {
        fill: #27b2b4;
      }

      .cls-11 {
        fill: #fcd1c8;
      }

      .cls-12 {
        fill: #db86bf;
      }

      .cls-13 {
        fill: #134675;
      }

      .cls-14 {
        fill: #81cff3;
      }

      .cls-15 {
        clip-path: url(#clippath-2);
      }

      .cls-2 {
        opacity: .5;
      }

      .cls-16 {
        fill: #a97d34;
      }

      .cls-17 {
        fill: #e89591;
      }

      .cls-18 {
        fill: #1b2123;
      }

      .cls-19 {
        clip-path: url(#clippath-1);
      }

      .cls-20 {
        clip-path: url(#clippath-4);
      }

      .cls-8 {
        stroke: #083c5b;
        stroke-width: 2.77px;
      }

      .cls-21 {
        fill: #61b5ed;
      }

      .cls-22 {
        fill: #eab38c;
      }

      .cls-23 {
        clip-path: url(#clippath);
      }

      .cls-24 {
        fill: #a9dffb;
      }

      .cls-25 {
        clip-path: url(#clippath-3);
      }

      .cls-26 {
        fill: #fffff8;
      }

      .cls-27 {
        clip-path: url(#clippath-5);
      }

      .cls-28 {
        fill: #293336;
      }
    </style>
    <clipPath id="clippath">
      <path class="cls-9" d="m200.49,562.75c3.36,60.68,6.71,121.35,10.07,182.03,57.53.3,115.05.6,172.58.91,1.46-24,3.19-48.38,5.2-73.12,3.09-38.03,6.71-75.13,10.77-111.27-12.59-11.05-25.18-22.09-37.77-33.14h-122.67c-12.73,11.53-25.45,23.05-38.18,34.58Z"/>
    </clipPath>
    <clipPath id="clippath-1">
      <path class="cls-9" d="m349.46,178.64c.87,4.52.41,9.49-1.53,15.32,0,0,0,0,0,0-.95,7.83-4.19,24.74-17.62,38.64-4.06,4.21-10.35,10.55-20.67,13.37-10.87,2.97-19.93.29-25.8-1.45-21.15-6.26-32.81-22.38-36.77-28.6-4.31-6.78-6.63-13.08-7.91-17.36-9.95-35.1,2.46-69.04,26.81-82.21,20.84-11.27,42.67-3.28,43.91-2.81,24.55,9.37,35.62,36.36,36.35,55.15.05,1.16.04,2.12.04,2.81,2.08,2.88,2.86,5.43,3.19,7.15Z"/>
    </clipPath>
    <clipPath id="clippath-2">
      <path class="cls-9" d="m322.08,207.62c.5-2.22-1.73-4.07-3.82-3.16-4.34,1.89-9.95,3.76-16.63,4.69-9.01,1.26-16.78.39-22.48-.84-2.31-.5-4.11,1.93-3.03,4.03,4.15,8.07,11.15,13.79,19.24,15.1,1.99.32,8.17,1.05,14.57-2.41,7.89-4.27,10.95-12.12,12.14-17.4Z"/>
    </clipPath>
    <clipPath id="clippath-3">
      <path class="cls-9" d="m248.41,278.88c6.3,39.7,12.6,79.4,18.9,119.11.09,3.39-2.05,6.38-5.08,7.31-3.47,1.05-7.42-.82-8.89-4.45-12.12-38.27-24.24-76.55-36.37-114.82,10.48-2.38,20.96-4.76,31.44-7.15Z"/>
    </clipPath>
    <clipPath id="clippath-4">
      <path class="cls-9" d="m212.74,350.08c.8-1.41,1.51-1.55,2.21-3.06.38-.83.89-1.82.68-3.06-.22-1.29-1.01-1.45-1.45-2.89,0,0-.45-1.48,0-3.06.68-2.39,4.43-4.09,4.43-4.09,5.82-2.76,14.12-3.83,16.81-4.14,3.23-.47,17.15-2.38,26.51-.54,2.43.48,4.78,1.25,6.55,3.28,2.51,2.87,2.42,6.18,2.38,6.85.08.74.2,2.84-1.06,4.98-.94,1.59-2.19,2.46-2.85,2.85.91.04,3.19.26,5.36,1.89,3.05,2.29,3.64,5.64,3.74,6.36.09.77.43,4.45-2.09,7.17-.75.81-1.57,1.34-2.26,1.68.56.75,1.6,2.37,1.94,4.7.36,2.51-.31,4.47-.66,5.34-.36.99-1.06,2.5-2.4,3.98-.92,1.01-1.87,1.7-2.62,2.15.51.58,1.35,1.7,1.76,3.34.62,2.51-.18,4.57-.48,5.26-.15.41-.41.98-.86,1.57-.44.58-.91.98-1.27,1.23-1.58,1.03-3.41,2.09-5.49,3.06-4.17,1.96-8.06,3-11.19,3.57-.66,1.01-1.74,2.42-3.4,3.74-1.29,1.03-4.15,2.99-8.08,3.4-7.14.76-12.23-4.14-13.19-5.11-1.08-1.09-4.02-4.05-4.6-8.43-.45-3.46.98-4.74,0-7.83-.83-2.62-2.13-2.36-4.34-5.87-.76-1.2-2.92-4.72-3.23-9.3-.29-4.14,1.28-4.14.64-7.47-.69-3.6-2.79-5.01-2.49-8.36.13-1.41.62-2.52,1-3.21Z"/>
    </clipPath>
    <clipPath id="clippath-5">
      <path class="cls-9" d="m413.67,468.8c1.17.74.79,2.47,1.66,6.35,0,0,.29,1.32,1.57,5.06,1.76,5.15,5.52,8.67,9.7,14.13,5.09,6.65,7.63,9.97,8.51,12.26,3.27,8.46,1.02,16.37.51,18.04-.94,3.07-3.4,11.13-11.4,15.15-5.93,2.97-12.01,2.29-15.83,1.02-1.65-.55-7.77-2.57-8.34-6.64-.12-.83.02-1.55.17-2.04-7.3-4.77-14.74-9.53-22.3-14.3-4.62-2.91-9.22-5.77-13.8-8.6-.63-.35-1.03-1.01-1.01-1.7.02-.85.63-1.35.72-1.43-4.14-1.69-6.52-4.87-6.08-7.48.18-1.09.88-2.21,1.93-2.92,1.59-1.08,3.8-1.08,5.74,0-.36-.85-.69-2.02-.28-3.15,1.16-3.18,7.3-3.55,13.11-3.83,11.89-.58,21.64,1.68,27.49,3.4,1.59.47,2.88.9,3.74,1.19-2.73-3.59-3.7-6.95-4.09-8.94-.21-1.1-1.97-10.06,2.98-14.13,1.47-1.21,3.92-2.3,5.28-1.45Z"/>
    </clipPath>
  </defs>
  <rect class="cls-3" x="227.36" y="297.9" width="138.01" height="299"/>
  <g>
    <path class="cls-28" d="m202.02,562.75c3.36,60.68,6.71,121.35,10.07,182.03,56.58.22,113.15.43,169.73.65,5.25-60.45,10.51-120.91,15.76-181.36-11.57-11.97-23.14-23.94-34.71-35.9h-122.67c-12.73,11.53-25.45,23.05-38.18,34.58Z"/>
    <g class="cls-23">
      <path class="cls-4" d="m235.25,511.04c74.37-15.92,138.55-2.54,160.4,35.59,12.18,21.25,17.46,61.08.88,74.17-6.03,4.76-14.04,5.26-26.55,6.04-17.71,1.11-32.16-2.05-41.28-4.77-2.46-26.81-4.93-53.62-7.39-80.43-8.24-.29-16.48-.57-24.72-.86,1.36,12.31,2.02,27.17.73,43.93-1,13.06-3,24.72-5.3,34.72-5.28,1.83-11.14,3.49-17.53,4.77-22.39,4.46-41.97,2.3-55.81-.68.9,9.48,5.85,50.15,40.4,77.85,24.44,19.59,65.56,34.17,94.57,18.49,30.15-16.29,37.58-50.9,38.75-56.76-3.72,35.34-7.43,70.68-11.15,106.03-61.79,37.14-133.96,43.9-183.51,10.86-94.31-62.88-72.03-246.87-15.28-274.09,15.66-7.51,34.57-3.38,52.79,5.14Z"/>
    </g>
  </g>
  <path class="cls-13" d="m389,259.55c3.76,2.49,9.54,6.19,16.85,10.38,6.42,3.69,8.09,4.35,10.36,5.96,9.17,6.5,12.42,17.33,14.3,24.51,14.81,56.47,9.98,129.71,20.43,181.79.64,3.21,2.54,17-2.55,32.68-.53,1.63-7.43,22.07-22.31,28.55-2.8,1.22-5.15,1.62-6.26,1.78-1.41.19-10.75,1.32-18.36-5.11-1.34-1.13-3.39-3.14-5.15-6.33-.78-1.41,4.2,24.45,18.24,48,4.25,7.13,8.36,12.72,11.36,16.54-12.66,5.46-30.85,11.68-53.45,14.3-19.6,2.27-36.45,1.13-49.02-.68-3.93-5.61-8.49-13.29-12.12-23.03-4.85-13.01-6.14-24.61-6.38-32.68-2.82-70.28-4.97-121.33-5.54-134.63-.18-4.27-.58-13.42-1.57-25.49-.67-8.27-1.39-15.03-1.89-19.44,31.02-39.03,62.04-78.07,93.07-117.1Z"/>
  <g>
    <g>
      <path class="cls-3" d="m339.39,356.29c0-2.36,0-4.72,0-7.08q0-.3.31-.3c3.76,0,7.52,0,11.29,0q.3,0,.3.29c0,.97,0,1.95,0,2.92,0,.04,0,.09,0,.13,0,.14-.02.16-.16.17-.06,0-.12,0-.18,0-2.39,0-4.78,0-7.17,0q-.29,0-.29.3c0,.54,0,1.08,0,1.62,0,.06,0,.11,0,.17,0,.07.05.11.12.11.07,0,.13,0,.2,0,2.38,0,4.75,0,7.13,0,.39,0,.35.02.35.34,0,.88,0,1.75,0,2.63,0,.05,0,.1,0,.15,0,.13-.03.15-.17.16-.06,0-.12,0-.18,0-2.38,0-4.77,0-7.15,0q-.3,0-.3.3c0,.58,0,1.15,0,1.73,0,.06,0,.11,0,.17,0,.07.04.1.11.1.07,0,.13,0,.2,0,2.4,0,4.79,0,7.19,0q.3,0,.3.3c0,.97,0,1.94,0,2.9,0,.02,0,.04,0,.06,0,.24,0,.25-.25.25-3.8,0-7.6,0-11.4,0-.24,0-.25,0-.25-.25,0-2.39,0-4.78,0-7.17Z"/>
      <path class="cls-3" d="m369.48,348.91c2.35,0,4.71,0,7.06,0,.37,0,.34,0,.34.34,0,1,0,2,0,3,0,.28,0,.28-.27.28-1.29,0-2.57,0-3.86,0-.29,0-.28-.02-.28.28,0,2.61-.01,5.22,0,7.83,0,.9-.37,1.57-1.04,2.1-.62.49-1.34.76-2.11.89-.26.04-.52.08-.79.08-.17,0-.19-.02-.19-.19,0-.06,0-.12,0-.18,0-3.5,0-7,0-10.5,0-.33.01-.31-.31-.31-1.88,0-3.76,0-5.64,0q-.29,0-.29-.3c0-1.02,0-2.03,0-3.05,0-.27,0-.27.26-.27,2.38,0,4.75,0,7.13,0Z"/>
      <path class="cls-10" d="m362.05,356.63c.04-.07.03-.14.03-.21,0-.78,0-1.56,0-2.33,0-.07-.03-.17.04-.2.08-.03.12.06.17.11,1.24,1.24,2.48,2.48,3.72,3.71.11.11.16.22.15.37,0,1.78,0,3.57,0,5.35,0,.27,0,.27-.27.27-.56,0-1.13,0-1.69,0-.13,0-.24-.03-.31-.14-.02-.03-.05-.06-.07-.08-.49-.5-.98-1-1.46-1.51-.58-.61-1.16-1.21-1.74-1.82-.55-.57-1.1-1.15-1.65-1.72-.58-.6-1.15-1.2-1.73-1.8-.26-.27-.53-.55-.79-.82-.04-.04-.08-.09-.15-.12-.04.07-.03.13-.03.2,0,.58,0,1.15,0,1.73,0,.06.02.13-.02.19-.07,0-.1-.05-.14-.09-1.26-1.26-2.51-2.51-3.77-3.77-.08-.08-.12-.17-.12-.29,0-1.51,0-3.01,0-4.52,0-.2.02-.22.22-.22.77,0,1.54,0,2.32,0,.13,0,.22.05.3.14.37.41.74.81,1.12,1.22.5.55,1,1.09,1.5,1.64.31.33.61.67.92,1,.54.59,1.08,1.18,1.63,1.77.36.39.72.77,1.07,1.16.21.23.42.46.63.69.03.04.06.08.12.1Z"/>
      <path class="cls-16" d="m354.13,363.7c-1.2,0-2.17-.97-2.17-2.18,0-1.2.98-2.17,2.18-2.17,1.19,0,2.17.98,2.17,2.18,0,1.2-.98,2.17-2.18,2.17Z"/>
    </g>
    <path class="cls-8" d="m373.76,411.15h-34.82c-2.06,0-3.73-2-3.73-4.46v-36.63c7.59,0,15.17,0,22.76,0,6.51,0,13.02,0,19.53,0v36.63c0,2.46-1.67,4.46-3.73,4.46Z"/>
    <path class="cls-8" d="m335.21,370.06h42.31c0,3.84-.02,7.69-.02,11.53-7.05,3-14.1,6.01-21.14,9.01-7.05-3-14.09-6.01-21.14-9.01v-11.53Z"/>
  </g>
  <path class="cls-13" d="m206.19,259.55c-3.76,2.49-9.54,6.19-16.85,10.38-6.42,3.69-8.09,4.35-10.36,5.96-9.17,6.5-12.42,17.33-14.3,24.51-14.81,56.47-9.98,129.71-20.43,181.79-1.11,5.54-4.11,19.38,2.55,32.68,4.53,9.05,14.29,19.36,28.6,21.96,10.99,1.99,19.88-1.43,23.49-3.06-2.79,13.63-8.36,31.37-20.07,49.34-3.36,5.15-6.84,9.75-10.29,13.83,12.42,5.84,29.06,12.16,49.36,16,27.69,5.24,51.36,3.81,67.58,1.5,6.48-19.41,12.97-38.82,19.45-58.23,6.82-36.4,10.73-84.59.77-139.15-2.64-14.46-6-27.95-9.76-40.41-29.91-39.03-59.83-78.07-89.74-117.1Z"/>
  <g>
    <path class="cls-28" d="m363.01,153.03c8.07,20.12,12.28,36.86,14.62,48.65,1.7,8.6,2.47,14.87,2.72,17.02,1.7,14.53,1.55,26.83,1.02,35.74,4.31,1.82,8.62,3.63,12.94,5.45-.58,9.9-2.23,24.26-7.15,40.85-6.6,22.25-14.13,47.62-37.11,63.32-20.15,13.77-42.1,13.2-48.68,12.94-50.85-2.01-80-50.16-82.72-54.81-4.69-8.89-10.88-23-13.62-41.19-2-13.26-1.44-23.91-.68-32.68,2.58-29.78,6.95-80.14,39.49-129.7,10.81-16.47,16.43-24.76,26.89-27.23,19.79-4.68,41.92,14.7,66.72,36.43,11.1,9.72,19.65,18.66,25.55,25.22Z"/>
    <path class="cls-5" d="m381.37,254.44c-2.68,17.59-11.02,54.87-40.17,70.3-1.88.99-3.86,1.91-5.96,2.72.74.08,1.78.2,3.02.38,1.9.28,2.29.4,2.51.72.66.97-.77,3-1.11,3.49-5.88,8.4-17.62,12.94-17.62,12.94-6.42,3.32-16.95,7.73-30.5,8.73-.62.05-6,.42-12.31-.09-21.54-1.74-42.16-12.84-51.46-18.34,3.96,4.37,7.92,8.75,11.88,13.12,6.35,2.99,45.47,20.7,83.42,2.19,24.15-11.78,36.28-33.09,42.97-44.75,11.55-20.12,15.35-39.08,16.77-50.81-.48-.2-.96-.4-1.45-.6Z"/>
    <path class="cls-18" d="m346.19,220.31c-4.85,11.37-12.72,17.92-16.49,20.69-1.76.75-4.43,2.07-7.17,4.33-4.59,3.78-5.62,7.07-9.71,12.26-3.55,4.5-6.64,8.42-10.38,9.87-7.69,2.97-17.56-4.74-25.7-11.75-10.76-9.25-25.2-23.01-40.85-42.38-.5-1.25-1.08-2.89-1.58-4.85-1.76-6.88-1.04-12.01-1.02-14.18.87-1.51,1.75-2.82,2.6-3.95,25.92-34.58,105.4-20.64,113.87,4.94,3.1,9.37-2.56,22.64-3.57,25.02Z"/>
    <path class="cls-5" d="m248.06,264.1c.86,1.74,2.18,4.34,3.89,7.42,5.5,9.97,14.74,26.43,31.52,41.64,0,0,13.7,12.43,28.21,17.11,1.79.58,5.94,1.92,11.06,1.23,1.29-.17,2.35-.46,4.47-1.02,5.12-1.37,7.61-2.72,11.62-2.43.63.05,1.13.12,1.46.18.07-1.04.13-2.08.2-3.12-.98.41-2.39.97-4.12,1.54-2.25.74-8.09,2.66-13.79,2.64-4.64-.02-8.61-1.32-13.45-3.62-16.32-7.75-29.11-20.36-29.11-20.36-7.11-7.02-17.06-18.33-25.88-34.74-2.03-2.16-4.05-4.31-6.08-6.47Z"/>
    <path class="cls-11" d="m349.46,178.64c.02,7.58-1.53,15.32-1.53,15.32-.95,7.83-4.19,24.74-17.62,38.64-4.06,4.21-10.35,10.55-20.67,13.37-10.87,2.97-19.93.29-25.8-1.45-21.15-6.26-32.81-22.38-36.77-28.6-4.31-6.78-6.63-13.08-7.91-17.36-9.95-35.1,2.46-69.04,26.81-82.21,20.36-11.01,41.8-3.58,43.91-2.81,31.28,11.39,39.54,49.24,39.57,65.11Z"/>
    <path class="cls-5" d="m379.4,234.58c-4.08,24.93-18.73,46.02-39.86,56.16-22.93,10.99-45.38,5.21-55.66,1.55-1.64-.57-3.22-1.19-4.76-1.85-28.1-12.13-42.55-40.55-49.9-61.28-3.21,7.85-7.45,19.42-11,33.97-1.5,6.16-2.84,11.64-3.57,18.38-.96,8.79-1.25,22.9,4,40.68-8.66-22.32-7.91-39.32-6.69-48.35,1.59-11.77,5.99-24.98,8.38-32.16,2.6-7.8,5.14-14.16,7.01-18.61-.39-4.22-.44-10.46,1.47-17.63,1.21-4.55,2.9-8.29,4.46-11.14-.02,2.17-.74,7.3,1.02,14.18.5,1.96,1.08,3.6,1.58,4.85-.66,6.24-2.18,28.16,12.25,48.51,4.28,6.03,17.82,25.12,36.77,26.38,3.57.24,27.01,1.17,32.34,4.6.6.39,1.85,1.6,3.91,2.21,5.38,1.59,10.89-1.98,14.25-4.33,12.46-8.75,20.41-14.33,26.93-22.06,1.69-2.01,3.89-5.01,6.26-8.84,6.06-9.75,9.14-18.85,10.8-25.22Z"/>
    <path class="cls-18" d="m351.64,252.83c-2.09,3.26-12.09,19.34-10.83,35.08.19,2.36.89,7.92,2.92,14.51,1.51,4.9,3.3,8.88,4.78,11.77-2.47-.04-6.56-.49-10.71-2.9-9.89-5.74-11.21-17.45-11.36-18.91.4-4.87,1.98-16.04,10.21-26.67,5.2-6.72,11.08-10.69,14.98-12.88Z"/>
    <path class="cls-5" d="m345.69,166.79c1.45,9.71,1.21,17.95.62,23.94-.48,4.88-1.31,12.82-5.01,22.46-.65,1.7-2.42,5.53-4.61,9.88-1.22,2.42-2.28,4.4-3.03,5.76-1.51,5.1-3.12,11.36-4.48,18.59-1.79,9.54-2.51,16.62-2.93,23.93-.44,7.69-.38,14.88,0,21.46,0,0,5.89-16.25,16.24-29.68,6.86-8.89,8.44-7.17,17.05-17.85,3.92-4.86,9.37-11.55,13.44-21.46,2.73-6.65,4.96-12.11,4.21-19.39-.48-4.61-1.91-7.64-4.46-13.01-3.8-8-7.77-16.61-16.8-21.35-3.75-1.97-7.35-2.87-10.25-3.28Z"/>
    <g class="cls-19">
      <path class="cls-17" d="m346.27,171.49c-.6-.14-1.51-.38-2.59-.77-2.82-1.02-9.55-4.12-17.7-18.72-3.99-7.15-6.87-14.46-10.85-18.68-3.4-3.61-7.53-5.15-7.53-5.15-.61-.23-1.2-.39-1.87-.58-5.04-1.45-17.29-4.01-28.77,2.8-1.11.66-4.89,2.91-10.55,10.04-.48.6-1.91,2.48-3.05,4.24-6.93,10.67-5.39,20.96-12.26,34.37-4.31,8.41-7.36,9.15-8.34,15.86-.95,6.49.98,12.07,2.03,15.11,2.48,7.18,6.46,12.14,9.12,14.96-4.61-2.33-15.82-8.8-20.51-21.56-2.81-7.65-2.33-14.96-.17-24.68,5.92-26.63,11.04-49.65,32.75-62.38,3.16-1.85,30.25-17.22,55.42-2.64,18.71,10.84,28.85,33.9,24.89,57.79Z"/>
    </g>
    <g>
      <path class="cls-7" d="m295.03,177.22c.54,2.04,1.77,5.59,4.68,9.15,1.75,2.15,3.63,3.69,5.24,4.78,1.55,1.05,1.78,3.24.47,4.57-.75.76-1.71,1.52-2.95,2.1-2.93,1.39-5.62.99-6.53.81"/>
      <path class="cls-28" d="m308.56,160.87c-.44-.41-1.13-1.19-1.21-2.22-.29-3.9,8.54-8.29,16.13-9.25,2.99-.38,7.79-.91,12.15,2,1.81,1.21,2.99,2.64,3.69,3.66-2.17-.98-8.55-3.52-16.65-1.89-7.67,1.55-12.43,5.96-14.11,7.69Z"/>
      <path class="cls-28" d="m279.18,162.9c.33-.5.83-1.41.67-2.43-.61-3.86-10.21-6.12-17.82-5.32-2.99.32-7.79.89-11.37,4.72-1.48,1.59-2.3,3.25-2.76,4.41,1.88-1.45,7.52-5.39,15.77-5.64,7.82-.24,13.46,2.96,15.5,4.26Z"/>
      <path class="cls-17" d="m311.16,181.42c-.45-1.96-1.63-8.35,1.98-14.36,4.14-6.89,13.34-11.23,20.06-8.49,2.26.92,5.88,3.31,7.39,7.44.5,1.36.65,2.57.69,3.41,0,.05-.12,1.1.68,1.7.53.4,1.13.36,1.28.34-.14.36-.43.99-.94,1.66-1.32,1.74-3.15,2.41-3.95,2.7-2.63.96-13,3.23-27.2,5.6Z"/>
      <g>
        <path class="cls-3" d="m311.16,181.42c1.31.71,9.46,4.92,18.46,1.44,4.95-1.92,7.91-5.29,9.24-7.05.17-.84,1.13-6.04-2.21-10.04-4.36-5.22-11.98-3.53-12.68-3.36-6.91,1.65-12.26,9.28-12.81,19.02Z"/>
        <g>
          <path class="cls-28" d="m311.16,181.42c-.2-1.18-1.43-9.33,4.21-15.57,3.96-4.38,11.65-8.19,18.17-4.89,5.33,2.7,6.84,8.62,7.12,9.79.01.08.14.78.77,1.11.57.29,1.32.14,1.81-.38-.04.38-.23,1.87-1.51,3.06-1.15,1.07-2.46,1.24-2.87,1.28.02-.36.04-.87,0-1.48-.19-3.29-1.74-6.14-3.07-7.58-3.43-3.72-10.32-3.31-14.68-1.4-5.83,2.55-9.63,8.83-9.96,16.09Z"/>
          <circle class="cls-28" cx="323.33" cy="173.8" r="9.45"/>
        </g>
        <circle class="cls-3" cx="324.4" cy="169.71" r="3.4"/>
      </g>
      <path class="cls-17" d="m281.97,183.85c.07-2.01.04-8.51-4.64-13.74-5.36-5.99-15.21-8.53-21.3-4.58-2.04,1.33-5.15,4.35-5.87,8.69-.23,1.42-.15,2.64-.04,3.48.02.05.32,1.05-.35,1.8-.45.5-1.04.56-1.19.57.21.33.61.89,1.23,1.45,1.63,1.46,3.54,1.78,4.38,1.91,2.77.45,13.37.74,27.77.4Z"/>
      <g>
        <path class="cls-3" d="m281.92,184.88c-1.18.9-8.56,6.37-18,4.36-5.19-1.11-8.65-3.97-10.24-5.5-.3-.8-2.07-5.78.59-10.27,3.47-5.85,11.26-5.39,11.98-5.34,7.09.53,13.58,7.22,15.67,16.74Z"/>
        <g>
          <path class="cls-28" d="m281.92,184.88c0-1.2-.07-9.44-6.64-14.71-4.61-3.7-12.81-6.24-18.72-1.94-4.83,3.51-5.38,9.6-5.47,10.8,0,.08-.01.8-.59,1.21-.52.38-1.28.35-1.85-.09.1.37.53,1.81,1.98,2.78,1.3.87,2.63.83,3.04.8-.08-.35-.18-.85-.24-1.46-.33-3.28.74-6.34,1.82-7.97,2.8-4.22,9.66-4.91,14.27-3.72,6.16,1.59,10.91,7.18,12.39,14.3Z"/>
          <circle class="cls-28" cx="268.69" cy="179.3" r="9.45"/>
        </g>
        <circle class="cls-3" cx="266.99" cy="175.43" r="3.4"/>
      </g>
      <path class="cls-7" d="m292.12,230.05c1.85.57,4.61,1.18,7.97,1.1,4.16-.11,7.42-1.24,9.38-2.1"/>
      <path class="cls-28" d="m322.08,207.62c.5-2.22-1.73-4.07-3.82-3.16-4.34,1.89-9.95,3.76-16.63,4.69-9.01,1.26-16.78.39-22.48-.84-2.31-.5-4.11,1.93-3.03,4.03,4.15,8.07,11.15,13.79,19.24,15.1,1.99.32,8.17,1.05,14.57-2.41,7.89-4.27,10.95-12.12,12.14-17.4Z"/>
      <g class="cls-15">
        <g>
          <path class="cls-12" d="m315.4,221.77c-1.63-1.01-4.61-2.55-8.48-2.82-3.91-.27-6.91.87-8.54,1.67-1.71-.87-5.62-2.54-10.37-1.55-2.98.63-5.19,2.07-6.52,3.14,3.15,8.77,10.34,14.52,17.91,14.34,7.46-.18,13.85-6.07,16-14.78Z"/>
          <path class="cls-3" d="m316.92,202.14l.36,2.65c.32,2.36-1.06,4.63-3.32,5.38-6.34,2.09-15.48,4.15-26.46,3.58-9.12-.48-16.57-2.63-21.77-4.6l51.18-7Z"/>
        </g>
      </g>
    </g>
    <path class="cls-18" d="m265.2,132.27c1.78-1.63,17.66-15.77,37.4-11.23,8.02,1.84,13.68,6.08,16.88,8.98.41-1.96,3.18-16.24-5.65-25.7-11.19-11.99-34.59-9.37-44.43,3.96-7.05,9.55-4.77,21.4-4.21,24Z"/>
    <path class="cls-28" d="m286.23,106.36c-3.98,1.01-6.52,3.33-8.85,5.45-7.3,6.64-9.8,14.93-10.72,17.87-3.82,12.24-10.42,23.46-14.64,35.57-9.96,28.59-12.8,26.32-26.89,63.66-6.97,18.47-10.49,27.9-11.92,37.11-3.63,23.48,1.14,43.49,5.45,56.17-5.12-7.06-11.99-18.16-16.68-33.02-1.12-3.55-5.78-18.94-5.11-44.94.46-17.5,2.8-19.36,7.49-50.72,5.03-33.6,3.39-38.47,8.85-59.91,5.79-22.73,11.53-32.56,14.98-37.79,5.32-8.07,12.05-18.27,24.51-25.19,21.98-12.2,52.55-9.06,70.47,6.81,4.47,3.96,8.43,10.92,16.34,24.85,7.91,13.92,12.8,25.26,22.47,48,7.7,18.1,9.92,24.79,11.74,32.17,2.35,9.5,3.4,17.62,3.91,23.32-1.37-4.34-3.92-10.74-8.85-17.36-2.87-3.85-5.53-6.42-7.45-8.26-8.25-7.89-11.87-8.11-18.77-13.87-8.97-7.49-13.77-16.23-15.66-19.74-4.61-8.56-3.65-10.2-8.85-19.06-3.27-5.57-5.16-8.8-8.85-12.26-2.34-2.19-12.34-11.56-22.98-8.85Z"/>
  </g>
  <path class="cls-28" d="m291.99,426.25h138.99c2.22,0,3.73,2.26,2.87,4.31-9.13,21.98-18.25,43.96-27.38,65.95-.48,1.16-1.62,1.92-2.87,1.92h-139.6c-2.23,0-3.74-2.28-2.86-4.33,9.33-21.98,18.66-43.96,28-65.95.49-1.15,1.62-1.9,2.86-1.9Z"/>
  <path class="cls-5" d="m432.65,502.4c1.27,2.04,3.12,5.61,3.61,10.31,1,9.67-4.21,19.52-12.46,24.52-5.18,3.14-10.41,3.67-13.66,3.66,0,0-4.38-.56-7.79-3.4-2.02-1.69-2.29-3.01-2.34-3.57-.08-.74.07-1.37.22-1.79-1.69-1.1-3.38-2.2-5.07-3.29.38,1.65.76,3.29,1.14,4.94.62,1.13,1.47,2.45,2.63,3.82.87,1.01,1.73,1.84,2.52,2.51,1.54,1.27,4.35,3.28,8.32,4.44,1.06.31,11.28,3.11,19.91-3.21,3.78-2.77,5.62-6.1,6.64-8,4.38-8.16,4.95-19.39-.51-27.32-1.14-1.65-2.32-2.84-3.15-3.6Z"/>
  <path class="cls-5" d="m212.74,350.08c-1.08.05-2.56.29-3.87,1.23-2.35,1.68-4.28,5.64-2.37,17.74,2.44,15.48,4.7,29.79,17.36,38.98,7.81,5.67,16.13,6.87,19.11,7.17,3.73.38,7.52.73,11.86-1.08,7.23-3.02,10.43-9.72,11.36-11.92,1.93-4.63,1.89-8.8,1.72-11-18.39-13.71-36.77-27.41-55.16-41.12Z"/>
  <path class="cls-1" d="m206.75,353.82c-14.06,29.76-28.12,59.52-42.18,89.28-3.32,15.32-6.64,30.64-9.96,45.96-.23,1.05,7.68-24.27,18.64-52.85,11.45-29.86,23.58-53.62,32.83-70.17-.47-2.13-.85-5.21-.22-8.78.22-1.28.54-2.43.89-3.44Z"/>
  <path class="cls-2" d="m391.44,283.07c.35,12.67-.36,44.68-19.81,70.41-3.69,4.88-9.79,12.78-20.77,18.81-14.42,7.93-28.51,7.83-35.21,7.33.18-1.04.35-2.09.53-3.13-3.64.42-7.81.68-12.42.56-3.75-.09-7.19-.42-10.25-.85-.68-.08-1.63-.2-2.77-.38-1.59-.26-4.08-.67-6.94-1.57-3.47-1.09-5.95-1.87-8.26-4.09-1.11-1.06-1.84-2.13-2.29-2.87-6.76,1.11-8.48,3.55-9.03,4.91-.95,2.33.33,4.39,2.13,11.66.77,3.09,1.25,5.66,1.54,7.33.14,2.11.24,5.22-.08,8.96-.31,3.63-.96,7.38-2.14,11.54-11.11,39.24-36,85.87-36,85.87-3.15,5.9-.14.03-14.64,22.3-1.39,2.13-4.08,6.27-9.08,9.94-2.71,1.98-5.25,3.21-7.05,3.96-.86,4.08-1.94,8.39-3.3,12.88-3.12,10.27-7,19.13-10.87,26.52,4.05-4.31,9.33-11.01,13.2-20.31,1.98-4.76,3.18-9.19,3.91-12.98.86-.19,2.21-.51,3.82-1.06,12.54-4.25,19.61-14.7,23.24-20.39,18.12-28.37,32.94-65.36,32.94-65.36,12.23-30.55,14.8-41.26,16.08-52.51,1.13-9.89,1.02-17.53.88-20.97-.11-2.75-.29-4.97-.41-6.35,5.03,1.44,9.51,2.31,13.19,2.85,6.66.98,11.75,1.05,13.06,1.06,4.53.04,8.45-.27,11.53-.65,16.38-1.99,29.92-11.22,32.34-12.88,2.76-1.9,10.95-7.78,18.79-18.05,9.2-12.06,12.8-23.46,18.3-40.85,2.83-8.97,4.69-16.51,5.84-21.64Z"/>
  <path class="cls-2" d="m304.4,380.02c8.07,57.02,7.94,99.47,6.72,125.09-1,21.11-2.98,36.22-6.2,51.1-5.36,24.82-13.18,44.62-19.45,58.23-4.04.46-8.09.91-12.14,1.37,3.46-4.27,8.17-10.59,12.87-18.75,6.66-11.58,15.26-30.33,20.08-71.15,3.79-32.03,2.76-56.59,1.71-79.32-1.26-27.04-3.83-49.81-6.2-66.66-1.18-.05-2.38-.13-3.61-.23-7.49-.61-13.97-1.97-19.21-3.42-.19-1.02-.38-2.03-.58-3.05,6.08,1.78,13.86,3.43,22.98,3.8.01.01.02.01.04.01.17.01.35.01.52.02,5.26.19,10.05-.08,14.25-.56-.18,1.04-.35,2.08-.53,3.12-3.34.3-7.11.48-11.25.4Z"/>
  <g>
    <path class="cls-17" d="m225,331.66c.65-1.33,1.38-3.33,1.18-5.67-.22-2.62-1.46-4.18-4-7.66-5.17-7.06-7.56-10.88-8.43-15.4-.23-1.22-.35-2.46.26-3.66,1.61-3.18,6.93-3.24,7.49-3.23,7.21.02,12.24,6.89,12.85,7.74,1.8,2.53,2.93,5.49,5.19,11.4.88,2.3.91,2.63,1.45,3.83,2.04,4.58,5.05,7.63,7.33,9.52-4.3.19-9,.61-14.03,1.37-3.29.5-6.39,1.1-9.29,1.76Z"/>
    <g>
      <path class="cls-14" d="m248.41,278.88c6.3,39.7,12.6,79.4,18.9,119.11.09,3.39-2.05,6.38-5.08,7.31-3.47,1.05-7.42-.82-8.89-4.45-12.12-38.27-24.24-76.55-36.37-114.82,10.48-2.38,20.96-4.76,31.44-7.15Z"/>
      <g class="cls-25">
        <path class="cls-21" d="m226.77,286.41c15.93,59.48,27.83,102.87,29.44,107.82.4,1.22,1.49,4.19,4.19,5.87.61.38,2.05,1.24,3.73.96,1.67-.28,2.88-1.57,3.97-3.28,3.53-5.56,3.55-12.07,3.65-12.07.08,0,.07,4.3-.48,25.89-9.28,7.78-16.39,9.13-21.6,8.42-37-5.05-45.78-123.37-46.37-132.13,4.59-.5,9.18-.99,13.77-1.49,3.23,0,6.46.02,9.69.02Z"/>
      </g>
      <path class="cls-24" d="m217.72,286.72c-.72-.03-1.02-.94-.47-1.4,1.12-.95,2.15-1.69,3.01-2.25,9.44-6.2,19.82-5.54,24.09-5.21,1.29.1,2.46.25,3.47.4.75.12.92,1.12.26,1.48-1.11.61-2.12,1.11-2.99,1.52-10.05,4.73-19.16,5.46-24.02,5.51-1.23.01-2.35-.01-3.34-.06Z"/>
      <path class="cls-5" d="m221.35,277.44c6.32-1.58,12.63-3.17,18.95-4.75.71-.18,1.43.24,1.63.95.4,1.44.79,2.87,1.19,4.31.16.56-.07,1.17-.56,1.48-2.12,1.38-5.4,3.13-9.72,4.11-4.21.95-7.84.81-10.31.5-.55-.07-1-.46-1.14-1-.34-1.32-.68-2.64-1.02-3.95-.19-.72.25-1.46.98-1.64Z"/>
      <g>
        <path class="cls-22" d="m224.69,276.86c-.72.08-1.44.16-2.15.25-3.9-5.48-7.79-10.97-11.69-16.45,1.9-9.61,3.81-19.22,5.71-28.83.9-.2,1.79-.4,2.69-.59-1.56,5.49-3.62,15.65-1.19,27.89,1.52,7.64,4.3,13.64,6.63,17.73Z"/>
        <path class="cls-6" d="m222.57,230.71c-1.11.17-2.22.35-3.33.52-1.9,9.56-3.81,19.11-5.72,28.67,3.72,5.65,7.44,11.3,11.16,16.96,4.67-1.18,9.34-2.36,14.01-3.55.66-6.71,1.32-13.43,1.97-20.14-6.03-7.49-12.07-14.97-18.1-22.46Zm4.62,32.02c-2.72.04-4.96-2.42-5-5.49-.04-3.07,2.13-5.59,4.85-5.63,2.72-.04,4.96,2.42,5,5.49.04,3.07-2.13,5.59-4.85,5.63Z"/>
        <path class="cls-26" d="m210.84,260.65c.9-.25,1.79-.5,2.69-.75,1.91-9.56,3.81-19.11,5.72-28.67-.9.2-1.79.4-2.69.59-1.9,9.61-3.81,19.22-5.71,28.83Z"/>
        <path class="cls-26" d="m231.61,257.11c.04,3.07-2.13,5.59-4.85,5.63-.28,0-.56-.02-.83-.07,2.41-.76,4.04-3.03,4.01-5.53-.03-2.45-1.65-4.62-4-5.37.19-.07.42-.12.67-.14,2.11-.14,4.96,2.42,5,5.49Z"/>
        <path class="cls-26" d="m225.91,251.81c-1.7-6.94-3.4-13.87-5.1-20.81.06-.01.12-.02.18-.03,1.71,6.93,3.42,13.85,5.13,20.78-.07.02-.14.04-.21.06Z"/>
        <path class="cls-22" d="m225.78,251.82c-1.7-6.94-3.4-13.87-5.1-20.81.06-.01.12-.02.18-.03,1.71,6.93,3.42,13.85,5.13,20.78-.07.02-.14.04-.21.06Z"/>
        <path class="cls-26" d="m232.03,257.1c.04,3.07-2.13,5.59-4.85,5.63-.28,0-.56-.02-.83-.07,2.32-.48,4.05-2.79,4.01-5.53s-1.83-5-4.16-5.42c.27-.06.55-.09.83-.09,2.72-.04,4.96,2.42,5,5.49Z"/>
        <path class="cls-22" d="m231.61,257.11c.04,3.07-2.13,5.59-4.85,5.63-.28,0-.56-.02-.83-.07,2.42-.75,4.06-3.02,4.01-5.53-.05-2.47-1.71-4.64-4.09-5.34.2-.08.46-.15.76-.17,2.13-.15,4.96,2.43,5,5.49Z"/>
      </g>
    </g>
    <path class="cls-11" d="m212.74,350.08c.8-1.41,1.51-1.55,2.21-3.06.38-.83.89-1.82.68-3.06-.22-1.29-1.01-1.45-1.45-2.89,0,0-.45-1.48,0-3.06.68-2.39,4.43-4.09,4.43-4.09,5.82-2.76,14.12-3.83,16.81-4.14,3.23-.47,17.15-2.38,26.51-.54,2.43.48,4.78,1.25,6.55,3.28,2.51,2.87,2.42,6.18,2.38,6.85.08.74.2,2.84-1.06,4.98-.94,1.59-2.19,2.46-2.85,2.85.91.04,3.19.26,5.36,1.89,3.05,2.29,3.64,5.64,3.74,6.36.09.77.43,4.45-2.09,7.17-.75.81-1.57,1.34-2.26,1.68.56.75,1.6,2.37,1.94,4.7.36,2.51-.31,4.47-.66,5.34-.36.99-1.06,2.5-2.4,3.98-.92,1.01-1.87,1.7-2.62,2.15.51.58,1.35,1.7,1.76,3.34.62,2.51-.18,4.57-.48,5.26-.15.41-.41.98-.86,1.57-.44.58-.91.98-1.27,1.23-1.58,1.03-3.41,2.09-5.49,3.06-4.17,1.96-8.06,3-11.19,3.57-.66,1.01-1.74,2.42-3.4,3.74-1.29,1.03-4.15,2.99-8.08,3.4-7.14.76-12.23-4.14-13.19-5.11-1.08-1.09-4.02-4.05-4.6-8.43-.45-3.46.98-4.74,0-7.83-.83-2.62-2.13-2.36-4.34-5.87-.76-1.2-2.92-4.72-3.23-9.3-.29-4.14,1.28-4.14.64-7.47-.69-3.6-2.79-5.01-2.49-8.36.13-1.41.62-2.52,1-3.21Z"/>
    <g class="cls-20">
      <g>
        <path class="cls-7" d="m273.67,347.01h-39.35"/>
        <path class="cls-7" d="m275.63,364.46h-39.35"/>
        <path class="cls-7" d="m276.82,380.54h-39.35"/>
        <path class="cls-7" d="m276.82,398.67h-39.35"/>
      </g>
    </g>
  </g>
  <path class="cls-1" d="m396.74,498.5c-1.96,6.16-3.92,15.48-2.38,26.47.45,3.23,1.14,6.17,1.94,8.79.82,3.36,1.66,6.74,2.54,10.16.58,2.26,1.16,4.51,1.75,6.73-.93-.88-2.34-2.25-3.93-4.02-4.92-5.46-6.3-8.76-8.55-11.74-2.1-2.78-2.31-1.71-18.89-11.62-8.71-5.2-11.26-7.06-13.92-10.21-2.72-3.23-2.59-4.33-4.85-5.87-4-2.73-15.77-1.73-17.02-1.62-4.16.38-10.11.22-17.64-2.34-.06-1.55-.11-3.1-.17-4.65,27.04-.03,54.09-.05,81.13-.08Z"/>
  <path class="cls-1" d="m384.23,422.25h13.83c.89-27.86,1.79-55.72,2.68-83.57-5.5,27.86-11.01,55.72-16.51,83.57Z"/>
  <path class="cls-1" d="m175.87,278.46c2.5-1.39,5.97-2.92,10.29-3.76,1.9-.37,3.66-.55,5.24-.61.61,4.82,1.62,10.06,3.23,15.59,5.96,20.41,17.26,34.83,25.61,43.52,1.59-.51,3.18-1.03,4.77-1.54-7.05-8.41-16.6-22.05-22.52-40.92-3.01-9.59-4.4-18.36-4.99-25.65-5.47,3.63-9.3,5.7-11.88,6.95-.73.35-2.54,1.21-4.81,2.68-2.18,1.41-3.84,2.78-4.93,3.75Z"/>
  <path class="cls-2" d="m301.41,377.04s-.03,0-.04-.01v-.03l.04.04Z"/>
  <circle class="cls-1" cx="312.75" cy="387.31" r="3.87"/>
  <g>
    <circle class="cls-28" cx="312.27" cy="386.65" r="3.21"/>
    <circle class="cls-1" cx="316.62" cy="420.82" r="3.87"/>
    <circle class="cls-28" cx="316.14" cy="420.15" r="3.21"/>
    <g>
      <circle class="cls-1" cx="318.7" cy="509.63" r="3.87"/>
      <circle class="cls-28" cx="318.33" cy="508.91" r="3.21"/>
      <g>
        <circle class="cls-1" cx="315.12" cy="538.01" r="3.87"/>
        <circle class="cls-28" cx="314.75" cy="537.28" r="3.21"/>
      </g>
    </g>
  </g>
  <path class="cls-28" d="m300.45,422.25h128.56c2.05,0,3.45,2.03,2.66,3.88-8.44,19.8-16.88,39.61-25.33,59.41-.45,1.05-1.5,1.73-2.66,1.73h-129.13c-2.06,0-3.46-2.05-2.65-3.9,8.63-19.8,17.26-39.61,25.9-59.41.45-1.04,1.49-1.71,2.65-1.71Z"/>
  <path class="cls-5" d="m291.99,426.25h138.99c2.22,0,3.73,2.26,2.87,4.31-9.13,21.98-18.25,43.96-27.38,65.95-.48,1.16-1.62,1.92-2.87,1.92h-139.6c-2.23,0-3.74-2.28-2.86-4.33,9.33-21.98,18.66-43.96,28-65.95.49-1.15,1.62-1.9,2.86-1.9Z"/>
  <g>
    <path class="cls-11" d="m413.67,468.8c1.17.74.79,2.47,1.66,6.35,0,0,.29,1.32,1.57,5.06,1.76,5.15,5.52,8.67,9.7,14.13,5.09,6.65,7.63,9.97,8.51,12.26,3.27,8.46,1.02,16.37.51,18.04-.94,3.07-3.4,11.13-11.4,15.15-5.93,2.97-12.01,2.29-15.83,1.02-1.65-.55-7.77-2.57-8.34-6.64-.12-.83.02-1.55.17-2.04-7.3-4.77-14.74-9.53-22.3-14.3-4.62-2.91-9.22-5.77-13.8-8.6-.63-.35-1.03-1.01-1.01-1.7.02-.85.63-1.35.72-1.43-4.14-1.69-6.52-4.87-6.08-7.48.18-1.09.88-2.21,1.93-2.92,1.59-1.08,3.8-1.08,5.74,0-.36-.85-.69-2.02-.28-3.15,1.16-3.18,7.3-3.55,13.11-3.83,11.89-.58,21.64,1.68,27.49,3.4,1.59.47,2.88.9,3.74,1.19-2.73-3.59-3.7-6.95-4.09-8.94-.21-1.1-1.97-10.06,2.98-14.13,1.47-1.21,3.92-2.3,5.28-1.45Z"/>
    <g class="cls-27">
      <g>
        <path class="cls-7" d="m402.52,488.71c4.31,2.37,8.72,4.97,13.19,7.83,1.42.9,2.81,1.81,4.17,2.72"/>
        <path class="cls-7" d="m361.93,493.86c16.34,5.52,32.68,11.04,49.02,16.55"/>
        <path class="cls-7" d="m356.23,503.01c14.78,6.5,29.56,12.99,44.34,19.49"/>
        <path class="cls-7" d="m394.52,529.74c4.95,2.43,9.9,4.85,14.85,7.28"/>
      </g>
    </g>
  </g>
</svg>