<?xml version="1.0" encoding="UTF-8"?>
<svg id="Layer_1" data-name="Layer 1" xmlns="http://www.w3.org/2000/svg" xmlns:xlink="http://www.w3.org/1999/xlink" viewBox="0 0 594.44 808.85">
  <defs>
    <style>
      .cls-1, .cls-2 {
        fill: #083c5b;
      }

      .cls-3 {
        fill: #fff;
      }

      .cls-4 {
        fill: #242b2d;
      }

      .cls-5 {
        fill: #232b2d;
      }

      .cls-6 {
        fill: #27b2b4;
      }

      .cls-7, .cls-8 {
        fill: #fcd2c8;
      }

      .cls-9 {
        stroke: #083c5b;
        stroke-width: 2.71px;
      }

      .cls-9, .cls-10, .cls-11 {
        stroke-linecap: round;
        stroke-linejoin: round;
      }

      .cls-9, .cls-10, .cls-11, .cls-12, .cls-13 {
        fill: none;
      }

      .cls-10 {
        stroke: #f5b5af;
      }

      .cls-10, .cls-8, .cls-11 {
        stroke-width: 1.95px;
      }

      .cls-14 {
        fill: #134675;
      }

      .cls-15 {
        fill: #80878c;
      }

      .cls-16 {
        clip-path: url(#clippath-2);
      }

      .cls-2 {
        opacity: .5;
      }

      .cls-17 {
        fill: #a97d34;
      }

      .cls-18 {
        fill: #e0e0e0;
      }

      .cls-19 {
        fill: #e89591;
      }

      .cls-20 {
        clip-path: url(#clippath-1);
      }

      .cls-21 {
        clip-path: url(#clippath-4);
      }

      .cls-8, .cls-11 {
        stroke: #e89591;
      }

      .cls-8, .cls-13 {
        stroke-miterlimit: 10;
      }

      .cls-22 {
        fill: #c4cacc;
      }

      .cls-23 {
        fill: #07374f;
      }

      .cls-24 {
        fill: #1c2223;
      }

      .cls-25 {
        fill: #5f6466;
      }

      .cls-26 {
        clip-path: url(#clippath);
      }

      .cls-27 {
        clip-path: url(#clippath-3);
      }

      .cls-28 {
        fill: #fdd0c9;
      }

      .cls-29 {
        fill: #fdd2c8;
      }

      .cls-13 {
        stroke: #1a2021;
        stroke-width: 2.93px;
      }

      .cls-30 {
        fill: #293336;
      }
    </style>
    <clipPath id="clippath">
      <path class="cls-12" d="m375.64,510.12c8.73,74.36,17.46,148.72,26.19,223.08.86,7.31,1.72,14.62,2.57,21.92h-106.58c-2.77-39.18-5.53-78.36-8.3-117.54-4.21,39.18-8.41,78.36-12.62,117.54h-105.92c10.74-82.01,21.47-164.03,32.21-246.04,36.68-.32,73.89-.3,111.6.09,20.44.21,40.72.53,60.85.95Z"/>
    </clipPath>
    <clipPath id="clippath-1">
      <path class="cls-12" d="m152.95,367.55c.22,3.62.7,10.08,4.98,16.27,1.59,2.3,7.73,10.39,17.93,11.29,13.43,1.19,22.33-11.11,23.91-13.28,4.71-6.51,5.83-13.43,6.31-16.6.92-6.11.24-10.87,0-12.62-4.06-29.48-3.95-73.85-6.58-93.35-.11-.81-.47-3.43-.39-6.92.03-1.5.15-5.66,1.33-9.63,1.62-5.46,4.16-6.89,6.97-11.62,1.91-3.22,4.03-8.12,4.65-15.27-10.24-17.6-20.48-35.2-30.71-52.79-.44-1.27-.94-3.32-.66-5.81.09-.77.33-2.68,1.49-4.65,2.1-3.55,5.76-4.85,7.66-5.52,2.31-.82,4.36-1.03,8.45-1.45,3.84-.4,5.99-.3,7.47-1.99.18-.21,1.08-1.28,1.16-2.82.13-2.42-1.84-4.05-2.16-4.32-.48-.4-1.29-.94-3.82-1.49-4.34-.95-7.92-.67-9.48-.5-1.21.13-2.63.3-4.46.83-.79.23-3.04.93-6.97,3.32-2.93,1.78-4.41,2.68-5.73,3.98-2.39,2.37-3.33,5.13-4.73,11.87-.89,4.26-1.88,9.7-2.7,16.1-1.44.97-3.63,2.44-6.33,4.23-3.41,2.26-3.8,2.48-4.31,2.91-3.3,2.79-4.93,7.94-3.87,12.93,2.28,10.69,4.47,20.97,6.07,28.5,2.72,12.74,3.38,15.81,3.82,21.25.49,6.07.19,12.85-1.66,32.71-.63,6.73-1.48,12.93-3.15,25.07-2.44,17.65-6.02,43.6-4.48,69.4Z"/>
    </clipPath>
    <clipPath id="clippath-2">
      <path class="cls-12" d="m181.55,163.4c2.87-.05,5.73-.1,8.6-.14,3.8-.06,7.52,1.13,10.57,3.41l7.5,5.59c4.86,3.62,9.08,8.05,12.47,13.08l1.99,2.95c.84,1.25,1.29,2.75,1.14,4.25-.09.88-.38,1.8-1.06,2.51-1.88,1.98-6.33,1.91-9.43-1.5,3.49,5.07,5.35,9.63,6.39,12.87,1.36,4.22,1.22,5.81.5,6.97-.48.79-1.2,1.34-2.01,1.73-2.96,1.41-6.51.13-8.22-2.66-1.13-1.85-2.26-3.69-3.38-5.54l.98,6.27c.29,1.83-.42,3.46-1.65,4.02-1,.45-2.04.06-2.19,0-1.29-.51-2-1.92-2.49-2.89-.02-.05-.11-.21-.27-.55-.5-1.03-1.24-2.56-2.09-4.36-.76-1.39-1.51-2.77-2.27-4.16-1.25-2.3-3.65-3.73-6.26-3.77-.86-.01-1.76,0-2.7.08-4.81.37-8.58,1.86-10.94,3.04-5.04-6.47-10.07-12.95-15.11-19.42-.16-1.92.01-3.58.33-4.98,2.65-11.68,17.78-16.25,19.61-16.77Z"/>
    </clipPath>
    <clipPath id="clippath-3">
      <path class="cls-12" d="m288.32,226.37c-5,4.79-10,9.58-15,14.37,1.67.51,4.08,1.5,6.22,3.56,4.91,4.7,5.51,11.18,6.28,15.89.97,5.93,3.25,14.2,9.05,24.07-.42-1.57-1.38-6.01.75-10.71.69-1.54,2.11-4.66,5.56-6.31,4.79-2.29,9.61.12,10.27.46-7.71-13.78-15.43-27.56-23.14-41.34Z"/>
    </clipPath>
    <clipPath id="clippath-4">
      <path class="cls-12" d="m435.18,394.2c.63-10.28-3.62-18.53-9.21-29.39-3.22-6.25-6.22-10.61-6.97-11.7-25.87-37.61-26.48-44.45-50.55-77.45-5.2-7.13-12.35-16.65-19.42-30.88-1.39-2.8-3.25-6.93-6.97-15.19-8.18-18.16-12.27-27.25-12.62-28.67-.17-.7-.57-2.41-1.82-4.2-2.11-2.98-5.14-4.04-9.46-5.48-9.47-3.16-14.27-4.75-17.43-5.35-8.66-1.66-11.15-.81-12.2-.37-2.33.96-4.47,2.35-6.72,5.98-5.38,8.66-12.72,20.48-8.72,24.65.82.85,2.47,1.77,6.23,1.25-2.6,2.54-2.56,6.76,0,9.21,2.6,2.49,6.9,2.3,9.3-.5.09.92.68,6.33,2.03,8.97.19.37.47.84.93,1.29.39.39,1.62,1.62,3.35,1.45,1.84-.19,2.8-1.81,2.91-1.99.14,1.15,1.85,14.29,6.89,20.17,1.05,1.22,2.24,2.33,2.24,2.33,1.98,1.62,3.85,2.04,7.97,5.38,5.53,4.49,8.19,9.72,11.21,16.19,5,10.71,21.36,46.97,42.78,96.8,1.33,4.33,12.01,37.58,36.41,43.16,2.91.66,10.09,2.3,16.93-1.25,11.51-5.97,12.79-21.78,12.95-24.4Z"/>
    </clipPath>
  </defs>
  <path class="cls-30" d="m375.64,510.12c8.73,74.36,17.46,148.72,26.19,223.08.86,7.31,1.72,14.62,2.57,21.92h-106.58c-2.77-39.18-5.53-78.36-8.3-117.54-4.21,39.18-8.41,78.36-12.62,117.54h-105.92c10.74-82.01,21.47-164.03,32.21-246.04,36.68-.32,73.89-.3,111.6.09,20.44.21,40.72.53,60.85.95Z"/>
  <g class="cls-26">
    <path class="cls-4" d="m234.59,527.43h103.89v46.84c28-8.34,51.42-3.48,57.76,9.11,1.29,2.56,2.69,7.07,1.09,14.28-7.72,1.93-16.92,3.32-27.25,3.12-38.16-.76-65.22-22.78-75.21-31.88,4,4.45,8,8.9,12,13.35-12.25,5.64-45.17,18.74-85.36,9.93-20.47-4.49-35.93-13.15-45.82-19.92,8.18-4.15,17.31-9.46,26.81-16.28,13.5-9.68,24.07-19.75,32.09-28.55Z"/>
    <path class="cls-13" d="m277.7,508.9c1.61,17.41,3.16,34.93,4.65,52.56,2.51,29.72,4.79,59.16,6.86,88.32"/>
    <path class="cls-13" d="m296.97,508.34c1.04,36.6,2.27,62.6,3.98,78.36.42,3.82,1.52,13.14-3.23,16.18-3.61,2.31-9.06.03-12.11-1.54"/>
  </g>
  <path class="cls-3" d="m361.52,527.43h-127.69c17.48-95.73,34.96-191.45,52.43-287.18,28.31-.41,56.62-.82,84.93-1.23-17.15,35.55-46.78,110.51-33.63,203.24,4.79,33.79,14.2,62.44,23.95,85.17Z"/>
  <path class="cls-18" d="m227.25,471.15c16.66,19.58,31.51,22,37.35,22.41,32.75,2.31,71.47-38,83.67-103.84,1.25,52.54,2.49,105.09,3.74,157.63-41.84,1.25-83.67,2.49-125.51,3.74.25-26.65.5-53.29.75-79.94Z"/>
  <path class="cls-30" d="m384.05,73.32c-3.5-3.87-4.26-9.35-1.99-13.61,3.05-5.72,9.82-5.97,10.29-5.98,4.97-.1,9.66,2.93,11.95,7.72-3.73-2.69-8.73-2.58-12.05.12-3.83,3.11-4.69,9.04-1.62,13.46,4.29.26,10.58,1.14,17.49,4.1,22.37,9.57,30.23,31.91,31.05,34.37,5.95,17.82,4.14,43.48-9.3,59.43-4.59,5.45-14.12,14.01-11.95,20.75.21.65,1.14,3.56,3.82,4.65,3.4,1.39,6.96-1.23,7.3-1.49-.16.37-2.49,5.39-8.13,6.31-5.43.89-9.15-2.8-9.48-3.14-4.18,7.06-8.51,9.63-11.85,10.61-3.14.93-6.89.89-9.46,3.98-1.53,1.84-1.9,3.9-1.99,4.48-.24,1.44-.71,4.28,1.17,6.03,1.43,1.33,3.74,1.57,5.88.78-.81.91-4.06,4.34-9.46,4.98-.98.12-7,.72-11.79-3.82-4.58-4.34-4.51-10.05-4.48-10.96-24.55-5.94-49.1-11.88-73.66-17.82-.35.45-3.62,4.58-8.52,4.37-4.88-.21-9.39-4.65-9.96-10.71.33.46,2.39,3.23,4.98,2.99,2.42-.23,3.84-2.99,4.48-4.23,4.23-8.22-1.85-27.07-3.49-32.87-5.19-18.44-2.85-38.45,3.15-52.63,9.46-22.34,29.12-32.78,33.95-35.28,6.57-3.39,18.41-9.3,34.37-7.89,14.47,1.28,24.72,7.9,29.3,11.3Z"/>
  <path class="cls-28" d="m401.07,186.47c-2.6,6.86-7.99,17.93-18.68,27.64-2.08,1.89-31.88,28.23-59.52,16.44-14.32-6.11-20.94-19.42-24.9-27.39-10.21-20.53-7.43-40.1-6.23-47.81,1.86-11.95,6.28-40.26,31.63-55.04,15.79-9.2,39.11-12.8,57.53-2.24,29.98,17.19,30.11,62.23,20.17,88.4Z"/>
  <path class="cls-28" d="m405.49,169.89c4.25-1.32,8.52-.68,11.01,1.88,3.09,3.18,2.14,7.97,1.49,11.21-1.71,8.62-8.88,18.69-16.44,17.93-2.43-.24-4.44-1.56-5.99-3.04,2.19-3.77,4.55-8.55,6.52-14.29,1.74-5.08,2.78-9.73,3.4-13.68Z"/>
  <path class="cls-28" d="m296.29,135.35c-.31-.58-1.24-2.1-2.97-2.6,0,0-1.64-.47-3.65.49-5.83,2.79-8.56,23.39-2.15,26.58,1.18.59,2.48.48,3.49.25,1.76-8.24,3.53-16.48,5.29-24.72Z"/>
  <path class="cls-28" d="m365.44,225.82c-2.92,3.6-3.07,8.12-.9,10.6,1.52,1.74,3.78,2.03,4.65,2.09.45,4.91.3,12-3.24,18.93-11.66,22.87-54.01,31.92-70.7,13.72-8.65-9.44-8-23.58-7-30.9,5.76-.62,11.51-1.25,17.27-1.87,3.01-.33,5.73-2.08,7.1-4.78.01-.03.02-.05.03-.07.98-1.97,1.57-4.71,1.03-8.57,2.75,2.24,6.09,4.36,10.08,5.95,18.9,7.52,37.75-2.83,41.67-5.09Z"/>
  <g>
    <path class="cls-11" d="m346.17,168.03c-.9,1.85-2.73,5.03-6.17,7.9-2.08,1.73-4.16,2.87-5.91,3.61-1.68.72-2.3,2.77-1.29,4.29.57.87,1.36,1.77,2.43,2.56,2.55,1.87,5.2,1.99,6.1,1.99"/>
    <path class="cls-30" d="m360.99,159.63c-.25-.57-.61-1.6-.26-2.63,1.3-3.87,11.6-4.51,19.3-2.34,3.03.85,7.87,2.29,10.88,6.87,1.25,1.9,1.8,3.76,2.06,5.03-1.69-1.82-6.8-6.87-15.26-8.59-8.02-1.63-14.39.68-16.72,1.66Z"/>
    <g>
      <path class="cls-19" d="m359.98,169.55c.8-1.31,2.91-4.35,6.88-6.07,4.8-2.08,10.28-1.33,14.28,1.35,1.12.75,5.72,3.84,6,9.1.11,2.16-.46,5.43-2.36,6.88-3.96,3.04-13.87-1.64-24.79-11.28Z"/>
      <g>
        <path class="cls-3" d="m356.87,178.01c.62,1.09,3.6,6,9.87,7.84,7.34,2.16,13.29-1.62,14.14-2.18.28-.35,4.54-5.88,2.37-11.56-2.2-5.78-9.44-7.5-14.44-6.61-5.87,1.04-10.65,6.02-11.94,12.51Z"/>
        <path class="cls-30" d="m356.81,178.11c.06-.98.52-7.11,5.73-11.12,6.69-5.13,14.76-1.78,15.32-1.53,1.16.51,6.21,2.71,7.67,7.82.24.86,1.37,4.8-1.02,7.92-1.21,1.58-2.82,2.28-3.69,2.58.62-.93,1.46-2.48,1.73-4.54.75-5.76-3.8-9.82-4.07-10.06-3.96-3.43-9.6-3.5-13.77-1.62-6.55,2.96-7.8,9.98-7.89,10.55Z"/>
        <path class="cls-30" d="m378.7,180.47c-2.68,4.64-8.62,6.23-13.26,3.55-4.64-2.68-6.23-8.62-3.55-13.26,2.68-4.64,8.62-6.23,13.26-3.55,4.64,2.68,6.23,8.62,3.55,13.26Z"/>
        <circle class="cls-3" cx="373.84" cy="172.31" r="3.6"/>
      </g>
    </g>
    <g>
      <path class="cls-19" d="m331.29,160.55c.13-1.53.23-5.23-1.94-8.96-2.64-4.52-7.49-7.17-12.31-7.37-1.35-.06-6.89-.29-10.23,3.78-1.37,1.68-2.84,4.65-2.17,6.95,1.39,4.8,12.15,6.9,26.65,5.61Z"/>
      <g>
        <path class="cls-3" d="m328.78,169.21c-1.15.51-6.45,2.7-12.6.47-7.2-2.61-9.75-9.18-10.1-10.13-.02-.44-.17-7.42,4.94-10.72,5.2-3.35,12.05-.44,15.55,3.23,4.11,4.32,5.01,11.16,2.2,17.15Z"/>
        <path class="cls-30" d="m328.77,169.32c.53-.82,3.8-6.04,1.97-12.35-2.34-8.1-10.84-10.17-11.43-10.31-1.23-.28-6.6-1.5-10.81,1.76-.7.55-3.95,3.06-3.87,6.98.04,1.99.92,3.5,1.44,4.26.05-1.12.29-2.87,1.29-4.68,2.81-5.08,8.88-5.66,9.24-5.69,5.22-.42,9.81,2.87,12.05,6.86,3.53,6.26.37,12.66.11,13.18Z"/>
        <path class="cls-30" d="m309.74,158.25c-.59,5.33,3.25,10.13,8.58,10.72,5.33.59,10.13-3.25,10.72-8.58s-3.25-10.13-8.58-10.72c-5.33-.59-10.13,3.25-10.72,8.58Z"/>
        <circle class="cls-3" cx="323.78" cy="157.47" r="3.6"/>
      </g>
    </g>
    <path class="cls-30" d="m336.07,151.45c.54-.31,1.44-.93,1.77-1.96,1.24-3.89-6.67-10.5-14.16-13.32-2.94-1.11-7.7-2.82-12.84-.92-2.13.79-3.68,1.96-4.64,2.83,2.44-.47,9.55-1.51,17.38,2.12,7.42,3.44,11.19,9.07,12.49,11.24Z"/>
    <path class="cls-11" d="m313.59,195.23c5.96,3.34,15.4,7.63,27.66,9.37,7.97,1.13,14.92.86,20.27.23"/>
    <path class="cls-11" d="m319.53,205.4c3.66,2.05,9.45,4.68,16.97,5.75,4.89.69,9.16.53,12.44.14"/>
  </g>
  <path class="cls-19" d="m313.69,224.96c3.79,2.65,11.41,7.16,21.88,8.07,10.25.89,18.27-2.11,22.51-3.75,3.09-1.19,5.58-2.47,7.36-3.47-.57.68-1.47,1.93-1.98,3.73-.41,1.44-.41,2.68-.35,3.5-2.44,15.97-15.96,27.62-31.03,27.63-13.12,0-25.22-8.82-29.69-21.95,4.23.24,8.2-1.75,10.27-5.19,2.3-3.84,1.24-7.83,1.03-8.57Z"/>
  <path class="cls-30" d="m352.26,156.08c6.97,6.24,14.75,8.09,18.68,8.72-1.4-2.81-2.79-6.05-3.98-9.71-2.49-7.63-3.31-14.54-3.49-19.92.45,3.92,1.66,10.2,5.28,17.02,2.48,4.66,5.09,9.57,10.38,13.08,8.67,5.76,16.63,2.51,19.2,7.25.99,1.83,1.27,5.03-2.24,10.96,1.64-.45,5.59-1.75,8.97-5.48,3.79-4.17,4.54-8.81,4.73-10.46,1.67-3.7,12.05-27.74.25-51.3-12.45-24.85-43.12-36.23-69.73-29.14-26.48,7.07-45.58,31.55-46.32,60.02,1.16-4.54,3.63-11.56,9.21-18.43,5.3-6.53,11-9.97,13.95-11.7,5.2-3.07,9.99-4.76,13.45-5.73-1.64,3.33-4.67,10.68-3.49,19.92,2.22,17.35,17.3,26.1,19.18,27.14-2.11-2.87-5.78-8.67-7.22-16.93-1.49-8.58.17-15.5,1.25-18.93-.24,2.19-2.01,21.12,11.95,33.62Z"/>
  <path class="cls-14" d="m369.19,238.51c20.07,5.12,33.34,7.56,42.09,8.84,1.34.2,3.69.53,6.64,1.66,15.27,5.86,20.36,23.1,20.59,23.91,1.28,4.59,1.32,8.28,1.33,10.29.08,18.9-.19,36.6-.42,47.98-.9,20.89-1.8,41.77-2.71,62.66-.38,8.76-4.65,17.04-11.91,21.96-2.94,1.99-6.28,3.44-9.87,4.2-11.03,2.33-22.47-2.27-28.89-11.62-.91,24.8.9,61.41,14.96,102.58,7.95,23.29,17.93,42.49,27.21,57.46-11.03,4.1-25.4,8.18-42.5,9.96-29.02,3.03-52.95-1.91-68.07-6.39-6.23-2.58-17.83-8.41-27.75-20.54-14.08-17.21-15.68-36.02-15.94-42.58,15.11-72.8,30.22-145.6,45.32-218.4,6.37-2.36,14.67-6.31,23.03-13.04,16.97-13.66,24.07-30.65,26.88-38.94Z"/>
  <g>
    <g>
      <path class="cls-3" d="m336.44,321.8c.48-2.25.97-4.5,1.45-6.75q.06-.28.35-.22c3.59.77,7.18,1.54,10.77,2.32q.28.06.22.34c-.2.93-.4,1.86-.6,2.79,0,.04-.02.08-.03.12-.04.13-.06.15-.19.13-.06,0-.12-.02-.18-.04-2.28-.49-4.56-.98-6.84-1.47q-.28-.06-.34.22c-.11.51-.22,1.03-.33,1.54-.01.05-.02.11-.03.16-.01.07.02.12.09.13.06.02.13.03.19.05,2.27.49,4.54.98,6.8,1.46.38.08.33.09.26.39-.18.84-.36,1.67-.54,2.51-.01.05-.02.09-.03.14-.04.13-.06.14-.19.12-.06,0-.12-.02-.18-.04-2.27-.49-4.55-.98-6.82-1.47q-.29-.06-.35.23c-.12.55-.24,1.1-.35,1.65-.01.05-.02.11-.03.16,0,.06.02.1.08.12.06.02.13.03.19.04,2.29.49,4.57.98,6.86,1.48q.29.06.23.35c-.2.92-.4,1.85-.6,2.77,0,.02,0,.04-.01.05-.05.23-.05.23-.29.18-3.62-.78-7.25-1.56-10.87-2.34-.23-.05-.23-.05-.18-.29.49-2.28.98-4.56,1.47-6.84Z"/>
      <path class="cls-3" d="m366.66,320.94c2.24.48,4.49.97,6.73,1.45.35.08.32.06.25.4-.2.95-.41,1.91-.61,2.86q-.06.26-.32.21c-1.23-.26-2.46-.53-3.68-.79-.28-.06-.27-.07-.33.21-.54,2.49-1.08,4.98-1.6,7.47-.18.86-.67,1.42-1.43,1.79-.69.34-1.43.45-2.2.41-.26-.01-.51-.03-.76-.09-.16-.04-.18-.06-.15-.22.01-.06.02-.12.04-.18.72-3.34,1.44-6.68,2.15-10.01.07-.32.07-.29-.24-.36-1.79-.39-3.59-.77-5.38-1.16q-.28-.06-.22-.34c.21-.97.42-1.94.63-2.91.05-.25.06-.26.31-.2,2.27.49,4.54.98,6.8,1.46Z"/>
      <path class="cls-6" d="m357.99,326.77c.06-.06.06-.13.07-.19.16-.74.32-1.48.48-2.23.01-.07,0-.17.08-.19.08-.02.1.09.14.14.93,1.44,1.85,2.87,2.78,4.31.08.13.1.24.07.39-.37,1.7-.73,3.4-1.1,5.1-.05.25-.06.25-.31.2-.54-.12-1.07-.23-1.61-.34-.13-.03-.22-.08-.27-.2-.01-.03-.03-.06-.05-.09-.36-.58-.73-1.15-1.08-1.73-.43-.7-.86-1.39-1.29-2.09-.41-.66-.81-1.32-1.22-1.98-.43-.69-.85-1.38-1.28-2.08-.19-.32-.39-.63-.59-.94-.03-.05-.06-.1-.12-.14-.05.05-.05.12-.07.18-.12.55-.24,1.1-.36,1.65-.01.06-.01.13-.06.18-.07,0-.09-.07-.11-.11-.94-1.46-1.88-2.91-2.82-4.37-.06-.1-.08-.19-.06-.3.31-1.44.62-2.88.93-4.31.04-.2.06-.21.25-.17.74.16,1.47.32,2.21.47.12.03.2.09.26.19.27.47.54.93.81,1.39.37.62.73,1.25,1.1,1.87.22.38.45.76.67,1.14.4.67.79,1.35,1.19,2.02.26.44.53.88.79,1.33.15.26.31.53.46.79.02.04.04.09.1.12Z"/>
      <path class="cls-17" d="m348.98,331.9c-1.14-.25-1.87-1.37-1.62-2.52.25-1.14,1.38-1.87,2.52-1.62,1.14.25,1.87,1.38,1.62,2.53-.25,1.14-1.38,1.87-2.52,1.62Z"/>
    </g>
    <path class="cls-9" d="m356.72,379.23l-33.22-7.15c-1.97-.42-3.15-2.67-2.65-5.02l7.52-34.94c7.24,1.56,14.47,3.11,21.71,4.67,6.21,1.34,12.42,2.67,18.63,4.01l-7.52,34.94c-.51,2.35-2.51,3.91-4.48,3.49Z"/>
    <path class="cls-9" d="m328.37,332.13c13.45,2.89,26.91,5.79,40.36,8.68-.8,3.66-1.59,7.33-2.39,10.99-7.34,1.42-14.68,2.84-22.02,4.26-6.11-4.31-12.21-8.62-18.32-12.94l2.37-11Z"/>
  </g>
  <path class="cls-14" d="m288.26,240.26c-3.71-.01-9.09,0-15.61.13-7.92.16-11.93.25-14.28.66-9.17,1.63-15.63,6.09-20.42,9.46-4.28,3.01-8.12,6.44-14.94,14.11-5.68,6.39-13.18,15.45-21.24,27.22-9.85,34.09-19.71,68.18-29.56,102.27,1.96.74,3.85,1.15,5.64,1.33,21.64,2.09,39.45-29.76,41.5-33.54-12.8,31.71-25.59,71.19-33.95,117.46-5.47,30.29-8.09,58.23-9.05,83.01,11.56,4.03,25.32,7.85,41.01,10.38,27.37,4.41,51.17,3.39,69.04,1.13-3.14-4.12-6.37-9.26-9.03-15.47-8.9-20.84-5.59-40.52-3.42-49.52,15.11-72.8,30.22-145.6,45.32-218.4-4.78-6.44-9.56-12.87-14.34-19.31-5.56-10.31-11.12-20.62-16.68-30.92Z"/>
  <path class="cls-1" d="m194.52,390.8c2.42-32.98,4.83-65.97,7.25-98.95,1.52,14.14,3.04,28.28,4.56,42.42,1.92,1.98,4.98,5.7,6.77,11.21,2.8,8.66.61,16.1-.29,18.71,1.68-2.43,3.34-4.92,4.98-7.47,10.29-15.98,18.2-31.84,24.32-46.94-6.85,22-14.36,44.61-22.58,67.74-6.07,17.07-12.26,33.67-18.52,49.78,6.12-21.79,12.24-43.59,18.36-65.38-2.34,4.5-5.77,10.08-10.72,15.85-4.98,5.8-10.01,10.04-14.12,13.04Z"/>
  <path class="cls-5" d="m204.2,334.86c1.02,1.53,2.4,3.83,3.62,6.79,6.74,16.37-.07,31.9-.51,32.87-1.51,3.32-7.8,16.9-21.4,20.24-4.07,1-7.66.73-10.05.36,9.45-20.08,18.89-40.17,28.34-60.25Z"/>
  <path class="cls-29" d="m152.95,367.55c.22,3.62.7,10.08,4.98,16.27,1.59,2.3,7.73,10.39,17.93,11.29,13.43,1.19,22.33-11.11,23.91-13.28,4.71-6.51,5.83-13.43,6.31-16.6.92-6.11.24-10.87,0-12.62-4.06-29.48-3.95-73.85-6.58-93.35-.11-.81-.47-3.43-.39-6.92.03-1.5.15-5.66,1.33-9.63,1.62-5.46,4.16-6.89,6.97-11.62,1.91-3.22,4.03-8.12,4.65-15.27-10.24-17.6-20.48-35.2-30.71-52.79-.44-1.27-.94-3.32-.66-5.81.09-.77.33-2.68,1.49-4.65,2.1-3.55,5.76-4.85,7.66-5.52,2.31-.82,4.36-1.03,8.45-1.45,3.84-.4,5.99-.3,7.47-1.99.18-.21,1.08-1.28,1.16-2.82.13-2.42-1.84-4.05-2.16-4.32-.48-.4-1.29-.94-3.82-1.49-4.34-.95-7.92-.67-9.48-.5-1.21.13-2.63.3-4.46.83-.79.23-3.04.93-6.97,3.32-2.93,1.78-4.41,2.68-5.73,3.98-2.39,2.37-3.33,5.13-4.73,11.87-.89,4.26-1.88,9.7-2.7,16.1-1.44.97-3.63,2.44-6.33,4.23-3.41,2.26-3.8,2.48-4.31,2.91-3.3,2.79-4.93,7.94-3.87,12.93,2.28,10.69,4.47,20.97,6.07,28.5,2.72,12.74,3.38,15.81,3.82,21.25.49,6.07.19,12.85-1.66,32.71-.63,6.73-1.48,12.93-3.15,25.07-2.44,17.65-6.02,43.6-4.48,69.4Z"/>
  <path class="cls-19" d="m166.86,170.57c4.89-2.41,9.78-4.82,14.68-7.23-.37-.9-.81-2.27-.91-3.99-.11-1.8.19-3.27.46-4.22-4.53,3.63-9.06,7.27-13.59,10.9-.21,1.51-.42,3.03-.63,4.54Z"/>
  <g class="cls-20">
    <path class="cls-19" d="m187.9,244.66c3.64-.9,13.95-3.96,20.84-13.74,2.01-2.86,7.11-10.09,5.56-19.13-.21-1.24-1.98-10.73-8.05-12.58-3.31-1.01-8.4,2.99-18.59,10.98-1.56,1.22-3.15,2.52-3.49,4.58-.45,2.68,1.6,4.27,4.48,9.46,2.14,3.85,3.51,6.33,3.74,9.24.16,2.01-.09,6-4.49,11.18Z"/>
  </g>
  <g>
    <rect class="cls-30" x="180.18" y="152.56" width="113.81" height="61.09" rx="5.64" ry="5.64"/>
    <path class="cls-24" d="m193.67,142.93h16.14c2.1,0,3.8,1.7,3.8,3.8v5.84h-23.74v-5.84c0-2.1,1.7-3.8,3.8-3.8Z"/>
    <path class="cls-24" d="m266.65,146.45h19.47c1.18,0,2.13.96,2.13,2.13v3.98h-23.74v-3.98c0-1.18.96-2.13,2.13-2.13Z"/>
    <circle class="cls-25" cx="250.65" cy="182.36" r="20.82"/>
    <circle class="cls-15" cx="250.65" cy="182.36" r="16.82"/>
    <circle class="cls-22" cx="250.65" cy="182.36" r="11.78"/>
    <circle class="cls-3" cx="251.14" cy="178.14" r="4.48"/>
    <circle class="cls-3" cx="253.97" cy="187.01" r="2.83"/>
    <circle class="cls-3" cx="243.78" cy="184.18" r="1.69"/>
    <rect class="cls-25" x="208.32" y="159.32" width="15.5" height="6.59"/>
    <rect class="cls-25" x="267.2" y="155.71" width="18.37" height="6.59"/>
  </g>
  <g>
    <path class="cls-29" d="m181.53,163.35c2.87-.05,5.73-.1,8.6-.14,3.8-.06,7.52,1.13,10.57,3.41l7.5,5.59c4.86,3.62,9.08,8.05,12.47,13.08l1.99,2.95c.84,1.25,1.29,2.75,1.14,4.25-.09.88-.38,1.8-1.06,2.51-1.88,1.98-6.33,1.91-9.43-1.5,3.49,5.07,5.35,9.63,6.39,12.87,1.36,4.22,1.22,5.81.5,6.97-.48.79-1.2,1.34-2.01,1.73-2.96,1.41-6.52.13-8.22-2.67-1.13-1.84-2.25-3.69-3.38-5.53l.98,6.27c.29,1.83-.42,3.46-1.65,4.02-1,.45-2.04.06-2.19,0-1.29-.51-2-1.92-2.49-2.89-.02-.05-.11-.21-.27-.55-.5-1.03-1.24-2.56-2.09-4.36-.97-2.5-2.34-3.97-3.33-4.81-4.46-3.77-11.91-3.73-18.84,0-5.04-6.47-10.07-12.95-15.11-19.42-.24-1.66-.17-3.34.33-4.98,1.26-4.11,4.61-5.9,13.28-12.12,2.49-1.79,4.63-3.37,6.33-4.65Z"/>
    <g class="cls-16">
      <g>
        <path class="cls-19" d="m215.02,195.62c-1.8-1.03-3.15-2.53-4.61-3.9l-4.35-4.17-8.7-8.33c-1.08-.82-3.58-1.69-5.39-1.37,0,0-2.08.29-2.08.29-5.43.77-19.91,2.7-25.52,3.44-.53.07-1.02-.3-1.1-.84-.07-.53.3-1.03.84-1.1,0,0,17-2.23,17-2.23l8.51-1.08,2.17-.27c2.38-.24,4.87.46,6.74,1.95,2.8,2.8,10.07,10.06,12.78,12.78.49.51,5.14,4.92,3.71,4.82h0Z"/>
        <path class="cls-19" d="m208.17,211.44c-1.43-3.78-3.59-7.17-5.66-10.58-3.69-7.24-11.85-9.77-19.5-10.02-3.91-.13-7.87.2-11.77.85-.53.09-1.03-.26-1.12-.79-.09-.51.24-.99.74-1.1,9.82-2.11,21.79-2.25,29.59,5.04,3.05,3,4.45,6.93,5.95,10.79.72,1.9,1.24,3.86,1.9,5.76.03.09-.11.15-.14.05h0Z"/>
      </g>
    </g>
  </g>
  <path class="cls-1" d="m390.89,309.12c.95-5.85,1.89-11.69,2.84-17.54,1.75,10.38,3.51,20.77,5.26,31.15-2.7-4.54-5.4-9.07-8.1-13.61Z"/>
  <path class="cls-7" d="m435.18,394.2c.63-10.28-3.62-18.53-9.21-29.39-3.22-6.25-6.22-10.61-6.97-11.7-25.87-37.61-26.48-44.45-50.55-77.45-5.2-7.13-12.35-16.65-19.42-30.88-1.39-2.8-3.25-6.93-6.97-15.19-8.18-18.16-12.27-27.25-12.62-28.67-.17-.7-.57-2.41-1.82-4.2-2.11-2.98-5.14-4.04-9.46-5.48-9.47-3.16-14.27-4.75-17.43-5.35-8.66-1.66-11.15-.81-12.2-.37-2.33.96-4.47,2.35-6.72,5.98-5.38,8.66-12.72,20.48-8.72,24.65.82.85,2.47,1.77,6.23,1.25-2.6,2.54-2.56,6.76,0,9.21,2.6,2.49,6.9,2.3,9.3-.5,2.31,1.57,5.79,4.35,8.47,8.8,5.01,8.33,2.19,14.21,7.64,21.08,3.18,4.02,4.63,3.2,10.21,7.72,5.53,4.49,8.19,9.72,11.21,16.19,5,10.71,21.36,46.97,42.78,96.8,1.33,4.33,12.01,37.58,36.41,43.16,2.91.66,10.09,2.3,16.93-1.25,11.51-5.97,12.79-21.78,12.95-24.4Z"/>
  <path class="cls-30" d="m288.32,226.37c2.8,2.27,6.14,5.44,9.33,9.7,4.77,6.38,7.23,12.6,8.54,16.95,4.36,12.49,8.73,24.98,13.09,37.47-12.45-15.94-24.9-31.88-37.35-47.81,2.13-5.43,4.26-10.87,6.39-16.3Z"/>
  <path class="cls-30" d="m288.32,226.37h10.59c-.06.92-.19,1.94-.43,3.02-.7,3.21-2.06,5.68-3.21,7.35-2.32-3.46-4.63-6.91-6.95-10.37Z"/>
  <path class="cls-1" d="m288.32,226.37c-5,4.79-10,9.58-15,14.37,1.67.51,4.08,1.5,6.22,3.56,5.28,5.06,5.82,12.31,6.28,15.89.87,6.76,4,16.17,14.03,27.56-.91-3.2-1.62-7.84-.25-12.95.8-2.99,1.71-6.38,4.73-7.72,3.02-1.34,6.26.19,7.12.63-7.71-13.78-15.43-27.56-23.14-41.34Z"/>
  <path class="cls-30" d="m370,228.03c-16.91,20.82-33.81,41.64-50.72,62.45,11.51-4.65,23.02-9.3,34.53-13.95,7.16-11.39,14.32-22.79,21.48-34.18-1.76-4.78-3.53-9.55-5.29-14.33Z"/>
  <path class="cls-1" d="m370,228.03c5,4.79,10,9.58,15,14.37-1.67.51-4.08,1.5-6.22,3.56-5.72,5.49-6.08,13.73-6.28,15.89-.72,7.54-8.93,18.6-41.89,33.99-.49-3.11-.97-6.23-1.46-9.34,25.74-14.06,34.18-19.19,33.89-19.75-.31-.61-9.97,5.27-14,1.95-2.84-2.34-1.98-8.49.25-15.44,6.9-8.41,13.81-16.82,20.71-25.23Z"/>
  <path class="cls-30" d="m370,228.03c-1.85,2.76-3.7,5.52-5.55,8.28-.45-.56-1.04-1.45-1.35-2.66-.77-3,.81-5.51,1.15-6.02,1.92.13,3.83.26,5.75.39Z"/>
  <path class="cls-2" d="m375.17,419.85c3.63,3.4,7.26,6.8,10.89,10.2-.03-4.97-.04-9.97-.03-14.99,0-2.23,0-4.45.02-6.67-15.88-33.78-31.75-67.56-47.63-101.35-1.44,3.95-2.89,7.91-4.34,11.86,7.23,13.89,14.49,29.2,21.42,45.9,8.08,19.47,14.51,37.95,19.67,55.03Z"/>
  <path class="cls-2" d="m337.94,308.53c.34-2.13,2.53-17.2-6.85-25.15-1.19-1.01-2.72-2.03-4.67-2.86-1.87.11-3.73.22-5.6.33,4.42,12.69,8.84,25.38,13.26,38.06"/>
  <path class="cls-19" d="m326.26,280.22c.25-1.02,2.11-9.14-3.33-16.14-6.38-8.22-16.79-7.15-17.32-7.08l-.05,6.27c2.22,1.36,4.95,3.34,7.66,6.15,4.01,4.17,6.31,8.45,7.6,11.42,1.81-.21,3.63-.42,5.44-.62Z"/>
  <g class="cls-27">
    <path class="cls-23" d="m281.04,231.42c-.59,4.71,1.37,10.46,5.89,12.78,1.77.91,3.48,1.06,4.57,1.07-.31,8.16,2.58,11.92,3.98,13.38,1.96,2.04,5.64,3.89,13.01,7.6,1.23.62,2.26,1.12,2.97,1.46-1.95-7.28-3.9-14.56-5.85-21.85-6.64-7.66-13.28-15.33-19.92-22.99-1.09.98-4.07,3.92-4.65,8.55Z"/>
  </g>
  <g>
    <path class="cls-8" d="m435.18,394.2c.63-10.28-3.62-18.53-9.21-29.39-3.22-6.25-6.22-10.61-6.97-11.7-25.87-37.61-26.48-44.45-50.55-77.45-5.2-7.13-12.35-16.65-19.42-30.88-1.39-2.8-3.25-6.93-6.97-15.19-8.18-18.16-12.27-27.25-12.62-28.67-.17-.7-.57-2.41-1.82-4.2-2.11-2.98-5.14-4.04-9.46-5.48-9.47-3.16-14.27-4.75-17.43-5.35-8.66-1.66-11.15-.81-12.2-.37-2.33.96-4.47,2.35-6.72,5.98-5.38,8.66-12.72,20.48-8.72,24.65.82.85,2.47,1.77,6.23,1.25-2.6,2.54-2.56,6.76,0,9.21,2.6,2.49,6.9,2.3,9.3-.5.09.92.68,6.33,2.03,8.97.19.37.47.84.93,1.29.39.39,1.62,1.62,3.35,1.45,1.84-.19,2.8-1.81,2.91-1.99.14,1.15,1.85,14.29,6.89,20.17,1.05,1.22,2.24,2.33,2.24,2.33,1.98,1.62,3.85,2.04,7.97,5.38,5.53,4.49,8.19,9.72,11.21,16.19,5,10.71,21.36,46.97,42.78,96.8,1.33,4.33,12.01,37.58,36.41,43.16,2.91.66,10.09,2.3,16.93-1.25,11.51-5.97,12.79-21.78,12.95-24.4Z"/>
    <g class="cls-21">
      <g>
        <path class="cls-11" d="m322.79,260.31c-1.99-1.35-6.71-4.96-8.96-11.46-.31-.91-3.72-11.14,1.16-17.93,1.16-1.61,2.53-2.7,2.66-4.81.16-2.66-1.75-5.36-4.07-6.64-3.47-1.91-8.06-.77-10.63,1.58-3.06,2.8-4.27,8.25-4.79,10.6-.48,2.15-.75,4.47-2.34,5.14-1.15.48-2.41-.14-2.7-.29-2.53-1.25-3.1-4.71-3.36-6.41-.43-2.86-.14-5.68,1-9.3,1.77-5.63,4.01-12.76,9.21-14.11,1.5-.39,2.51-.11,8.34,1.68,3.18.98,7.32,2.26,12.2,3.8"/>
        <path class="cls-11" d="m314.49,200.21c-2.81-1.08-7.08-2.5-12.45-3.49-1.98-.36-6.77-1.91-10.46-.5-.79.31-1.4.69-1.49.75-2.14,1.37-3.09,3.4-3.78,4.98-1.79,4.1-3.97,9.95-4.61,11.62-.26.67-.78,2.03-1.89,3.53-.57.77-.74.83-1.06,1.29-1.03,1.48-1.67,4.34-.19,6.62,1.51,2.31,4.4,2.76,6.39,2.41,3.14-.55,4.66-3.18,4.87-3.56-.39,1.08-.94,2.67-1.51,4.62-1.45,5.02-1.15,6.04-1.99,6.97-3.37,3.73-18.19-1.59-18.18-6.23,0-2.63,4.76-3.44,10.6-10.83,1.31-1.66,2.59-3.54,2.46-3.65-.08-.07-.61.64-1.61,1.22-.22.13-1.6.9-3.11.81-2.12-.13-3.82-1.92-4.56-3.54-.97-2.13-.38-4.18.26-6.42.68-2.36,1.74-4.11,2.49-5.17"/>
        <path class="cls-10" d="m289.83,223.86c-.38.85-1.03,2.02-2.15,3.12-2.39,2.35-5.27,2.81-6.33,2.93"/>
      </g>
    </g>
  </g>
  <path class="cls-1" d="m319.28,290.49c.87.31-19.13,47.49-31.13,101.85-12.13,55-12.74,102.27-11.04,135.09-.84-2.74-1.63-5.91-2.22-9.45-.55-3.32-.83-6.37-.94-9.09-.79,7.76-1.59,15.52-2.38,23.28-.17-11.45-.11-28.07,1.05-48.1,1.47-25.34,3.44-56.75,12.95-95.29,5.1-20.68,10.83-37.15,16.27-52.79,8.03-23.1,16.83-45.7,17.43-45.49Z"/>
  <circle class="cls-1" cx="324.6" cy="296.55" r="3.78"/>
  <circle class="cls-30" cx="324.13" cy="295.9" r="3.13"/>
  <circle class="cls-1" cx="312.39" cy="333.18" r="3.78"/>
  <circle class="cls-30" cx="311.93" cy="332.53" r="3.13"/>
  <circle class="cls-1" cx="298.91" cy="374.06" r="3.78"/>
  <circle class="cls-30" cx="298.44" cy="373.41" r="3.13"/>
  <circle class="cls-1" cx="289.25" cy="417.03" r="3.78"/>
  <circle class="cls-30" cx="288.79" cy="416.38" r="3.13"/>
  <circle class="cls-1" cx="283.92" cy="470.4" r="3.78"/>
  <circle class="cls-30" cx="283.45" cy="469.75" r="3.13"/>
</svg>