<?xml version="1.0" encoding="UTF-8"?>
<svg xmlns="http://www.w3.org/2000/svg" xmlns:xlink="http://www.w3.org/1999/xlink" viewBox="0 0 1080 1080">
  <defs>
    <style>
      .cls-1 {
        fill: #4b0263;
      }

      .cls-1, .cls-2, .cls-3, .cls-4 {
        stroke: #fff;
        stroke-linecap: round;
        stroke-linejoin: round;
        stroke-width: 25px;
      }

      .cls-5 {
        fill: #fff;
      }

      .cls-2 {
        fill: #00a2e8;
      }

      .cls-6 {
        isolation: isolate;
      }

      .cls-7, .cls-4 {
        fill: #c7a369;
      }

      .cls-8 {
        fill: #25a79f;
      }

      .cls-9 {
        clip-path: url(#clippath-1);
      }

      .cls-10 {
        fill: #199185;
      }

      .cls-11 {
        clip-path: url(#clippath);
      }

      .cls-3 {
        fill: #ff4900;
      }

      .cls-12 {
        fill: none;
      }

      .cls-13 {
        fill: #0c4b6e;
      }

      .cls-14 {
        fill: #6a9aa5;
      }

      .cls-15 {
        mix-blend-mode: multiply;
      }
    </style>
    <clipPath id="clippath">
      <rect class="cls-12" x="467.82" y="755.48" width="147.13" height="36.28" rx=".84" ry=".84"/>
    </clipPath>
    <clipPath id="clippath-1">
      <path class="cls-12" d="m688.74,543.82l-132.03-216.62c-2.07-3.39-7.29-1.92-7.27,2.06l.68,193.61c8.13,2.29,14.1,9.73,14.13,18.6.04,10.72-8.62,19.44-19.34,19.48-10.72.04-19.44-8.62-19.48-19.34-.03-9.03,6.12-16.62,14.46-18.82l-.68-194.08c-.01-3.91-5.12-5.39-7.23-2.1l-140.68,219.99c-.69,1.08-.81,2.43-.32,3.61l36.75,57.25c18.79,29.27,31.13,62.21,36.19,96.63l5.06,34.41c.61,1.47,2.05,2.43,3.64,2.42l137.82-.48c1.61,0,3.05-.99,3.64-2.49l3.78-38.96c3.21-33.05,14.38-64.84,32.55-92.63l38.63-59.06c.45-1.14.34-2.43-.3-3.48Z"/>
    </clipPath>
  </defs>
  <g class="cls-6">
    <g id="Layer_1" data-name="Layer 1">
      <g>
        <g>
          <path class="cls-3" d="m330.67,801.68c120.02,96.02,227.22,91.03,296.01,69.92,74.71-22.92,121.67-69.22,122.14-69.69l4.47,4.47c-.48.47-48.36,47.75-124.49,71.18-70.31,21.63-179.79,26.88-302.08-70.95l3.95-4.94Z"/>
          <rect class="cls-3" x="529.49" y="877.2" width="20.75" height="20.75" transform="translate(1079.74 1775.15) rotate(180)"/>
          <rect class="cls-3" x="316.34" y="791.3" width="20.75" height="20.75" transform="translate(653.43 1603.36) rotate(180)"/>
          <rect class="cls-3" x="742.91" y="791.3" width="20.75" height="20.75" transform="translate(1506.57 1603.36) rotate(180)"/>
        </g>
        <g>
          <path class="cls-1" d="m688.74,545.69l-132.03-216.62c-2.07-3.39-7.29-1.92-7.27,2.06l.68,193.61c8.13,2.29,14.1,9.73,14.13,18.6.04,10.72-8.62,19.44-19.34,19.48-10.72.04-19.44-8.62-19.48-19.34-.03-9.03,6.12-16.62,14.46-18.82l-.68-194.08c-.01-3.91-5.12-5.39-7.23-2.1l-140.68,219.99c-.69,1.08-.81,2.43-.32,3.61l36.75,57.25c18.79,29.27,31.13,62.21,36.19,96.63l5.06,34.41c.61,1.47,2.05,2.43,3.64,2.42l137.82-.48c1.61,0,3.05-.99,3.64-2.49l3.78-38.96c3.21-33.05,14.38-64.84,32.55-92.63l38.63-59.06c.45-1.14.34-2.43-.3-3.48Z"/>
          <rect class="cls-1" x="467.82" y="757.35" width="147.13" height="36.28" rx=".84" ry=".84"/>
        </g>
        <g>
          <path class="cls-2" d="m750.31,356.87c-117.56-94.05-222.56-89.15-289.94-68.48-73.18,22.45-119.18,67.8-119.63,68.26l-4.38-4.38c.47-.47,47.37-46.77,121.94-69.72,68.87-21.19,176.1-26.33,295.88,69.49l-3.87,4.83Z"/>
          <path class="cls-2" d="m345.04,359.16c0,6.63-5.38,12.01-12.01,12.01s-12.01-5.38-12.01-12.01,5.38-12.01,12.01-12.01,12.01,5.38,12.01,12.01Z"/>
          <path class="cls-2" d="m764.26,359.16c0,6.63-5.38,12.01-12.01,12.01s-12.01-5.38-12.01-12.01,5.38-12.01,12.01-12.01,12.01,5.38,12.01,12.01Z"/>
          <rect class="cls-2" x="535.24" y="262.58" width="20.33" height="20.33"/>
          <rect class="cls-2" x="750.69" y="259.59" width="20.33" height="20.33"/>
          <rect class="cls-2" x="328.39" y="262.33" width="20.33" height="20.33"/>
          <rect class="cls-2" x="341.14" y="268.03" width="419.13" height="6.19" transform="translate(-1.7 3.49) rotate(-.36)"/>
        </g>
      </g>
      <g>
        <g>
          <path class="cls-14" d="m330.67,799.81c120.02,96.02,227.22,91.03,296.01,69.92,74.71-22.92,121.67-69.22,122.14-69.69l4.47,4.47c-.48.47-48.36,47.75-124.49,71.18-70.31,21.63-179.79,26.88-302.08-70.95l3.95-4.94Z"/>
          <rect class="cls-14" x="529.49" y="875.33" width="20.75" height="20.75" transform="translate(1079.74 1771.4) rotate(180)"/>
          <rect class="cls-14" x="316.34" y="789.43" width="20.75" height="20.75" transform="translate(653.43 1599.61) rotate(180)"/>
          <rect class="cls-14" x="742.91" y="789.43" width="20.75" height="20.75" transform="translate(1506.57 1599.61) rotate(180)"/>
        </g>
        <g>
          <path class="cls-8" d="m688.74,543.82l-132.03-216.62c-2.07-3.39-7.29-1.92-7.27,2.06l.68,193.61c8.13,2.29,14.1,9.73,14.13,18.6.04,10.72-8.62,19.44-19.34,19.48-10.72.04-19.44-8.62-19.48-19.34-.03-9.03,6.12-16.62,14.46-18.82l-.68-194.08c-.01-3.91-5.12-5.39-7.23-2.1l-140.68,219.99c-.69,1.08-.81,2.43-.32,3.61l36.75,57.25c18.79,29.27,31.13,62.21,36.19,96.63l5.06,34.41c.61,1.47,2.05,2.43,3.64,2.42l137.82-.48c1.61,0,3.05-.99,3.64-2.49l3.78-38.96c3.21-33.05,14.38-64.84,32.55-92.63l38.63-59.06c.45-1.14.34-2.43-.3-3.48Z"/>
          <rect class="cls-8" x="467.82" y="755.48" width="147.13" height="36.28" rx=".84" ry=".84"/>
          <g class="cls-11">
            <rect class="cls-10" x="544.43" y="726.79" width="70.52" height="73.02"/>
          </g>
          <g class="cls-9">
            <rect class="cls-10" x="544.43" y="324.78" width="244.94" height="623.37"/>
          </g>
        </g>
        <g>
          <g class="cls-15">
            <path class="cls-13" d="m750.31,356.87c-117.56-94.05-222.56-89.15-289.94-68.48-73.18,22.45-119.18,67.8-119.63,68.26l-4.38-4.38c.47-.47,47.37-46.77,121.94-69.72,68.87-21.19,176.1-26.33,295.88,69.49l-3.87,4.83Z"/>
          </g>
          <path class="cls-13" d="m345.04,359.16c0,6.63-5.38,12.01-12.01,12.01s-12.01-5.38-12.01-12.01,5.38-12.01,12.01-12.01,12.01,5.38,12.01,12.01Z"/>
          <path class="cls-13" d="m764.26,359.16c0,6.63-5.38,12.01-12.01,12.01s-12.01-5.38-12.01-12.01,5.38-12.01,12.01-12.01,12.01,5.38,12.01,12.01Z"/>
          <rect class="cls-13" x="535.24" y="262.58" width="20.33" height="20.33"/>
          <g class="cls-15">
            <rect class="cls-13" x="341.91" y="267.26" width="419.13" height="6.19" transform="translate(-1.7 3.49) rotate(-.36)"/>
          </g>
          <rect class="cls-13" x="750.69" y="259.59" width="20.33" height="20.33"/>
        </g>
        <g>
          <g>
            <path class="cls-4" d="m779.73,669.69c18.49-14.47,35.16-31.23,49.65-49.7.19.27.37.54.59.8.37.46.76.89,1.15,1.29-3.54,4.52-7.18,8.98-11,13.27-20.96,23.6-45.72,43.85-73.1,59.55-15.42,8.85-31.63,16.26-48.44,22.04-1.61.56-2.6-1.91-.98-2.47,29.66-10.2,57.44-25.48,82.13-44.8Z"/>
            <path class="cls-4" d="m790.95,661.53c14.72,10.05,34.4,20.82,53.51,25.52,10.81,2.66,22.55,4.38,34.07,2.3,5.45-.98,11.12-3.07,13.91-6.85,4.15-5.61.14-12.46-5.99-16.22-6.63-4.07-15.29-5.84-23.83-7.14-22.73-3.45-48.08.43-71.67,2.38"/>
            <path class="cls-4" d="m820.62,632.53c19.67,5.51,44.99,9.98,67.45,8.07,12.71-1.08,26.09-3.52,37.83-10,5.56-3.07,10.94-7.42,12.59-12.54,2.45-7.61-4.42-13.58-12.45-15.41-8.69-1.99-18.74-.73-28.5,1-25.94,4.59-52.04,18.1-76.93,28.88"/>
            <path class="cls-4" d="m826.2,626.77c22.02-14.11,47.86-34.51,65.18-57.61,9.8-13.07,18.86-27.94,22.67-44.69,1.8-7.92,2.23-16.78-1.27-22.72-5.19-8.82-16.75-7.34-25.34-1.23-9.3,6.62-16.66,17.3-23.32,28.09-17.71,28.71-27.02,65.17-37.92,98.15"/>
            <path class="cls-4" d="m821.69,631.17c3.59-14.93,5.78-34.74,2.23-53.61-2-10.68-5.33-22.2-12.31-33.27-3.3-5.24-7.78-10.62-12.7-13.1-7.3-3.69-12.33.64-13.41,6.83-1.17,6.7.79,15.23,3.17,23.62,6.32,22.31,20.99,46.72,33.01,69.53"/>
            <path class="cls-4" d="m790.95,661.53c3.59-14.93,5.78-34.74,2.23-53.61-2-10.68-5.33-22.2-12.31-33.27-3.3-5.24-7.78-10.62-12.7-13.1-7.3-3.69-12.33.64-13.41,6.83-1.17,6.7.79,15.23,3.17,23.62,6.32,22.31,20.99,46.72,33.01,69.53"/>
            <path class="cls-4" d="m755.24,688.18c8.93,8.32,21.14,17.64,33.58,22.8,7.04,2.92,14.81,5.29,22.82,5.08,3.79-.1,7.84-.93,10.12-3.2,3.39-3.37,1.38-8.42-2.38-11.6-4.07-3.44-9.75-5.53-15.4-7.29-15.03-4.68-32.59-4.68-48.76-5.79"/>
            <path class="cls-4" d="m755.42,688.41c2.46-10.23,3.96-23.79,1.53-36.71-1.37-7.31-3.65-15.2-8.43-22.78-2.26-3.59-5.33-7.27-8.69-8.97-5-2.52-8.44.44-9.18,4.67-.8,4.59.54,10.43,2.17,16.17,4.33,15.28,14.37,31.99,22.6,47.61"/>
          </g>
          <g>
            <path class="cls-4" d="m280.6,669.69c-18.49-14.47-35.16-31.23-49.65-49.7-.19.27-.37.54-.59.8-.37.46-.76.89-1.15,1.29,3.54,4.52,7.18,8.98,11,13.27,20.96,23.6,45.72,43.85,73.1,59.55,15.42,8.85,31.63,16.26,48.44,22.04,1.61.56,2.6-1.91.98-2.47-29.66-10.2-57.44-25.48-82.13-44.8Z"/>
            <path class="cls-4" d="m269.38,661.53c-14.72,10.05-34.4,20.82-53.51,25.52-10.81,2.66-22.55,4.38-34.07,2.3-5.45-.98-11.12-3.07-13.91-6.85-4.15-5.61-.14-12.46,5.99-16.22,6.63-4.07,15.29-5.84,23.83-7.14,22.73-3.45,48.08.43,71.67,2.38"/>
            <path class="cls-4" d="m239.71,632.53c-19.67,5.51-44.99,9.98-67.45,8.07-12.71-1.08-26.09-3.52-37.83-10-5.56-3.07-10.94-7.42-12.59-12.54-2.45-7.61,4.42-13.58,12.45-15.41,8.69-1.99,18.74-.73,28.5,1,25.94,4.59,52.04,18.1,76.93,28.88"/>
            <path class="cls-4" d="m234.13,626.77c-22.02-14.11-47.86-34.51-65.18-57.61-9.8-13.07-18.86-27.94-22.67-44.69-1.8-7.92-2.23-16.78,1.27-22.72,5.19-8.82,16.75-7.34,25.34-1.23,9.3,6.62,16.66,17.3,23.32,28.09,17.71,28.71,27.02,65.17,37.92,98.15"/>
            <path class="cls-4" d="m238.64,631.17c-3.59-14.93-5.78-34.74-2.23-53.61,2-10.68,5.33-22.2,12.31-33.27,3.3-5.24,7.78-10.62,12.7-13.1,7.3-3.69,12.33.64,13.41,6.83,1.17,6.7-.79,15.23-3.17,23.62-6.32,22.31-20.99,46.72-33.01,69.53"/>
            <path class="cls-4" d="m269.38,661.53c-3.59-14.93-5.78-34.74-2.23-53.61,2-10.68,5.33-22.2,12.31-33.27,3.3-5.24,7.78-10.62,12.7-13.1,7.3-3.69,12.33.64,13.41,6.83,1.17,6.7-.79,15.23-3.17,23.62-6.32,22.31-20.99,46.72-33.01,69.53"/>
            <path class="cls-4" d="m305.09,688.18c-8.93,8.32-21.14,17.64-33.58,22.8-7.04,2.92-14.81,5.29-22.82,5.08-3.79-.1-7.84-.93-10.12-3.2-3.39-3.37-1.38-8.42,2.38-11.6,4.07-3.44,9.75-5.53,15.4-7.29,15.03-4.68,32.59-4.68,48.76-5.79"/>
            <path class="cls-4" d="m304.91,688.41c-2.46-10.23-3.96-23.79-1.53-36.71,1.37-7.31,3.65-15.2,8.43-22.78,2.26-3.59,5.33-7.27,8.69-8.97,5-2.52,8.44.44,9.18,4.67.8,4.59-.54,10.43-2.17,16.17-4.33,15.28-14.37,31.99-22.6,47.61"/>
          </g>
        </g>
        <g>
          <g>
            <path class="cls-7" d="m779.73,669.69c18.49-14.47,35.16-31.23,49.65-49.7.19.27.37.54.59.8.37.46.76.89,1.15,1.29-3.54,4.52-7.18,8.98-11,13.27-20.96,23.6-45.72,43.85-73.1,59.55-15.42,8.85-31.63,16.26-48.44,22.04-1.61.56-2.6-1.91-.98-2.47,29.66-10.2,57.44-25.48,82.13-44.8Z"/>
            <path class="cls-7" d="m790.95,661.53c14.72,10.05,34.4,20.82,53.51,25.52,10.81,2.66,22.55,4.38,34.07,2.3,5.45-.98,11.12-3.07,13.91-6.85,4.15-5.61.14-12.46-5.99-16.22-6.63-4.07-15.29-5.84-23.83-7.14-22.73-3.45-48.08.43-71.67,2.38"/>
            <path class="cls-7" d="m820.62,632.53c19.67,5.51,44.99,9.98,67.45,8.07,12.71-1.08,26.09-3.52,37.83-10,5.56-3.07,10.94-7.42,12.59-12.54,2.45-7.61-4.42-13.58-12.45-15.41-8.69-1.99-18.74-.73-28.5,1-25.94,4.59-52.04,18.1-76.93,28.88"/>
            <path class="cls-7" d="m826.2,626.77c22.02-14.11,47.86-34.51,65.18-57.61,9.8-13.07,18.86-27.94,22.67-44.69,1.8-7.92,2.23-16.78-1.27-22.72-5.19-8.82-16.75-7.34-25.34-1.23-9.3,6.62-16.66,17.3-23.32,28.09-17.71,28.71-27.02,65.17-37.92,98.15"/>
            <path class="cls-7" d="m821.69,631.17c3.59-14.93,5.78-34.74,2.23-53.61-2-10.68-5.33-22.2-12.31-33.27-3.3-5.24-7.78-10.62-12.7-13.1-7.3-3.69-12.33.64-13.41,6.83-1.17,6.7.79,15.23,3.17,23.62,6.32,22.31,20.99,46.72,33.01,69.53"/>
            <path class="cls-7" d="m790.95,661.53c3.59-14.93,5.78-34.74,2.23-53.61-2-10.68-5.33-22.2-12.31-33.27-3.3-5.24-7.78-10.62-12.7-13.1-7.3-3.69-12.33.64-13.41,6.83-1.17,6.7.79,15.23,3.17,23.62,6.32,22.31,20.99,46.72,33.01,69.53"/>
            <path class="cls-7" d="m755.24,688.18c8.93,8.32,21.14,17.64,33.58,22.8,7.04,2.92,14.81,5.29,22.82,5.08,3.79-.1,7.84-.93,10.12-3.2,3.39-3.37,1.38-8.42-2.38-11.6-4.07-3.44-9.75-5.53-15.4-7.29-15.03-4.68-32.59-4.68-48.76-5.79"/>
            <path class="cls-7" d="m755.42,688.41c2.46-10.23,3.96-23.79,1.53-36.71-1.37-7.31-3.65-15.2-8.43-22.78-2.26-3.59-5.33-7.27-8.69-8.97-5-2.52-8.44.44-9.18,4.67-.8,4.59.54,10.43,2.17,16.17,4.33,15.28,14.37,31.99,22.6,47.61"/>
          </g>
          <g>
            <path class="cls-7" d="m280.6,669.69c-18.49-14.47-35.16-31.23-49.65-49.7-.19.27-.37.54-.59.8-.37.46-.76.89-1.15,1.29,3.54,4.52,7.18,8.98,11,13.27,20.96,23.6,45.72,43.85,73.1,59.55,15.42,8.85,31.63,16.26,48.44,22.04,1.61.56,2.6-1.91.98-2.47-29.66-10.2-57.44-25.48-82.13-44.8Z"/>
            <path class="cls-7" d="m269.38,661.53c-14.72,10.05-34.4,20.82-53.51,25.52-10.81,2.66-22.55,4.38-34.07,2.3-5.45-.98-11.12-3.07-13.91-6.85-4.15-5.61-.14-12.46,5.99-16.22,6.63-4.07,15.29-5.84,23.83-7.14,22.73-3.45,48.08.43,71.67,2.38"/>
            <path class="cls-7" d="m239.71,632.53c-19.67,5.51-44.99,9.98-67.45,8.07-12.71-1.08-26.09-3.52-37.83-10-5.56-3.07-10.94-7.42-12.59-12.54-2.45-7.61,4.42-13.58,12.45-15.41,8.69-1.99,18.74-.73,28.5,1,25.94,4.59,52.04,18.1,76.93,28.88"/>
            <path class="cls-7" d="m234.13,626.77c-22.02-14.11-47.86-34.51-65.18-57.61-9.8-13.07-18.86-27.94-22.67-44.69-1.8-7.92-2.23-16.78,1.27-22.72,5.19-8.82,16.75-7.34,25.34-1.23,9.3,6.62,16.66,17.3,23.32,28.09,17.71,28.71,27.02,65.17,37.92,98.15"/>
            <path class="cls-7" d="m238.64,631.17c-3.59-14.93-5.78-34.74-2.23-53.61,2-10.68,5.33-22.2,12.31-33.27,3.3-5.24,7.78-10.62,12.7-13.1,7.3-3.69,12.33.64,13.41,6.83,1.17,6.7-.79,15.23-3.17,23.62-6.32,22.31-20.99,46.72-33.01,69.53"/>
            <path class="cls-7" d="m269.38,661.53c-3.59-14.93-5.78-34.74-2.23-53.61,2-10.68,5.33-22.2,12.31-33.27,3.3-5.24,7.78-10.62,12.7-13.1,7.3-3.69,12.33.64,13.41,6.83,1.17,6.7-.79,15.23-3.17,23.62-6.32,22.31-20.99,46.72-33.01,69.53"/>
            <path class="cls-7" d="m305.09,688.18c-8.93,8.32-21.14,17.64-33.58,22.8-7.04,2.92-14.81,5.29-22.82,5.08-3.79-.1-7.84-.93-10.12-3.2-3.39-3.37-1.38-8.42,2.38-11.6,4.07-3.44,9.75-5.53,15.4-7.29,15.03-4.68,32.59-4.68,48.76-5.79"/>
            <path class="cls-7" d="m304.91,688.41c-2.46-10.23-3.96-23.79-1.53-36.71,1.37-7.31,3.65-15.2,8.43-22.78,2.26-3.59,5.33-7.27,8.69-8.97,5-2.52,8.44.44,9.18,4.67.8,4.59-.54,10.43-2.17,16.17-4.33,15.28-14.37,31.99-22.6,47.61"/>
          </g>
        </g>
      </g>
      <circle class="cls-5" cx="544.43" cy="542.53" r="10.55"/>
      <rect class="cls-13" x="328.39" y="263.46" width="20.33" height="20.33"/>
    </g>
  </g>
</svg>