<?xml version="1.0" encoding="UTF-8"?>
<svg xmlns="http://www.w3.org/2000/svg" viewBox="0 0 1080 1080">
  <defs>
    <style>
      .cls-1, .cls-2 {
        fill: #fff;
      }

      .cls-3 {
        isolation: isolate;
      }

      .cls-4, .cls-5, .cls-6, .cls-7 {
        fill: #333438;
      }

      .cls-4, .cls-5, .cls-8, .cls-9 {
        opacity: .5;
      }

      .cls-10, .cls-11 {
        fill: #c7a369;
      }

      .cls-12, .cls-5, .cls-13, .cls-14, .cls-6, .cls-15, .cls-2, .cls-9, .cls-11 {
        stroke: #fff;
        stroke-linecap: round;
        stroke-linejoin: round;
        stroke-width: 25px;
      }

      .cls-12, .cls-16 {
        fill: #28a59f;
      }

      .cls-13, .cls-17 {
        fill: #6a9aa5;
        mix-blend-mode: multiply;
      }

      .cls-18, .cls-15 {
        fill: #4d5152;
      }

      .cls-14, .cls-19 {
        fill: #076861;
      }

      .cls-8, .cls-9 {
        fill: #1c1d1e;
      }
    </style>
  </defs>
  <g class="cls-3">
    <g id="Layer_1" data-name="Layer 1">
      <g>
        <path class="cls-15" d="m208.41,500.09l.2,85.18,662.42-1.59-.2-85.18c-.04-18-14.67-32.56-32.68-32.52l-597.23,1.43c-18,.04-32.56,14.67-32.52,32.68Z"/>
        <path class="cls-15" d="m208.55,561.92l.62,257.79c.04,18.43,15.02,33.33,33.44,33.28l595.7-1.43c18.43-.04,33.33-15.02,33.28-33.44l-.62-257.79-662.42,1.59Z"/>
        <rect class="cls-6" x="208.83" y="561.13" width="662.43" height="233.11" transform="translate(-1.62 1.3) rotate(-.14)"/>
        <polygon class="cls-5" points="751.53 670.12 750.26 851.78 410.82 852.6 408.25 670.94 751.53 670.12"/>
        <rect class="cls-6" x="252.06" y="450.15" width="53.02" height="17.5" rx="6.31" ry="6.31" transform="translate(558.25 917.12) rotate(179.86)"/>
        <polygon class="cls-15" points="704.24 469.36 684.57 381.36 476.37 381.86 457.12 469.95 704.24 469.36"/>
        <polygon class="cls-5" points="669.27 464.15 654.79 425.66 500.84 426.02 486.55 464.59 669.27 464.15"/>
        <rect class="cls-5" x="447.53" y="484.97" width="260.96" height="73.15" transform="translate(-1.25 1.39) rotate(-.14)"/>
        <path class="cls-6" d="m743.26,440.27h64.51c5.58,0,10.11,4.53,10.11,10.11v15.59h-84.72v-15.59c0-5.58,4.53-10.11,10.11-10.11Z" transform="translate(-1.08 1.86) rotate(-.14)"/>
        <path class="cls-6" d="m422.7,466.86l-93.31.22c-1.25,0-2.26-1-2.26-2.25l-.04-18.59c0-1.25,1-2.26,2.25-2.26l93.31-.22c1.25,0,2.26,1,2.26,2.25l.04,18.59c0,1.25-1,2.26-2.25,2.26Z"/>
        <path class="cls-6" d="m397.93,516.72c-.03-13.41-10.93-24.25-24.33-24.22-13.41.03-24.25,10.93-24.22,24.33.03,13.41,10.93,24.25,24.33,24.22,13.41-.03,24.25-10.93,24.22-24.33Z"/>
        <path class="cls-15" d="m385.89,516.74c-.02-6.76-5.51-12.22-12.27-12.21s-12.22,5.51-12.21,12.27,5.51,12.22,12.27,12.21c6.76-.02,12.22-5.51,12.21-12.27Z"/>
        <path class="cls-14" d="m736.43,546.69l-67.6,35.16,24.41,46.94,67.6-35.16c12.96-6.74,18.01-22.72,11.26-35.68h0c-6.74-12.96-22.72-18.01-35.68-11.27Z"/>
        <path class="cls-13" d="m760.61,564.53c-4.11-7.9-13.85-10.98-21.76-6.87-7.9,4.11-10.98,13.85-6.87,21.76,4.11,7.9,13.85,10.98,21.76,6.87,7.9-4.11,10.98-13.85,6.87-21.76Z"/>
        <path class="cls-13" d="m752.66,568.67c-1.83-3.51-6.15-4.88-9.67-3.05-3.51,1.83-4.88,6.15-3.05,9.67,1.83,3.51,6.15,4.88,9.67,3.05,3.51-1.83,4.88-6.16,3.05-9.67Z"/>
        <path class="cls-6" d="m831.66,497.38l-86.48.21c-3.28,0-5.94,2.68-5.93,5.96l.05,21.93c0,3.28,2.68,5.94,5.96,5.93l86.48-.21c3.28,0,5.94-2.68,5.93-5.96l-.05-21.93c0-3.28-2.68-5.94-5.96-5.93Z"/>
        <path class="cls-11" d="m463.67,348.39c-.58.47-1.2.88-1.89,1.25-6.28,3.43-14.14,1.11-17.57-5.16l-43.07-78.85c-3.43-6.27-1.14-14.13,5.16-17.58,6.27-3.42,14.14-1.12,17.57,5.16l43.07,78.85c3.06,5.61,1.55,12.49-3.28,16.34Z"/>
        <path class="cls-11" d="m429.17,399.18c-4.43,3.53-10.82,3.85-15.63.38l-75.75-54.49c-5.81-4.18-7.13-12.28-2.96-18.07,4.21-5.84,12.28-7.13,18.08-2.95l75.75,54.49c5.81,4.18,7.13,12.28,2.95,18.08-.71.99-1.54,1.85-2.44,2.57Z"/>
        <path class="cls-11" d="m525.53,343.28c-2.04,1.63-4.58,2.65-7.38,2.8-7.14.37-13.23-5.11-13.61-12.25l-4.9-93.19c-.38-7.14,5.1-13.23,12.26-13.61,7.15-.38,13.24,5.11,13.61,12.26l4.91,93.18c.23,4.35-1.71,8.3-4.87,10.82Z"/>
        <rect class="cls-9" x="410" y="663.06" width="341.36" height="131.5"/>
        <circle class="cls-12" cx="579.89" cy="670.53" r="171.64" transform="translate(-304.29 606.44) rotate(-45)"/>
        <circle class="cls-14" cx="579.89" cy="670.53" r="144.99"/>
        <circle class="cls-13" cx="579.89" cy="670.53" r="113.12" transform="translate(-304.29 606.44) rotate(-45)"/>
        <path class="cls-13" d="m579.77,621.06c-27.32.07-49.41,22.26-49.35,49.58.07,27.32,22.26,49.41,49.58,49.35,27.32-.07,49.41-22.26,49.35-49.58-.07-27.32-22.26-49.41-49.58-49.35Z"/>
        <path class="cls-13" d="m579.82,641.72c-15.91.04-28.78,12.97-28.74,28.87.04,15.91,12.97,28.78,28.88,28.74,15.91-.04,28.78-12.97,28.74-28.87-.04-15.91-12.97-28.78-28.87-28.74Z"/>
        <path class="cls-2" d="m596.13,611.26c-14.3.03-25.87,11.66-25.83,25.96.03,14.3,11.66,25.87,25.96,25.83,14.3-.03,25.87-11.66,25.83-25.96s-11.66-25.87-25.96-25.83Z"/>
      </g>
      <g>
        <path class="cls-18" d="m208.41,500.09l.2,85.18,662.42-1.59-.2-85.18c-.04-18-14.67-32.56-32.68-32.52l-597.23,1.43c-18,.04-32.56,14.67-32.52,32.68Z"/>
        <path class="cls-18" d="m208.55,561.92l.62,257.79c.04,18.43,15.02,33.33,33.44,33.28l595.7-1.43c18.43-.04,33.33-15.02,33.28-33.44l-.62-257.79-662.42,1.59Z"/>
        <rect class="cls-7" x="208.83" y="561.13" width="662.43" height="233.11" transform="translate(-1.62 1.3) rotate(-.14)"/>
        <polygon class="cls-4" points="751.53 670.12 750.26 851.78 410.82 852.6 408.25 670.94 751.53 670.12"/>
        <rect class="cls-7" x="252.06" y="450.15" width="53.02" height="17.5" rx="6.31" ry="6.31" transform="translate(558.25 917.12) rotate(179.86)"/>
        <polygon class="cls-18" points="704.24 469.36 684.57 381.36 476.37 381.86 457.12 469.95 704.24 469.36"/>
        <polygon class="cls-4" points="669.27 464.15 654.79 425.66 500.84 426.02 486.55 464.59 669.27 464.15"/>
        <rect class="cls-4" x="447.53" y="484.97" width="260.96" height="73.15" transform="translate(-1.25 1.39) rotate(-.14)"/>
        <path class="cls-7" d="m743.26,440.27h64.51c5.58,0,10.11,4.53,10.11,10.11v15.59h-84.72v-15.59c0-5.58,4.53-10.11,10.11-10.11Z" transform="translate(-1.08 1.86) rotate(-.14)"/>
        <path class="cls-7" d="m422.7,466.86l-93.31.22c-1.25,0-2.26-1-2.26-2.25l-.04-18.59c0-1.25,1-2.26,2.25-2.26l93.31-.22c1.25,0,2.26,1,2.26,2.25l.04,18.59c0,1.25-1,2.26-2.25,2.26Z"/>
        <path class="cls-7" d="m397.93,516.72c-.03-13.41-10.93-24.25-24.33-24.22-13.41.03-24.25,10.93-24.22,24.33.03,13.41,10.93,24.25,24.33,24.22,13.41-.03,24.25-10.93,24.22-24.33Z"/>
        <path class="cls-18" d="m385.89,516.74c-.02-6.76-5.51-12.22-12.27-12.21s-12.22,5.51-12.21,12.27,5.51,12.22,12.27,12.21c6.76-.02,12.22-5.51,12.21-12.27Z"/>
        <path class="cls-19" d="m736.43,546.69l-67.6,35.16,24.41,46.94,67.6-35.16c12.96-6.74,18.01-22.72,11.26-35.68h0c-6.74-12.96-22.72-18.01-35.68-11.27Z"/>
        <path class="cls-17" d="m760.61,564.53c-4.11-7.9-13.85-10.98-21.76-6.87-7.9,4.11-10.98,13.85-6.87,21.76,4.11,7.9,13.85,10.98,21.76,6.87,7.9-4.11,10.98-13.85,6.87-21.76Z"/>
        <path class="cls-17" d="m752.66,568.67c-1.83-3.51-6.15-4.88-9.67-3.05-3.51,1.83-4.88,6.15-3.05,9.67,1.83,3.51,6.15,4.88,9.67,3.05,3.51-1.83,4.88-6.16,3.05-9.67Z"/>
        <path class="cls-7" d="m831.66,497.38l-86.48.21c-3.28,0-5.94,2.68-5.93,5.96l.05,21.93c0,3.28,2.68,5.94,5.96,5.93l86.48-.21c3.28,0,5.94-2.68,5.93-5.96l-.05-21.93c0-3.28-2.68-5.94-5.96-5.93Z"/>
        <path class="cls-10" d="m463.67,348.39c-.58.47-1.2.88-1.89,1.25-6.28,3.43-14.14,1.11-17.57-5.16l-43.07-78.85c-3.43-6.27-1.14-14.13,5.16-17.58,6.27-3.42,14.14-1.12,17.57,5.16l43.07,78.85c3.06,5.61,1.55,12.49-3.28,16.34Z"/>
        <path class="cls-10" d="m429.17,399.18c-4.43,3.53-10.82,3.85-15.63.38l-75.75-54.49c-5.81-4.18-7.13-12.28-2.96-18.07,4.21-5.84,12.28-7.13,18.08-2.95l75.75,54.49c5.81,4.18,7.13,12.28,2.95,18.08-.71.99-1.54,1.85-2.44,2.57Z"/>
        <path class="cls-10" d="m525.53,343.28c-2.04,1.63-4.58,2.65-7.38,2.8-7.14.37-13.23-5.11-13.61-12.25l-4.9-93.19c-.38-7.14,5.1-13.23,12.26-13.61,7.15-.38,13.24,5.11,13.61,12.26l4.91,93.18c.23,4.35-1.71,8.3-4.87,10.82Z"/>
        <rect class="cls-8" x="410" y="663.06" width="341.36" height="131.5"/>
        <circle class="cls-16" cx="579.89" cy="670.53" r="171.64" transform="translate(-304.29 606.44) rotate(-45)"/>
        <circle class="cls-19" cx="579.89" cy="670.53" r="144.99"/>
        <circle class="cls-17" cx="579.89" cy="670.53" r="113.12" transform="translate(-304.29 606.44) rotate(-45)"/>
        <path class="cls-17" d="m579.77,621.06c-27.32.07-49.41,22.26-49.35,49.58.07,27.32,22.26,49.41,49.58,49.35,27.32-.07,49.41-22.26,49.35-49.58-.07-27.32-22.26-49.41-49.58-49.35Z"/>
        <path class="cls-17" d="m579.82,641.72c-15.91.04-28.78,12.97-28.74,28.87.04,15.91,12.97,28.78,28.88,28.74,15.91-.04,28.78-12.97,28.74-28.87-.04-15.91-12.97-28.78-28.87-28.74Z"/>
        <path class="cls-1" d="m596.13,611.26c-14.3.03-25.87,11.66-25.83,25.96.03,14.3,11.66,25.87,25.96,25.83,14.3-.03,25.87-11.66,25.83-25.96s-11.66-25.87-25.96-25.83Z"/>
      </g>
    </g>
  </g>
</svg>