<?xml version="1.0" encoding="UTF-8"?>
<svg id="Layer_1" data-name="Layer 1" xmlns="http://www.w3.org/2000/svg" xmlns:xlink="http://www.w3.org/1999/xlink" viewBox="0 0 594.44 808.85">
  <defs>
    <style>
      .cls-1 {
        fill: #083c5b;
      }

      .cls-2 {
        stroke: #083c5b;
        stroke-width: 3.37px;
      }

      .cls-2, .cls-3, .cls-4, .cls-5 {
        fill: none;
      }

      .cls-2, .cls-3, .cls-5 {
        stroke-linecap: round;
        stroke-linejoin: round;
      }

      .cls-6 {
        fill: #fff;
      }

      .cls-7 {
        fill: #242b2d;
      }

      .cls-3 {
        stroke: #242b2d;
        stroke-width: 1.03px;
      }

      .cls-8 {
        fill: #27b2b4;
      }

      .cls-9 {
        fill: #fcd1c8;
      }

      .cls-10 {
        fill: #db86bf;
      }

      .cls-11 {
        fill: #134675;
      }

      .cls-12 {
        clip-path: url(#clippath-2);
      }

      .cls-13 {
        fill: #a97d34;
      }

      .cls-14 {
        clip-path: url(#clippath-6);
      }

      .cls-15 {
        fill: #e0e0e0;
      }

      .cls-16 {
        fill: #e89591;
      }

      .cls-17 {
        clip-path: url(#clippath-7);
      }

      .cls-18 {
        clip-path: url(#clippath-4);
      }

      .cls-19 {
        clip-path: url(#clippath);
      }

      .cls-20 {
        clip-path: url(#clippath-3);
      }

      .cls-21 {
        clip-path: url(#clippath-8);
      }

      .cls-5 {
        stroke: #e89591;
        stroke-width: 2.05px;
      }

      .cls-22 {
        fill: #606060;
      }

      .cls-23 {
        clip-path: url(#clippath-5);
      }

      .cls-24 {
        fill: #293336;
      }
    </style>
    <clipPath id="clippath">
      <path class="cls-4" d="m198.76,556.19c3.36,62.77,6.71,125.53,10.07,188.3,57.53.31,115.05.63,172.58.94,1.46-24.83,3.19-50.05,5.2-75.64,3.09-39.34,6.71-77.72,10.77-115.1-12.59-11.43-25.18-22.85-37.77-34.28h-122.67c-12.73,11.92-25.45,23.85-38.18,35.77Z"/>
    </clipPath>
    <clipPath id="clippath-2">
      <path class="cls-4" d="m192.86,278.98c-20.49,8.72-40.98,17.44-61.47,26.16,15.46-14.8,30.92-29.6,46.38-44.41-4.59-1.07-15.39-4.28-24.9-14.38-12.12-12.88-13.99-28.31-14.38-32.84-11.22,8.99-19.88,16.97-25.6,22.47h0c-37.69,30.6-69.75,70.04-68.18,95.23.37,5.93,2.28,11.24,2.28,11.24,0,0,3.83,10.64,14.07,18.86,15.71,12.61,47.53,10.49,64.25,9.23,34.58-2.61,60.96-4.87,76.23-6.22,1.43,11.51,2.91,20.78,3.99,27.09,2.16,12.56,4.14,25.15,6.21,37.72.85,5.14.96,7.77,1.01,9.9.38,15.33-7.35,31.83-7.35,31.83-5.84,12.52-20.31,53.4-40.22,110.37,12.37-5.99,29.88-12.83,51.63-16.47,21.18-3.54,39.39-2.88,52.72-1.34,10.42-33.85,19.48-77.85,18.76-129.21-.2-14.18-1.12-27.58-2.53-40.13-30.96-38.37-61.93-76.74-92.89-115.11Z"/>
    </clipPath>
    <clipPath id="clippath-3">
      <path class="cls-4" d="m466.49,317.54c-2.17.3-5.4,1.11-8.22,3.6-6.65,5.86-6.06,16.26-5.82,20.32.55,9.24,4.53,15.63,12.5,28.42,0,0,5.59,8.97,22.4,24.08,1.19,1.07,3.61,3.17,6.11,2.54,1.83-.47,2.96-2.21,3.55-3.34,1.67,2.31,3.24,4.09,4.44,5.35,2.64,2.79,3.82,3.4,4.56,3.71.89.38,2.57,1.09,4.61.64,2.92-.66,4.44-3.23,4.77-3.81.54.6,1.32,1.44,2.28,2.41,1.84,1.85,2.78,2.79,3.58,3.1,2.52.98,5.14-.63,5.67-.96.73-.45,2.84-1.75,3.41-4.27.45-1.98-.31-3.66-1.13-5.49-.81-1.8-1.82-3.09-2.54-3.88.68.15,2.75.5,5.01-.64.21-.11,2.75-1.44,3.81-4.23,1.32-3.46-.36-7.2-1.2-9-11.12-23.85-16.68-35.78-17.55-37.15,0,0-1.46-2.3-4.71-9.84-2.06-4.79-2.7-7.02-1.81-8.79.98-1.94,3.38-2.45,4.81-2.75,13.54-2.88,21.65-3.92,28.68-8.04,4.65-2.73,5.77-5.01,6.02-6.77.3-2.14-.51-4.55-2.01-6.14-1.42-1.51-3.17-1.95-4.71-2.22-6-1.04-12.41.03-16,.82-12.91,2.29-23.22,3.59-30.23,4.37-10.74,1.18-17.72,1.55-23.67,7.2-3.74,3.55-5.62,7.81-6.62,10.8Z"/>
    </clipPath>
    <clipPath id="clippath-4">
      <path class="cls-4" d="m294.68,65.39c4.51-1.18,11.26-2.41,19.39-1.81,20.67,1.54,34.42,13.78,38.21,17.25,1.5,1.37,23.02,21.65,24.52,50.76.56,10.94-1.91,19,1.14,36.31,1.1,6.27,1.58,6.06,3.61,16.45,3.47,17.71,5.15,26.73,2.47,34.71-.83,2.49-3.67,10.58-11.22,15.85-1.85,1.29-3.54,2.1-4.75,2.61,1.3.69,2.69,1.66,3.99,3.01,5.68,5.88,5.28,14.45,5.13,16.45,1.46.89,16.93,10.39,24.33,16.65,1.17.99,3.01,2.64,3.99,5.42,1.18,3.33.5,6.54,0,8.23-1.23,1-3.18,2.68-5.32,5.02-7.59,8.26-8.73,15.01-15.02,24.48-1.89,2.85-4.94,6.97-9.5,11.44.82,1.06,1.94,2.84,2.28,5.22.53,3.74-1.17,6.84-2.09,8.43-10.25,17.71-17.11,24.14-17.11,24.14-13.42,12.58-21.64,20.29-35.99,25.15-17.99,6.09-33.49,3.59-40.05,2.14-16.81-3.72-27.3-12.32-40.05-22.74-2.59-2.12-24.84-20.66-41.06-51.36,0,0-8.48-16.06-8.98-36.25-.05-2.05,0-5.33,1.88-8.43,3.96-6.49,12.78-6.91,14.95-6.96.13-1.06.44-2.62,1.27-4.28,1.32-2.65,3.24-4.14,4.56-5.08,6.15-4.37,10.07-4.38,15.71-8.03,1.6-1.04,4-2.79,6.59-5.62-.29-1.71-.53-4.35,0-7.49.63-3.74,2.07-6.47,3.04-8.03-4.14-6.51-15.36-26.06-11.41-50.02,1.01-6.14,2.83-11.42,4.82-15.78-.38-5.32-3.33-57.69,31.94-84.8,9.88-7.59,20.21-11.25,28.7-13.04Z"/>
    </clipPath>
    <clipPath id="clippath-5">
      <path class="cls-4" d="m265.96,117.25c-4.26,6.47-6.15,11.89-8.74,19.26-8.69,24.72-7.54,45.22-7.22,49.76,1.03,14.81,1.74,25.02,8.74,35.31,13.23,19.42,36.36,20.75,39.16,20.87,2.04.08,21.17.57,36.31-13.24,0,0,2.73-2.49,5.11-5.44,14.33-17.79,25.96-70.07-.2-107.89-5.76-8.33-16.82-24.3-33.61-25.11-21.41-1.04-37.39,23.22-39.54,26.48Z"/>
    </clipPath>
    <clipPath id="clippath-6">
      <path class="cls-4" d="m277.32,201.85c-.92-2.24,1.11-4.59,3.34-3.93,4.52,1.33,10.23,2.46,16.85,2.5,9.31.06,17.04-2.05,22.54-4.18,2.17-.84,4.27,1.3,3.62,3.64-2.6,9.43-9.33,16.71-17.53,18.78-11.04,2.79-23.64-4.15-28.84-16.81Z"/>
    </clipPath>
    <clipPath id="clippath-7">
      <path class="cls-4" d="m136.75,221.01c7.91-9.26,15.17-16.94,21.24-23.03,1.23-1.23,7.68-6.07,20.58-15.74,1.93-1.45,5.14-3.78,8.88-3.07,3.42.65,5.64,3.55,6.67,5.14.77-.46,2.75-1.48,5.38-1.26,3.43.29,5.56,2.5,6.1,3.09.41-.26,3.4-2.08,6.71-.75,1.87.74,2.94,2.13,3.39,2.79,1.09-.31,2.74-.6,4.66-.23.64.12,1.62.32,2.66.95,1.33.81,2.21,1.98,3.08,3.63,1.25,2.37,3.07,5.83,3.14,10.89.02,1.55.03,5.53-2.19,9.72-.85,1.61-1.8,2.8-2.5,3.59.72.9,1.65,2.37,1.82,4.27.1,1.19.04,4.01-4.55,8.78-5.53,5.75-11.66,8.14-12.84,8.58-10.18,3.83-19.65,2.57-24.85,1.41-.69.95-1.7,2.34-2.93,3.99-10.32,13.81-15.48,20.72-19.81,23.19-11.95,6.8-37.43-.8-40.33-17.47-1.72-9.92,4.9-21.32,15.74-28.46Z"/>
    </clipPath>
    <clipPath id="clippath-8">
      <path class="cls-4" d="m181.85,188.2c.42,1.33,1.3,4.72.29,8.86-.99,4.08-3.26,6.59-4.22,7.55-.22.27-4.02,4.82-8.33,3.82-4.64-1.08-5.91-7.68-6.34-9.9-.23-1.21-1.86-9.68,3.55-14.58,2.3-2.08,7.01-4.56,10.96-2.21,3.12,1.85,3.92,5.61,4.08,6.45Z"/>
    </clipPath>
  </defs>
  <path class="cls-24" d="m138.48,213.52c5.98,3.23,15.42,9.32,24.22,20.01,8.49,10.32,12.84,20.62,15.07,27.2-11.99,3.09-24.64-.97-32.89-10.57-8.5-9.89-10.99-24.11-6.4-36.65Z"/>
  <path class="cls-24" d="m200.35,556.19c3.36,62.77,6.71,125.53,10.07,188.3,56.58.22,113.15.45,169.73.67,5.25-62.53,10.51-125.07,15.76-187.6-11.57-12.38-23.14-24.76-34.71-37.14h-122.67c-12.73,11.92-25.45,23.85-38.18,35.77Z"/>
  <g class="cls-19">
    <path class="cls-7" d="m232.52,478.81c49.72,13.68,58.75,38.51,99.21,41.61,24.54,1.88,32.41-6.39,44.3,1.53,19.42,12.94,19.85,49.29,16.98,78.77-8.15.85-20.18,1.6-34.72.54-12.36-.9-19.95-1.45-28.3-4.85-6.21-2.53-20.62-9.8-32.51-31.26h0c-3.79,9.13-11.45,23.12-25.82,31.26-8.18,4.63-16.69,6.4-23.66,7.72-9.72,1.85-17.94,2.18-23.64,2.12.81,9.45,4.83,43.95,32,69.43,25.7,24.11,66.63,34.75,94.57,19.13,30.15-16.86,37.58-52.66,38.75-58.72-3.72,36.56-7.44,73.12-11.15,109.68-61.79,38.42-133.96,45.41-183.51,11.24-94.31-65.05-72.03-255.38-15.28-283.53,12.39-6.14,26.63-1.88,52.79,5.32Z"/>
  </g>
  <path class="cls-6" d="m227.43,354.86c2.47,55.49,4.94,110.98,7.41,166.48,39.17.72,78.33,1.44,117.5,2.16,6.33-55.81,12.66-111.62,18.99-167.42-8.51-10.95-17.03-21.89-25.54-32.84h-90.27c-9.36,10.54-18.73,21.08-28.09,31.63Z"/>
  <path class="cls-15" d="m272.6,522.03c21.02.63,42.04,1.26,63.06,1.89v-39.08c-6.54,2.48-18.51,5.7-31.4,1.36-21.64-7.29-37.01-32.92-37.02-63.86,1.79,33.23,3.57,66.46,5.36,99.7Z"/>
  <path class="cls-11" d="m192.86,278.98c-20.49,8.72-40.98,17.44-61.47,26.16,15.46-14.8,30.92-29.6,46.38-44.41-4.59-1.07-15.39-4.28-24.9-14.38-12.12-12.88-13.99-28.31-14.38-32.84-11.22,8.99-19.88,16.97-25.6,22.47h0c-37.69,30.6-69.75,70.04-68.18,95.23.37,5.93,2.28,11.24,2.28,11.24,0,0,3.83,10.64,14.07,18.86,15.71,12.61,47.53,10.49,64.25,9.23,34.58-2.61,60.96-4.87,76.23-6.22,1.43,11.51,2.91,20.78,3.99,27.09,2.16,12.56,4.14,25.15,6.21,37.72.85,5.14.96,7.77,1.01,9.9.38,15.33-7.35,31.83-7.35,31.83-5.84,12.52-20.31,53.4-40.22,110.37,8.62,4.82,23.34,11.69,42.64,14.01,13.52,1.63,36.35,4.37,58.72-9.7,17.32-10.89,26.39-26.86,30.76-36.56.74-51.26,1.48-102.52,2.21-153.78-35.55-38.74-71.11-77.48-106.66-116.23Z"/>
  <path class="cls-11" d="m405.51,287.29c1.75,2.48,4.25,6.23,6.84,11.03.77,1.41,1.45,2.76,2.12,4.2,5.95,12.82,10.68,31.91,10.68,31.91,2.02,8.44,5.2,20.4,10.23,35.67,5.63-12.07,11.26-24.13,16.89-36.2,2.04,7.85,5.63,18.46,12.17,29.83,6.39,11.12,13.45,19.24,19.01,24.74-14.63,40.9-33.45,68.09-45.88,69.28-7.82.75-13.94-2.14-13.94-2.14-4.64-2.19-8.72-5.51-11.91-11.24-11.04-19.83-19.91-46.46-23.9-59.16-.87,4.52-2.05,11.08-3.22,19.03-.42,2.88-3.31,22.73-3.68,34.34-.75,23.34,9.93,44.81,19.9,67.85,8.14,18.8,18.69,46.19,28.1,82.06-27.99,4.51-50.88,4.61-66.89,3.77-17.22-.9-24.87-2.79-32.17-6.47-18.81-9.47-28.35-27.26-32.56-36.83.74-51.26,1.48-102.52,2.21-153.78,8.42-23.38,16.84-46.76,25.27-70.14,26.91-12.6,53.82-25.19,80.73-37.79Z"/>
  <g>
    <g>
      <path class="cls-6" d="m327.04,356.74c0-2.94,0-5.88,0-8.83q0-.37.36-.37c4.45,0,8.89,0,13.34,0q.35,0,.35.36c0,1.22,0,2.43,0,3.65,0,.05,0,.11,0,.16,0,.18-.03.2-.19.21-.07,0-.14,0-.22,0-2.82,0-5.65,0-8.47,0q-.34,0-.34.37c0,.67,0,1.35,0,2.02,0,.07,0,.14,0,.21,0,.09.05.14.14.14.08,0,.16,0,.24,0,2.81,0,5.62,0,8.43,0,.47,0,.41.03.41.42,0,1.09,0,2.19,0,3.28,0,.06,0,.12,0,.18,0,.17-.03.19-.2.2-.07,0-.14,0-.22,0-2.82,0-5.63,0-8.45,0q-.35,0-.35.38c0,.72,0,1.44,0,2.16,0,.07,0,.14,0,.21,0,.08.05.12.13.13.08,0,.16,0,.24,0,2.83,0,5.66,0,8.49,0q.36,0,.36.38c0,1.21,0,2.41,0,3.62,0,.02,0,.05,0,.07,0,.3,0,.31-.29.31-4.49,0-8.98,0-13.47,0-.29,0-.29,0-.29-.31,0-2.98,0-5.96,0-8.94Z"/>
      <path class="cls-6" d="m362.59,347.54c2.78,0,5.56,0,8.34,0,.43,0,.4,0,.4.43,0,1.25,0,2.49,0,3.74,0,.34,0,.35-.32.35-1.52,0-3.04,0-4.56,0-.35,0-.34-.02-.34.35,0,3.26-.02,6.51,0,9.77,0,1.12-.44,1.96-1.23,2.62-.73.61-1.58.94-2.5,1.11-.31.06-.62.1-.93.09-.2,0-.22-.02-.23-.24,0-.08,0-.15,0-.23,0-4.36,0-8.73,0-13.09,0-.42.01-.38-.37-.38-2.22,0-4.45,0-6.67,0q-.34,0-.34-.37c0-1.27,0-2.54,0-3.81,0-.33,0-.34.31-.34,2.81,0,5.62,0,8.43,0Z"/>
      <path class="cls-8" d="m353.82,357.17c.05-.09.03-.18.03-.26,0-.97,0-1.94,0-2.91,0-.09-.04-.21.05-.25.09-.04.14.08.2.14,1.46,1.54,2.93,3.09,4.39,4.63.13.13.18.27.18.46,0,2.22,0,4.45,0,6.67,0,.33,0,.33-.31.33-.67,0-1.33,0-2,0-.16,0-.28-.03-.37-.18-.02-.04-.06-.07-.09-.1-.57-.63-1.15-1.25-1.72-1.88-.68-.76-1.37-1.51-2.06-2.27-.65-.72-1.3-1.43-1.95-2.15-.68-.75-1.36-1.5-2.04-2.25-.31-.34-.62-.68-.93-1.02-.05-.05-.09-.12-.17-.15-.05.08-.03.17-.03.25,0,.72,0,1.44,0,2.15,0,.08.02.17-.03.24-.09,0-.12-.06-.16-.11-1.48-1.57-2.97-3.13-4.45-4.7-.1-.1-.15-.21-.15-.36,0-1.88,0-3.76,0-5.64,0-.26.02-.27.26-.27.91,0,1.82,0,2.74,0,.15,0,.26.06.36.17.44.51.88,1.01,1.32,1.52.59.68,1.18,1.36,1.77,2.04.36.42.73.83,1.09,1.25.64.74,1.28,1.47,1.92,2.21.42.48.85.96,1.27,1.44.25.29.5.58.75.86.04.04.07.1.15.12Z"/>
      <path class="cls-13" d="m344.46,365.99c-1.42,0-2.56-1.22-2.56-2.72,0-1.5,1.15-2.71,2.57-2.71,1.41,0,2.56,1.23,2.56,2.72,0,1.49-1.16,2.7-2.58,2.7Z"/>
    </g>
    <path class="cls-2" d="m365.67,423.06h-41.15c-2.44,0-4.41-2.49-4.41-5.56v-45.68c8.96,0,17.93,0,26.89,0,7.69,0,15.38,0,23.07,0v45.68c0,3.07-1.97,5.56-4.41,5.56Z"/>
    <path class="cls-2" d="m320.11,371.82h50c0,4.79-.02,9.59-.03,14.38-8.33,3.75-16.66,7.49-24.98,11.24-8.33-3.75-16.66-7.49-24.98-11.24v-14.38Z"/>
  </g>
  <path class="cls-24" d="m294.68,65.39c4.51-1.18,11.26-2.41,19.39-1.81,20.67,1.54,34.42,13.78,38.21,17.25,1.5,1.37,23.02,21.65,24.52,50.76.56,10.94-1.91,19,1.14,36.31,1.1,6.27,1.58,6.06,3.61,16.45,3.47,17.71,5.15,26.73,2.47,34.71-.83,2.49-3.67,10.58-11.22,15.85-1.85,1.29-3.54,2.1-4.75,2.61,1.3.69,2.69,1.66,3.99,3.01,5.68,5.88,5.28,14.45,5.13,16.45,1.46.89,16.93,10.39,24.33,16.65,1.17.99,3.01,2.64,3.99,5.42,1.18,3.33.5,6.54,0,8.23-1.23,1-3.18,2.68-5.32,5.02-7.59,8.26-8.73,15.01-15.02,24.48-1.89,2.85-4.94,6.97-9.5,11.44.82,1.06,1.94,2.84,2.28,5.22.53,3.74-1.17,6.84-2.09,8.43-10.25,17.71-17.11,24.14-17.11,24.14-13.42,12.58-21.64,20.29-35.99,25.15-17.99,6.09-33.49,3.59-40.05,2.14-16.81-3.72-27.3-12.32-40.05-22.74-2.59-2.12-24.84-20.66-41.06-51.36,0,0-8.48-16.06-8.98-36.25-.05-2.05,0-5.33,1.88-8.43,3.96-6.49,12.78-6.91,14.95-6.96.13-1.06.44-2.62,1.27-4.28,1.32-2.65,3.24-4.14,4.56-5.08,6.15-4.37,10.07-4.38,15.71-8.03,1.6-1.04,4-2.79,6.59-5.62-.29-1.71-.53-4.35,0-7.49.63-3.74,2.07-6.47,3.04-8.03-4.14-6.51-15.36-26.06-11.41-50.02,1.01-6.14,2.83-11.42,4.82-15.78-.38-5.32-3.33-57.69,31.94-84.8,9.88-7.59,20.21-11.25,28.7-13.04Z"/>
  <path class="cls-24" d="m260.4,128.42c2.6-7.57,11.2-29.48,31.55-39.29,4.3-2.07,11.1-5.24,19.52-3.88,11.04,1.78,17.88,10.21,23.32,17.12,12.62,16.02,16.36,34.1,17.59,45.11-16.32-.72-35.53-2.92-56.62-8.06-13.04-3.18-24.86-7-35.35-11.01Z"/>
  <path class="cls-9" d="m265.98,117.75c-4.26,6.47-6.15,11.89-8.74,19.26-8.69,24.72-7.54,45.22-7.22,49.76,1.03,14.81,1.74,25.02,8.74,35.31,13.23,19.42,36.36,20.75,39.16,20.87,2.04.08,21.17.57,36.31-13.24,0,0,2.73-2.49,5.11-5.44,14.33-17.79,25.96-70.07-.2-107.89-5.76-8.33-16.82-24.3-33.61-25.11-21.41-1.04-37.39,23.22-39.54,26.48Z"/>
  <path class="cls-1" d="m432.13,359.89c1.01,8.95,1.62,19.59,1.13,31.52-.48,11.59-1.88,21.85-3.55,30.5,2.5-5.56,5.59-14.06,6.84-24.88,1.31-11.35.09-20.78-1.18-26.93-1.08-3.4-2.16-6.8-3.25-10.21Z"/>
  <path class="cls-1" d="m142.98,292.8c-13.91,14.81-27.82,29.63-41.73,44.44,19.68-14.81,39.35-29.63,59.03-44.44-9.5,3.98-19.01,7.96-28.51,11.94,3.74-3.98,7.48-7.96,11.21-11.94Z"/>
  <path class="cls-1" d="m387.81,385.23c-.31-12.56-.62-25.12-.94-37.68-1.91,28.82-3.81,57.65-5.72,86.47.71-8.52,1.69-17.47,3.01-26.8,1.08-7.66,2.31-14.99,3.64-21.98Z"/>
  <path class="cls-1" d="m181.22,366.08c3.7-.61,13.54-2.73,16.96-10.65.62-1.43.84-2.62,1.27-4.95,1.8-9.81.38-19.06.38-19.06h0c3.22,31.34,6.76,65.94,6.71,65.91,0,0,0,0,0,0-1.67-11-3.33-22-5-33-6.77.58-13.54,1.17-20.31,1.75Z"/>
  <g class="cls-12">
    <path class="cls-1" d="m133.2,217.84c-24.41,24.44-42.53,45.81-55.04,61.62-8.28,10.46-17.76,23.11-18.63,40.93-.18,3.67-.5,11.82,3.04,20.87,10.42,26.62,43.4,33.14,54.37,35.31,7.29,1.44,18.59,2.79,32.7.8-65.96,11.53-121.61-6.41-131.17-35.31-10.63-32.17,30.35-94.54,114.73-124.22Z"/>
  </g>
  <g class="cls-20">
    <path class="cls-9" d="m466.49,317.54c-2.17.3-5.4,1.11-8.22,3.6-6.65,5.86-6.06,16.26-5.82,20.32.55,9.24,4.53,15.63,12.5,28.42,0,0,5.59,8.97,22.4,24.08,1.19,1.07,3.61,3.17,6.11,2.54,1.83-.47,2.96-2.21,3.55-3.34,1.67,2.31,3.24,4.09,4.44,5.35,2.64,2.79,3.82,3.4,4.56,3.71.89.38,2.57,1.09,4.61.64,2.92-.66,4.44-3.23,4.77-3.81.54.6,1.32,1.44,2.28,2.41,1.84,1.85,2.78,2.79,3.58,3.1,2.52.98,5.14-.63,5.67-.96.73-.45,2.84-1.75,3.41-4.27.45-1.98-.31-3.66-1.13-5.49-.81-1.8-1.82-3.09-2.54-3.88.68.15,2.75.5,5.01-.64.21-.11,2.75-1.44,3.81-4.23,1.32-3.46-.36-7.2-1.2-9-11.12-23.85-16.68-35.78-17.55-37.15,0,0-1.46-2.3-4.71-9.84-2.06-4.79-2.7-7.02-1.81-8.79.98-1.94,3.38-2.45,4.81-2.75,13.54-2.88,21.65-3.92,28.68-8.04,4.65-2.73,5.77-5.01,6.02-6.77.3-2.14-.51-4.55-2.01-6.14-1.42-1.51-3.17-1.95-4.71-2.22-6-1.04-12.41.03-16,.82-12.91,2.29-23.22,3.59-30.23,4.37-10.74,1.18-17.72,1.55-23.67,7.2-3.74,3.55-5.62,7.81-6.62,10.8Z"/>
    <g>
      <path class="cls-5" d="m465.53,315.7c1.22,3.41,4.87,12.19,13.82,18.73,10.77,7.88,21.96,7.22,25.11,6.92-3.85,1.36-10.35,3.09-18.46,2.55-7.67-.51-13.63-2.83-17.25-4.58"/>
      <path class="cls-5" d="m473.35,365.38c5.21-.42,12.97-1.71,21.56-5.75,7.03-3.31,12.3-7.37,15.88-10.62"/>
      <path class="cls-5" d="m478.32,365.37c6.17,8.51,12.34,17.02,18.5,25.53.92,1.34,1.17,2.92.58,4.1-.14.28-.4.68-.89,1.05"/>
      <path class="cls-5" d="m491.33,361.19c8.05,11.72,16.1,23.45,24.16,35.17.19.35.75,1.45.53,2.87-.13.82-.46,1.42-.68,1.76"/>
      <path class="cls-5" d="m504.37,354.5c8.84,12.83,17.68,25.65,26.51,38.48"/>
      <path class="cls-5" d="m511.07,319.94c-.84.52-1.9,1.06-3.2,1.46-3,.92-5.61.58-7.09.25"/>
    </g>
    <path class="cls-5" d="m451.35,336.56c.44-1.5,1.12-3.57,2.17-5.95,1.7-3.85,2.94-6.66,5.53-8.91,1.19-1.03,3.81-2.96,8.21-3.46.9-2.75,3.37-8.99,9.28-13.16,3.76-2.65,7.71-3.61,8.38-3.77,2.68-.63,3.97-.42,7.32-.92,3.6-.54,6.53-1.44,8.6-2.2"/>
  </g>
  <g>
    <g class="cls-18">
      <g>
        <path class="cls-7" d="m377.94,166.51c1.41,4.99,2.73,10.49,3.8,16.45.64,3.53,1.13,6.92,1.52,10.17-1.86.4-4.61,1.17-7.6,2.81-4.99,2.73-7.62,6.19-11.66,11.1-4.36,5.31-8.99,10.94-13.05,14.98-3.32,3.31-8.51,7.78-16.09,11.9,3.48-2.56,8.54-6.66,13.81-12.57,8.82-9.89,13.52-19.56,20.02-33.17,2.52-5.27,5.82-12.62,9.25-21.67Z"/>
        <path class="cls-7" d="m350.69,199.68c.03,4.38-.47,11.26-3.55,18.73-7.79,18.92-25.4,25.46-28.89,26.75-13.05,4.84-24.2,2.71-26.87,2.14-19.98-4.25-30.28-20.1-31.94-22.74-8.19-13.05-8.5-26.2-8.36-31.3,33.2,2.14,66.41,4.28,99.61,6.42Z"/>
        <path class="cls-7" d="m234.16,163.14c.82,4.65,2.15,10.2,4.37,16.25,2.5,6.79,5.43,12.36,8.08,16.65-1.61-1.89-3.23-3.92-4.85-6.12-4.69-6.38-8.24-12.66-10.93-18.36,1.11-2.81,2.22-5.62,3.33-8.43Z"/>
        <path class="cls-3" d="m237.4,224.69c23.34,25.04,45.32,29.85,54.75,31.1,24.59,3.25,48.35-6.52,77.31-18.42,7.83-3.22,14.2-6.22,18.57-8.36"/>
        <path class="cls-3" d="m236.26,241.54c2.8,5.34,7.61,13.18,15.4,20.67,23.24,22.34,52.65,22.01,65.77,21.87,14.88-.16,38.32-.71,53.8-18.66,5.09-5.9,7.89-12.03,9.44-16.28"/>
        <path class="cls-7" d="m228.38,248.62c2.55,3.93,8.19,11.4,17.95,15.79,3.95,1.78,7.63,2.62,10.62,3.03-3.74-3.22-8.07-7.49-12.35-13.01-3.55-4.58-6.27-9.01-8.35-12.89-.66,1.13-1.74,2.71-3.42,4.21-1.67,1.49-3.3,2.37-4.45,2.87Z"/>
        <path class="cls-7" d="m315.72,284.09c8.63,2.02,31.92,6.15,55.64-6.57,8.77-4.71,15.35-10.51,20.02-15.51-.3-.15-14-6.88-14-6.88,0,0-1.75,3.61-1.8,3.71-1.08,2.22-4.7,7.75-10.06,12.4-6.93,6-13.92,8.17-18.26,9.51-4.75,1.47-8.41,1.93-12.88,2.5-7.68.97-14.12,1.01-18.65.85Z"/>
        <path class="cls-7" d="m206.36,260.68c5.35,11.16,25.15,49.03,68.06,66.61,21.74,8.91,41.37,9.31,53.61,8.43-2.98,1.07-7.29,2.55-12.55,4.15-7.28,2.21-11.91,3.61-15.97,4.28-2.24.37-17.45,2.66-30.8-5.75-6.47-4.08-4.59-5.7-18.88-20.2-8.25-8.37-8.99-7.95-15.97-15.38-4.89-5.21-10.48-11.21-16.22-20.06-3.3-5.08-7.52-12.45-11.28-22.07Z"/>
        <path class="cls-7" d="m381.25,326.53c-9.24,6.18-20.43,9.39-31.49,8.82,5.49-.07,10.94-1.04,16.07-2.84,5.13-1.79,9.95-4.4,14.23-7.66,1.12-.82,2.34.88,1.19,1.67h0Z"/>
      </g>
    </g>
    <g>
      <path class="cls-9" d="m265.96,117.25c-4.26,6.47-6.15,11.89-8.74,19.26-8.69,24.72-7.54,45.22-7.22,49.76,1.03,14.81,1.74,25.02,8.74,35.31,13.23,19.42,36.36,20.75,39.16,20.87,2.04.08,21.17.57,36.31-13.24,0,0,2.73-2.49,5.11-5.44,14.33-17.79,25.96-70.07-.2-107.89-5.76-8.33-16.82-24.3-33.61-25.11-21.41-1.04-37.39,23.22-39.54,26.48Z"/>
      <path class="cls-5" d="m300.69,158.89c-.42,2.62-1.5,7.23-4.56,12.04-1.85,2.9-3.91,5.06-5.71,6.62-1.73,1.5-1.76,4.27-.05,5.8.97.87,2.21,1.71,3.74,2.3,3.64,1.41,6.8.59,7.86.27"/>
      <path class="cls-24" d="m311.71,142.1c-.35-.51-.88-1.46-.76-2.54.47-4.09,9.98-6.84,17.62-6.29,3,.22,7.82.64,11.53,4.55,1.54,1.62,2.42,3.34,2.91,4.55-1.94-1.45-7.71-5.39-15.97-5.35-7.83.04-13.34,3.64-15.33,5.08Z"/>
      <path class="cls-24" d="m292.01,141.48c.38-.49.97-1.4.91-2.49-.22-4.12-9.55-7.5-17.2-7.45-3.01.02-7.84.12-11.78,3.77-1.64,1.51-2.61,3.18-3.18,4.34,2.02-1.32,8.02-4.87,16.26-4.27,7.81.56,13.1,4.52,15,6.1Z"/>
      <g>
        <path class="cls-16" d="m313.32,153.65c.34-1.51,1.35-5.09,4.44-7.98.32-.3,6.25-5.66,13.39-3.2,4.51,1.56,6.8,5.31,7.45,6.48.16.21.43.51.86.73.79.42,1.55.28,1.8.22-.21.97-.55,1.78-.98,2.46-5.23,8.26-25.84,1.65-26.96,1.29Z"/>
        <g>
          <path class="cls-6" d="m313.02,162.74c.89.85,5.06,4.62,11.31,4.42,7.32-.24,11.6-5.74,12.2-6.54.15-.42,2.37-7.07-1.29-11.84-3.73-4.85-10.82-4.22-15.1-1.8-5.03,2.85-7.88,9.13-7.12,15.76Z"/>
          <path class="cls-24" d="m312.99,162.85c-.24-.96-1.65-6.99,1.89-12.47,2.92-4.52,8.2-7.12,13.46-6.29,5.42.85,8.49,4.98,9.14,5.9.14.16.71.78,1.64.86,1.24.11,2.05-.85,2.13-.95.15.85.63,4.02-1.15,7.17-1.18,2.09-2.79,3.18-3.61,3.66.29-1.09.59-2.84.22-4.9-1.04-5.76-6.38-8.23-6.7-8.37-4.62-2.04-9.77-.34-13,2.78-5.07,4.9-4.11,12.03-4.03,12.61Z"/>
          <path class="cls-24" d="m333.6,158.23c-1.05,5.3-5.97,8.69-10.99,7.58-5.02-1.11-8.23-6.31-7.18-11.6,1.05-5.3,5.97-8.69,10.99-7.58,5.02,1.11,8.23,6.31,7.18,11.6Z"/>
          <ellipse class="cls-6" cx="320.37" cy="153.34" rx="3.44" ry="3.63"/>
        </g>
      </g>
      <g class="cls-23">
        <path class="cls-16" d="m259.5,130.73c2.41-5.31,7.94-15.45,19.01-22.81,4.46-2.97,16.21-10.77,30.04-7.62,8.67,1.98,14.17,7.36,18.63,11.84,21.18,21.28,24.11,52.39,24.46,56.71,1.64,20.16-3.15,36.31,1.77,38.25,2.37.93,5.43-2.03,6.27-2.85,17-16.48,5.14-117.55-41-128.76-18.28-4.44-45.17,4.37-55.51,25.68-5.52,11.39-4.71,23.03-3.68,29.56Z"/>
      </g>
      <g>
        <path class="cls-16" d="m288.39,161.79c3.49-8.84-.44-18.44-7.39-21.38-5.38-2.27-12.12-.36-16.48,4.91-.1.12-.63.75-1.53.81-.71.04-1.23-.3-1.38-.42.24,1.83.74,3.36,1.33,4.62,5.45,11.69,23.86,11.49,25.46,11.45Z"/>
        <g>
          <path class="cls-6" d="m288.38,161.67c-.97.74-5.5,4.02-11.69,3.11-7.25-1.06-10.95-7.02-11.47-7.88-.1-.43-1.64-7.29,2.49-11.62,4.2-4.4,11.19-2.97,15.19-.08,4.71,3.4,6.91,9.97,5.48,16.48Z"/>
          <path class="cls-24" d="m288.39,161.79c.34-.92,2.36-6.76-.61-12.61-2.44-4.82-7.43-8-12.75-7.78-5.48.23-8.95,3.99-9.69,4.83-.15.14-.78.7-1.72.67-1.25-.03-1.95-1.07-2.02-1.19-.24.83-1.04,3.93.41,7.26.96,2.21,2.45,3.48,3.21,4.04-.17-1.11-.3-2.89.28-4.89,1.62-5.61,7.18-7.46,7.52-7.56,4.8-1.51,9.75.77,12.64,4.24,4.55,5.45,2.87,12.43,2.72,12.99Z"/>
          <path class="cls-24" d="m266.95,154.31c.51,5.39,5.06,9.32,10.16,8.78,5.1-.54,8.83-5.34,8.32-10.72-.51-5.39-5.06-9.32-10.16-8.78-5.1.54-8.83,5.34-8.32,10.72Z"/>
          <ellipse class="cls-6" cx="272.75" cy="149.71" rx="3.44" ry="3.63"/>
        </g>
      </g>
      <g>
        <path class="cls-24" d="m277.32,201.85c-.92-2.24,1.11-4.59,3.34-3.93,4.52,1.33,10.23,2.46,16.85,2.5,9.31.06,17.04-2.05,22.54-4.18,2.17-.84,4.27,1.3,3.62,3.64-2.6,9.43-9.33,16.71-17.53,18.78-11.04,2.79-23.64-4.15-28.84-16.81Z"/>
        <g class="cls-14">
          <path class="cls-10" d="m284.75,212.55c1.53-1.07,4.36-2.75,8.28-3.44,3.96-.69,7.19-.05,8.96.45,1.62-.96,5.4-2.86,10.39-2.55,3.14.2,5.59,1.19,7.1,1.97-2.02,7.99-8.58,13.82-16.35,14.55-7.65.72-14.99-3.66-18.38-10.98Z"/>
          <path class="cls-6" d="m282.72,194.8l.06,2.82c.05,2.51,1.77,4.65,4.12,5.05,6.59,1.13,15.94,1.76,26.7-.66,8.93-2.01,15.95-5.49,20.77-8.41l-51.65,1.2Z"/>
        </g>
      </g>
    </g>
    <path class="cls-5" d="m294.86,223.34c1.77.63,5.09,1.54,9.21.95,3.04-.44,5.38-1.53,6.85-2.38"/>
  </g>
  <ellipse class="cls-22" cx="242.28" cy="210.27" rx="22.58" ry="23.83"/>
  <path class="cls-24" d="m176.51,187.38c-3.64-.15-6.87,2.12-7.92,5.36-1.29,3.99.92,8.86,5.28,10.46,16.44,5.76,32.88,11.52,49.31,17.28,6.42,2.25,13.63-1.01,15.98-7.7.47-1.33.73-2.73.77-4.16.06-1.96-.33-3.72-.93-5.25-1.69-4.28-5.54-7.18-9.89-7.85l-52.62-8.14Z"/>
  <g>
    <path class="cls-9" d="m139.18,219.27c7-8.99,13.55-16.06,18.8-21.3,1.64-1.64,7.98-6.3,20.58-15.74,1.93-1.45,5.14-3.78,8.88-3.07,3.42.65,5.64,3.55,6.67,5.14.77-.46,2.75-1.48,5.38-1.26,3.43.29,5.56,2.5,6.1,3.09.41-.26,3.4-2.08,6.71-.75,1.87.74,2.94,2.13,3.39,2.79,3.05-.71,5.76-.31,7.31.72.92.61,1.66,1.44,1.66,1.45.41.46.82,1.18,1.41,2.19.81,1.37,3.07,5.27,3.14,10.89.02,1.55.03,5.53-2.19,9.72-.85,1.61-1.8,2.8-2.5,3.59.72.9,1.65,2.37,1.82,4.27.1,1.19.04,4.01-4.55,8.78-5.53,5.75-11.66,8.14-12.84,8.58-10.18,3.83-19.65,2.57-24.85,1.41-.17.24-.37.51-.58.8-1.29,1.77-2.27,3.08-2.35,3.19-.74.99-2.88,4.41-9.16,15.26-4.01-1.45-10.33-4.35-16.6-10.15-2.02-1.87-7.54-7.28-11.81-16.26-2.47-5.18-3.73-9.9-4.41-13.33Z"/>
    <g class="cls-17">
      <g>
        <path class="cls-5" d="m188.77,176.69c2.43,1.82,5.74,4.98,7.65,9.92,4.8,12.39-3.86,23.86-5.36,25.87-2.13,2.84-3.88,3.84-5.54,4.17-2.42.49-6.09-.37-7.56-2.96-2.83-4.98,5.12-11.83,2.66-22.55-.12-.51-.23-.92-.31-1.17"/>
        <path class="cls-5" d="m204.57,179.39c1.1,1.98,2.57,5.1,3.38,9.16,2.98,14.86-5.33,29.94-11.6,31.75-2.43.7-4.4-.05-4.4-.05-2.4-.92-3.6-3.17-4.02-4.05"/>
        <path class="cls-5" d="m216.95,180.61c-4.15.13-5.07.72-5.16,1.22-.16.92,2.44,1.7,5.13,5.09-.41-.42-.88-.88-.91-.85-.05.05,1.25,1.36,2.19,2.94,1.1,1.86,1.39,3.61,1.59,4.88.76,4.76-1.18,14.22-6.04,24.48h0c-1.2,1.62-2.55,3.02-4.51,3.51-2.47.61-4.66-.54-5.03-.74-1.2-.66-2.02-1.53-2.53-2.21"/>
        <path class="cls-5" d="m221.71,182.92c1.32,1.04,7.62,6.26,8.8,15.51,1.19,9.36-3.77,15.89-7.01,20.15-2,2.63-3.61,3.83-5.54,4.17-2.97.53-5.46-1.21-6.33-1.87"/>
        <path class="cls-5" d="m189.31,219.6c-.76,1.34-4.16,6.99-11.2,9.23-6.7,2.13-12.23-.24-13.65-.9"/>
        <path class="cls-5" d="m204.76,221.44c-.65.81-1.49,2.09-2.02,3.85-1.11,3.73.03,6.96.44,8.01"/>
      </g>
    </g>
  </g>
  <g class="cls-21">
    <path class="cls-24" d="m176.51,187.38c-3.64-.15-6.87,2.12-7.92,5.36-1.29,3.99.92,8.86,5.28,10.46,18.13,6.35,36.26,12.71,54.39,19.06,6.7-1.38,11.5-7.2,11.68-13.64.22-7.75-6.36-12.26-6.65-12.46-18.93-2.93-37.86-5.85-56.79-8.78Z"/>
  </g>
  <path class="cls-1" d="m298.66,395.04c-.45,51.31-.91,102.63-1.36,153.94-.67.82-1.35,1.64-2.02,2.47l1.6-156.43c.6,0,1.19.02,1.79.03Z"/>
  <ellipse class="cls-1" cx="303.83" cy="402.04" rx="3.87" ry="4.09"/>
  <g>
    <ellipse class="cls-24" cx="303.36" cy="401.33" rx="3.21" ry="3.38"/>
    <ellipse class="cls-1" cx="303.83" cy="438.1" rx="3.87" ry="4.09"/>
    <ellipse class="cls-24" cx="303.36" cy="437.4" rx="3.21" ry="3.38"/>
  </g>
  <ellipse class="cls-1" cx="303.83" cy="402.04" rx="3.87" ry="4.09"/>
  <ellipse class="cls-1" cx="303.83" cy="471.29" rx="3.87" ry="4.09"/>
  <g>
    <ellipse class="cls-24" cx="303.36" cy="401.33" rx="3.21" ry="3.38"/>
    <ellipse class="cls-1" cx="303.83" cy="438.1" rx="3.87" ry="4.09"/>
    <ellipse class="cls-24" cx="303.36" cy="437.4" rx="3.21" ry="3.38"/>
  </g>
  <ellipse class="cls-24" cx="303.36" cy="470.59" rx="3.21" ry="3.38"/>
  <ellipse class="cls-1" cx="303.83" cy="507.35" rx="3.87" ry="4.09"/>
  <ellipse class="cls-24" cx="303.36" cy="506.65" rx="3.21" ry="3.38"/>
</svg>