<?xml version="1.0" encoding="UTF-8"?>
<svg id="Layer_1" data-name="Layer 1" xmlns="http://www.w3.org/2000/svg" xmlns:xlink="http://www.w3.org/1999/xlink" viewBox="0 0 594.44 808.85">
  <defs>
    <style>
      .cls-1, .cls-2 {
        fill: #083c5b;
      }

      .cls-3 {
        fill: #fff;
      }

      .cls-4 {
        fill: #242b2d;
      }

      .cls-5 {
        fill: #232b2d;
      }

      .cls-6 {
        stroke: #e89591;
        stroke-width: 2px;
      }

      .cls-6, .cls-7, .cls-8, .cls-9, .cls-10 {
        fill: none;
      }

      .cls-6, .cls-10 {
        stroke-linecap: round;
        stroke-linejoin: round;
      }

      .cls-11 {
        fill: #27b2b4;
      }

      .cls-12 {
        fill: #fcd1c8;
      }

      .cls-13 {
        fill: #db86bf;
      }

      .cls-14 {
        fill: #134675;
      }

      .cls-15 {
        fill: #80878c;
      }

      .cls-16 {
        clip-path: url(#clippath-2);
      }

      .cls-17 {
        fill: #9fa6aa;
      }

      .cls-2 {
        opacity: .5;
      }

      .cls-18 {
        fill: #a97d34;
      }

      .cls-19 {
        fill: #fdfefc;
      }

      .cls-20 {
        fill: #e0e0e0;
      }

      .cls-21 {
        fill: #e89591;
      }

      .cls-22 {
        clip-path: url(#clippath-1);
      }

      .cls-23 {
        clip-path: url(#clippath-4);
      }

      .cls-24 {
        fill: #c4cacc;
      }

      .cls-7 {
        stroke: #1a2021;
        stroke-width: 3px;
      }

      .cls-7, .cls-8 {
        stroke-miterlimit: 10;
      }

      .cls-25 {
        fill: #1c2223;
      }

      .cls-26 {
        fill: #5f6466;
      }

      .cls-27 {
        clip-path: url(#clippath);
      }

      .cls-8 {
        stroke: #fcd1c8;
      }

      .cls-28 {
        clip-path: url(#clippath-3);
      }

      .cls-29 {
        fill: #fdd0c9;
      }

      .cls-30 {
        fill: #293336;
      }

      .cls-31 {
        fill: #fad97a;
      }

      .cls-10 {
        stroke: #083c5b;
        stroke-width: 2.33px;
      }
    </style>
    <clipPath id="clippath">
      <path class="cls-9" d="m325.13,507.49c8.95,76.24,17.9,152.48,26.85,228.71.88,7.49,1.76,14.99,2.64,22.48h-109.28c-2.84-40.17-5.67-80.34-8.51-120.51-4.31,40.17-8.62,80.34-12.94,120.51h-108.6c11.01-84.09,22.01-168.17,33.02-252.26,37.61-.33,75.76-.31,114.42.09,20.95.22,41.75.54,62.39.97Z"/>
    </clipPath>
    <clipPath id="clippath-1">
      <path class="cls-9" d="m301.67,167.88c.39-.33,4.98-4.07,10.21-2.43,4.4,1.38,6.11,5.6,6.64,6.89,2.61,6.42.38,15.56-6.38,20.04-6.82,4.52-14.59,1.88-15.57,1.53,1.7-8.68,3.4-17.36,5.11-26.04Z"/>
    </clipPath>
    <clipPath id="clippath-2">
      <path class="cls-9" d="m195.92,151.19c-.4-.34-5.11-4.17-10.47-2.49-4.51,1.42-6.27,5.74-6.81,7.07-2.67,6.58-.39,15.95,6.55,20.55,6.99,4.63,14.96,1.93,15.97,1.57-1.75-8.9-3.49-17.8-5.24-26.7Z"/>
    </clipPath>
    <clipPath id="clippath-3">
      <path class="cls-9" d="m219.59,192.63c-.5-2.22,1.73-4.07,3.82-3.16,4.34,1.89,9.95,3.76,16.63,4.69,9.01,1.26,16.78.39,22.48-.84,2.31-.5,4.11,1.93,3.03,4.03-4.15,8.07-11.15,13.79-19.24,15.1-1.99.32-8.17,1.05-14.57-2.41-7.89-4.27-10.95-12.12-12.14-17.4Z"/>
    </clipPath>
    <clipPath id="clippath-4">
      <path class="cls-9" d="m145.63,347.11c3.24-3.99,6.84-6.17,12.26-8.94,16.27-8.32,30.46-12.49,33.19-13.28,27.08-7.82,24.1-6.38,35.49-9.96,25.02-7.86,33.86-13.06,40.34-19.15,5.88-5.52,9.96-10.72,9.96-10.72,6.01-7.67,6.4-10.84,10.72-15.06,6.67-6.51,15.05-8.07,17.11-8.43,13.87-2.4,27.85,4.99,35.49,15.32,6.44,8.71,11.88,24.21,5.11,32.17-2.17,2.55-5.09,3.74-7.4,4.34-.4,1.05-1.27,2.89-3.06,4.6-2.16,2.05-4.5,2.79-5.62,3.06-.9,1.79-2.74,4.73-6.13,6.38-3.07,1.5-6,1.24-8.17,1.02-12.62-1.3-18.04-3.31-25.28-3.57-1.66-.06-6.97-.09-13.28,1.53-9.2,2.36-15.42,6.96-18.38,9.19-37.32,28.12-45.19,34.72-45.19,34.72,0,0-15.35,12.88-35.23,24.77-2.56,1.53-8.73,5.13-17.11,5.36-3.26.09-9.12.26-14.3-3.57-5.53-4.1-6.99-10.32-7.92-14.3-1.39-5.98-.7-10.66,0-15.32.88-5.91,2.02-13.54,7.4-20.17Z"/>
    </clipPath>
  </defs>
  <g>
    <path class="cls-3" d="m256.81,610.42h0c-23.7-1.89-47.39-3.79-71.09-5.7,23.7,1.9,47.4,3.8,71.09,5.7Z"/>
    <path class="cls-30" d="m325.13,507.49c8.95,76.24,17.9,152.48,26.85,228.71.88,7.49,1.76,14.99,2.64,22.48h-109.28c-2.84-40.17-5.67-80.34-8.51-120.51-4.31,40.17-8.62,80.34-12.94,120.51h-108.6c11.01-84.09,22.01-168.17,33.02-252.26,37.61-.33,75.76-.31,114.42.09,20.95.22,41.75.54,62.39.97Z"/>
    <g class="cls-27">
      <path class="cls-4" d="m180.52,506.52h106.52v48.02c2.19.09,34.83,1.9,49.26,28.31,6.69,12.25,6.48,24.33,5.93,30.3-6.79,2.14-15.04,4.11-24.51,5.11-17.91,1.88-32.99-.49-43.4-3.06-2.89-24.17-5.79-48.34-8.68-72.51-14.15.09-28.29.17-42.44.26-3.22,22.89-6.43,45.79-9.65,68.68-16.61,1.14-33.46,2.17-50.55,3.06-18.41.97-36.55,1.76-54.44,2.38,3.59-18.23,12.8-50.91,39.06-81.28,11.2-12.95,22.86-22.43,32.9-29.27Z"/>
      <path class="cls-7" d="m239.28,506.81c-.83,43.07-1.65,86.13-2.48,129.2-.09,4.89-.19,9.79-.28,14.68"/>
      <path class="cls-7" d="m257.83,506.52c-1.02,27.15-2.04,54.29-3.06,81.44-.42,6.89-4.14,12.65-9.53,14.64-3.14,1.15-6.08.75-7.8.33"/>
    </g>
    <path class="cls-30" d="m337.54,117.66c-1.19-.03-3.1-.23-5.11-1.19-4.42-2.11-6.37-6.48-11.23-19.23-4.09-10.72-3.78-10.45-4.77-12.26-3.1-5.67-6.67-12.2-13.62-14.3-7.3-2.21-14.19,1.72-16.34,3.06-1.7-3.35-3.4-6.7-5.11-10.04,0,0-3.44-6.16-9.45-10.47-9.67-6.93-26.9-4.83-39.57.26-20.78,8.34-37.81,28.09-44.43,41.62-3.72,7.62-6.57,10.78-12.26,17.11-2.35,2.61-5.39,5.67-10.21,7.4-3.27,1.18-6.21,1.33-8.17,1.28.21.24,4.45,4.96,10.21,3.83,3.15-.62,5.08-2.65,5.77-3.46-6.4,11.13-5.94,17.95-4.29,22.15,2.36,5.98,7.98,8.77,7.45,13.99-.39,3.79-3.8,6.53-6.38,8.17.62.35,2.49,1.29,4.95.96,3.08-.42,4.82-2.54,5.18-3,.89,5.1,2.43,11.3,5.19,18.04,1.93,4.71,4.07,8.77,6.13,12.17.88,1.42.95,3.18.17,4.6-.97,1.75-2.79,2.16-3.06,2.21.78.41,2.98,1.43,5.62.85,3.22-.7,5.8-3.49,6.6-7.11,28.1,4.3,56.2,8.6,84.3,12.89,2.04.45,4.08.91,6.13,1.36-.13.49-.68,2.69.53,4.96,1.43,2.68,4.15,3.29,4.57,3.38,3.22.67,5.61-1.29,5.89-1.53-3.05-.43-4.3-1.5-4.85-2.49-3.39-6.06,12.97-20.64,15.13-22.53.55-.77,1.11-1.53,1.66-2.3.06.23.77,2.97,3.19,3.83,2.35.84,5.35-.43,6.72-3.23-.81-.01-3.19-.15-4.6-1.87-1.42-1.74-.99-4.06-.52-6.61.33-1.78,1.11-4.66,3.25-7.86,2.67-3.22,10.7-13.75,11.23-29.45.47-13.83-5.15-23.86-7.49-27.57,1.26,2.55,3.7,4.23,6.38,4.34,2.82.11,4.75-1.56,5.19-1.96Z"/>
    <path class="cls-14" d="m204.91,238.21c22.25,1.15,44.51,2.3,66.77,3.45-.72,2.46-2.51,7.23-7.01,10.78-5.92,4.67-12.89,4.36-18.17,4.13-1.83-.08-8.01-.48-18.73-4.98-5.86-2.47-14.01-6.56-22.86-13.38Z"/>
    <path class="cls-29" d="m301.67,167.88c.39-.33,4.98-4.07,10.21-2.43,4.4,1.38,6.11,5.6,6.64,6.89,2.61,6.42.38,15.56-6.38,20.04-6.82,4.52-14.59,1.88-15.57,1.53,1.7-8.68,3.4-17.36,5.11-26.04Z"/>
    <path class="cls-29" d="m196.99,152.29c-4.13-3.73-9.48-5.28-13.62-3.52-6.63,2.82-6.67,12.65-5.71,17.43.47,2.38,1.65,8.28,6.88,10.55,4.73,2.05,9.44-.31,10.25-.73.73-7.91,1.46-15.82,2.2-23.73Z"/>
    <path class="cls-29" d="m213.59,224.85c.14.95.57,4.53-1.66,8.13-2.4,3.86-6.16,5-7.02,5.23.43,16.58,11.19,30.44,24.98,33.83,17.48,4.3,38.05-8.67,41.78-30.38-.68-.77-1.45-1.82-2.04-3.19-1.67-3.84-.82-7.46-.44-8.81-4.53,2.21-13.63,5.89-25.52,5.51-15.27-.49-25.99-7.36-30.09-10.31Z"/>
    <g class="cls-22">
      <path class="cls-21" d="m302.2,171.18c.28-.24,3.63-2.97,7.44-1.77,3.2,1.01,4.45,4.08,4.83,5.02,1.9,4.68.28,11.33-4.65,14.6-4.97,3.29-10.63,1.37-11.34,1.12,1.24-6.32,2.48-12.65,3.72-18.97Z"/>
    </g>
    <g class="cls-16">
      <path class="cls-21" d="m196.13,156.76c-.55-.84-2.51-3.56-5.97-4.27-.81-.17-2.45-.5-4.14.27-2.21,1.01-3.05,3.25-3.64,4.85-1.36,3.65-.66,6.92-.36,8.26.36,1.6.86,3.81,2.3,5.36,2.79,3,8.72,3.1,14.65.41-.95-4.96-1.89-9.92-2.84-14.88Z"/>
    </g>
    <g>
      <path class="cls-29" d="m227.76,94.09c-15.56,8.37-23.04,21.93-25.79,27.06-6.69,12.48-7.6,23.63-8.84,38.61-.98,11.92-1.79,21.7,1.64,34.17,2.17,7.87,5.3,19.21,15.62,28.33,10.48,9.26,23.25,11.69,25.64,12.11,1.14.2,2.06.32,2.7.4,14.36,1.83,25.22-2.68,27.83-3.83,2.18-.96,10.78-4.93,20.17-15.83,3.02-3.5,17.65-21.12,20.94-50.55,2.17-19.4,5.52-49.43-16.09-67.15-18.33-15.03-45.71-13.07-63.83-3.32Z"/>
      <g>
        <path class="cls-6" d="m246.4,163.85c-.54,2.04-1.77,5.59-4.68,9.15-1.75,2.15-3.63,3.69-5.24,4.78-1.55,1.05-1.78,3.24-.47,4.57.75.76,1.71,1.52,2.95,2.1,2.93,1.39,5.62.99,6.53.81"/>
        <path class="cls-6" d="m249.91,214.99c-1.85.57-4.61,1.18-7.97,1.1-4.16-.11-7.42-1.24-9.38-2.1"/>
        <path class="cls-30" d="m219.59,192.63c-.5-2.22,1.73-4.07,3.82-3.16,4.34,1.89,9.95,3.76,16.63,4.69,9.01,1.26,16.78.39,22.48-.84,2.31-.5,4.11,1.93,3.03,4.03-4.15,8.07-11.15,13.79-19.24,15.1-1.99.32-8.17,1.05-14.57-2.41-7.89-4.27-10.95-12.12-12.14-17.4Z"/>
        <g class="cls-28">
          <g>
            <path class="cls-13" d="m226.27,206.79c1.63-1.01,4.61-2.55,8.48-2.82,3.91-.27,6.91.87,8.54,1.67,1.71-.87,5.62-2.54,10.37-1.55,2.98.63,5.19,2.07,6.52,3.14-3.15,8.77-10.34,14.52-17.91,14.34-7.46-.18-13.85-6.07-16-14.78Z"/>
            <path class="cls-3" d="m224.76,187.16l-.36,2.65c-.32,2.36,1.06,4.63,3.32,5.38,6.34,2.09,15.48,4.15,26.46,3.58,9.12-.48,16.57-2.63,21.77-4.6l-51.18-7Z"/>
          </g>
        </g>
        <path class="cls-30" d="m259.68,152.5c-.37-.53-.93-1.5-.78-2.59.56-4.15,10.8-6.8,18.97-6.11,3.21.27,8.37.77,12.29,4.79,1.63,1.67,2.54,3.43,3.06,4.66-2.05-1.51-8.19-5.59-17.03-5.68-8.39-.08-14.35,3.49-16.51,4.93Z"/>
        <g>
          <path class="cls-21" d="m260.59,162.69c.55-1.47,2.08-4.94,5.74-7.45,4.43-3.03,10.09-3.35,14.64-1.42,1.28.54,6.51,2.76,7.81,8,.54,2.16.59,5.55-1.04,7.39-3.4,3.83-14.29,1.05-27.15-6.52Z"/>
          <g>
            <path class="cls-3" d="m259.11,171.81c.84.97,4.79,5.33,11.46,5.97,7.81.75,13.06-4.22,13.81-4.95.21-.4,3.42-6.8.13-12.1-3.34-5.39-10.97-5.71-15.82-3.84-5.71,2.19-9.55,8.13-9.58,14.92Z"/>
            <path class="cls-30" d="m259.07,171.92c-.13-1-.87-7.26,3.6-12.31,5.73-6.47,14.51-4.66,15.12-4.52,1.27.28,6.78,1.51,9.24,6.38.41.81,2.31,4.57.52,8.17-.91,1.83-2.39,2.84-3.21,3.31.44-1.06.99-2.78.86-4.9-.37-5.94-5.73-9.15-6.06-9.34-4.65-2.68-10.35-1.65-14.18,1.05-6.02,4.25-5.91,11.57-5.89,12.16Z"/>
            <path class="cls-30" d="m281.57,170.03c-1.79,5.19-7.46,7.95-12.66,6.16-5.19-1.79-7.95-7.46-6.16-12.66,1.79-5.19,7.46-7.95,12.66-6.16,5.19,1.79,7.95,7.46,6.16,12.66Z"/>
            <circle class="cls-3" cx="275.09" cy="162.76" r="3.69"/>
          </g>
        </g>
        <g>
          <path class="cls-21" d="m229.97,159.22c-.17-1.56-.78-5.31-3.7-8.64-3.53-4.03-8.94-5.76-13.83-5.02-1.37.21-6.99,1.05-9.56,5.8-1.06,1.95-1.96,5.23-.84,7.42,2.34,4.56,13.57,4.58,27.92.45Z"/>
          <g>
            <path class="cls-3" d="m229.13,168.42c-1.06.73-5.97,3.97-12.59,2.93-7.75-1.22-11.6-7.34-12.14-8.23-.1-.44-1.62-7.44,2.89-11.75,4.58-4.39,12.04-2.79,16.28.22,4.98,3.54,7.22,10.25,5.56,16.84Z"/>
            <path class="cls-30" d="m229.14,168.53c.38-.93,2.65-6.82-.42-12.82-3.94-7.7-12.89-8.13-13.51-8.15-1.3-.04-6.94-.22-10.54,3.88-.6.69-3.38,3.85-2.54,7.78.43,2,1.61,3.35,2.28,4.01-.17-1.13-.27-2.94.39-4.96,1.84-5.66,7.83-7.43,8.19-7.53,5.17-1.44,10.43.98,13.47,4.56,4.77,5.62,2.84,12.68,2.68,13.24Z"/>
            <path class="cls-30" d="m207.82,161.1c.44,5.48,5.24,9.56,10.72,9.12,5.48-.44,9.56-5.24,9.12-10.72s-5.24-9.56-10.72-9.12c-5.48.44-9.56,5.24-9.12,10.72Z"/>
            <circle class="cls-3" cx="221.8" cy="157.57" r="3.69"/>
          </g>
        </g>
        <path class="cls-30" d="m233,149.12c.49-.42,1.27-1.22,1.4-2.32.49-4.16-8.76-9.27-16.85-10.65-3.18-.54-8.3-1.34-13.1,1.58-1.99,1.21-3.32,2.69-4.12,3.75,2.36-.95,9.32-3.38,17.91-1.25,8.14,2.02,13.03,6.96,14.76,8.88Z"/>
      </g>
    </g>
    <path class="cls-21" d="m213.59,224.85c4.1,2.95,14.82,9.83,30.09,10.31,11.89.38,20.99-3.29,25.52-5.51l-.47,2.33c-13.85,13.81-31.84,19.09-45.56,13.17-3.1-1.34-8.07-4.15-12.64-10.33.72-.77,1.97-2.33,2.68-4.67.7-2.3.54-4.26.39-5.3Z"/>
    <path class="cls-30" d="m277.97,114.09c-1.25,3.39-6.41,16.14-20.43,23.83-11.83,6.49-23.1,5.6-27.06,5.11,2.43-1.61,6.36-4.66,9.7-9.7,3.26-4.91,4.55-9.58,5.11-12.43-7.34,12.95-15.36,18.06-21.62,20.26-9.64,3.39-16.76.44-22.13,5.45-5.53,5.16-5,14.82-3.57,22.47-2.18-1.9-5.47-5.3-7.49-10.38-2.84-7.15-1.68-13.89-.34-19.4,6.1-25.14,9.42-38.84,23.15-49.7,20.91-16.55,47.2-11.66,55.66-9.53,20.33,5.11,46.24,21.48,50.72,48.34,2.7,16.2-2.05,38.26-16.68,49.19-1.82,1.36-3.46,2.3-4.6,2.89,1.23-1.8,2.92-4.68,4.09-8.51,0,0,0,0,0,0h0c0-4.55,1.11-7.55,1.36-8.85.69-3.63-2.92-6.76-5.42-10.07-2.89-3.83-5.89-10.03-6.16-20.4-.33,2.53-.52,5.72-.17,9.36.24,2.52.69,4.75,1.19,6.64-3.06-3.14-7.53-8.47-10.89-16.17-3.24-7.42-4.16-14.07-4.43-18.38Z"/>
    <path class="cls-3" d="m286.48,394.6c0,41.55-3.24,79.19-7.91,112.1-22.58-.15-45.16-.3-67.74-.45-5.79-27.47-10.59-58.12-13.28-91.57-5.49-68.38-.52-128.38,7.36-176.47.3,2.09,2.75,17.1,16.13,24.64,8.22,4.63,16.21,3.98,18.72,3.74,13.61-1.29,21.99-10.83,24.91-14.16,3.59-4.08,5.75-8.06,7.01-10.78,8.29,42.49,14.8,94.15,14.8,152.94Z"/>
    <path class="cls-20" d="m184.44,440.05c12.56,17.92,28.43,34.01,45.45,32.68,38.44-3,67.92-102.84,67.92-90.38v139.92c-36.49,33.95-89.38,29.04-112.36,0-16.66-21.05-17.25-54.32-1-82.22Z"/>
    <path class="cls-14" d="m219.53,470.47c.28,28.2-.18,45.47-1.9,65.07-2.28,25.96-6.03,47.47-9.19,62.81-15.62.57-32.16.71-49.53.26-19.81-.52-38.51-1.77-56-3.49,7.63-22.99,14.94-47.99,21.45-74.89,8.83-36.52,14.77-70.75,18.73-101.97-10.99-.24-17.26-4.53-19.76-6.54-10.65-8.56-12.62-23.62-13.78-32.17-1.33-9.78-1.1-19.27,10.9-64.69,8.93-33.84,13.62-46.81,24.59-56.33,7.99-6.93,16.34-10.47,16.34-10.47,6.42-2.71,10.74-3.11,24.76-5.87,7.95-1.56,14.43-2.98,18.77-3.96,4.83,11.83,9.66,23.66,14.49,35.5-3.69,35.52-4.28,64.59-4.14,84.64.29,41.18,3.72,54.74,4.28,112.12Z"/>
    <path class="cls-14" d="m398.27,363.83c-.11,10.97-3.15,18.5-4.21,20.94-1.44,3.32-6.88,15.36-20.26,23.1-3.85,2.23-10.73,6.37-19.91,6.13-17.84-.46-28.95-15.29-30.64-17.62,6.19,26.79,12.35,53.6,18.47,80.43,8.58,37.61,17.09,75.22,25.53,112.85-10.83,5.76-31.91,15.07-59.74,15.32-19.08.17-34.54-3.97-44.66-7.61-3.96-92.37-4.12-161.05-3.6-187.2.75-37.46,2.2-63.58,2.2-63.58.31-5.52.51-8.6.74-13.94,1.03-23.43.53-42.18-.07-54.46,3.18-12.18,6.37-24.35,9.55-36.53,11.97,1.42,31.87,5.37,53.1,17.62,22.85,13.18,36.38,30.57,45.19,42.13,13.39,17.56,28.56,37.47,28.3,62.42Z"/>
    <g>
      <g>
        <path class="cls-3" d="m272.45,335.12c0-1.98,0-3.97,0-5.95q0-.25.26-.25c3.16,0,6.32,0,9.49,0q.25,0,.25.24c0,.82,0,1.64,0,2.46,0,.04,0,.07,0,.11,0,.12-.02.13-.13.14-.05,0-.1,0-.15,0-2.01,0-4.02,0-6.03,0q-.24,0-.24.25c0,.45,0,.91,0,1.36,0,.05,0,.09,0,.14,0,.06.04.09.1.1.06,0,.11,0,.17,0,2,0,4,0,6,0,.33,0,.29.02.29.28,0,.74,0,1.47,0,2.21,0,.04,0,.08,0,.12,0,.11-.02.13-.14.13-.05,0-.1,0-.15,0-2,0-4.01,0-6.01,0q-.25,0-.25.26c0,.48,0,.97,0,1.45,0,.05,0,.09,0,.14,0,.05.04.08.09.09.06,0,.11,0,.17,0,2.01,0,4.03,0,6.04,0q.25,0,.25.25c0,.81,0,1.63,0,2.44,0,.02,0,.03,0,.05,0,.2,0,.21-.21.21-3.19,0-6.39,0-9.58,0-.2,0-.21,0-.21-.21,0-2.01,0-4.02,0-6.03Z"/>
        <path class="cls-3" d="m297.75,328.92c1.98,0,3.96,0,5.93,0,.31,0,.28,0,.28.29,0,.84,0,1.68,0,2.52,0,.23,0,.23-.23.23-1.08,0-2.16,0-3.24,0-.25,0-.24-.01-.24.23,0,2.19-.01,4.39,0,6.58,0,.75-.31,1.32-.88,1.77-.52.41-1.13.64-1.77.75-.22.04-.44.07-.66.06-.14,0-.16-.02-.16-.16,0-.05,0-.1,0-.15,0-2.94,0-5.88,0-8.82,0-.28,0-.26-.26-.26-1.58,0-3.16,0-4.74,0q-.24,0-.24-.25c0-.85,0-1.71,0-2.56,0-.22,0-.23.22-.23,2,0,4,0,5.99,0Z"/>
        <path class="cls-11" d="m291.51,335.41c.04-.06.02-.12.02-.17,0-.65,0-1.31,0-1.96,0-.06-.03-.14.03-.17.06-.03.1.05.14.1,1.04,1.04,2.08,2.08,3.13,3.12.09.09.13.18.13.31,0,1.5,0,3,0,4.5,0,.22,0,.22-.22.22-.47,0-.95,0-1.42,0-.11,0-.2-.02-.26-.12-.02-.03-.04-.05-.06-.07-.41-.42-.82-.84-1.22-1.27-.49-.51-.98-1.02-1.46-1.53-.46-.48-.93-.97-1.39-1.45-.48-.5-.97-1.01-1.45-1.52-.22-.23-.44-.46-.66-.69-.03-.04-.07-.08-.12-.1-.03.06-.02.11-.02.17,0,.48,0,.97,0,1.45,0,.05.01.11-.02.16-.06,0-.09-.04-.12-.07-1.06-1.06-2.11-2.11-3.17-3.17-.07-.07-.1-.14-.1-.25,0-1.27,0-2.53,0-3.8,0-.17.01-.18.18-.19.65,0,1.3,0,1.95,0,.11,0,.18.04.25.12.31.34.62.68.94,1.03.42.46.84.92,1.26,1.38.26.28.52.56.77.84.46.5.91.99,1.37,1.49.3.33.6.65.9.97.18.19.35.39.53.58.03.03.05.07.1.08Z"/>
        <path class="cls-18" d="m284.85,341.35c-1.01,0-1.82-.82-1.82-1.83,0-1.01.82-1.83,1.83-1.82,1,0,1.82.83,1.82,1.83,0,1.01-.82,1.82-1.83,1.82Z"/>
      </g>
      <path class="cls-10" d="m301.94,381.65h-29.27c-1.73,0-3.14-1.68-3.14-3.75v-30.79c6.38,0,12.75,0,19.13,0,5.47,0,10.94,0,16.41,0v30.79c0,2.07-1.4,3.75-3.14,3.75Z"/>
      <path class="cls-10" d="m269.53,347.11h35.56c0,3.23-.01,6.46-.02,9.69-5.92,2.53-11.85,5.05-17.77,7.58-5.92-2.53-11.85-5.05-17.77-7.58v-9.69Z"/>
    </g>
    <path class="cls-1" d="m332.46,436.37c-3.07-13.33-6.14-26.66-9.21-39.99,1.3,1.79,3.21,4.14,5.83,6.57,1.54,1.43,6.73,6.15,13.79,8.76,12.94,4.78,25.85-.58,27.96-1.46,14.99-6.27,25.2-22.24,27.15-41-25.85-9.02-46.53-10.44-51.4-2.21-3.9,6.58,1.7,20.38,12.48,26.04,10.34,5.44,23.81,2.53,31.69-7.4-1.85,3.31-8.64,14.55-22.47,19.15-2.42.8-10.8,3.78-19.02,1.28-25.17-7.66-32.02-57.93-33.57-69.36-3.12-22.88-1.15-40.49-1.7-40.51-.65-.02-3.56,24.04-2.38,49.7.96,20.85,5.06,52.32,20.87,90.45Z"/>
    <path class="cls-5" d="m143.01,350.96c-2.88,2.76-7.67,8.06-10.65,16.07-1.36,3.65-6.77,18.15,1.02,31.15,1.28,2.13,5.97,9.96,14.81,12.26,10.86,2.82,23.93-3.77,31.64-16.7-12.27-14.26-24.54-28.52-36.81-42.77Z"/>
    <path class="cls-1" d="m135.59,330.94c.1.2,27.47-9.12,37.45-9.53,2.33-.1,4.51.26,6.13,1.7,1.7,1.51,2.16,3.66,2.31,4.91.06-1.77-.11-5.14-2.4-7.21-2.86-2.58-7.41-1.67-10.34-1.02-16.76,3.73-33.23,10.99-33.15,11.15Z"/>
    <path class="cls-1" d="m173.47,319.1c2.29-12.75,4.59-25.5,6.89-38.24-3.93,7.48-6.05,13.8-7.26,18.24-1.53,5.6-2.6,11.78-7.41,18.37-1.28,1.75-2.48,3.07-3.3,3.91"/>
    <path class="cls-1" d="m143.08,418.25c2.95.09,17.88.27,28.72-11.01,4.62-4.81,6.88-10.01,8.02-13.51,12.14-8.73,24.29-17.45,36.43-26.18.26,4.2.51,8.4.77,12.6-10.24,7.2-20.47,14.4-30.71,21.6-.91,3.35-4.61,15.3-16.68,23.83-12.27,8.67-24.99,8.03-28.41,7.75.62-5.03,1.24-10.05,1.86-15.08Z"/>
    <path class="cls-20" d="m216.25,367.55c8.39-6.7,17.06-13.43,26.02-20.19,6.7-5.05,13.35-9.96,19.93-14.71-.25,4.65-.5,9.3-.74,13.94-14.81,11.19-29.62,22.37-44.43,33.56-.26-4.2-.51-8.4-.77-12.6Z"/>
    <path class="cls-2" d="m262.2,332.65c2.83-5.89,7.06-12.25,13.43-17.69,25.52-21.81,62.99-9.79,66.6-8.58v14.3c-.55.16-1.1.31-1.65.47-.11.55-.81,3.78-3.84,5.53-1.66.96-3.27,1.04-4.08,1.02-.63,1.65-1.84,4.14-4.21,6.26-5.4,4.81-12.92,4.18-17.74,3.7-8.72-.86-11.83-3.7-16.85-4.85-6.81-1.55-17.1.02-32.39,13.78.25-4.65.5-9.3.74-13.94Z"/>
    <path class="cls-12" d="m145.63,347.11c3.24-3.99,6.84-6.17,12.26-8.94,16.27-8.32,30.46-12.49,33.19-13.28,27.08-7.82,24.1-6.38,35.49-9.96,25.02-7.86,33.86-13.06,40.34-19.15,5.88-5.52,9.96-10.72,9.96-10.72,6.01-7.67,6.4-10.84,10.72-15.06,6.67-6.51,15.05-8.07,17.11-8.43,13.87-2.4,27.85,4.99,35.49,15.32,6.44,8.71,11.88,24.21,5.11,32.17-2.17,2.55-5.09,3.74-7.4,4.34-.4,1.05-1.27,2.89-3.06,4.6-2.16,2.05-4.5,2.79-5.62,3.06-.9,1.79-2.74,4.73-6.13,6.38-3.07,1.5-6,1.24-8.17,1.02-12.62-1.3-18.04-3.31-25.28-3.57-1.66-.06-6.97-.09-13.28,1.53-9.2,2.36-15.42,6.96-18.38,9.19-37.32,28.12-45.19,34.72-45.19,34.72,0,0-15.35,12.88-35.23,24.77-2.56,1.53-8.73,5.13-17.11,5.36-3.26.09-9.12.26-14.3-3.57-5.53-4.1-6.99-10.32-7.92-14.3-1.39-5.98-.7-10.66,0-15.32.88-5.91,2.02-13.54,7.4-20.17Z"/>
    <path class="cls-21" d="m304.7,261.58v25.72c0,4.12,3.34,7.47,7.47,7.47h35.17v-32.68c-7.03-1.38-15.77-2.43-25.79-2.17-6.25.16-11.9.81-16.85,1.66Z"/>
    <path class="cls-5" d="m391.38,384.9c-5.73,9.02-16.61,13.3-26.68,10.6-9.36-2.51-16.36-10.61-17.62-20.43,14.77,3.28,29.53,6.55,44.3,9.83Z"/>
    <path class="cls-12" d="m365.72,316.47c-7.95,12.07-9.74,15.04-11.74,18.89-6.23,11.97-9.5,18.25-9.19,27.06.09,2.55.5,14.4,9.7,22.47,1.54,1.35,6,5.16,12.77,6.13,12.81,1.83,22.51-8.17,24-9.7,4.65-4.79,6.62-9.8,10.72-27.06,4.69-19.71,6.61-29.66,8.17-38.81,8.64-50.73,4.86-43.41,8.34-54.98,0,0,4.49-14.94,3.92-32.85-.04-1.35-.15-3.71-1.02-6.64-.43-1.43-4.2-13.43-15.83-17.19-1.51-.49-10.32-3.34-17.36,1.7-3.44,2.46-7.33,7.44-5.96,10.38,2.13,4.55,15.24.86,17.52,6.15.48,1.11.44,2.51.01,2.7-1.14.51-5.19-7.72-6.47-7.23-.59.23-.64,2.36,1.02,9.28,7.46,13.65,6.99,23.62,6.13,28.77-1.51,8.99-7.48,18.65-19.4,37.96-.81,1.32-1.72,2.32-15.32,22.98Z"/>
    <path class="cls-21" d="m385.29,217.95c1.15-.83,7.39-5.19,14.91-3.35,1.54.38,5.53,1.35,7.92,4.85,3.36,4.92,1.13,11.32-.26,15.32-2.29,6.59-6.46,10.95-9.33,13.4-4.41-10.08-8.83-20.15-13.24-30.23Z"/>
    <g class="cls-23">
      <g>
        <path class="cls-6" d="m350.03,310.24c-5.08,1.83-13.61,4.2-24.34,3.86-10.89-.35-19.34-3.34-24.31-5.53"/>
        <path class="cls-6" d="m355.93,313.5c-4.75,2.57-12.84,6.17-23.5,7.42-10.82,1.27-19.62-.44-24.86-1.87"/>
        <path class="cls-6" d="m357.18,295.58c-4.85,2.38-13.07,5.66-23.78,6.49-10.86.84-19.59-1.21-24.77-2.84"/>
      </g>
    </g>
    <g>
      <path class="cls-8" d="m315.84,228.65v51.91h80v-51.91h-80Z"/>
      <path class="cls-30" d="m394.67,217.04h-77.93c-4.79,0-8.67,3.88-8.67,8.67v57.59c0,4.79,3.88,8.67,8.67,8.67h77.93c4.78,0,8.66-3.88,8.66-8.67v-57.59c0-4.79-3.88-8.67-8.66-8.67Zm3.86,65.2c0,3.29-2.66,5.95-5.95,5.95h-73.75c-3.29,0-5.96-2.66-5.96-5.95v-55.47c0-3.29,2.67-5.95,5.96-5.95h73.75c3.29,0,5.95,2.66,5.95,5.95v55.47Z"/>
      <path class="cls-25" d="m392.58,220.82h-73.75c-3.29,0-5.96,2.66-5.96,5.95v55.47c0,3.29,2.67,5.95,5.96,5.95h73.75c3.29,0,5.95-2.66,5.95-5.95v-55.47c0-3.29-2.66-5.95-5.95-5.95Zm3.26,59.74h-80v-51.91h80v51.91Z"/>
      <rect class="cls-26" x="315.84" y="228.65" width="80" height="51.91"/>
      <path class="cls-15" d="m391.96,254.6c0,10.18-4.19,19.38-10.95,25.96h-50.61c-6.76-6.58-10.95-15.78-10.95-25.96s4.19-19.37,10.95-25.95h50.61c6.76,6.58,10.95,15.77,10.95,25.95Z"/>
      <path class="cls-17" d="m382.85,254.6c0,12.22-8.07,22.55-19.17,25.96h-15.95c-11.1-3.41-19.17-13.74-19.17-25.96s8.07-22.55,19.17-25.95h15.95c11.1,3.4,19.17,13.73,19.17,25.95Z"/>
      <circle class="cls-24" cx="355.7" cy="254.6" r="16.39"/>
      <circle class="cls-19" cx="364.04" cy="247.45" r="11.24"/>
      <circle class="cls-19" cx="344.6" cy="265.27" r="6.08"/>
      <rect class="cls-26" x="306.87" y="175.79" width="83.23" height="14.51" rx="3.64" ry="3.64"/>
      <path class="cls-17" d="m321.93,190.3h56.26v5.69c0,6.27-5.09,11.36-11.36,11.36h-33.55c-6.27,0-11.36-5.09-11.36-11.36v-5.69h0Z"/>
      <path class="cls-31" d="m354.74,160.56s-1.71.07-3.49-.77c-5.28-2.48-15.22-32.69-12.03-41.65.55-1.55,1.39-2.86,1.39-2.86,1.93-2.99,4.65-4.54,6.04-5.19,5.94-2.78,11.76-.5,13.28.17,1.43.63,4.55,2,6.21,5.19.72,1.38.93,2.64,1.02,3.4,1.28,10.38-4.62,38.6-9.67,40.99-1.37.65-2.75.71-2.75.71Z"/>
      <path class="cls-31" d="m369.11,163.27s-.64-.43-1.06-1.21c-1.25-2.3,3.19-15.87,6.73-18.26.61-.42,1.26-.66,1.26-.66,1.49-.57,2.89-.4,3.57-.27,2.89.57,4.38,2.95,4.76,3.59.35.61,1.11,1.93.87,3.53-.11.69-.37,1.2-.54,1.5-2.3,4.09-11.94,12.73-14.4,12.25-.67-.13-1.18-.48-1.18-.48Z"/>
      <path class="cls-31" d="m342.58,165.79s.68-.91.89-2.21c.62-3.85-12.33-20.69-18.47-22.3-1.07-.28-2.1-.3-2.1-.3-2.37-.06-4.25.86-5.14,1.38-3.77,2.23-4.7,6.31-4.9,7.39-.19,1.02-.61,3.26.53,5.38.49.92,1.11,1.5,1.5,1.84,5.25,4.61,23.05,11.96,26.27,10.07.87-.51,1.43-1.25,1.43-1.25Z"/>
      <rect class="cls-25" x="342.23" y="291.96" width="27.19" height="40.85" rx="3.51" ry="3.51"/>
      <path class="cls-25" d="m348.29,332.81h15.45c2.29,0,4.15,1.86,4.15,4.15v3h-23.74v-3c0-2.29,1.86-4.15,4.15-4.15Z"/>
      <path class="cls-30" d="m343.82,339.96h24.13c6.02,0,10.91,4.89,10.91,10.91v5.62c0,2.92-2.37,5.3-5.3,5.3h-35.36c-2.92,0-5.3-2.37-5.3-5.3v-5.62c0-6.02,4.89-10.91,10.91-10.91Z"/>
      <rect class="cls-25" x="338.21" y="361.79" width="35.68" height="4.47"/>
      <rect class="cls-30" x="314.14" y="366.26" width="83.49" height="15.06"/>
      <rect class="cls-25" x="314.14" y="381.32" width="83.49" height="3.96"/>
      <rect class="cls-30" x="356.05" y="294.69" width="11.03" height="36.13"/>
      <rect class="cls-24" x="332.91" y="350.88" width="45.96" height="4.74"/>
      <rect class="cls-26" x="350.97" y="371.88" width="9.77" height="19.37"/>
      <rect class="cls-26" x="318.55" y="371.88" width="9.77" height="19.37" transform="translate(106.35 -69.07) rotate(14.56)"/>
      <rect class="cls-26" x="384.35" y="371.88" width="9.77" height="19.37" transform="translate(861.92 652.98) rotate(165.44)"/>
      <rect class="cls-25" x="352.66" y="391.25" width="6.38" height="367.44"/>
      <rect class="cls-25" x="268.82" y="384.67" width="8.24" height="380.44" transform="translate(153.34 -50.16) rotate(14.56)"/>
      <rect class="cls-25" x="435.59" y="384.67" width="8.24" height="380.44" transform="translate(1009.85 1020.73) rotate(165.44)"/>
      <circle class="cls-19" cx="324.45" cy="376.65" r="2.21"/>
      <circle class="cls-19" cx="355.89" cy="376.65" r="2.21"/>
      <circle class="cls-19" cx="388.2" cy="376.65" r="2.21"/>
      <rect class="cls-25" x="345.8" y="196.3" width="19.23" height="20.74"/>
      <rect class="cls-30" x="351.33" y="198.82" width="11.57" height="15.1"/>
      <path class="cls-30" d="m340.78,184.3h28.43v7.74c0,2.35-1.91,4.26-4.26,4.26h-19.91c-2.35,0-4.26-1.91-4.26-4.26v-7.74h0Z"/>
      <path class="cls-25" d="m346.91,173.32h16.43c6.06,0,10.98,4.92,10.98,10.98h-38.38c0-6.06,4.92-10.98,10.98-10.98Z"/>
      <path class="cls-30" d="m351.63,168.39h7.4c1.53,0,2.77,1.24,2.77,2.77v2.17h-12.94v-2.17c0-1.53,1.24-2.77,2.77-2.77Z"/>
    </g>
  </g>
  <path class="cls-30" d="m202.6,227.11c6.11,9.11,12.21,18.21,18.32,27.32-.51,6.43-1.02,12.85-1.53,19.28-7.41-10.63-14.81-21.27-22.22-31.9,1.81-4.9,3.62-9.79,5.43-14.69Z"/>
  <path class="cls-30" d="m202.6,227.11h10.85c-.06.95-.19,1.99-.44,3.1-.72,3.29-2.12,5.82-3.29,7.53-2.38-3.54-4.75-7.09-7.13-10.63Z"/>
  <path class="cls-1" d="m202.6,227.11c-5.13,4.91-10.25,9.83-15.38,14.74,1.71.52,4.18,1.54,6.38,3.64,4.17,3.99,4.25,8.95,6.44,16.29,1.01,3.37,2.73,8.16,5.81,13.71,1.73-3.59,3.01-6.59,3.88-8.69,2.2-5.35,2.76-7.55,5.06-9.56,2.07-1.81,4.44-2.51,6.13-2.81-6.11-9.11-12.21-18.21-18.32-27.32Z"/>
  <path class="cls-30" d="m278.91,231.6c-6.11,9.11-12.21,18.21-18.32,27.32.51,6.43,1.02,12.85,1.53,19.28,7.41-10.63,14.81-21.27,22.22-31.9-1.81-4.9-3.62-9.79-5.43-14.69Z"/>
  <path class="cls-30" d="m278.91,231.6c-3.35-.11-6.69-.23-10.04-.34-.17.94-.28,2.09-.18,3.39.29,3.71,2.11,6.36,3.09,7.58,2.38-3.54,4.75-7.09,7.13-10.63Z"/>
  <path class="cls-1" d="m278.91,231.6c5.13,4.91,10.25,9.83,15.38,14.74-1.71.52-4.18,1.54-6.38,3.64-4.17,3.99-4.25,8.95-6.44,16.29-1.01,3.37-2.73,8.16-5.81,13.71-1.73-3.59-3.01-6.59-3.88-8.69-2.2-5.35-2.76-7.55-5.06-9.56-2.07-1.81-4.44-2.51-6.13-2.81,6.11-9.11,12.21-18.21,18.32-27.32Z"/>
</svg>