<?xml version="1.0" encoding="UTF-8"?>
<svg id="Layer_1" data-name="Layer 1" xmlns="http://www.w3.org/2000/svg" xmlns:xlink="http://www.w3.org/1999/xlink" viewBox="0 0 594.44 808.85">
  <defs>
    <style>
      .cls-1 {
        fill: #083c5b;
      }

      .cls-2 {
        fill: #fff;
      }

      .cls-3 {
        fill: #242b2d;
      }

      .cls-4 {
        stroke: #e89591;
        stroke-width: 2px;
      }

      .cls-4, .cls-5 {
        stroke-linecap: round;
        stroke-linejoin: round;
      }

      .cls-4, .cls-5, .cls-6, .cls-7 {
        fill: none;
      }

      .cls-8 {
        fill: #27b2b4;
      }

      .cls-9 {
        fill: #fcd1c8;
      }

      .cls-10 {
        fill: #134675;
      }

      .cls-11 {
        clip-path: url(#clippath-2);
      }

      .cls-12 {
        fill: #a97d34;
      }

      .cls-13 {
        fill: #e0e0e0;
      }

      .cls-14 {
        fill: #e89591;
      }

      .cls-15 {
        clip-path: url(#clippath-1);
      }

      .cls-16 {
        clip-path: url(#clippath-4);
      }

      .cls-5 {
        stroke: #083c5b;
        stroke-width: 2.77px;
      }

      .cls-6 {
        stroke: #1a2021;
        stroke-miterlimit: 10;
        stroke-width: 3px;
      }

      .cls-17 {
        opacity: .66;
      }

      .cls-18 {
        clip-path: url(#clippath);
      }

      .cls-19 {
        clip-path: url(#clippath-3);
      }

      .cls-20 {
        fill: #293336;
      }

      .cls-21 {
        fill: #3b4244;
      }
    </style>
    <clipPath id="clippath">
      <path class="cls-7" d="m412.3,509.29c8.95,76.24,17.9,152.48,26.85,228.71.88,7.49,1.76,14.99,2.64,22.48h-109.28c-2.84-40.17-5.67-80.34-8.51-120.51-4.31,40.17-8.62,80.34-12.94,120.51h-108.6c11.01-84.09,22.01-168.17,33.02-252.26,37.61-.33,75.76-.31,114.42.09,20.95.22,41.75.54,62.39.97Z"/>
    </clipPath>
    <clipPath id="clippath-1">
      <path class="cls-7" d="m289.09,265.14c1.41,54.26,2.5,108.53,3.28,162.81.39,26.85.69,53.7.93,80.54h60.41c1.02-81.12,2.04-162.23,3.06-243.35-1.49,2.31-10.39,15.57-27.24,18.3-15.27,2.47-31.06-4.69-40.44-18.3Z"/>
    </clipPath>
    <clipPath id="clippath-2">
      <path class="cls-7" d="m268.96,169.52c-.34-.97-2.55-6.91-7.88-8.84-.36-.13-5.34-1.85-8.75,1.05-6.87,5.84-6.15,29.51,4.36,36.96,4.82,3.42,10.26,2.4,12.7,1.74-.15-10.3-.29-20.61-.44-30.91Z"/>
    </clipPath>
    <clipPath id="clippath-3">
      <path class="cls-7" d="m377.17,169.52c.34-.97,2.55-6.91,7.88-8.84.36-.13,5.34-1.85,8.75,1.05,6.87,5.84,6.15,29.51-4.36,36.96-4.82,3.42-10.26,2.4-12.7,1.74.15-10.3.29-20.61.44-30.91Z"/>
    </clipPath>
    <clipPath id="clippath-4">
      <path class="cls-7" d="m385.99,431.71c1.07,3.19.73,5.89.64,6.51-.77,5.33-4.58,8.58-6.51,10.21-6.56,5.58-14.31,5.63-15.7,5.62-8.09-.08-14.11-4.35-15.7-5.49-2.69-1.91-2.69-2.64-4.85-3.57-2.43-1.05-4.48-1.02-13.66-.26-6.21.52-8.72.8-10.21-.89-.68-.77-1.18-1.98-.89-3.06.5-1.9,3.22-2.64,6.89-3.57,1.96-.5,4.79-1.07,8.3-1.28-2.2-.58-4.41-.97-6.64-1.15h0c-3.87-.36-7.14-.51-10.15-.58-3.28-.07-4.74-.05-8.62-.06-9.96,0-19.12-.31-21.13-3.19-.98-1.4-.83-2.68-.83-2.68s.11-1,.96-1.98c1.39-1.6,5.61-2.19,10.92-1.47.02-1.06.22-2.78,1.4-4.15,1.34-1.56,3.25-1.85,5.81-2.17,7.7-.98,12.52-1.25,12.52-1.25,0,0,4.09-.23,9.12-.6,4.71-.34,6.45-.54,10.96-.91,7.62-.63,11.42-.94,13.17-.94,2.82,0,11.07.12,20.04,4.34,4.76,2.24,11.82,5.56,14.17,12.57Z"/>
    </clipPath>
  </defs>
  <g>
    <path class="cls-20" d="m412.3,509.29c8.95,76.24,17.9,152.48,26.85,228.71.88,7.49,1.76,14.99,2.64,22.48h-109.28c-2.84-40.17-5.67-80.34-8.51-120.51-4.31,40.17-8.62,80.34-12.94,120.51h-108.6c11.01-84.09,22.01-168.17,33.02-252.26,37.61-.33,75.76-.31,114.42.09,20.95.22,41.75.54,62.39.97Z"/>
    <g class="cls-18">
      <path class="cls-3" d="m267.69,508.32h106.52v48.02c1.36.01,33.92.91,49.26,28.31,11.5,20.54,5.08,41.23,3.92,44.77-21.28,5.39-42.55,10.78-63.83,16.17-3.46-32.24-6.92-64.47-10.38-96.71-11.06-3.03-25.75-5.5-42.82-4.14-5,.4-9.67,1.08-13.98,1.94-3.88,32.12-7.76,64.24-11.63,96.36-11.6-.83-25.15-2.65-40-6.3-19.75-4.85-36.21-11.55-49.02-17.87,3.59-18.23,12.8-50.91,39.06-81.28,11.2-12.95,22.86-22.43,32.9-29.27Z"/>
      <path class="cls-6" d="m326.44,508.6c-.83,43.07-1.65,86.13-2.48,129.2-.09,4.89-.19,9.79-.28,14.68"/>
      <path class="cls-6" d="m345,508.32c-1.02,27.15-2.04,54.29-3.06,81.44-.42,6.89-4.14,12.65-9.53,14.64-3.14,1.15-6.08.75-7.8.33"/>
    </g>
    <g>
      <path class="cls-20" d="m419.3,135.52c-1.99-.28-5.1-.97-8.41-2.87-1.18-.68-4.51-2.74-7.59-7.05-4.51-6.3-4.87-12.34-6.02-17.58-3.79-17.29-16.7-28.34-18.7-30.01-8.65-7.21-17.66-9.58-21.62-10.58-10.76-2.72-19.84-1.74-24.91-.82-5.36,1.67-11.09-.66-13.58-5.33-2.18-4.09-1.51-9.28,1.72-12.91-5.08,2.36-8.45,6.88-8.61,11.76-.1,3.13,1.14,5.57,1.94,6.84-4.7-.93-13.3-2-23.58.46-12.19,2.92-19.93,9.17-21.62,10.58-2,1.67-14.91,12.71-18.7,30.01-1.15,5.24-1.51,11.28-6.02,17.58-3.08,4.31-6.41,6.36-7.59,7.05-3.31,1.91-6.43,2.6-8.41,2.87.7.62,3.3,2.75,7.25,2.87,4.15.13,6.96-2.03,7.66-2.6-6.36,13.44-5.58,21.95-3.42,27.36,1.43,3.57,3.68,6.36,3.83,11.22.2,6.2-3.16,11.4-6.16,14.91,2.35-.15,5.34-.75,7.93-2.74,4.49-3.43,4.93-8.78,6.02-8.62,1.7.24-2.64,12.78,3.28,23.12,3.67,6.41,9.54,8.94,8.55,13.48-.34,1.55-1.54,3.65-3.63,4.17-1.86.46-3.98-.44-5.47-2.26.13,1.13.64,4.2,3.15,6.5,4.16,3.8,10.14,2.11,11.08,1.85,4.63-1.31,7.38-4.8,7.93-5.47,4.87-5.92,24.94-18.05,47.83-27.28,22.89,9.23,42.96,21.36,47.83,27.28.55.67,3.3,4.17,7.93,5.47.94.27,6.93,1.95,11.08-1.85,2.51-2.3,3.02-5.37,3.15-6.5-1.5,1.82-3.62,2.72-5.47,2.26-2.08-.52-3.29-2.63-3.63-4.17-.99-4.53,4.88-7.07,8.55-13.48,5.92-10.34,1.59-22.88,3.28-23.12,1.09-.16,1.53,5.19,6.02,8.62,2.6,1.98,5.58,2.58,7.93,2.74-3-3.52-6.35-8.71-6.16-14.91.15-4.86,2.4-7.64,3.83-11.22,2.16-5.42,2.94-13.93-3.42-27.36.7.57,3.51,2.73,7.66,2.6,3.96-.13,6.55-2.25,7.25-2.87Z"/>
      <path class="cls-9" d="m296.34,244.61c.36,1.99.71,5.4-.32,9.39-1.56,6.06-5.33,9.73-6.93,11.13,1.37,2.15,10.64,16.19,28.28,18.61,15.12,2.08,30.47-5.19,39.4-18.61-1.65-1.31-4.07-3.59-5.84-7.11-3.64-7.24-1.84-14.31-1.28-16.24-17.77.94-35.54,1.89-53.31,2.83Z"/>
      <path class="cls-2" d="m289.09,265.14c1.41,54.26,2.5,108.53,3.28,162.81.39,26.85.69,53.7.93,80.54h60.41c1.02-81.12,2.04-162.23,3.06-243.35-1.49,2.31-10.39,15.57-27.24,18.3-15.27,2.47-31.06-4.69-40.44-18.3Z"/>
      <g class="cls-15">
        <g class="cls-17">
          <path class="cls-13" d="m355.36,377c-2.46,67.68-26.17,116.13-56.15,121.18-5.9.99-14.15.66-24.86-4.74v22.82h93.97v-134.52c-4.32-1.58-8.64-3.17-12.96-4.75Z"/>
        </g>
      </g>
      <path class="cls-9" d="m377.17,169.52c.34-.97,2.55-6.91,7.88-8.84.36-.13,5.34-1.85,8.75,1.05,6.87,5.84,6.15,29.51-4.36,36.96-4.82,3.42-10.26,2.4-12.7,1.74.15-10.3.29-20.61.44-30.91Z"/>
      <path class="cls-9" d="m268.96,169.52c-.34-.97-2.55-6.91-7.88-8.84-.36-.13-5.34-1.85-8.75,1.05-6.87,5.84-6.15,29.51,4.36,36.96,4.82,3.42,10.26,2.4,12.7,1.74-.15-10.3-.29-20.61-.44-30.91Z"/>
      <path class="cls-10" d="m356.77,265.14c11.48-.35,36.53-.66,57.46,3.28,3.69.69,8.73,1.8,14.23,5.11,10.71,6.45,15.44,16.62,17.15,20.43,3.88,8.66,4.38,16.09,4.74,20.8,1.48,19.16,4.76,38.19,11.31,76.25,1.4,8.15,2.78,16.3,4.2,24.44,3.84,22.01,5.47,30.49,1.64,40.86-.76,2.07-2.85,7.14-7.3,12.4-10.28,12.15-24.42,14.88-29.37,15.6,12.77,40.95,25.54,81.91,38.31,122.86-13.34,5.93-25.09,10.4-34.48,13.68-15.26,5.34-38.81,12.65-68.07,18-.1.02-.24.04-.34.06-4.8-42.28-9.02-85.77-12.55-130.43-5.79-73.33-9.24-143.96-10.82-211.62,4.63-10.58,9.26-21.15,13.89-31.73Z"/>
      <path class="cls-10" d="m289.09,265.14c-11.88-.37-35.8-.61-56.31,3.28-3.78.72-8.78,1.83-14.23,5.11-10.71,6.45-15.44,16.62-17.15,20.43-3.89,8.66-4.38,16.09-4.74,20.8-1.48,19.16-4.76,38.19-11.31,76.25-2.25,13.08-3.21,19.65-4.2,24.44-4.81,23.52-8.89,32.42-6.2,46.82.85,4.56,1.93,10.05,5.79,15.83,9.55,14.33,27.12,16.95,31.92,17.51-11.6,37.19-23.19,74.38-34.79,111.57,10.63,4.74,22.13,9.36,34.48,13.68,24.55,8.59,47.54,14.25,68.07,18,5.04-41.98,9.4-85.46,12.89-130.37,5.75-73.96,8.58-144.64,9.23-211.62-4.48-10.58-8.96-21.15-13.44-31.73Z"/>
      <path class="cls-14" d="m296.34,244.61c4.89,2.36,14.66,6.28,27.49,6.03,11.57-.22,20.41-3.73,25.19-6.05-.91,1.95-10.7,21.94-32.5,25.51-13.29,2.17-23.78-2.95-27.44-4.97,1.54-1.33,4.04-3.86,5.77-7.79,2.45-5.59,1.85-10.66,1.49-12.73Z"/>
      <g class="cls-11">
        <path class="cls-14" d="m268.44,173.02c-.25-.69-1.83-4.95-5.65-6.33-.26-.09-3.83-1.32-6.26.75-4.92,4.19-4.4,21.14,3.13,26.47,3.46,2.45,7.35,1.72,9.1,1.25-.1-7.38-.21-14.76-.31-22.14Z"/>
      </g>
      <g class="cls-19">
        <path class="cls-14" d="m377.68,173.02c.25-.69,1.83-4.95,5.65-6.33.26-.09,3.83-1.32,6.26.75,4.92,4.19,4.4,21.14-3.13,26.47-3.46,2.45-7.35,1.72-9.1,1.25.1-7.38.21-14.76.31-22.14Z"/>
      </g>
      <path class="cls-9" d="m150,448.71c-.2-.04-1.38-.27-2.36.49-.91.71-1.16,1.89-1.02,2.68.34,1.92,3.23,2.86,4.47,3.32,13.97,5.22,27.68,8.1,36.89,13.79.49.3,2.48,1.55,4.98,3.19,7.02,4.62,7.65,5.59,10.47,7.15,6.13,3.39,12.02,3.74,13.92,3.83,4.59.22,9.27.44,13.4-2.68,4.64-3.51,5.63-9.01,5.87-10.72-28.87-7.01-57.75-14.03-86.62-21.04Z"/>
      <path class="cls-1" d="m416.2,371.03c.68,17.82,1.36,35.63,2.04,53.45,4.2,1.08,8.4,2.16,12.6,3.23-4.88-18.89-9.76-37.79-14.64-56.68Z"/>
      <path class="cls-10" d="m430.84,427.71c-16.73-4.58-33.46-9.16-50.2-13.74-5.94-1.63-12.3-.91-17.66,2.12-8.52,4.82-14.56,12.76-16.2,21.9-2.14,11.93,4.02,21.34,5.59,23.59,5.99,6.36,15.71,14.72,29.62,19.91,20.28,7.58,39.03,4.53,46.47,3.23,1-.18,1.82-.34,2.36-.44,0-18.86.01-37.72.02-56.58Z"/>
      <path class="cls-14" d="m297.01,433.78c.26.89.85,2.26,2.17,3.23,2.4,1.76,5.78,1.13,7.85-.32,1.22-.85,1.89-1.91,2.23-2.55-4.08-.12-8.17-.24-12.25-.35Z"/>
      <g>
        <rect class="cls-3" x="345.46" y="470.45" width="10.91" height="3.7"/>
        <rect class="cls-3" x="357.88" y="470.45" width="10.91" height="3.7"/>
        <g>
          <path class="cls-20" d="m124.8,310.68l14.76,130.69c.33,2.94,2.46,5.37,5.33,6.08,39.43,9.76,78.86,19.52,118.28,29.28-5.64-50.78-11.28-101.56-16.93-152.33-.36-3.21-2.84-5.77-6.04-6.23-35.79-5.1-71.59-10.2-107.38-15.3-4.59-.65-8.55,3.2-8.03,7.8Z"/>
          <path class="cls-21" d="m263.18,476.73h117.24c1.52,0,2.76-1.23,2.76-2.76v-6.1h-120.98c.33,2.95.66,5.9.98,8.85Z"/>
          <path class="cls-3" d="m383.18,467.88c-37.99-8.65-75.97-17.3-113.96-25.96h-9.85c.94,8.65,1.88,17.3,2.83,25.96h120.98Z"/>
          <rect class="cls-3" x="272.82" y="470.45" width="40.85" height="3.7"/>
          <rect class="cls-3" x="319.28" y="470.45" width="10.91" height="3.7"/>
          <path class="cls-21" d="m259.96,446.36h6.7s64.05,16.01,68.14,17.03c-24.34.01-48.67.03-73.01.04-.61-5.69-1.22-11.38-1.83-17.07Z"/>
        </g>
      </g>
      <path class="cls-1" d="m440.02,429.76c-20.78-5.76-41.56-11.52-62.34-17.28-3.15-.91-8.5-2.01-15.05-1.2-5.12.64-9.15,2.23-11.8,3.53,6.2,1.61,12.4,3.21,18.6,4.82-.19-.42-.38-1.04-.13-1.59,1.48-3.32,16.97.85,32.64,4.4,8.75,1.98,21.76,4.71,38.09,7.32Z"/>
      <path class="cls-1" d="m430.83,484.32c2.94,9.43,5.88,18.87,8.82,28.3-5.23-6.46-10.22-8.63-13.68-9.46-9.86-2.34-14.19,4.62-26.55,2.55-1.07-.18-5.69-1.74-14.94-4.85-9.17-3.09-10.44-3.71-13.28-4.09-3.99-.53-10.12-.45-18.13,3.19-.3-7.6-.6-15.2-.9-22.81,6.69-.04,13.39-.08,20.08-.12,5.23,2.55,11.82,5.15,19.63,6.93,16.27,3.7,30.22,2.12,38.94.35Z"/>
      <path class="cls-1" d="m217.01,483.14c-4.1,12.66-8.21,25.32-12.31,37.98,5.39-8.85,10.78-17.7,16.17-26.55,2.04.25,6.35.51,11.19-1.5,6.02-2.5,9.15-6.98,10.21-8.68,1.47.77,2.94,1.53,4.41,2.3,8.67,4.53,18.33,6.84,28.11,6.74,6.44-.06,12.88-.13,19.33-.19l.72-16.52h-31.65c-8.87-2.2-17.74-4.39-26.61-6.59-.36,1.8-1.26,4.95-3.83,7.79-5.8,6.42-14.76,5.34-15.73,5.21Z"/>
      <g>
        <path class="cls-9" d="m317.48,94h3.41c-1.19-.05-2.32-.04-3.41,0Z"/>
        <path class="cls-9" d="m377.57,149.34c-.32-1.42-.72-2.72-1.19-4.13-2.61-7.68-5.85-13.03-8.57-17.51-4.98-8.2-10.34-17.05-20.8-24.26-4.06-2.8-12.18-8.26-23.9-9.3,0,0,0,0,0,0v-.02c-.06,0-.12,0-.17.01-.06,0-.12,0-.17-.01v.02s0,0,0,0c-11.72,1.04-19.83,6.5-23.9,9.3-10.45,7.22-15.82,16.06-20.8,24.26-2.72,4.49-5.97,9.84-8.57,17.51-.48,1.4-.87,2.71-1.19,4.13-6.36,28.06-.63,50.24-.63,50.24,1.62,5.53,3.57,9.85,4.98,12.99,2.33,5.17,5.3,11.75,10.38,18.38,3.61,4.71,9.44,12.32,19.57,17.01,7.54,3.49,14.74,4.1,20.34,3.91,5.59.19,12.8-.41,20.34-3.91,10.13-4.69,15.96-12.3,19.57-17.01,5.08-6.63,8.05-13.22,10.38-18.38,1.42-3.14,3.36-7.46,4.98-12.99,0,0,5.72-22.17-.63-50.24Z"/>
        <path class="cls-9" d="m324.97,94h3.41c-1.08-.04-2.22-.05-3.41,0Z"/>
      </g>
      <path class="cls-4" d="m320.65,175.78c-.04,2.7-.47,7.5-2.98,12.83-1.51,3.21-3.36,5.72-5.03,7.57-1.6,1.78-1.21,4.58.84,5.83,1.16.71,2.6,1.35,4.32,1.7,4.07.82,7.29-.51,8.36-1.01"/>
      <path class="cls-20" d="m333.04,158.82c-.43-.48-1.11-1.37-1.1-2.47.03-4.19,9.86-8.1,18.05-8.45,3.22-.14,8.4-.28,12.8,3.21,1.82,1.45,2.95,3.09,3.62,4.24-2.23-1.24-8.82-4.52-17.61-3.49-8.33.98-13.8,5.26-15.76,6.96Z"/>
      <g>
        <path class="cls-14" d="m335.23,168.81c.36-1.53,1.44-5.17,4.76-8.11,4.01-3.56,9.59-4.59,14.35-3.25,1.33.38,6.8,1.92,8.75,6.95.8,2.07,1.28,5.44-.1,7.46-2.89,4.23-14.04,2.84-27.76-3.06Z"/>
        <g>
          <path class="cls-2" d="m334.91,178.04c.96.86,5.42,4.69,12.12,4.48,7.84-.24,12.43-5.82,13.08-6.64.16-.43,2.54-7.17-1.39-12.02-4-4.93-11.6-4.28-16.18-1.82-5.39,2.89-8.45,9.27-7.63,16Z"/>
          <path class="cls-20" d="m334.88,178.16c-.26-.97-1.77-7.1,2.03-12.67,4.87-7.14,13.81-6.45,14.43-6.39,1.29.12,6.91.65,9.97,5.17.51.76,2.87,4.24,1.54,8.04-.68,1.93-2.01,3.12-2.77,3.69.31-1.1.63-2.89.24-4.97-1.11-5.85-6.84-8.36-7.18-8.5-4.95-2.07-10.47-.34-13.93,2.83-5.44,4.97-4.41,12.22-4.32,12.8Z"/>
          <path class="cls-20" d="m356.96,173.46c-1.13,5.38-6.4,8.82-11.78,7.7-5.38-1.13-8.82-6.4-7.7-11.78,1.13-5.38,6.4-8.82,11.78-7.7,5.38,1.13,8.82,6.4,7.7,11.78Z"/>
          <circle class="cls-2" cx="349.62" cy="167.07" r="3.69"/>
        </g>
      </g>
      <g>
        <path class="cls-14" d="m304.41,169.22c-.36-1.53-1.44-5.17-4.76-8.11-4.01-3.56-9.59-4.59-14.35-3.25-1.33.38-6.8,1.92-8.75,6.95-.8,2.07-1.28,5.44.1,7.46,2.89,4.23,14.04,2.84,27.76-3.06Z"/>
        <g>
          <path class="cls-2" d="m304.73,178.45c-.96.86-5.42,4.69-12.12,4.48-7.84-.24-12.43-5.82-13.08-6.64-.16-.43-2.54-7.17,1.39-12.02,4-4.93,11.6-4.28,16.18-1.82,5.39,2.89,8.45,9.27,7.63,16Z"/>
          <path class="cls-20" d="m304.76,178.56c.26-.97,1.77-7.1-2.03-12.67-4.87-7.14-13.81-6.45-14.43-6.39-1.29.12-6.91.65-9.97,5.17-.51.76-2.87,4.24-1.54,8.04.68,1.93,2.01,3.12,2.77,3.69-.31-1.1-.63-2.89-.24-4.97,1.11-5.85,6.84-8.36,7.18-8.5,4.95-2.07,10.47-.34,13.93,2.83,5.44,4.97,4.41,12.22,4.32,12.8Z"/>
          <path class="cls-20" d="m282.68,173.86c1.13,5.38,6.4,8.82,11.78,7.7,5.38-1.13,8.82-6.4,7.7-11.78-1.13-5.38-6.4-8.82-11.78-7.7-5.38,1.13-8.82,6.4-7.7,11.78Z"/>
          <circle class="cls-2" cx="296.1" cy="168.61" r="3.69"/>
        </g>
      </g>
      <path class="cls-4" d="m303.61,221.05c5.49,1.33,13.96,2.65,24.11,1.3,6.6-.88,12.08-2.64,16.2-4.33"/>
      <path class="cls-4" d="m310.61,227.83c3.37.82,8.57,1.62,14.8.8,4.05-.54,7.41-1.62,9.94-2.66"/>
      <path class="cls-20" d="m306.15,158.82c.43-.48,1.11-1.37,1.1-2.47-.03-4.19-9.86-8.1-18.05-8.45-3.22-.14-8.4-.28-12.8,3.21-1.82,1.45-2.95,3.09-3.62,4.24,2.23-1.24,8.82-4.52,17.61-3.49,8.33.98,13.8,5.26,15.76,6.96Z"/>
      <path class="cls-20" d="m293.43,114.24c-.16,1-3.18,21.75,12.34,34.55,10.79,8.9,23.4,8.08,26.21,7.83-1.57-.68-11.08-5.02-14.81-15.96-3.16-9.28-.06-17.2.77-19.15.12,3.21.63,7.51,2.24,12.32,2.31,6.92,5.88,11.85,8.39,14.78,0,0,.54.58,1.15,1.16,6.57,6.35,21.12,11.46,27.41,13.51-2.5-3.24-6.38-9.15-8.25-17.46-1.28-5.71-1.2-10.66-.85-14.13,4.16,16.14,10.34,23.86,15.49,27.91,2.17,1.71,8.32,6.04,12.08,14.13,1.18,2.53,1.82,4.76,2.18,6.29,3.3-8.39,8.82-26.01,4.63-47.32-1.4-7.1-3.49-17.14-11.06-26.89-15.98-20.56-42.38-21.82-46.98-21.96-2.63-.08-35.63-.47-55.63,26.99-14.92,20.48-16.6,48.24-4.44,71.31-.2-3.28-.12-8.23,1.56-13.79,3.66-12.07,11.7-16.39,18.38-26.43,3.73-5.6,7.97-14.37,9.19-27.7Z"/>
    </g>
    <path class="cls-20" d="m285.68,250.76c6.11,9.11,12.21,18.21,18.32,27.32-.51,6.43-1.02,12.85-1.53,19.28-7.41-10.63-14.81-21.27-22.22-31.9,1.81-4.9,3.62-9.79,5.43-14.69Z"/>
    <path class="cls-20" d="m285.68,250.76h10.85c-.06.95-.19,1.99-.44,3.1-.72,3.29-2.12,5.82-3.29,7.53-2.38-3.54-4.75-7.09-7.13-10.63Z"/>
    <path class="cls-1" d="m285.68,250.76c-5.13,4.91-10.25,9.83-15.38,14.74,1.71.52,4.18,1.54,6.38,3.64,4.17,3.99,4.25,8.95,6.44,16.29,1.01,3.37,2.73,8.16,5.81,13.71,1.73-3.59,3.01-6.59,3.88-8.69,2.2-5.35,2.76-7.55,5.06-9.56,2.07-1.81,4.44-2.51,6.13-2.81-6.11-9.11-12.21-18.21-18.32-27.32Z"/>
    <path class="cls-20" d="m359.74,250.72c-6.11,9.11-12.21,18.21-18.32,27.32.51,6.43,1.02,12.85,1.53,19.28,7.41-10.63,14.81-21.27,22.22-31.9-1.81-4.9-3.62-9.79-5.43-14.69Z"/>
    <path class="cls-20" d="m359.74,250.72c-3.62,0-7.24,0-10.85,0,.06.95.19,1.99.44,3.1.72,3.29,2.12,5.82,3.29,7.53,2.38-3.54,4.75-7.09,7.13-10.63Z"/>
    <path class="cls-1" d="m359.74,250.72c5.13,4.91,10.25,9.83,15.38,14.74-1.71.52-4.18,1.54-6.38,3.64-4.17,3.99-4.25,8.95-6.44,16.29-1.01,3.37-2.73,8.16-5.81,13.71-1.73-3.59-3.01-6.59-3.88-8.69-2.2-5.35-2.76-7.55-5.06-9.56-2.07-1.81-4.44-2.51-6.13-2.81,6.11-9.11,12.21-18.21,18.32-27.32Z"/>
    <path class="cls-20" d="m181.6,465.26c3.49,3.87,8.95,9.38,16.51,15.05,4.13,3.1,6.26,4.67,9.36,5.96,2.25.93,15.58,6.11,26.55-1.53,6.23-4.34,8.64-10.67,9.53-13.62-9.36-2.27-18.72-4.54-28.09-6.81-11.29.32-22.58.63-33.87.95Z"/>
    <path class="cls-9" d="m150,448.71c-.2-.04-1.38-.27-2.36.49-.91.71-1.16,1.89-1.02,2.68.34,1.92,3.23,2.86,4.47,3.32,13.97,5.22,27.68,8.1,36.89,13.79.49.3,2.48,1.55,4.98,3.19,7.02,4.62,7.65,5.59,10.47,7.15,6.13,3.39,12.02,3.74,13.92,3.83,4.59.22,9.27.44,13.4-2.68,4.64-3.51,5.63-9.01,5.87-10.72-28.87-7.01-57.75-14.03-86.62-21.04Z"/>
    <path class="cls-20" d="m362.98,416.09c2.44-.19,10.85-.54,18.35,5.2,2.21,1.69,8.2,6.28,8.81,13.66.7,8.5-6.14,15.59-12,18.64-8.65,4.5-19.97,2.73-28.66-4.49,4.5-11,9-22.01,13.5-33.01Z"/>
    <g>
      <path class="cls-9" d="m385.99,431.71c1.07,3.19.73,5.89.64,6.51-.77,5.33-4.58,8.58-6.51,10.21-6.56,5.58-14.31,5.63-15.7,5.62-8.09-.08-14.11-4.35-15.7-5.49-2.69-1.91-2.69-2.64-4.85-3.57-2.43-1.05-4.48-1.02-13.66-.26-6.21.52-8.72.8-10.21-.89-.68-.77-1.18-1.98-.89-3.06.5-1.9,3.22-2.64,6.89-3.57,1.96-.5,4.79-1.07,8.3-1.28-2.2-.58-4.41-.97-6.64-1.15h0c-3.87-.36-7.14-.51-10.15-.58-3.28-.07-4.74-.05-8.62-.06-9.96,0-19.12-.31-21.13-3.19-.98-1.4-.83-2.68-.83-2.68s.11-1,.96-1.98c1.39-1.6,5.61-2.19,10.92-1.47.02-1.06.22-2.78,1.4-4.15,1.34-1.56,3.25-1.85,5.81-2.17,7.7-.98,12.52-1.25,12.52-1.25,0,0,4.09-.23,9.12-.6,4.71-.34,6.45-.54,10.96-.91,7.62-.63,11.42-.94,13.17-.94,2.82,0,11.07.12,20.04,4.34,4.76,2.24,11.82,5.56,14.17,12.57Z"/>
      <g class="cls-16">
        <g>
          <path class="cls-14" d="m298.89,418.21c-.9,3.3-.97,8.05,2.61,9.67,1.65.83,3.54.62,5.35.66,1.86-.02,3.71-.07,5.57-.15,7.43-.3,14.86-.79,22.28-1.35.55-.04,1.03.37,1.07.92.04.57-.4,1.06-.97,1.08-7.45.24-14.91.42-22.37.4-1.87,0-3.73-.03-5.6-.09-2.35-.07-4.95-.08-6.8-1.78-2.46-2.25-2.31-6.85-1.14-9.37h0Z"/>
          <path class="cls-14" d="m352.13,433.21c-4.05-.9-7.97-.19-11.73,1.57-3.91,1.73-8.45,1.69-12.46.36-.09-.03-.06-.19.05-.16,2.02.48,4.11.69,6.15.52,4.34-.2,7.56-3.2,11.79-4.05,2.14-.45,4.36-.47,6.52-.21.55.07.94.56.87,1.11-.07.57-.62.98-1.19.86h0Z"/>
        </g>
      </g>
    </g>
  </g>
  <g>
    <g>
      <path class="cls-2" d="m362.48,345.95c0-2.36,0-4.72,0-7.08q0-.3.31-.3c3.76,0,7.52,0,11.29,0q.3,0,.3.29c0,.97,0,1.95,0,2.92,0,.04,0,.09,0,.13,0,.14-.02.16-.16.17-.06,0-.12,0-.18,0-2.39,0-4.78,0-7.17,0q-.29,0-.29.3c0,.54,0,1.08,0,1.62,0,.06,0,.11,0,.17,0,.07.05.11.12.11.07,0,.13,0,.2,0,2.38,0,4.75,0,7.13,0,.39,0,.35.02.35.34,0,.88,0,1.75,0,2.63,0,.05,0,.1,0,.15,0,.13-.03.15-.17.16-.06,0-.12,0-.18,0-2.38,0-4.77,0-7.15,0q-.3,0-.3.3c0,.58,0,1.15,0,1.73,0,.06,0,.11,0,.17,0,.07.04.1.11.1.07,0,.13,0,.2,0,2.4,0,4.79,0,7.19,0q.3,0,.3.3c0,.97,0,1.94,0,2.9,0,.02,0,.04,0,.06,0,.24,0,.25-.25.25-3.8,0-7.6,0-11.4,0-.24,0-.25,0-.25-.25,0-2.39,0-4.78,0-7.17Z"/>
      <path class="cls-2" d="m392.57,338.58c2.35,0,4.71,0,7.06,0,.37,0,.34,0,.34.34,0,1,0,2,0,3,0,.28,0,.28-.27.28-1.29,0-2.57,0-3.86,0-.29,0-.28-.02-.28.28,0,2.61-.01,5.22,0,7.83,0,.9-.37,1.57-1.04,2.1-.62.49-1.34.76-2.11.89-.26.04-.52.08-.79.08-.17,0-.19-.02-.19-.19,0-.06,0-.12,0-.18,0-3.5,0-7,0-10.5,0-.33.01-.31-.31-.31-1.88,0-3.76,0-5.64,0q-.29,0-.29-.3c0-1.02,0-2.03,0-3.05,0-.27,0-.27.26-.27,2.38,0,4.75,0,7.13,0Z"/>
      <path class="cls-8" d="m385.15,346.29c.04-.07.03-.14.03-.21,0-.78,0-1.56,0-2.33,0-.07-.03-.17.04-.2.08-.03.12.06.17.11,1.24,1.24,2.48,2.48,3.72,3.71.11.11.16.22.15.37,0,1.78,0,3.57,0,5.35,0,.27,0,.27-.27.27-.56,0-1.13,0-1.69,0-.13,0-.24-.03-.31-.14-.02-.03-.05-.06-.07-.08-.49-.5-.98-1-1.46-1.51-.58-.61-1.16-1.21-1.74-1.82-.55-.57-1.1-1.15-1.65-1.72-.58-.6-1.15-1.2-1.73-1.8-.26-.27-.53-.55-.79-.82-.04-.04-.08-.09-.15-.12-.04.07-.03.13-.03.2,0,.58,0,1.15,0,1.73,0,.06.02.13-.02.19-.07,0-.1-.05-.14-.09-1.26-1.26-2.51-2.51-3.77-3.77-.08-.08-.12-.17-.12-.29,0-1.51,0-3.01,0-4.52,0-.2.02-.22.22-.22.77,0,1.54,0,2.32,0,.13,0,.22.05.3.14.37.41.74.81,1.12,1.22.5.55,1,1.09,1.5,1.64.31.33.61.67.92,1,.54.59,1.08,1.18,1.63,1.77.36.39.72.77,1.07,1.16.21.23.42.46.63.69.03.04.06.08.12.1Z"/>
      <path class="cls-12" d="m377.22,353.37c-1.2,0-2.17-.97-2.17-2.18,0-1.2.98-2.17,2.18-2.17,1.19,0,2.17.98,2.17,2.18,0,1.2-.98,2.17-2.18,2.17Z"/>
    </g>
    <path class="cls-5" d="m398.01,401.3h-34.82c-2.06,0-3.73-2-3.73-4.46v-36.63c7.59,0,15.17,0,22.76,0,6.51,0,13.02,0,19.53,0v36.63c0,2.46-1.67,4.46-3.73,4.46Z"/>
    <path class="cls-5" d="m359.46,360.22h42.31c0,3.84-.02,7.69-.02,11.53-7.05,3-14.1,6.01-21.14,9.01-7.05-3-14.09-6.01-21.14-9.01v-11.53Z"/>
  </g>
</svg>